<?xml version="1.0" standalone="no"?>
<svg width="1024" height="1024"
xmlns="http://www.w3.org/2000/svg" version="1.1">
<rect x="1" y="1" width="1024" height="1024"
fill="none" stroke="black" stroke-width="1" />
<polyline fill="none" stroke="#000000ff" stroke-width="2" points="459.42,146.93999999999994 459.42,146.93999999999994 474.3,146.93999999999994 474.3,132.05999999999995 459.42,132.05999999999995 444.54,132.05999999999995 444.54,117.17999999999995 444.54,102.29999999999995 429.66,102.29999999999995 429.66,117.17999999999995 429.66,132.05999999999995 414.78000000000003,132.05999999999995 399.90000000000003,132.05999999999995 399.90000000000003,146.93999999999994 414.78000000000003,146.93999999999994 429.66,146.93999999999994 429.66,161.81999999999994 429.66,176.70000000000005 444.54,176.70000000000005 459.42,176.70000000000005 459.42,191.58000000000004 444.54,191.58000000000004 429.66,191.58000000000004 429.66,206.46000000000004 429.66,221.34000000000003 414.78000000000003,221.34000000000003 414.78000000000003,206.46000000000004 414.78000000000003,191.58000000000004 399.90000000000003,191.58000000000004 399.90000000000003,206.46000000000004 399.90000000000003,221.34000000000003 385.02000000000004,221.34000000000003 370.14,221.34000000000003 370.14,236.22000000000003 385.02000000000004,236.22000000000003 399.90000000000003,236.22000000000003 399.90000000000003,251.10000000000002 399.90000000000003,265.98 414.78000000000003,265.98 429.66,265.98 429.66,280.86 414.78000000000003,280.86 399.90000000000003,280.86 399.90000000000003,295.74 399.90000000000003,310.62 385.02000000000004,310.62 385.02000000000004,295.74 385.02000000000004,280.86 370.14,280.86 355.26,280.86 355.26,265.98 370.14,265.98 385.02000000000004,265.98 385.02000000000004,251.10000000000002 370.14,251.10000000000002 355.26,251.10000000000002 355.26,236.22000000000003 355.26,221.34000000000003 340.38,221.34000000000003 340.38,236.22000000000003 340.38,251.10000000000002 325.5,251.10000000000002 310.62,251.10000000000002 310.62,265.98 325.5,265.98 340.38,265.98 340.38,280.86 340.38,295.74 355.26,295.74 370.14,295.74 370.14,310.62 355.26,310.62 340.38,310.62 340.38,325.5 340.38,340.38 325.5,340.38 325.5,325.5 325.5,310.62 310.62,310.62 310.62,325.5 310.62,340.38 295.74,340.38 280.86,340.38 280.86,355.26 295.74,355.26 310.62,355.26 310.62,370.14 310.62,385.02 325.5,385.02 340.38,385.02 340.38,399.9 325.5,399.9 310.62,399.9 310.62,414.78 310.62,429.65999999999997 295.74,429.65999999999997 295.74,414.78 295.74,399.9 280.86,399.9 265.98,399.9 265.98,385.02 280.86,385.02 295.74,385.02 295.74,370.14 280.86,370.14 265.98,370.14 265.98,355.26 265.98,340.38 251.10000000000002,340.38 251.10000000000002,355.26 251.10000000000002,370.14 236.22000000000003,370.14 221.34000000000003,370.14 221.34000000000003,385.02 236.22000000000003,385.02 251.10000000000002,385.02 251.10000000000002,399.9 251.10000000000002,414.78 265.98,414.78 280.86,414.78 280.86,429.65999999999997 265.98,429.65999999999997 251.10000000000002,429.65999999999997 251.10000000000002,444.53999999999996 251.10000000000002,459.41999999999996 236.22000000000003,459.41999999999996 236.22000000000003,444.53999999999996 236.22000000000003,429.65999999999997 221.34000000000003,429.65999999999997 221.34000000000003,444.53999999999996 221.34000000000003,459.41999999999996 206.46000000000004,459.41999999999996 191.58000000000004,459.41999999999996 191.58000000000004,474.29999999999995 206.46000000000004,474.29999999999995 221.34000000000003,474.29999999999995 221.34000000000003,489.17999999999995 221.34000000000003,504.05999999999995 236.22000000000003,504.05999999999995 251.10000000000002,504.05999999999995 251.10000000000002,518.9399999999999 236.22000000000003,518.9399999999999 221.34000000000003,518.9399999999999 221.34000000000003,533.8199999999999 221.34000000000003,548.7 206.46000000000004,548.7 206.46000000000004,533.8199999999999 206.46000000000004,518.9399999999999 191.58000000000004,518.9399999999999 176.70000000000005,518.9399999999999 176.70000000000005,504.05999999999995 191.58000000000004,504.05999999999995 206.46000000000004,504.05999999999995 206.46000000000004,489.17999999999995 191.58000000000004,489.17999999999995 176.70000000000005,489.17999999999995 176.70000000000005,474.29999999999995 176.70000000000005,459.41999999999996 161.82000000000005,459.41999999999996 161.82000000000005,474.29999999999995 161.82000000000005,489.17999999999995 146.94000000000005,489.17999999999995 132.06000000000006,489.17999999999995 132.06000000000006,504.05999999999995 146.94000000000005,504.05999999999995 161.82000000000005,504.05999999999995 161.82000000000005,518.9399999999999 161.82000000000005,533.8199999999999 176.70000000000005,533.8199999999999 191.58000000000004,533.8199999999999 191.58000000000004,548.7 176.70000000000005,548.7 161.82000000000005,548.7 161.82000000000005,563.5799999999999 161.82000000000005,578.46 146.94000000000005,578.46 146.94000000000005,563.5799999999999 146.94000000000005,548.7 132.06000000000006,548.7 132.06000000000006,563.5799999999999 132.06000000000006,578.46 117.18000000000006,578.46 102.30000000000001,578.46 102.30000000000001,593.3399999999999 117.18000000000006,593.3399999999999 132.06000000000006,593.3399999999999 132.06000000000006,608.22 132.06000000000006,623.0999999999999 146.94000000000005,623.0999999999999 146.94000000000005,608.22 146.94000000000005,593.3399999999999 161.82000000000005,593.3399999999999 176.70000000000005,593.3399999999999 176.70000000000005,578.46 176.70000000000005,563.5799999999999 191.58000000000004,563.5799999999999 191.58000000000004,578.46 191.58000000000004,593.3399999999999 206.46000000000004,593.3399999999999 221.34000000000003,593.3399999999999 221.34000000000003,608.22 206.46000000000004,608.22 191.58000000000004,608.22 191.58000000000004,623.0999999999999 206.46000000000004,623.0999999999999 221.34000000000003,623.0999999999999 221.34000000000003,637.98 221.34000000000003,652.8599999999999 236.22000000000003,652.8599999999999 236.22000000000003,637.98 236.22000000000003,623.0999999999999 251.10000000000002,623.0999999999999 265.98,623.0999999999999 265.98,608.22 265.98,593.3399999999999 280.86,593.3399999999999 280.86,608.22 280.86,623.0999999999999 295.74,623.0999999999999 310.62,623.0999999999999 310.62,637.98 295.74,637.98 280.86,637.98 280.86,652.8599999999999 280.86,667.74 265.98,667.74 265.98,652.8599999999999 265.98,637.98 251.10000000000002,637.98 251.10000000000002,652.8599999999999 251.10000000000002,667.74 236.22000000000003,667.74 221.34000000000003,667.74 221.34000000000003,682.6199999999999 236.22000000000003,682.6199999999999 251.10000000000002,682.6199999999999 251.10000000000002,697.5 251.10000000000002,712.38 265.98,712.38 265.98,697.5 265.98,682.6199999999999 280.86,682.6199999999999 295.74,682.6199999999999 295.74,667.74 295.74,652.8599999999999 310.62,652.8599999999999 310.62,667.74 310.62,682.6199999999999 325.5,682.6199999999999 340.38,682.6199999999999 340.38,697.5 325.5,697.5 310.62,697.5 310.62,712.38 325.5,712.38 340.38,712.38 340.38,727.26 340.38,742.14 355.26,742.14 355.26,727.26 355.26,712.38 370.14,712.38 385.02000000000004,712.38 385.02000000000004,697.5 385.02000000000004,682.6199999999999 399.90000000000003,682.6199999999999 399.90000000000003,697.5 399.90000000000003,712.38 414.78000000000003,712.38 429.66,712.38 429.66,727.26 414.78000000000003,727.26 399.90000000000003,727.26 399.90000000000003,742.14 399.90000000000003,757.02 385.02000000000004,757.02 385.02000000000004,742.14 385.02000000000004,727.26 370.14,727.26 370.14,742.14 370.14,757.02 355.26,757.02 340.38,757.02 340.38,771.9 355.26,771.9 370.14,771.9 370.14,786.78 370.14,801.66 385.02000000000004,801.66 385.02000000000004,786.78 385.02000000000004,771.9 399.90000000000003,771.9 414.78000000000003,771.9 414.78000000000003,757.02 414.78000000000003,742.14 429.66,742.14 429.66,757.02 429.66,771.9 444.54,771.9 459.42,771.9 459.42,786.78 444.54,786.78 429.66,786.78 429.66,801.66 444.54,801.66 459.42,801.66 459.42,816.54 459.42,831.42 474.3,831.42 474.3,816.54 474.3,801.66 489.18,801.66 504.06,801.66 504.06,786.78 504.06,771.9 518.94,771.9 518.94,786.78 518.94,801.66 533.82,801.66 548.7,801.66 548.7,816.54 533.82,816.54 518.94,816.54 518.94,831.42 518.94,846.3 504.06,846.3 504.06,831.42 504.06,816.54 489.18,816.54 489.18,831.42 489.18,846.3 474.3,846.3 459.42,846.3 459.42,861.18 474.3,861.18 489.18,861.18 489.18,876.06 489.18,890.9399999999999 504.06,890.9399999999999 504.06000000000006,876.06 504.06000000000006,861.18 518.94,861.18 533.82,861.18 533.82,846.3 533.82,831.42 548.7,831.42 548.7,846.3 548.7,861.18 563.58,861.18 578.46,861.18 578.46,876.06 563.58,876.06 548.7,876.06 548.7,890.9399999999999 563.58,890.9399999999999 578.46,890.9399999999999 578.46,905.8199999999999 578.46,920.6999999999999 593.34,920.6999999999999 593.34,905.8199999999999 593.34,890.9399999999999 608.22,890.9399999999999 623.1,890.9399999999999 623.1,876.06 608.22,876.06 593.34,876.06 593.34,861.18 593.34,846.3 578.46,846.3 563.58,846.3 563.58,831.42 578.46,831.42 593.34,831.42 593.34,816.54 593.34,801.66 608.22,801.66 608.22,816.54 608.22,831.42 623.1,831.42 623.1,816.54 623.1,801.66 637.98,801.66 652.86,801.66 652.86,786.78 637.98,786.78 623.1,786.78 623.1,771.9 623.1,757.02 608.22,757.02 593.34,757.02 593.34,742.14 608.22,742.14 623.1,742.14 623.1,727.26 623.1,712.38 637.98,712.38 637.98,727.26 637.98,742.14 652.86,742.14 667.74,742.14 667.74,757.02 652.86,757.02 637.98,757.02 637.98,771.9 652.86,771.9 667.74,771.9 667.74,786.78 667.74,801.66 682.62,801.66 682.62,786.78 682.62,771.9 697.5,771.9 712.38,771.9 712.38,757.02 697.5,757.02 682.62,757.02 682.62,742.14 682.62,727.26 667.74,727.26 652.86,727.26 652.86,712.38 667.74,712.38 682.62,712.38 682.62,697.5 682.62,682.6199999999999 697.5,682.6199999999999 697.5,697.5 697.5,712.38 712.38,712.38 712.38,697.5 712.38,682.6199999999999 727.26,682.6199999999999 742.14,682.6199999999999 742.14,667.74 727.26,667.74 712.38,667.74 712.38,652.8599999999999 712.38,637.98 697.5,637.98 682.62,637.98 682.62,623.0999999999999 697.5,623.0999999999999 712.38,623.0999999999999 712.38,608.22 712.38,593.3399999999999 727.26,593.3399999999999 727.26,608.22 727.26,623.0999999999999 742.14,623.0999999999999 757.02,623.0999999999999 757.02,637.98 742.14,637.98 727.26,637.98 727.26,652.8599999999999 742.14,652.8599999999999 757.02,652.8599999999999 757.02,667.74 757.02,682.6199999999999 771.9,682.6199999999999 771.9,667.74 771.9,652.8599999999999 786.78,652.8599999999999 801.66,652.8599999999999 801.66,637.98 786.78,637.98 771.9,637.98 771.9,623.0999999999999 771.9,608.22 757.02,608.22 742.14,608.22 742.14,593.3399999999999 757.02,593.3399999999999 771.9,593.3399999999999 771.9,578.46 771.9,563.5799999999999 786.78,563.5799999999999 786.78,578.46 786.78,593.3399999999999 801.66,593.3399999999999 801.66,578.46 801.66,563.5799999999999 816.54,563.5799999999999 831.4200000000001,563.5799999999999 831.4200000000001,548.7 816.54,548.7 801.66,548.7 801.66,533.8199999999999 801.66,518.9399999999999 786.78,518.9399999999999 771.9,518.9399999999999 771.9,504.05999999999995 786.78,504.05999999999995 801.66,504.05999999999995 801.66,489.17999999999995 801.66,474.29999999999995 816.54,474.29999999999995 816.54,489.17999999999995 816.54,504.05999999999995 831.4200000000001,504.05999999999995 846.3,504.05999999999995 846.3,518.9399999999999 831.4200000000001,518.9399999999999 816.54,518.9399999999999 816.54,533.8199999999999 831.4200000000001,533.8199999999999 846.3,533.8199999999999 846.3,548.7 846.3,563.5799999999999 861.1800000000001,563.5799999999999 861.1800000000001,548.7 861.1800000000001,533.8199999999999 876.06,533.8199999999999 890.94,533.8199999999999 890.94,518.9399999999999 876.06,518.9399999999999 861.1800000000001,518.9399999999999 861.1800000000001,504.05999999999995 861.1800000000001,489.17999999999995 846.3,489.17999999999995 831.4200000000001,489.17999999999995 831.4200000000001,474.29999999999995 846.3,474.29999999999995 861.1800000000001,474.29999999999995 861.1800000000001,459.41999999999996 861.1800000000001,444.53999999999996 876.06,444.53999999999996 876.06,459.41999999999996 876.06,474.29999999999995 890.94,474.29999999999995 890.94,459.41999999999996 890.94,444.53999999999996 905.8199999999999,444.53999999999996 920.7,444.53999999999996 920.7,429.65999999999997 905.8199999999999,429.65999999999997 890.94,429.65999999999997 890.94,414.78 890.94,399.9 876.06,399.9 876.06,414.78 876.06,429.65999999999997 861.1800000000001,429.65999999999997 846.3,429.65999999999997 846.3,444.53999999999996 846.3,459.41999999999996 831.4200000000001,459.41999999999996 831.4200000000001,444.53999999999996 831.4200000000001,429.65999999999997 816.54,429.65999999999997 801.66,429.65999999999997 801.66,414.78 816.54,414.78 831.4200000000001,414.78 831.4200000000001,399.9 816.54,399.9 801.66,399.9 801.66,385.02 801.66,370.14 786.78,370.14 786.78,385.02 786.78,399.9 771.9,399.9 757.02,399.9 757.02,414.78 757.02,429.65999999999997 742.14,429.65999999999997 742.14,414.78 742.14,399.9 727.26,399.9 712.38,399.9 712.38,385.02 727.26,385.02 742.14,385.02 742.14,370.14 742.14,355.26 757.02,355.26 757.02,370.14 757.02,385.02 771.9,385.02 771.9,370.14 771.9,355.26 786.78,355.26 801.66,355.26 801.66,340.38 786.78,340.38 771.9,340.38 771.9,325.5 771.9,310.62 757.02,310.62 757.02,325.5 757.02,340.38 742.14,340.38 727.26,340.38 727.26,355.26 727.26,370.14 712.38,370.14 712.38,355.26 712.38,340.38 697.5,340.38 682.62,340.38 682.62,325.5 697.5,325.5 712.38,325.5 712.38,310.62 697.5,310.62 682.62,310.62 682.62,295.74 682.62,280.86 667.74,280.86 667.74,295.74 667.74,310.62 652.86,310.62 637.98,310.62 637.98,325.5 637.98,340.38 623.1,340.38 623.1,325.5 623.1,310.62 608.22,310.62 593.34,310.62 593.34,295.74 608.22,295.74 623.1,295.74 623.1,280.86 623.1,265.98 637.98,265.98 637.98,280.86 637.98,295.74 652.86,295.74 652.86,280.86 652.86,265.98 667.74,265.98 682.62,265.98 682.62,251.10000000000002 667.74,251.10000000000002 652.86,251.10000000000002 652.86,236.22000000000003 652.86,221.34000000000003 637.98,221.34000000000003 637.98,236.22000000000003 637.98,251.10000000000002 623.1,251.10000000000002 608.22,251.10000000000002 608.22,265.98 608.22,280.86 593.34,280.86 593.34,265.98 593.34,251.10000000000002 578.46,251.10000000000002 563.58,251.10000000000002 563.58,236.22000000000003 578.46,236.22000000000003 593.34,236.22000000000003 593.34,221.34000000000003 578.46,221.34000000000003 563.58,221.34000000000003 563.58,206.46000000000004 563.58,191.58000000000004 548.7,191.58000000000004 548.7,206.46000000000004 548.7,221.34000000000003 533.82,221.34000000000003 518.94,221.34000000000003 518.94,236.22000000000003 518.94,251.10000000000002 504.06,251.10000000000002 504.06,236.22000000000003 504.06,221.34000000000003 489.18,221.34000000000003 474.3,221.34000000000003 474.3,206.46000000000004 489.18,206.46000000000004 504.06,206.46000000000004 504.06,191.58000000000004 504.06,176.70000000000005 518.94,176.70000000000005 518.94,191.58000000000004 518.94,206.46000000000004 533.82,206.46000000000004 533.82,191.58000000000004 533.82,176.70000000000005 548.7,176.70000000000005 563.58,176.70000000000005 563.58,161.81999999999994 548.7,161.81999999999994 533.82,161.81999999999994 533.82,146.93999999999994 533.82,132.05999999999995 518.94,132.05999999999995 518.94,146.93999999999994 518.94,161.81999999999994 504.06,161.81999999999994 489.18,161.81999999999994 489.18,176.70000000000005 489.18,191.58000000000004 474.3,191.58000000000004 474.3,176.70000000000005 474.3,161.81999999999994 459.42,161.81999999999994 444.54,161.81999999999994 444.54,146.93999999999994 459.42,146.93999999999994" />
</svg>