<?xml version="1.0" standalone="no"?>
<svg width="1024" height="1024"
xmlns="http://www.w3.org/2000/svg" version="1.1">
<rect x="1" y="1" width="1024" height="1024"
fill="none" stroke="black" stroke-width="1" />
<polyline fill="none" stroke="#000000ff" stroke-width="2" points="102.30000000000001,744.4258018860946 102.30000000000001,744.4258018860946 108.9518565326002,732.9044484069722 102.30000000000001,721.3830949278497 113.8213534791225,714.7312383952496 120.4732100117227,726.252591874372 133.77692307692308,726.252591874372 145.29827655604555,732.9044484069722 151.95013308864577,744.4258018860946 165.25384615384615,744.4258018860946 171.90570268644635,732.9044484069722 165.25384615384615,721.3830949278497 151.95013308864577,721.3830949278497 140.42877960952327,714.7312383952496 133.77692307692308,703.2098849161271 120.4732100117227,703.2098849161271 120.4732100117227,689.9061718509267 133.77692307692308,689.9061718509267 140.4287796095233,678.3848183718042 133.77692307692308,666.8634648926818 120.4732100117227,666.8634648926818 113.82135347912251,678.3848183718042 102.30000000000003,671.732961839204 108.95185653260022,660.2116083600815 102.30000000000003,648.6902548809591 102.30000000000003,635.3865418157586 108.95185653260023,623.8651883366362 102.30000000000004,612.3438348575137 113.82135347912251,605.6919783249134 120.47321001172271,617.213331804036 133.7769230769231,617.213331804036 145.29827655604558,623.8651883366362 151.95013308864577,635.3865418157586 165.25384615384615,635.3865418157586 165.25384615384615,648.6902548809591 151.95013308864577,648.6902548809591 145.29827655604558,660.2116083600815 151.95013308864577,671.732961839204 165.25384615384615,671.732961839204 171.90570268644638,660.2116083600815 183.42705616556884,666.8634648926818 176.77519963296862,678.3848183718042 183.42705616556884,689.9061718509267 183.42705616556884,703.2098849161271 176.77519963296862,714.7312383952496 183.42705616556884,726.252591874372 196.73076923076923,726.252591874372 203.38262576336942,714.7312383952496 196.73076923076923,703.2098849161271 196.73076923076923,689.9061718509267 203.38262576336942,678.3848183718042 196.73076923076923,666.8634648926818 208.2521227098917,660.2116083600815 214.9039792424919,671.732961839204 228.2076923076923,671.732961839204 239.7290457868148,678.3848183718042 246.380902319415,689.9061718509267 259.68461538461537,689.9061718509267 259.68461538461537,703.2098849161271 246.380902319415,703.2098849161271 239.7290457868148,714.7312383952496 228.2076923076923,721.3830949278497 214.9039792424919,721.3830949278497 208.2521227098917,732.9044484069722 214.9039792424919,744.4258018860946 228.2076923076923,744.4258018860946 234.8595488402925,732.9044484069722 246.380902319415,726.252591874372 259.68461538461537,726.252591874372 266.3364719172156,714.7312383952496 277.85782539633806,721.3830949278497 271.2059688637379,732.9044484069722 277.85782539633806,744.4258018860946 291.16153846153844,744.4258018860946 297.81339499413866,732.9044484069722 291.16153846153844,721.3830949278497 302.68289194066097,714.7312383952496 309.33474847326113,726.252591874372 322.63846153846146,726.252591874372 334.1598150175839,732.9044484069722 340.81167155018414,744.4258018860946 354.1153846153845,744.4258018860946 360.76724114798475,732.9044484069722 354.1153846153845,721.3830949278497 340.81167155018414,721.3830949278497 329.2903180710617,714.7312383952496 322.63846153846146,703.2098849161271 309.33474847326113,703.2098849161271 309.33474847326113,689.9061718509267 322.63846153846146,689.9061718509267 329.2903180710617,678.3848183718042 322.63846153846146,666.8634648926818 309.33474847326113,666.8634648926818 302.6828919406609,678.3848183718042 291.1615384615384,671.732961839204 297.8133949941386,660.2116083600815 291.1615384615384,648.6902548809591 291.1615384615384,635.3865418157586 297.8133949941386,623.8651883366362 291.1615384615384,612.3438348575137 277.85782539633806,612.3438348575137 271.20596886373784,623.8651883366362 277.85782539633806,635.3865418157586 277.85782539633806,648.6902548809591 271.20596886373784,660.2116083600815 277.85782539633806,671.732961839204 266.33647191721553,678.3848183718042 259.6846153846153,666.8634648926816 246.38090231941496,666.8634648926816 234.85954884029246,660.2116083600815 228.20769230769227,648.690254880959 214.90397924249189,648.690254880959 214.90397924249189,635.3865418157586 228.20769230769227,635.3865418157586 234.85954884029246,623.8651883366362 246.38090231941496,617.213331804036 259.6846153846153,617.213331804036 266.33647191721553,605.6919783249134 259.6846153846153,594.1706248457909 246.38090231941496,594.1706248457909 239.72904578681477,605.6919783249134 228.20769230769227,612.3438348575137 214.90397924249189,612.3438348575137 208.2521227098917,623.865188336636 196.73076923076923,617.213331804036 203.3826257633694,605.6919783249134 196.73076923076923,594.1706248457909 183.42705616556884,594.1706248457909 176.77519963296862,605.6919783249134 183.4270561655688,617.2133318040359 171.90570268644632,623.865188336636 165.25384615384615,612.3438348575136 151.95013308864574,612.3438348575136 140.42877960952327,605.6919783249134 133.77692307692308,594.1706248457909 120.4732100117227,594.1706248457909 120.4732100117227,580.8669117805905 133.77692307692308,580.8669117805905 140.42877960952327,569.345558301468 151.95013308864577,562.6937017688679 165.25384615384615,562.6937017688679 171.90570268644635,551.1723482897453 183.42705616556884,557.8242048223456 176.77519963296862,569.345558301468 183.42705616556884,580.8669117805905 196.73076923076923,580.8669117805905 203.3826257633694,569.345558301468 196.73076923076923,557.8242048223456 208.2521227098917,551.1723482897453 214.90397924249189,562.6937017688679 228.20769230769227,562.6937017688679 239.72904578681477,569.345558301468 246.38090231941496,580.8669117805905 259.6846153846153,580.8669117805905 266.33647191721553,569.345558301468 259.6846153846153,557.8242048223456 246.38090231941496,557.8242048223456 234.85954884029246,551.1723482897453 228.20769230769227,539.6509948106229 214.90397924249189,539.6509948106229 214.90397924249189,526.3472817454225 228.20769230769227,526.3472817454225 234.85954884029246,514.8259282663 228.20769230769227,503.30457478717756 214.90397924249189,503.30457478717756 208.2521227098917,514.8259282663 196.73076923076923,508.1740717336998 203.3826257633694,496.65271825457734 196.73076923076923,485.1313647754549 196.73076923076923,471.8276517102545 203.3826257633694,460.306298231132 196.73076923076923,448.78494475200955 183.42705616556884,448.78494475200955 176.77519963296862,460.306298231132 183.4270561655688,471.8276517102545 183.4270561655688,485.1313647754549 176.77519963296862,496.65271825457734 183.4270561655688,508.1740717336998 171.90570268644632,514.8259282663 165.25384615384615,503.30457478717756 151.95013308864574,503.30457478717756 145.29827655604555,514.8259282663 151.95013308864574,526.3472817454225 165.25384615384613,526.3472817454225 165.25384615384613,539.6509948106229 151.95013308864574,539.6509948106229 145.29827655604555,551.1723482897453 133.77692307692305,557.8242048223456 120.47321001172267,557.8242048223456 113.82135347912246,569.3455583014679 102.29999999999998,562.6937017688679 108.95185653260019,551.1723482897453 102.3,539.6509948106228 102.3,526.3472817454224 108.95185653260019,514.8259282663 102.3,503.3045747871775 113.82135347912248,496.6527182545773 120.47321001172267,508.17407173369975 133.77692307692305,508.17407173369975 140.42877960952325,496.6527182545773 133.77692307692308,485.1313647754548 120.47321001172268,485.1313647754548 120.47321001172268,471.8276517102545 133.77692307692308,471.8276517102545 140.42877960952327,460.306298231132 151.95013308864574,453.6544416985318 165.25384615384613,453.6544416985318 171.90570268644632,442.13308821940933 165.25384615384613,430.61173474028686 151.95013308864574,430.61173474028686 145.29827655604555,442.13308821940933 133.77692307692305,448.78494475200955 120.47321001172267,448.78494475200955 113.82135347912246,460.306298231132 102.29999999999998,453.6544416985318 108.95185653260019,442.13308821940933 102.3,430.61173474028686 102.3,417.3080216750865 108.95185653260019,405.786668195964 102.3,394.26531471684154 113.82135347912248,387.6134581842414 120.47321001172267,399.13481166336385 133.77692307692305,399.13481166336385 145.29827655604555,405.786668195964 151.95013308864574,417.3080216750865 165.25384615384613,417.3080216750865 171.90570268644632,405.786668195964 165.25384615384613,394.26531471684154 151.95013308864574,394.26531471684154 140.42877960952325,387.6134581842414 133.77692307692308,376.0921047051189 120.47321001172268,376.0921047051189 120.47321001172268,362.7883916399185 133.77692307692308,362.7883916399185 140.42877960952327,351.267038160796 133.77692307692308,339.74568468167354 120.47321001172268,339.74568468167354 113.82135347912248,351.267038160796 102.3,344.61518162819584 108.9518565326002,333.0938281490734 102.30000000000001,321.5724746699509 102.30000000000001,308.2687616047505 108.9518565326002,296.747408125628 102.30000000000001,285.2260546465055 113.8213534791225,278.5741981139053 120.47321001172268,290.09555159302784 133.77692307692308,290.09555159302784 145.29827655604555,296.747408125628 151.95013308864574,308.2687616047505 165.25384615384615,308.2687616047505 165.25384615384615,321.5724746699509 151.95013308864574,321.5724746699509 145.29827655604555,333.0938281490734 151.95013308864574,344.61518162819584 165.25384615384615,344.61518162819584 171.90570268644632,333.0938281490734 183.4270561655688,339.74568468167354 176.77519963296862,351.267038160796 183.4270561655688,362.7883916399185 183.4270561655688,376.0921047051189 176.77519963296862,387.6134581842414 183.4270561655688,399.13481166336385 196.7307692307692,399.13481166336385 203.3826257633694,387.6134581842414 196.7307692307692,376.0921047051189 196.7307692307692,362.7883916399185 203.3826257633694,351.267038160796 196.7307692307692,339.74568468167354 208.2521227098917,333.0938281490734 214.90397924249189,344.61518162819584 228.20769230769227,344.61518162819584 239.72904578681477,351.267038160796 246.38090231941496,362.7883916399185 259.6846153846153,362.7883916399185 259.6846153846153,376.0921047051189 246.38090231941496,376.0921047051189 239.72904578681477,387.6134581842414 228.20769230769227,394.26531471684154 214.90397924249189,394.26531471684154 208.2521227098917,405.786668195964 214.90397924249189,417.3080216750865 228.20769230769227,417.3080216750865 234.85954884029246,405.786668195964 246.38090231941496,399.13481166336385 259.6846153846153,399.13481166336385 266.33647191721553,387.6134581842414 277.85782539633806,394.26531471684154 271.20596886373784,405.786668195964 277.85782539633806,417.3080216750865 291.1615384615384,417.3080216750865 297.8133949941386,405.786668195964 291.1615384615384,394.26531471684154 302.6828919406609,387.6134581842414 309.33474847326113,399.13481166336385 322.63846153846146,399.13481166336385 334.1598150175839,405.786668195964 340.81167155018414,417.3080216750865 354.1153846153845,417.3080216750865 354.1153846153845,430.61173474028686 340.81167155018414,430.61173474028686 334.1598150175839,442.13308821940933 322.63846153846146,448.78494475200955 309.33474847326113,448.78494475200955 302.6828919406609,460.306298231132 291.1615384615384,453.6544416985318 297.8133949941386,442.13308821940933 291.1615384615384,430.61173474028686 277.85782539633806,430.61173474028686 271.20596886373784,442.13308821940933 277.85782539633806,453.6544416985318 266.33647191721553,460.306298231132 259.6846153846153,448.78494475200955 246.38090231941496,448.78494475200955 234.85954884029246,442.13308821940933 228.20769230769227,430.61173474028686 214.90397924249189,430.61173474028686 208.2521227098917,442.13308821940933 214.90397924249189,453.6544416985318 228.20769230769227,453.6544416985318 239.72904578681477,460.306298231132 246.38090231941496,471.8276517102545 259.6846153846153,471.8276517102545 259.6846153846153,485.1313647754548 246.38090231941496,485.1313647754548 239.72904578681477,496.6527182545773 246.38090231941496,508.17407173369975 259.6846153846153,508.17407173369975 266.33647191721553,496.6527182545773 277.85782539633806,503.3045747871775 271.20596886373784,514.8259282663 277.85782539633806,526.3472817454224 277.85782539633806,539.6509948106228 271.20596886373784,551.1723482897453 277.85782539633806,562.6937017688679 291.1615384615384,562.6937017688679 297.8133949941386,551.1723482897453 291.1615384615384,539.6509948106228 291.1615384615384,526.3472817454224 297.8133949941386,514.8259282663 291.1615384615384,503.3045747871775 302.6828919406609,496.6527182545773 309.33474847326113,508.17407173369975 322.63846153846146,508.17407173369975 329.2903180710617,496.6527182545773 322.63846153846146,485.1313647754548 309.33474847326113,485.1313647754548 309.33474847326113,471.8276517102545 322.63846153846146,471.8276517102545 329.2903180710617,460.306298231132 340.81167155018414,453.6544416985318 354.1153846153845,453.6544416985318 360.76724114798475,442.13308821940933 372.2885946271072,448.78494475200955 365.636738094507,460.306298231132 372.2885946271072,471.8276517102545 372.2885946271072,485.1313647754548 365.636738094507,496.6527182545773 372.2885946271072,508.17407173369975 360.76724114798475,514.8259282663 354.1153846153845,503.3045747871775 340.81167155018414,503.3045747871775 334.1598150175839,514.8259282663 340.81167155018414,526.3472817454224 354.1153846153845,526.3472817454224 354.1153846153845,539.6509948106228 340.81167155018414,539.6509948106228 334.1598150175839,551.1723482897453 322.63846153846146,557.8242048223456 309.33474847326113,557.8242048223456 302.6828919406609,569.3455583014679 309.33474847326113,580.8669117805905 322.63846153846146,580.8669117805905 329.2903180710617,569.3455583014679 340.81167155018414,562.6937017688679 354.1153846153845,562.6937017688679 360.76724114798475,551.1723482897453 372.2885946271072,557.8242048223456 365.636738094507,569.3455583014679 372.2885946271072,580.8669117805905 372.2885946271072,594.1706248457908 365.636738094507,605.6919783249134 372.2885946271072,617.2133318040359 360.76724114798475,623.865188336636 354.1153846153845,612.3438348575135 340.81167155018414,612.3438348575135 329.2903180710617,605.6919783249134 322.63846153846146,594.1706248457908 309.33474847326113,594.1706248457908 302.6828919406609,605.6919783249134 309.33474847326113,617.2133318040359 322.63846153846146,617.2133318040359 334.1598150175839,623.865188336636 340.81167155018414,635.3865418157586 354.1153846153845,635.3865418157586 354.1153846153845,648.690254880959 340.81167155018414,648.690254880959 334.1598150175839,660.2116083600814 340.81167155018414,671.7329618392039 354.1153846153845,671.7329618392039 360.76724114798475,660.2116083600814 372.2885946271072,666.8634648926816 365.636738094507,678.3848183718042 372.2885946271072,689.9061718509265 372.2885946271072,703.209884916127 365.636738094507,714.7312383952494 372.2885946271072,726.2525918743719 385.5923076923076,726.2525918743719 392.24416422490776,714.7312383952494 385.5923076923076,703.209884916127 385.5923076923076,689.9061718509265 392.24416422490776,678.3848183718042 385.5923076923076,666.8634648926816 397.11366117143007,660.2116083600814 403.76551770403023,671.7329618392039 417.0692307692306,671.7329618392039 423.72108730183083,660.2116083600814 417.0692307692306,648.690254880959 403.76551770403023,648.690254880959 403.76551770403023,635.3865418157586 417.0692307692306,635.3865418157586 423.72108730183083,623.865188336636 435.2424407809533,617.2133318040359 448.5461538461537,617.2133318040359 455.19801037875385,605.6919783249134 448.5461538461537,594.1706248457908 435.2424407809533,594.1706248457908 428.5905842483531,605.6919783249134 417.0692307692306,612.3438348575135 403.76551770403023,612.3438348575135 397.11366117143007,623.865188336636 385.5923076923076,617.2133318040358 392.24416422490776,605.6919783249134 385.5923076923076,594.1706248457908 385.5923076923076,580.8669117805905 392.24416422490776,569.3455583014679 385.5923076923076,557.8242048223455 397.11366117143007,551.1723482897453 403.76551770403023,562.6937017688678 417.0692307692306,562.6937017688678 428.5905842483531,569.3455583014679 435.2424407809533,580.8669117805905 448.5461538461537,580.8669117805905 455.19801037875385,569.3455583014679 448.5461538461537,557.8242048223455 435.2424407809533,557.8242048223455 423.72108730183083,551.1723482897453 417.0692307692306,539.6509948106228 403.76551770403023,539.6509948106228 403.76551770403023,526.3472817454224 417.0692307692306,526.3472817454224 423.72108730183083,514.8259282663 417.0692307692306,503.3045747871775 403.76551770403023,503.3045747871775 397.11366117143007,514.8259282663 385.5923076923076,508.17407173369975 392.24416422490776,496.6527182545773 385.5923076923076,485.1313647754548 385.5923076923076,471.8276517102545 392.24416422490776,460.306298231132 385.5923076923076,448.78494475200955 397.11366117143007,442.13308821940933 403.76551770403023,453.6544416985318 417.0692307692306,453.6544416985318 428.5905842483531,460.306298231132 435.2424407809533,471.8276517102545 448.5461538461537,471.8276517102545 448.5461538461537,485.1313647754548 435.2424407809533,485.1313647754548 428.5905842483531,496.6527182545773 435.2424407809533,508.17407173369975 448.5461538461537,508.17407173369975 455.19801037875385,496.6527182545773 466.7193638578763,503.3045747871775 460.06750732527615,514.8259282663 466.7193638578763,526.3472817454224 466.7193638578763,539.6509948106228 460.06750732527615,551.1723482897453 466.7193638578763,562.6937017688679 480.0230769230767,562.6937017688679 486.6749334556769,551.1723482897453 480.0230769230767,539.6509948106228 480.0230769230767,526.3472817454224 486.6749334556769,514.8259282663 480.0230769230767,503.3045747871775 491.54443040219917,496.6527182545773 498.1962869347994,508.17407173369975 511.4999999999998,508.17407173369975 523.0213534791222,514.8259282663 529.6732100117224,526.3472817454224 542.9769230769228,526.3472817454224 542.9769230769228,539.6509948106228 529.6732100117224,539.6509948106228 523.0213534791224,551.1723482897453 511.49999999999983,557.8242048223456 498.19628693479945,557.8242048223456 491.5444304021992,569.3455583014679 498.19628693479945,580.8669117805905 511.49999999999983,580.8669117805905 518.1518565326,569.3455583014679 529.6732100117224,562.6937017688679 542.9769230769228,562.6937017688679 549.628779609523,551.1723482897453 561.1501330886456,557.8242048223456 554.4982765560453,569.3455583014679 561.1501330886456,580.8669117805905 574.4538461538459,580.8669117805905 581.1057026864462,569.3455583014679 574.4538461538459,557.8242048223456 585.9751996329685,551.1723482897453 592.6270561655687,562.6937017688679 605.9307692307691,562.6937017688679 617.4521227098915,569.3455583014679 624.1039792424917,580.8669117805905 637.4076923076921,580.8669117805905 637.4076923076921,594.1706248457908 624.1039792424917,594.1706248457908 617.4521227098915,605.6919783249134 605.9307692307691,612.3438348575135 592.6270561655687,612.3438348575135 585.9751996329685,623.865188336636 574.4538461538459,617.2133318040359 581.1057026864462,605.6919783249134 574.4538461538459,594.1706248457908 561.1501330886456,594.1706248457908 554.4982765560453,605.6919783249134 561.1501330886456,617.2133318040359 549.628779609523,623.865188336636 542.9769230769228,612.3438348575136 529.6732100117224,612.3438348575136 518.1518565326,605.6919783249134 511.49999999999983,594.1706248457909 498.19628693479945,594.1706248457909 491.5444304021992,605.6919783249134 498.19628693479945,617.213331804036 511.49999999999983,617.213331804036 523.0213534791224,623.865188336636 529.6732100117224,635.3865418157586 542.9769230769228,635.3865418157586 542.9769230769228,648.690254880959 529.6732100117224,648.690254880959 523.0213534791224,660.2116083600815 511.49999999999983,666.8634648926816 498.19628693479945,666.8634648926816 491.5444304021992,678.3848183718042 480.02307692307676,671.732961839204 486.674933455677,660.2116083600815 480.02307692307676,648.690254880959 480.02307692307676,635.3865418157586 486.674933455677,623.8651883366362 480.02307692307676,612.3438348575137 466.7193638578764,612.3438348575137 460.0675073252762,623.8651883366362 466.7193638578764,635.3865418157586 466.7193638578764,648.690254880959 460.0675073252762,660.2116083600815 466.7193638578764,671.732961839204 455.1980103787539,678.3848183718042 448.54615384615374,666.8634648926816 435.24244078095336,666.8634648926816 428.59058424835314,678.3848183718042 435.24244078095336,689.9061718509266 448.54615384615374,689.9061718509266 448.54615384615374,703.2098849161271 435.24244078095336,703.2098849161271 428.59058424835314,714.7312383952494 417.06923076923067,721.3830949278497 403.7655177040303,721.3830949278497 397.11366117143007,732.9044484069722 403.7655177040303,744.4258018860946 417.06923076923067,744.4258018860946 423.7210873018309,732.9044484069722 435.24244078095336,726.252591874372 448.54615384615374,726.252591874372 455.1980103787539,714.7312383952494 466.7193638578764,721.3830949278497 460.0675073252762,732.9044484069722 466.7193638578764,744.4258018860946 480.02307692307676,744.4258018860946 486.674933455677,732.9044484069722 480.02307692307676,721.3830949278497 491.5444304021992,714.7312383952494 498.19628693479945,726.252591874372 511.49999999999983,726.252591874372 523.0213534791224,732.9044484069722 529.6732100117224,744.4258018860946 542.9769230769228,744.4258018860946 549.628779609523,732.9044484069722 542.9769230769228,721.3830949278497 529.6732100117224,721.3830949278497 518.1518565326,714.7312383952494 511.49999999999983,703.2098849161271 498.19628693479945,703.2098849161271 498.19628693479945,689.9061718509266 511.49999999999983,689.9061718509266 518.1518565326,678.3848183718042 529.6732100117224,671.732961839204 542.9769230769228,671.732961839204 549.628779609523,660.2116083600815 561.1501330886456,666.8634648926817 554.4982765560453,678.3848183718042 561.1501330886456,689.9061718509266 561.1501330886456,703.2098849161271 554.4982765560453,714.7312383952494 561.1501330886456,726.252591874372 574.4538461538459,726.252591874372 581.1057026864462,714.7312383952494 574.4538461538459,703.2098849161271 574.4538461538459,689.9061718509266 581.1057026864462,678.3848183718042 574.4538461538459,666.8634648926816 585.9751996329685,660.2116083600815 592.6270561655687,671.732961839204 605.9307692307691,671.732961839204 612.5826257633693,660.2116083600815 605.9307692307691,648.690254880959 592.6270561655687,648.690254880959 592.6270561655687,635.3865418157586 605.9307692307691,635.3865418157586 612.5826257633693,623.8651883366362 624.1039792424917,617.213331804036 637.4076923076921,617.213331804036 644.0595488402923,605.6919783249134 655.5809023194149,612.3438348575137 648.9290457868146,623.8651883366362 655.5809023194149,635.3865418157586 655.5809023194149,648.690254880959 648.9290457868146,660.2116083600815 655.5809023194149,671.732961839204 644.0595488402923,678.3848183718042 637.4076923076921,666.8634648926816 624.1039792424917,666.8634648926816 617.4521227098915,678.3848183718042 624.1039792424917,689.9061718509266 637.4076923076921,689.9061718509266 637.4076923076921,703.2098849161271 624.1039792424917,703.2098849161271 617.4521227098915,714.7312383952494 605.9307692307691,721.3830949278497 592.6270561655687,721.3830949278497 585.9751996329685,732.9044484069722 592.6270561655687,744.4258018860946 605.9307692307691,744.4258018860946 612.5826257633693,732.9044484069722 624.1039792424917,726.252591874372 637.4076923076921,726.252591874372 644.0595488402923,714.7312383952494 655.5809023194149,721.3830949278497 648.9290457868146,732.9044484069722 655.5809023194149,744.4258018860946 668.8846153846152,744.4258018860946 675.5364719172155,732.9044484069722 668.8846153846152,721.3830949278497 680.4059688637378,714.7312383952494 687.0578253963379,726.252591874372 700.3615384615384,726.252591874372 711.8828919406608,732.9044484069722 718.5347484732611,744.4258018860946 731.8384615384614,744.4258018860946 738.4903180710617,732.9044484069722 731.8384615384614,721.3830949278497 718.5347484732611,721.3830949278497 707.0133949941385,714.7312383952494 700.3615384615384,703.2098849161271 687.0578253963379,703.2098849161271 687.0578253963379,689.9061718509266 700.3615384615384,689.9061718509266 707.0133949941385,678.3848183718042 700.3615384615384,666.8634648926816 687.0578253963379,666.8634648926816 680.4059688637378,678.3848183718042 668.8846153846152,671.732961839204 675.5364719172155,660.2116083600815 668.8846153846152,648.690254880959 668.8846153846152,635.3865418157586 675.5364719172155,623.8651883366362 668.8846153846152,612.3438348575137 680.4059688637378,605.6919783249134 687.0578253963379,617.213331804036 700.3615384615384,617.213331804036 711.8828919406608,623.8651883366362 718.5347484732611,635.3865418157586 731.8384615384614,635.3865418157586 731.8384615384614,648.690254880959 718.5347484732611,648.690254880959 711.8828919406608,660.2116083600815 718.5347484732611,671.732961839204 731.8384615384614,671.732961839204 738.4903180710617,660.2116083600815 750.0116715501842,666.8634648926816 743.359815017584,678.3848183718042 750.0116715501842,689.9061718509266 750.0116715501842,703.2098849161271 743.359815017584,714.7312383952494 750.0116715501842,726.252591874372 763.3153846153846,726.252591874372 769.9672411479846,714.7312383952494 763.3153846153846,703.2098849161271 763.3153846153846,689.9061718509266 769.9672411479846,678.3848183718042 763.3153846153846,666.8634648926816 774.8367380945069,660.2116083600815 781.4885946271072,671.732961839204 794.7923076923075,671.732961839204 806.3136611714301,678.3848183718042 812.9655177040304,689.9061718509266 826.2692307692307,689.9061718509266 826.2692307692307,703.2098849161271 812.9655177040304,703.2098849161271 806.3136611714301,714.7312383952494 794.7923076923075,721.3830949278497 781.4885946271072,721.3830949278497 774.8367380945069,732.9044484069722 781.4885946271072,744.4258018860946 794.7923076923075,744.4258018860946 801.4441642249078,732.9044484069722 812.9655177040304,726.252591874372 826.2692307692307,726.252591874372 832.921087301831,714.7312383952494 844.4424407809533,721.3830949278497 837.7905842483533,732.9044484069722 844.4424407809533,744.4258018860946 857.7461538461539,744.4258018860946 864.398010378754,732.9044484069722 857.7461538461539,721.3830949278497 869.2675073252763,714.7312383952494 875.9193638578765,726.252591874372 889.2230769230769,726.252591874372 900.7444304021994,732.9044484069722 907.3962869347997,744.4258018860946 920.7,744.4258018860946" />
</svg>