<?xml version="1.0" standalone="no"?>
<svg width="1024" height="1024"
xmlns="http://www.w3.org/2000/svg" version="1.1">
<rect x="1" y="1" width="1024" height="1024"
fill="none" stroke="black" stroke-width="1" />
<polyline fill="none" stroke="#000000ff" stroke-width="2" points="640.7210526315789,896.9633491960137 640.7210526315789,896.9633491960137 647.9,884.5290476090454 633.5421052631579,884.5290476090454 626.3631578947368,872.0947460220773 640.7210526315789,872.0947460220773 655.078947368421,872.0947460220773 662.2578947368421,884.5290476090454 676.6157894736842,884.5290476090454 683.7947368421053,872.0947460220773 690.9736842105262,859.6604444351092 676.6157894736842,859.6604444351092 669.4368421052632,872.0947460220773 662.2578947368421,859.6604444351092 669.4368421052632,847.2261428481411 662.2578947368421,834.7918412611727 647.9,834.7918412611727 633.5421052631579,834.7918412611727 640.7210526315789,847.2261428481411 655.078947368421,847.2261428481411 647.9,859.6604444351092 633.5421052631579,859.6604444351092 626.3631578947368,847.2261428481411 612.0052631578947,847.2261428481411 619.1842105263157,859.6604444351092 612.0052631578947,872.0947460220773 604.8263157894737,859.6604444351092 597.6473684210526,847.2261428481411 604.8263157894737,834.7918412611727 619.1842105263157,834.7918412611727 626.3631578947368,822.3575396742046 612.0052631578947,822.3575396742046 604.8263157894737,809.9232380872365 619.1842105263157,809.9232380872365 633.5421052631579,809.9232380872365 640.7210526315789,822.3575396742046 655.078947368421,822.3575396742046 662.2578947368421,809.9232380872365 647.9,809.9232380872365 640.7210526315789,797.4889365002684 655.078947368421,797.4889365002684 669.4368421052632,797.4889365002684 676.6157894736841,809.9232380872365 669.4368421052632,822.3575396742046 676.6157894736841,834.7918412611727 683.7947368421052,847.2261428481411 690.9736842105262,834.7918412611727 683.7947368421052,822.3575396742046 698.1526315789473,822.3575396742046 705.3315789473684,834.7918412611727 719.6894736842105,834.7918412611727 726.8684210526316,822.3575396742046 712.5105263157894,822.3575396742046 705.3315789473684,809.9232380872365 719.6894736842105,809.9232380872365 734.0473684210526,809.9232380872365 741.2263157894737,822.3575396742046 755.5842105263157,822.3575396742046 762.7631578947368,809.9232380872365 769.9421052631578,797.4889365002684 755.5842105263157,797.4889365002684 748.4052631578948,809.9232380872365 741.2263157894737,797.4889365002684 748.4052631578948,785.0546349133001 762.7631578947368,785.0546349133001 769.9421052631578,772.620333326332 777.1210526315789,760.1860317393639 762.7631578947368,760.1860317393639 755.5842105263157,772.620333326332 748.4052631578948,760.1860317393639 755.5842105263157,747.7517301523958 748.4052631578948,735.3174285654275 734.0473684210526,735.3174285654275 719.6894736842105,735.3174285654275 726.8684210526316,747.7517301523958 741.2263157894737,747.7517301523958 734.0473684210526,760.1860317393639 719.6894736842105,760.1860317393639 712.5105263157894,772.620333326332 719.6894736842105,785.0546349133001 726.8684210526316,772.620333326332 741.2263157894737,772.620333326332 734.0473684210526,785.0546349133001 726.8684210526316,797.4889365002682 712.5105263157894,797.4889365002682 705.3315789473684,785.0546349133001 690.9736842105262,785.0546349133001 698.1526315789473,797.4889365002682 690.9736842105262,809.9232380872363 683.7947368421052,797.4889365002682 676.6157894736841,785.0546349133001 683.7947368421052,772.620333326332 698.1526315789473,772.620333326332 705.3315789473684,760.1860317393637 712.5105263157894,747.7517301523956 698.1526315789473,747.7517301523956 690.9736842105262,760.1860317393637 683.7947368421052,747.7517301523956 690.9736842105262,735.3174285654275 683.7947368421052,722.8831269784591 669.4368421052632,722.8831269784591 676.6157894736841,735.3174285654275 669.4368421052632,747.7517301523956 662.2578947368421,735.3174285654275 655.078947368421,722.8831269784591 662.2578947368421,710.448825391491 655.078947368421,698.0145238045229 640.7210526315789,698.0145238045229 626.3631578947368,698.0145238045229 633.5421052631579,710.448825391491 647.9,710.448825391491 640.7210526315789,722.8831269784591 626.3631578947368,722.8831269784591 619.1842105263157,710.448825391491 604.8263157894737,710.448825391491 590.4684210526316,710.448825391491 597.6473684210526,722.8831269784591 612.0052631578947,722.8831269784591 604.8263157894736,735.3174285654272 590.4684210526316,735.3174285654272 583.2894736842105,747.7517301523956 590.4684210526316,760.1860317393637 597.6473684210525,772.6203333263318 604.8263157894736,760.1860317393637 597.6473684210526,747.7517301523956 612.0052631578947,747.7517301523956 619.1842105263157,760.1860317393637 633.5421052631579,760.1860317393637 640.7210526315789,747.7517301523956 626.3631578947368,747.7517301523956 619.1842105263157,735.3174285654272 633.5421052631579,735.3174285654272 647.9,735.3174285654272 655.078947368421,747.7517301523956 647.9,760.1860317393637 655.078947368421,772.6203333263318 662.2578947368421,760.1860317393637 676.6157894736841,760.1860317393637 669.4368421052632,772.6203333263318 662.2578947368421,785.0546349132999 647.9,785.0546349132999 640.7210526315789,772.6203333263318 626.3631578947368,772.6203333263318 612.0052631578947,772.6203333263318 619.1842105263157,785.0546349132999 633.5421052631579,785.0546349132999 626.3631578947368,797.488936500268 612.0052631578947,797.488936500268 604.8263157894736,785.0546349132999 590.4684210526316,785.0546349132999 597.6473684210525,797.488936500268 590.4684210526316,809.9232380872363 583.2894736842105,797.488936500268 576.1105263157895,785.0546349132999 583.2894736842105,772.6203333263318 576.1105263157895,760.1860317393637 561.7526315789473,760.1860317393637 547.3947368421052,760.1860317393637 554.5736842105263,772.6203333263318 568.9315789473684,772.6203333263318 561.7526315789473,785.0546349132999 547.3947368421052,785.0546349132999 540.2157894736841,797.488936500268 547.3947368421052,809.9232380872361 554.5736842105263,822.3575396742042 561.7526315789473,809.9232380872361 554.5736842105263,797.488936500268 568.9315789473684,797.488936500268 576.1105263157895,809.9232380872361 568.9315789473684,822.3575396742042 576.1105263157895,834.7918412611723 583.2894736842104,822.3575396742042 597.6473684210525,822.3575396742042 590.4684210526315,834.7918412611723 583.2894736842104,847.2261428481406 568.9315789473684,847.2261428481406 561.7526315789473,834.7918412611723 547.3947368421052,834.7918412611723 554.5736842105263,847.2261428481406 547.3947368421052,859.6604444351087 540.2157894736841,847.2261428481406 533.0368421052631,834.7918412611723 540.2157894736841,822.3575396742042 533.0368421052631,809.9232380872361 518.678947368421,809.9232380872361 525.857894736842,822.3575396742042 518.678947368421,834.7918412611723 511.4999999999999,822.3575396742042 504.3210526315788,809.9232380872361 511.4999999999999,797.488936500268 525.857894736842,797.488936500268 533.0368421052631,785.0546349132997 540.2157894736841,772.6203333263315 525.857894736842,772.6203333263315 518.678947368421,785.0546349132997 511.4999999999999,772.6203333263315 518.678947368421,760.1860317393634 533.0368421052631,760.1860317393634 540.2157894736841,747.7517301523953 525.857894736842,747.7517301523953 518.678947368421,735.317428565427 533.0368421052631,735.317428565427 547.3947368421052,735.317428565427 554.5736842105263,747.7517301523953 568.9315789473683,747.7517301523953 576.1105263157893,735.317428565427 583.2894736842104,722.8831269784591 568.9315789473683,722.8831269784591 561.7526315789473,735.317428565427 554.5736842105263,722.8831269784589 561.7526315789473,710.4488253914908 554.5736842105263,698.0145238045227 540.2157894736841,698.0145238045227 525.857894736842,698.0145238045227 533.0368421052631,710.4488253914908 547.3947368421052,710.4488253914908 540.2157894736841,722.8831269784589 525.857894736842,722.8831269784589 518.678947368421,710.4488253914908 504.3210526315788,710.4488253914908 511.4999999999999,722.8831269784589 504.3210526315788,735.317428565427 497.1421052631578,722.8831269784589 489.96315789473675,710.4488253914908 497.1421052631578,698.0145238045225 511.4999999999999,698.0145238045225 518.678947368421,685.5802222175544 504.3210526315788,685.5802222175544 497.1421052631578,673.1459206305863 511.4999999999999,673.1459206305863 525.857894736842,673.1459206305863 533.0368421052631,685.5802222175544 547.3947368421052,685.5802222175544 554.5736842105263,673.1459206305863 540.2157894736841,673.1459206305863 533.0368421052631,660.7116190436182 547.3947368421052,660.7116190436182 561.7526315789473,660.7116190436182 568.9315789473683,673.1459206305863 561.7526315789473,685.5802222175544 568.9315789473683,698.0145238045225 576.1105263157893,710.4488253914908 583.2894736842104,698.0145238045225 576.1105263157893,685.5802222175544 590.4684210526315,685.5802222175544 597.6473684210525,698.0145238045225 612.0052631578947,698.0145238045225 619.1842105263157,685.5802222175544 604.8263157894736,685.5802222175544 597.6473684210525,673.1459206305863 612.0052631578947,673.1459206305863 626.3631578947368,673.1459206305863 633.5421052631579,685.5802222175544 647.8999999999999,685.5802222175544 655.0789473684209,673.1459206305863 662.257894736842,660.7116190436182 647.9,660.7116190436182 640.7210526315789,673.1459206305863 633.5421052631579,660.7116190436182 640.7210526315789,648.2773174566498 633.5421052631579,635.8430158696818 619.1842105263157,635.8430158696818 604.8263157894736,635.8430158696818 612.0052631578947,648.2773174566498 626.3631578947368,648.2773174566498 619.1842105263157,660.7116190436182 604.8263157894736,660.7116190436182 597.6473684210525,648.2773174566498 583.2894736842104,648.2773174566498 590.4684210526315,660.7116190436182 583.2894736842104,673.1459206305863 576.1105263157893,660.7116190436182 568.9315789473683,648.2773174566498 576.1105263157893,635.8430158696818 590.4684210526315,635.8430158696818 597.6473684210525,623.4087142827137 583.2894736842104,623.4087142827137 576.1105263157893,610.9744126957455 590.4684210526315,610.9744126957455 604.8263157894736,610.9744126957455 612.0052631578947,623.4087142827137 626.3631578947368,623.4087142827137 633.5421052631579,610.9744126957455 619.1842105263157,610.9744126957455 612.0052631578947,598.5401111087774 626.3631578947368,598.5401111087774 640.7210526315789,598.5401111087774 647.8999999999999,610.9744126957455 640.7210526315789,623.4087142827137 647.9,635.8430158696818 655.0789473684209,648.2773174566498 662.257894736842,635.8430158696818 655.0789473684209,623.4087142827137 669.436842105263,623.4087142827137 676.6157894736841,635.8430158696818 669.436842105263,648.2773174566498 676.6157894736841,660.7116190436182 683.7947368421052,648.2773174566498 698.1526315789473,648.2773174566498 690.9736842105262,660.7116190436182 683.7947368421052,673.1459206305863 669.436842105263,673.1459206305863 662.2578947368421,685.5802222175544 669.436842105263,698.0145238045225 676.6157894736841,710.4488253914908 683.7947368421052,698.0145238045225 676.6157894736841,685.5802222175544 690.9736842105262,685.5802222175544 698.1526315789473,698.0145238045225 690.9736842105262,710.4488253914908 698.1526315789473,722.8831269784589 705.3315789473684,735.317428565427 712.5105263157894,722.8831269784589 705.3315789473684,710.4488253914908 719.6894736842105,710.4488253914908 726.8684210526316,722.8831269784589 741.2263157894737,722.8831269784589 748.4052631578948,710.4488253914908 755.5842105263157,698.0145238045225 741.2263157894737,698.0145238045225 734.0473684210526,710.4488253914908 726.8684210526316,698.0145238045225 734.0473684210526,685.5802222175544 726.8684210526316,673.1459206305863 712.5105263157894,673.1459206305863 719.6894736842105,685.5802222175544 712.5105263157894,698.0145238045225 705.3315789473684,685.5802222175544 698.1526315789473,673.1459206305863 705.3315789473684,660.7116190436182 719.6894736842105,660.7116190436182 726.8684210526316,648.2773174566498 712.5105263157894,648.2773174566498 705.3315789473684,635.8430158696818 719.6894736842105,635.8430158696818 734.0473684210526,635.8430158696818 741.2263157894736,648.2773174566498 734.0473684210526,660.7116190436182 741.2263157894736,673.1459206305863 748.4052631578946,685.5802222175544 755.5842105263157,673.1459206305863 748.4052631578946,660.7116190436182 762.7631578947368,660.7116190436182 769.9421052631578,673.1459206305863 784.3,673.1459206305863 791.478947368421,660.7116190436182 777.1210526315789,660.7116190436182 769.9421052631578,648.2773174566498 784.3,648.2773174566498 798.6578947368421,648.2773174566498 805.836842105263,660.7116190436182 820.1947368421052,660.7116190436182 827.3736842105262,648.2773174566498 834.5526315789473,635.8430158696818 820.1947368421052,635.8430158696818 813.0157894736842,648.2773174566498 805.836842105263,635.8430158696818 813.0157894736842,623.4087142827137 805.836842105263,610.9744126957455 791.478947368421,610.9744126957455 777.1210526315789,610.9744126957455 784.3,623.4087142827137 798.6578947368421,623.4087142827137 791.478947368421,635.8430158696818 777.1210526315789,635.8430158696818 769.9421052631578,623.4087142827137 755.5842105263157,623.4087142827137 762.7631578947368,635.8430158696818 755.5842105263157,648.2773174566498 748.4052631578946,635.8430158696818 741.2263157894736,623.4087142827137 748.4052631578946,610.9744126957455 762.7631578947368,610.9744126957455 769.9421052631578,598.5401111087774 755.5842105263157,598.5401111087774 748.4052631578946,586.1058095218093 762.7631578947368,586.1058095218093 777.1210526315789,586.1058095218093 784.3,598.5401111087774 798.6578947368421,598.5401111087774 805.836842105263,586.1058095218093 791.478947368421,586.1058095218093 784.3,573.6715079348412 798.6578947368421,573.6715079348412 813.0157894736842,573.6715079348412 820.1947368421052,586.1058095218093 813.0157894736842,598.5401111087774 820.1947368421052,610.9744126957455 827.3736842105262,623.4087142827137 834.5526315789473,610.9744126957455 827.3736842105262,598.5401111087774 841.7315789473683,598.5401111087774 848.9105263157894,610.9744126957455 863.2684210526315,610.9744126957455 870.4473684210526,598.5401111087774 856.0894736842105,598.5401111087774 848.9105263157894,586.1058095218093 863.2684210526315,586.1058095218093 877.6263157894737,586.1058095218093 884.8052631578947,598.5401111087774 899.1631578947367,598.5401111087774 906.3421052631579,586.1058095218093 913.5210526315789,573.6715079348412 899.1631578947367,573.6715079348412 891.9842105263158,586.1058095218093 884.8052631578947,573.6715079348412 891.9842105263158,561.2372063478731 906.3421052631579,561.2372063478731 913.5210526315789,548.8029047609049 920.7,536.3686031739368 906.3421052631579,536.3686031739368 899.1631578947367,548.8029047609049 891.9842105263158,536.3686031739368 899.1631578947367,523.9343015869686 891.9842105263158,511.5000000000005 877.6263157894737,511.5000000000005 863.2684210526315,511.5000000000005 870.4473684210526,523.9343015869686 884.8052631578947,523.9343015869686 877.6263157894737,536.3686031739368 863.2684210526315,536.3686031739368 856.0894736842105,548.8029047609049 863.2684210526315,561.2372063478731 870.4473684210526,548.8029047609049 884.8052631578947,548.8029047609049 877.6263157894737,561.2372063478731 870.4473684210526,573.6715079348412 856.0894736842105,573.6715079348412 848.9105263157894,561.2372063478731 834.5526315789473,561.2372063478731 841.7315789473685,573.6715079348412 834.5526315789473,586.1058095218093 827.3736842105263,573.6715079348412 820.1947368421053,561.2372063478731 827.3736842105263,548.8029047609049 841.7315789473685,548.8029047609049 848.9105263157894,536.3686031739368 856.0894736842105,523.9343015869686 841.7315789473685,523.9343015869686 834.5526315789473,536.3686031739368 827.3736842105263,523.9343015869686 834.5526315789473,511.5000000000005 848.9105263157894,511.5000000000005 856.0894736842105,499.06569841303235 841.7315789473685,499.06569841303235 834.5526315789473,486.6313968260642 848.9105263157894,486.6313968260642 863.2684210526315,486.6313968260642 870.4473684210526,499.06569841303235 884.8052631578947,499.06569841303235 891.9842105263158,486.6313968260642 899.1631578947367,474.1970952390961 884.8052631578947,474.1970952390961 877.6263157894737,486.6313968260642 870.4473684210526,474.1970952390961 877.6263157894737,461.7627936521279 891.9842105263158,461.7627936521279 899.1631578947367,449.3284920651598 906.3421052631579,436.89419047819166 891.9842105263158,436.89419047819166 884.8052631578947,449.3284920651598 877.6263157894737,436.89419047819166 884.8052631578947,424.4598888912235 877.6263157894737,412.0255873042553 863.2684210526315,412.0255873042553 848.9105263157894,412.0255873042553 856.0894736842105,424.4598888912235 870.4473684210526,424.4598888912235 863.2684210526315,436.89419047819166 848.9105263157894,436.89419047819166 841.7315789473685,449.3284920651598 848.9105263157894,461.7627936521279 856.0894736842105,449.3284920651598 870.4473684210526,449.3284920651598 863.2684210526315,461.7627936521279 856.0894736842105,474.1970952390961 841.7315789473685,474.1970952390961 834.5526315789473,461.7627936521279 820.1947368421053,461.7627936521279 827.3736842105263,474.1970952390961 820.1947368421053,486.6313968260642 813.0157894736842,474.1970952390961 805.8368421052631,461.7627936521279 813.0157894736842,449.3284920651598 827.3736842105263,449.3284920651598 834.5526315789473,436.89419047819166 841.7315789473685,424.4598888912235 827.3736842105263,424.4598888912235 820.1947368421053,436.89419047819166 813.0157894736842,424.4598888912235 820.1947368421053,412.0255873042553 813.0157894736842,399.5912857172871 798.6578947368421,399.5912857172871 805.8368421052631,412.0255873042553 798.6578947368421,424.4598888912235 791.478947368421,412.0255873042553 784.3,399.5912857172871 791.478947368421,387.15698413031896 784.3,374.72268254335074 769.9421052631578,374.72268254335074 755.5842105263157,374.72268254335074 762.7631578947368,387.15698413031896 777.1210526315789,387.15698413031896 769.9421052631578,399.5912857172871 755.5842105263157,399.5912857172871 748.4052631578948,387.15698413031896 734.0473684210526,387.15698413031896 719.6894736842105,387.15698413031896 726.8684210526316,399.5912857172871 741.2263157894737,399.5912857172871 734.0473684210526,412.0255873042553 719.6894736842105,412.0255873042553 712.5105263157894,424.4598888912235 719.6894736842105,436.89419047819166 726.8684210526316,449.3284920651598 734.0473684210526,436.89419047819166 726.8684210526316,424.4598888912235 741.2263157894737,424.4598888912235 748.4052631578948,436.89419047819166 762.7631578947368,436.89419047819166 769.9421052631578,424.4598888912235 755.5842105263157,424.4598888912235 748.4052631578948,412.0255873042553 762.7631578947368,412.0255873042553 777.1210526315789,412.0255873042553 784.3,424.4598888912235 777.1210526315789,436.89419047819166 784.3,449.3284920651598 791.478947368421,436.89419047819166 805.8368421052631,436.89419047819166 798.6578947368421,449.3284920651598 791.478947368421,461.7627936521279 777.1210526315789,461.7627936521279 769.9421052631578,449.3284920651598 755.5842105263157,449.3284920651598 741.2263157894737,449.3284920651598 748.4052631578948,461.7627936521279 762.7631578947368,461.7627936521279 755.5842105263157,474.1970952390961 741.2263157894737,474.1970952390961 734.0473684210526,486.6313968260642 741.2263157894737,499.06569841303235 748.4052631578948,486.6313968260642 762.7631578947368,486.6313968260642 755.5842105263157,499.06569841303235 748.4052631578948,511.5000000000005 734.0473684210526,511.5000000000005 726.8684210526316,523.9343015869686 734.0473684210526,536.3686031739368 741.2263157894737,548.8029047609049 748.4052631578948,536.3686031739368 741.2263157894737,523.9343015869686 755.5842105263157,523.9343015869686 762.7631578947368,536.3686031739368 777.1210526315789,536.3686031739368 784.3,523.9343015869686 791.478947368421,511.5000000000005 777.1210526315789,511.5000000000005 769.9421052631578,523.9343015869686 762.7631578947368,511.5000000000005 769.9421052631578,499.06569841303235 784.3,499.06569841303235 791.478947368421,486.6313968260642 777.1210526315789,486.6313968260642 769.9421052631578,474.1970952390961 784.3,474.1970952390961 798.6578947368421,474.1970952390961 805.8368421052631,486.6313968260642 798.6578947368421,499.06569841303235 805.8368421052631,511.5000000000005 813.0157894736842,499.06569841303235 827.3736842105263,499.06569841303235 820.1947368421053,511.5000000000005 813.0157894736842,523.9343015869686 798.6578947368421,523.9343015869686 791.478947368421,536.3686031739368 798.6578947368421,548.8029047609049 805.8368421052631,536.3686031739368 820.1947368421053,536.3686031739368 813.0157894736842,548.8029047609049 805.8368421052631,561.2372063478731 791.478947368421,561.2372063478731 784.3,548.8029047609049 769.9421052631578,548.8029047609049 755.5842105263157,548.8029047609049 762.7631578947368,561.2372063478731 777.1210526315789,561.2372063478731 769.9421052631578,573.6715079348412 755.5842105263157,573.6715079348412 748.4052631578948,561.2372063478731 734.0473684210526,561.2372063478731 741.2263157894737,573.6715079348412 734.0473684210526,586.1058095218093 726.8684210526316,573.6715079348412 719.6894736842105,561.2372063478731 726.8684210526316,548.8029047609049 719.6894736842105,536.3686031739368 705.3315789473684,536.3686031739368 690.9736842105262,536.3686031739368 698.1526315789473,548.8029047609049 712.5105263157894,548.8029047609049 705.3315789473684,561.2372063478731 690.9736842105262,561.2372063478731 683.7947368421052,573.6715079348412 690.9736842105262,586.1058095218093 698.1526315789473,598.5401111087774 705.3315789473684,586.1058095218093 698.1526315789473,573.6715079348412 712.5105263157894,573.6715079348412 719.6894736842105,586.1058095218093 712.5105263157894,598.5401111087774 719.6894736842105,610.9744126957455 726.8684210526316,598.5401111087774 741.2263157894737,598.5401111087774 734.0473684210526,610.9744126957455 726.8684210526316,623.4087142827137 712.5105263157894,623.4087142827137 705.3315789473684,610.9744126957455 690.9736842105262,610.9744126957455 698.1526315789473,623.4087142827137 690.9736842105262,635.8430158696818 683.7947368421052,623.4087142827137 676.6157894736841,610.9744126957455 683.7947368421052,598.5401111087774 676.6157894736841,586.1058095218093 662.2578947368421,586.1058095218093 669.4368421052632,598.5401111087774 662.2578947368421,610.9744126957455 655.078947368421,598.5401111087774 647.9,586.1058095218093 655.078947368421,573.6715079348412 669.4368421052632,573.6715079348412 676.6157894736841,561.2372063478731 683.7947368421052,548.8029047609049 669.4368421052632,548.8029047609049 662.2578947368421,561.2372063478731 655.078947368421,548.8029047609049 662.2578947368421,536.3686031739368 676.6157894736841,536.3686031739368 683.7947368421052,523.9343015869686 669.4368421052632,523.9343015869686 662.2578947368421,511.5000000000005 676.6157894736841,511.5000000000005 690.9736842105262,511.5000000000005 698.1526315789473,523.9343015869686 712.5105263157894,523.9343015869686 719.6894736842105,511.5000000000005 726.8684210526316,499.06569841303235 712.5105263157894,499.06569841303235 705.3315789473684,511.5000000000005 698.1526315789473,499.06569841303235 705.3315789473684,486.6313968260642 719.6894736842105,486.6313968260642 726.8684210526316,474.1970952390961 734.0473684210526,461.7627936521279 719.6894736842105,461.7627936521279 712.5105263157894,474.1970952390961 705.3315789473684,461.7627936521279 712.5105263157894,449.3284920651598 705.3315789473684,436.89419047819166 690.9736842105262,436.89419047819166 676.6157894736841,436.89419047819166 683.7947368421052,449.3284920651598 698.1526315789473,449.3284920651598 690.9736842105262,461.7627936521279 676.6157894736841,461.7627936521279 669.4368421052632,474.1970952390961 676.6157894736841,486.6313968260642 683.7947368421052,474.1970952390961 698.1526315789473,474.1970952390961 690.9736842105262,486.6313968260642 683.7947368421052,499.06569841303235 669.436842105263,499.06569841303235 662.2578947368421,486.6313968260642 647.9,486.6313968260642 655.078947368421,499.06569841303235 647.9,511.5000000000005 640.7210526315789,499.06569841303235 633.5421052631579,486.6313968260642 640.7210526315789,474.1970952390961 655.078947368421,474.1970952390961 662.2578947368421,461.7627936521279 669.436842105263,449.3284920651598 655.078947368421,449.3284920651598 647.9,461.7627936521279 640.7210526315789,449.3284920651598 647.9,436.89419047819166 640.7210526315789,424.4598888912235 626.3631578947368,424.4598888912235 633.5421052631579,436.89419047819166 626.3631578947368,449.3284920651598 619.1842105263157,436.89419047819166 612.0052631578947,424.4598888912235 619.1842105263157,412.0255873042553 612.0052631578947,399.5912857172871 597.6473684210525,399.5912857172871 583.2894736842105,399.5912857172871 590.4684210526316,412.0255873042553 604.8263157894736,412.0255873042553 597.6473684210525,424.4598888912235 583.2894736842104,424.4598888912235 576.1105263157895,436.89419047819166 583.2894736842104,449.3284920651598 590.4684210526315,461.7627936521279 597.6473684210525,449.3284920651598 590.4684210526316,436.89419047819166 604.8263157894736,436.89419047819166 612.0052631578947,449.3284920651598 604.8263157894736,461.7627936521279 612.0052631578947,474.1970952390961 619.1842105263157,461.7627936521279 633.5421052631579,461.7627936521279 626.3631578947368,474.1970952390961 619.1842105263157,486.6313968260642 604.8263157894736,486.6313968260642 597.6473684210525,474.1970952390961 583.2894736842104,474.1970952390961 590.4684210526315,486.6313968260642 583.2894736842104,499.06569841303235 576.1105263157893,486.6313968260642 568.9315789473683,474.1970952390961 576.1105263157893,461.7627936521279 568.9315789473683,449.3284920651598 554.5736842105263,449.3284920651598 561.7526315789473,461.7627936521279 554.5736842105263,474.1970952390961 547.3947368421052,461.7627936521279 540.2157894736841,449.3284920651598 547.3947368421052,436.89419047819166 561.7526315789473,436.89419047819166 568.9315789473683,424.4598888912235 576.1105263157893,412.0255873042553 561.7526315789473,412.0255873042553 554.5736842105263,424.4598888912235 547.3947368421052,412.0255873042553 554.5736842105263,399.5912857172871 547.3947368421052,387.15698413031896 533.0368421052631,387.15698413031896 540.2157894736841,399.5912857172871 533.0368421052631,412.0255873042553 525.857894736842,399.5912857172871 518.678947368421,387.15698413031896 525.857894736842,374.72268254335074 518.678947368421,362.2883809563825 504.3210526315788,362.2883809563825 489.96315789473675,362.2883809563825 497.1421052631578,374.72268254335074 511.4999999999999,374.72268254335074 504.3210526315788,387.15698413031896 489.96315789473675,387.15698413031896 482.7842105263157,374.72268254335074 468.4263157894736,374.72268254335074 454.0684210526315,374.72268254335074 461.24736842105256,387.15698413031896 475.6052631578947,387.15698413031896 468.4263157894736,399.5912857172871 454.0684210526315,399.5912857172871 446.88947368421043,412.0255873042553 454.0684210526315,424.4598888912235 461.24736842105256,436.89419047819166 468.4263157894736,424.4598888912235 461.24736842105256,412.0255873042553 475.6052631578947,412.0255873042553 482.7842105263157,424.4598888912235 497.1421052631578,424.4598888912235 504.3210526315788,412.0255873042553 489.96315789473675,412.0255873042553 482.7842105263157,399.5912857172871 497.1421052631578,399.5912857172871 511.4999999999999,399.5912857172871 518.678947368421,412.0255873042553 511.4999999999999,424.4598888912235 518.678947368421,436.89419047819166 525.857894736842,424.4598888912235 540.2157894736841,424.4598888912235 533.0368421052631,436.89419047819166 525.857894736842,449.3284920651598 511.4999999999999,449.3284920651598 504.3210526315788,436.89419047819166 489.96315789473675,436.89419047819166 475.6052631578947,436.89419047819166 482.7842105263157,449.3284920651598 497.1421052631578,449.3284920651598 489.96315789473675,461.7627936521279 475.6052631578947,461.7627936521279 468.4263157894736,449.3284920651598 454.0684210526315,449.3284920651598 461.24736842105256,461.7627936521279 454.0684210526315,474.1970952390961 446.88947368421043,461.7627936521279 439.71052631578937,449.3284920651598 446.88947368421043,436.89419047819166 439.71052631578937,424.4598888912235 425.35263157894724,424.4598888912235 410.99473684210517,424.4598888912235 418.17368421052623,436.89419047819166 432.5315789473683,436.89419047819166 425.35263157894724,449.3284920651598 410.99473684210517,449.3284920651598 403.81578947368416,436.89419047819166 389.45789473684204,436.89419047819166 375.0999999999999,436.89419047819166 382.278947368421,449.3284920651598 396.6368421052631,449.3284920651598 389.45789473684204,461.7627936521279 375.0999999999999,461.7627936521279 367.92105263157885,474.1970952390961 375.0999999999999,486.6313968260642 382.278947368421,499.06569841303235 389.45789473684204,486.6313968260642 382.278947368421,474.1970952390961 396.6368421052631,474.1970952390961 403.81578947368416,486.6313968260642 418.17368421052623,486.6313968260642 425.35263157894724,474.1970952390961 410.99473684210517,474.1970952390961 403.81578947368416,461.7627936521279 418.17368421052623,461.7627936521279 432.5315789473683,461.7627936521279 439.71052631578937,474.1970952390961 432.5315789473683,486.6313968260642 439.71052631578937,499.06569841303235 446.88947368421043,486.6313968260642 461.24736842105256,486.6313968260642 454.0684210526315,499.06569841303235 446.88947368421043,511.5000000000005 432.5315789473683,511.5000000000005 425.35263157894724,499.06569841303235 410.99473684210517,499.06569841303235 396.6368421052631,499.06569841303235 403.81578947368416,511.5000000000005 418.17368421052623,511.5000000000005 410.99473684210517,523.9343015869686 396.6368421052631,523.9343015869686 389.45789473684204,536.3686031739368 396.6368421052631,548.8029047609049 403.81578947368416,536.3686031739368 418.17368421052623,536.3686031739368 410.99473684210517,548.8029047609049 403.81578947368416,561.2372063478731 389.45789473684204,561.2372063478731 382.278947368421,573.6715079348412 389.45789473684204,586.1058095218093 396.6368421052631,598.5401111087774 403.81578947368416,586.1058095218093 396.6368421052631,573.6715079348412 410.99473684210517,573.6715079348412 418.17368421052623,586.1058095218093 410.99473684210517,598.5401111087774 418.17368421052623,610.9744126957455 425.35263157894724,623.4087142827137 432.5315789473683,610.9744126957455 425.35263157894724,598.5401111087774 439.71052631578937,598.5401111087774 446.88947368421043,610.9744126957455 461.24736842105256,610.9744126957455 468.4263157894736,598.5401111087774 475.6052631578947,586.1058095218093 461.24736842105256,586.1058095218093 454.0684210526315,598.5401111087774 446.88947368421043,586.1058095218093 454.0684210526315,573.6715079348412 446.88947368421043,561.2372063478731 432.5315789473683,561.2372063478731 439.71052631578937,573.6715079348412 432.5315789473683,586.1058095218093 425.35263157894724,573.6715079348412 418.17368421052623,561.2372063478731 425.35263157894724,548.8029047609049 439.71052631578937,548.8029047609049 446.88947368421043,536.3686031739368 432.5315789473683,536.3686031739368 425.35263157894724,523.9343015869686 439.71052631578937,523.9343015869686 454.0684210526315,523.9343015869686 461.24736842105256,536.3686031739368 454.0684210526315,548.8029047609049 461.24736842105256,561.2372063478731 468.4263157894736,573.6715079348412 475.6052631578947,561.2372063478731 468.4263157894736,548.8029047609049 482.7842105263157,548.8029047609049 489.96315789473675,561.2372063478731 504.3210526315788,561.2372063478731 511.4999999999999,548.8029047609049 497.1421052631578,548.8029047609049 489.96315789473675,536.3686031739368 504.3210526315788,536.3686031739368 518.678947368421,536.3686031739368 525.857894736842,548.8029047609049 540.2157894736841,548.8029047609049 547.3947368421052,536.3686031739368 554.5736842105263,523.9343015869686 540.2157894736841,523.9343015869686 533.0368421052631,536.3686031739368 525.857894736842,523.9343015869686 533.0368421052631,511.5000000000005 525.857894736842,499.06569841303235 511.4999999999999,499.06569841303235 497.1421052631578,499.06569841303235 504.3210526315788,511.5000000000005 518.678947368421,511.5000000000005 511.4999999999999,523.9343015869686 497.1421052631578,523.9343015869686 489.96315789473675,511.5000000000005 475.6052631578947,511.5000000000005 482.7842105263157,523.9343015869686 475.6052631578947,536.3686031739368 468.4263157894736,523.9343015869686 461.24736842105256,511.5000000000005 468.4263157894736,499.06569841303235 482.7842105263157,499.06569841303235 489.96315789473675,486.6313968260642 475.6052631578947,486.6313968260642 468.4263157894736,474.1970952390961 482.7842105263157,474.1970952390961 497.1421052631578,474.1970952390961 504.3210526315788,486.6313968260642 518.678947368421,486.6313968260642 525.857894736842,474.1970952390961 511.4999999999999,474.1970952390961 504.3210526315788,461.7627936521279 518.678947368421,461.7627936521279 533.0368421052631,461.7627936521279 540.2157894736841,474.1970952390961 533.0368421052631,486.6313968260642 540.2157894736841,499.06569841303235 547.3947368421052,511.5000000000005 554.5736842105263,499.06569841303235 547.3947368421052,486.6313968260642 561.7526315789473,486.6313968260642 568.9315789473684,499.06569841303235 561.7526315789473,511.5000000000005 568.9315789473683,523.9343015869686 576.1105263157893,511.5000000000005 590.4684210526315,511.5000000000005 583.2894736842104,523.9343015869686 576.1105263157893,536.3686031739368 561.7526315789473,536.3686031739368 554.5736842105263,548.8029047609049 561.7526315789473,561.2372063478731 568.9315789473683,573.6715079348412 576.1105263157893,561.2372063478731 568.9315789473684,548.8029047609049 583.2894736842104,548.8029047609049 590.4684210526315,561.2372063478731 604.8263157894736,561.2372063478731 612.0052631578947,548.8029047609049 619.1842105263157,536.3686031739368 604.8263157894736,536.3686031739368 597.6473684210525,548.8029047609049 590.4684210526315,536.3686031739368 597.6473684210525,523.9343015869686 612.0052631578947,523.9343015869686 619.1842105263157,511.5000000000005 604.8263157894736,511.5000000000005 597.6473684210525,499.06569841303235 612.0052631578947,499.06569841303235 626.3631578947368,499.06569841303235 633.5421052631579,511.5000000000005 626.3631578947368,523.9343015869686 633.5421052631579,536.3686031739368 640.7210526315789,523.9343015869686 655.078947368421,523.9343015869686 647.9,536.3686031739368 640.7210526315789,548.8029047609049 626.3631578947368,548.8029047609049 619.1842105263157,561.2372063478731 626.3631578947368,573.6715079348412 633.5421052631579,561.2372063478731 647.9,561.2372063478731 640.7210526315789,573.6715079348412 633.5421052631579,586.1058095218093 619.1842105263157,586.1058095218093 612.0052631578947,573.6715079348412 597.6473684210525,573.6715079348412 583.2894736842104,573.6715079348412 590.4684210526315,586.1058095218093 604.8263157894736,586.1058095218093 597.6473684210525,598.5401111087774 583.2894736842104,598.5401111087774 576.1105263157893,586.1058095218093 561.7526315789473,586.1058095218093 568.9315789473683,598.5401111087774 561.7526315789473,610.9744126957455 554.5736842105263,598.5401111087774 547.3947368421052,586.1058095218093 554.5736842105263,573.6715079348412 547.3947368421052,561.2372063478731 533.0368421052631,561.2372063478731 518.678947368421,561.2372063478731 525.857894736842,573.6715079348412 540.2157894736841,573.6715079348412 533.0368421052631,586.1058095218093 518.678947368421,586.1058095218093 511.4999999999999,573.6715079348412 497.1421052631578,573.6715079348412 482.7842105263157,573.6715079348412 489.96315789473675,586.1058095218093 504.3210526315788,586.1058095218093 497.1421052631578,598.5401111087774 482.7842105263157,598.5401111087774 475.6052631578947,610.9744126957455 482.7842105263157,623.4087142827137 489.96315789473675,635.8430158696818 497.1421052631578,623.4087142827137 489.96315789473675,610.9744126957455 504.3210526315788,610.9744126957455 511.4999999999999,623.4087142827137 525.857894736842,623.4087142827137 533.0368421052631,610.9744126957455 518.678947368421,610.9744126957455 511.4999999999999,598.5401111087774 525.857894736842,598.5401111087774 540.2157894736841,598.5401111087774 547.3947368421052,610.9744126957455 540.2157894736841,623.4087142827137 547.3947368421052,635.8430158696818 554.5736842105263,623.4087142827137 568.9315789473683,623.4087142827137 561.7526315789473,635.8430158696818 554.5736842105263,648.2773174566498 540.2157894736841,648.2773174566498 533.0368421052631,635.8430158696818 518.678947368421,635.8430158696818 504.3210526315788,635.8430158696818 511.4999999999999,648.2773174566498 525.857894736842,648.2773174566498 518.678947368421,660.7116190436182 504.3210526315788,660.7116190436182 497.1421052631578,648.2773174566498 482.7842105263157,648.2773174566498 489.96315789473675,660.7116190436182 482.7842105263157,673.1459206305863 475.6052631578947,660.7116190436182 468.4263157894736,648.2773174566498 475.6052631578947,635.8430158696818 468.4263157894736,623.4087142827137 454.0684210526315,623.4087142827137 439.71052631578937,623.4087142827137 446.88947368421043,635.8430158696818 461.24736842105256,635.8430158696818 454.0684210526315,648.2773174566498 439.71052631578937,648.2773174566498 432.5315789473683,660.7116190436182 439.71052631578937,673.1459206305863 446.88947368421043,685.5802222175544 454.0684210526315,673.1459206305863 446.88947368421043,660.7116190436182 461.24736842105256,660.7116190436182 468.4263157894736,673.1459206305863 461.24736842105256,685.5802222175544 468.4263157894736,698.0145238045225 475.6052631578947,685.5802222175544 489.96315789473675,685.5802222175544 482.7842105263157,698.0145238045225 475.6052631578947,710.4488253914908 461.24736842105256,710.4488253914908 454.0684210526315,698.0145238045225 439.71052631578937,698.0145238045225 446.88947368421043,710.4488253914908 439.71052631578937,722.8831269784589 432.5315789473683,710.4488253914906 425.35263157894724,698.0145238045225 432.5315789473683,685.5802222175544 425.35263157894724,673.1459206305863 410.99473684210517,673.1459206305863 418.17368421052623,685.5802222175544 410.99473684210517,698.0145238045225 403.81578947368416,685.5802222175544 396.6368421052631,673.1459206305863 403.81578947368416,660.7116190436179 418.17368421052623,660.7116190436179 425.35263157894724,648.2773174566498 432.5315789473683,635.8430158696818 418.17368421052623,635.8430158696818 410.99473684210517,648.2773174566498 403.81578947368416,635.8430158696818 410.99473684210517,623.4087142827136 403.81578947368416,610.9744126957455 389.45789473684204,610.9744126957455 396.6368421052631,623.4087142827136 389.45789473684204,635.8430158696818 382.278947368421,623.4087142827136 375.0999999999999,610.9744126957455 382.278947368421,598.5401111087774 375.0999999999999,586.1058095218093 360.7421052631578,586.1058095218093 346.3842105263157,586.1058095218093 353.5631578947368,598.5401111087774 367.92105263157885,598.5401111087774 360.7421052631578,610.9744126957455 346.3842105263157,610.9744126957455 339.20526315789465,598.5401111087774 324.8473684210525,598.5401111087774 310.48947368421045,598.5401111087774 317.6684210526315,610.9744126957455 332.0263157894736,610.9744126957455 324.8473684210525,623.4087142827136 310.48947368421045,623.4087142827136 303.3105263157894,635.8430158696818 310.48947368421045,648.2773174566498 317.6684210526315,660.7116190436179 324.8473684210525,648.2773174566498 317.6684210526315,635.8430158696818 332.0263157894736,635.8430158696818 339.20526315789465,648.2773174566498 353.5631578947368,648.2773174566498 360.7421052631578,635.8430158696818 346.3842105263157,635.8430158696818 339.20526315789465,623.4087142827136 353.5631578947368,623.4087142827136 367.92105263157885,623.4087142827136 375.0999999999999,635.8430158696818 367.92105263157885,648.2773174566498 375.0999999999999,660.7116190436179 382.278947368421,648.2773174566498 396.6368421052631,648.2773174566498 389.45789473684204,660.7116190436179 382.278947368421,673.1459206305863 367.92105263157885,673.1459206305863 360.7421052631578,660.7116190436179 346.3842105263157,660.7116190436179 332.0263157894736,660.7116190436179 339.20526315789465,673.1459206305863 353.5631578947368,673.1459206305863 346.3842105263157,685.5802222175544 332.0263157894736,685.5802222175544 324.8473684210525,698.0145238045225 332.0263157894736,710.4488253914906 339.20526315789465,698.0145238045225 353.5631578947368,698.0145238045225 346.3842105263157,710.4488253914906 339.20526315789465,722.8831269784589 324.8473684210525,722.8831269784589 317.6684210526315,735.317428565427 324.8473684210525,747.7517301523951 332.0263157894736,760.1860317393632 339.20526315789465,747.7517301523951 332.0263157894736,735.317428565427 346.3842105263157,735.317428565427 353.5631578947368,747.7517301523951 346.3842105263157,760.1860317393632 353.5631578947368,772.6203333263313 360.7421052631578,785.0546349132997 367.92105263157885,772.6203333263313 360.7421052631578,760.1860317393632 375.0999999999999,760.1860317393632 382.278947368421,772.6203333263313 396.6368421052631,772.6203333263313 403.81578947368416,760.1860317393632 410.99473684210517,747.7517301523951 396.6368421052631,747.7517301523951 389.45789473684204,760.1860317393632 382.278947368421,747.7517301523951 389.45789473684204,735.317428565427 382.278947368421,722.8831269784587 367.92105263157885,722.8831269784587 375.0999999999999,735.317428565427 367.92105263157885,747.7517301523951 360.7421052631578,735.317428565427 353.5631578947368,722.8831269784587 360.7421052631578,710.4488253914906 375.0999999999999,710.4488253914906 382.278947368421,698.0145238045225 367.92105263157885,698.0145238045225 360.7421052631578,685.5802222175544 375.0999999999999,685.5802222175544 389.45789473684204,685.5802222175544 396.6368421052631,698.0145238045225 389.45789473684204,710.4488253914906 396.6368421052631,722.8831269784587 403.81578947368416,735.317428565427 410.99473684210517,722.8831269784587 403.81578947368416,710.4488253914906 418.17368421052623,710.4488253914906 425.35263157894724,722.8831269784587 418.17368421052623,735.317428565427 425.35263157894724,747.7517301523951 432.5315789473683,735.317428565427 446.88947368421043,735.317428565427 439.71052631578937,747.7517301523949 432.5315789473683,760.1860317393632 418.17368421052623,760.1860317393632 410.99473684210517,772.6203333263313 418.17368421052623,785.0546349132994 425.35263157894724,797.4889365002675 432.5315789473683,785.0546349132994 425.35263157894724,772.6203333263313 439.71052631578937,772.6203333263313 446.88947368421043,785.0546349132994 461.24736842105256,785.0546349132994 468.4263157894736,772.6203333263313 475.6052631578947,760.186031739363 461.24736842105256,760.186031739363 454.0684210526315,772.6203333263313 446.88947368421043,760.186031739363 454.0684210526315,747.7517301523949 468.4263157894736,747.7517301523949 475.6052631578947,735.3174285654268 461.24736842105256,735.3174285654268 454.0684210526315,722.8831269784587 468.4263157894736,722.8831269784587 482.7842105263157,722.8831269784587 489.96315789473675,735.3174285654268 482.7842105263157,747.7517301523949 489.96315789473675,760.186031739363 497.1421052631578,747.7517301523949 511.4999999999999,747.7517301523949 504.3210526315788,760.186031739363 497.1421052631578,772.6203333263311 482.7842105263157,772.6203333263311 475.6052631578947,785.0546349132994 482.7842105263157,797.4889365002675 489.96315789473675,785.0546349132994 504.3210526315788,785.0546349132994 497.1421052631578,797.4889365002675 489.96315789473675,809.9232380872356 475.6052631578947,809.9232380872356 468.4263157894736,797.4889365002675 454.0684210526315,797.4889365002675 439.71052631578937,797.4889365002675 446.88947368421043,809.9232380872356 461.24736842105256,809.9232380872356 454.0684210526315,822.3575396742037 439.71052631578937,822.3575396742037 432.5315789473683,809.9232380872356 418.17368421052623,809.9232380872356 425.35263157894724,822.3575396742037 418.17368421052623,834.7918412611718 410.99473684210517,822.3575396742037 403.81578947368416,809.9232380872356 410.99473684210517,797.4889365002675 403.81578947368416,785.0546349132992 389.45789473684204,785.0546349132992 375.0999999999999,785.0546349132992 382.278947368421,797.4889365002675 396.6368421052631,797.4889365002675 389.45789473684204,809.9232380872356 375.0999999999999,809.9232380872356 367.92105263157885,822.3575396742037 375.0999999999999,834.7918412611718 382.278947368421,847.22614284814 389.45789473684204,834.7918412611718 382.278947368421,822.3575396742037 396.6368421052631,822.3575396742037 403.81578947368416,834.7918412611718 396.6368421052631,847.22614284814 403.81578947368416,859.660444435108 410.99473684210517,847.22614284814 425.35263157894724,847.22614284814 418.17368421052623,859.660444435108 410.99473684210517,872.0947460220764 396.6368421052631,872.0947460220764 389.45789473684204,859.660444435108 375.0999999999999,859.660444435108 382.278947368421,872.0947460220764 375.0999999999999,884.5290476090445 367.92105263157885,872.0947460220764 360.7421052631578,859.660444435108 367.92105263157885,847.22614284814 360.7421052631578,834.7918412611718 346.3842105263157,834.7918412611718 353.5631578947368,847.22614284814 346.3842105263157,859.660444435108 339.20526315789465,847.22614284814 332.0263157894736,834.7918412611718 339.20526315789465,822.3575396742037 353.5631578947368,822.3575396742037 360.7421052631578,809.9232380872354 367.92105263157885,797.4889365002673 353.5631578947368,797.4889365002673 346.3842105263157,809.9232380872354 339.20526315789465,797.4889365002673 346.3842105263157,785.0546349132992 339.20526315789465,772.6203333263311 324.8473684210525,772.6203333263311 332.0263157894736,785.0546349132992 324.8473684210525,797.4889365002673 317.6684210526315,785.0546349132992 310.48947368421045,772.6203333263311 317.6684210526315,760.1860317393628 310.48947368421045,747.7517301523949 296.1315789473683,747.7517301523949 281.7736842105262,747.7517301523949 288.95263157894726,760.1860317393628 303.3105263157894,760.1860317393628 296.1315789473683,772.6203333263311 281.7736842105262,772.6203333263311 274.5947368421052,785.0546349132992 281.7736842105262,797.4889365002673 288.95263157894726,809.9232380872354 296.1315789473683,797.4889365002673 288.95263157894726,785.0546349132992 303.3105263157894,785.0546349132992 310.48947368421045,797.4889365002673 303.3105263157894,809.9232380872354 310.48947368421045,822.3575396742035 317.6684210526315,809.9232380872354 332.0263157894736,809.9232380872354 324.8473684210525,822.3575396742035 317.6684210526315,834.7918412611718 303.3105263157894,834.7918412611718 296.1315789473683,822.3575396742035 281.7736842105262,822.3575396742035 288.95263157894726,834.7918412611718 281.7736842105262,847.22614284814 274.5947368421052,834.7918412611718 267.41578947368413,822.3575396742035 274.5947368421052,809.9232380872354 267.41578947368413,797.4889365002673 253.057894736842,797.4889365002673 260.23684210526307,809.9232380872354 253.057894736842,822.3575396742035 245.87894736842094,809.9232380872354 238.69999999999993,797.4889365002673 245.87894736842094,785.0546349132992 260.23684210526307,785.0546349132992 267.41578947368413,772.6203333263309 274.5947368421052,760.1860317393628 260.23684210526307,760.1860317393628 253.057894736842,772.6203333263309 245.87894736842094,760.1860317393628 253.057894736842,747.7517301523947 267.41578947368413,747.7517301523947 274.5947368421052,735.3174285654266 260.23684210526307,735.3174285654266 253.057894736842,722.8831269784582 267.41578947368413,722.8831269784582 281.7736842105262,722.8831269784582 288.95263157894726,735.3174285654266 303.3105263157894,735.3174285654266 310.48947368421045,722.8831269784582 317.6684210526315,710.4488253914901 303.3105263157894,710.4488253914901 296.1315789473683,722.8831269784582 288.95263157894726,710.4488253914901 296.1315789473683,698.014523804522 310.48947368421045,698.014523804522 317.6684210526315,685.5802222175539 324.8473684210525,673.1459206305856 310.48947368421045,673.1459206305856 303.3105263157894,685.5802222175537 296.1315789473683,673.1459206305856 303.3105263157894,660.7116190436175 296.1315789473683,648.2773174566494 281.7736842105262,648.2773174566494 267.41578947368413,648.2773174566494 274.5947368421052,660.7116190436175 288.95263157894726,660.7116190436175 281.7736842105262,673.1459206305856 267.41578947368413,673.1459206305856 260.23684210526307,685.5802222175537 267.41578947368413,698.014523804522 274.5947368421052,685.5802222175537 288.95263157894726,685.5802222175537 281.7736842105262,698.0145238045218 274.5947368421052,710.4488253914901 260.23684210526307,710.4488253914901 253.057894736842,698.0145238045218 238.69999999999993,698.0145238045218 245.87894736842094,710.4488253914901 238.69999999999993,722.8831269784582 231.52105263157887,710.4488253914901 224.3421052631578,698.0145238045218 231.52105263157887,685.5802222175537 245.87894736842094,685.5802222175537 253.057894736842,673.1459206305854 260.23684210526307,660.7116190436175 245.87894736842094,660.7116190436175 238.69999999999993,673.1459206305854 231.52105263157887,660.7116190436175 238.69999999999993,648.2773174566494 253.057894736842,648.2773174566494 260.23684210526307,635.843015869681 245.87894736842094,635.843015869681 238.69999999999993,623.4087142827129 253.057894736842,623.4087142827129 267.41578947368413,623.4087142827129 274.5947368421052,635.843015869681 288.95263157894726,635.843015869681 296.1315789473683,623.4087142827129 303.3105263157894,610.9744126957448 288.95263157894726,610.9744126957448 281.7736842105262,623.4087142827129 274.5947368421052,610.9744126957448 281.7736842105262,598.5401111087767 274.5947368421052,586.1058095218086 260.23684210526307,586.1058095218086 245.87894736842094,586.1058095218086 253.057894736842,598.5401111087767 267.41578947368413,598.5401111087767 260.23684210526307,610.9744126957448 245.87894736842094,610.9744126957448 238.69999999999993,598.5401111087767 224.3421052631578,598.5401111087767 231.52105263157887,610.9744126957448 224.3421052631578,623.4087142827129 217.16315789473674,610.9744126957448 209.98421052631568,598.5401111087767 217.16315789473674,586.1058095218086 231.52105263157887,586.1058095218086 238.69999999999993,573.6715079348405 224.3421052631578,573.6715079348405 217.16315789473674,561.2372063478723 231.52105263157887,561.2372063478723 245.87894736842094,561.2372063478723 253.057894736842,573.6715079348405 267.41578947368413,573.6715079348405 274.5947368421052,561.2372063478723 260.23684210526307,561.2372063478723 253.057894736842,548.8029047609042 267.41578947368413,548.8029047609042 281.7736842105262,548.8029047609042 288.95263157894726,561.2372063478723 281.7736842105262,573.6715079348405 288.95263157894726,586.1058095218086 296.1315789473683,598.5401111087767 303.3105263157894,586.1058095218086 296.1315789473683,573.6715079348405 310.48947368421045,573.6715079348405 317.6684210526315,586.1058095218086 332.0263157894736,586.1058095218086 339.20526315789465,573.6715079348405 324.8473684210525,573.6715079348405 317.6684210526315,561.2372063478723 332.0263157894736,561.2372063478723 346.3842105263157,561.2372063478723 353.5631578947368,573.6715079348405 367.92105263157885,573.6715079348405 375.0999999999999,561.2372063478723 382.278947368421,548.8029047609042 367.92105263157885,548.8029047609042 360.7421052631578,561.2372063478723 353.5631578947368,548.8029047609042 360.7421052631578,536.368603173936 375.0999999999999,536.368603173936 382.278947368421,523.9343015869679 389.45789473684204,511.4999999999998 375.0999999999999,511.4999999999998 367.92105263157885,523.9343015869679 360.7421052631578,511.4999999999998 367.92105263157885,499.0656984130316 360.7421052631578,486.6313968260635 346.3842105263157,486.6313968260635 332.0263157894736,486.6313968260635 339.20526315789465,499.0656984130316 353.5631578947368,499.0656984130316 346.3842105263157,511.4999999999998 332.0263157894736,511.4999999999998 324.8473684210525,523.9343015869679 332.0263157894736,536.368603173936 339.20526315789465,523.9343015869679 353.5631578947368,523.9343015869679 346.3842105263157,536.368603173936 339.20526315789465,548.8029047609042 324.8473684210525,548.8029047609042 317.6684210526315,536.368603173936 303.3105263157894,536.368603173936 310.48947368421045,548.8029047609042 303.3105263157894,561.2372063478723 296.1315789473683,548.8029047609042 288.95263157894726,536.368603173936 296.1315789473683,523.9343015869679 310.48947368421045,523.9343015869679 317.6684210526315,511.4999999999998 324.8473684210525,499.0656984130316 310.48947368421045,499.0656984130316 303.3105263157894,511.4999999999998 296.1315789473683,499.0656984130316 303.3105263157894,486.6313968260635 296.1315789473683,474.19709523909535 281.7736842105262,474.19709523909535 288.95263157894726,486.6313968260635 281.7736842105262,499.0656984130316 274.5947368421052,486.6313968260635 267.41578947368413,474.19709523909535 274.5947368421052,461.76279365212724 267.41578947368413,449.3284920651591 253.057894736842,449.3284920651591 238.69999999999993,449.3284920651591 245.87894736842094,461.76279365212724 260.23684210526307,461.76279365212724 253.057894736842,474.19709523909535 238.69999999999993,474.19709523909535 231.52105263157887,461.76279365212724 217.16315789473674,461.76279365212724 202.80526315789467,461.76279365212724 209.98421052631568,474.19709523909535 224.3421052631578,474.19709523909535 217.16315789473674,486.6313968260635 202.80526315789467,486.6313968260635 195.6263157894736,499.0656984130316 202.80526315789467,511.4999999999998 209.98421052631568,523.9343015869679 217.16315789473674,511.4999999999998 209.98421052631568,499.0656984130316 224.3421052631578,499.0656984130316 231.52105263157887,511.4999999999998 245.87894736842094,511.4999999999998 253.057894736842,499.0656984130316 238.69999999999993,499.0656984130316 231.52105263157887,486.6313968260635 245.87894736842094,486.6313968260635 260.23684210526307,486.6313968260635 267.41578947368413,499.0656984130316 260.23684210526307,511.4999999999998 267.41578947368413,523.9343015869679 274.5947368421052,511.4999999999998 288.95263157894726,511.4999999999998 281.7736842105262,523.9343015869679 274.5947368421052,536.368603173936 260.23684210526307,536.368603173936 253.057894736842,523.9343015869679 238.69999999999993,523.9343015869679 224.3421052631578,523.9343015869679 231.52105263157887,536.368603173936 245.87894736842094,536.368603173936 238.69999999999993,548.8029047609042 224.3421052631578,548.8029047609042 217.16315789473674,536.368603173936 202.80526315789467,536.368603173936 209.98421052631568,548.8029047609042 202.80526315789467,561.2372063478723 195.6263157894736,548.8029047609042 188.44736842105254,536.368603173936 195.6263157894736,523.9343015869679 188.44736842105254,511.4999999999998 174.08947368421047,511.4999999999998 159.7315789473684,511.4999999999998 166.9105263157894,523.9343015869679 181.26842105263154,523.9343015869679 174.08947368421047,536.368603173936 159.7315789473684,536.368603173936 152.55263157894734,548.8029047609042 159.7315789473684,561.2372063478723 166.9105263157894,573.6715079348405 174.08947368421047,561.2372063478723 166.9105263157894,548.8029047609042 181.26842105263154,548.8029047609042 188.4473684210526,561.2372063478723 181.26842105263154,573.6715079348405 188.4473684210526,586.1058095218086 195.62631578947367,573.6715079348405 209.98421052631574,573.6715079348405 202.80526315789467,586.1058095218086 195.62631578947367,598.5401111087767 181.26842105263154,598.5401111087767 174.08947368421047,586.1058095218086 159.7315789473684,586.1058095218086 166.9105263157894,598.5401111087767 159.7315789473684,610.9744126957448 152.55263157894734,598.5401111087767 145.37368421052628,586.1058095218086 152.55263157894734,573.6715079348405 145.37368421052628,561.2372063478723 131.01578947368415,561.2372063478723 138.19473684210521,573.6715079348405 131.01578947368415,586.1058095218086 123.83684210526314,573.6715079348405 116.65789473684208,561.2372063478723 123.83684210526314,548.8029047609042 138.19473684210521,548.8029047609042 145.37368421052628,536.368603173936 152.55263157894734,523.9343015869679 138.19473684210521,523.9343015869679 131.01578947368415,536.368603173936 123.83684210526314,523.9343015869679 131.01578947368415,511.4999999999998 145.37368421052628,511.4999999999998 152.55263157894734,499.0656984130316 138.19473684210521,499.0656984130316 131.01578947368415,486.6313968260635 145.37368421052628,486.6313968260635 159.7315789473684,486.6313968260635 166.9105263157894,499.0656984130316 181.26842105263154,499.0656984130316 188.4473684210526,486.6313968260635 195.62631578947367,474.19709523909535 181.26842105263154,474.19709523909535 174.08947368421047,486.6313968260635 166.9105263157894,474.19709523909535 174.08947368421047,461.76279365212724 166.9105263157894,449.3284920651591 152.55263157894734,449.3284920651591 138.19473684210521,449.3284920651591 145.37368421052628,461.76279365212724 159.7315789473684,461.76279365212724 152.55263157894734,474.19709523909535 138.19473684210521,474.19709523909535 131.01578947368415,461.76279365212724 116.65789473684208,461.76279365212724 123.83684210526314,474.19709523909535 116.65789473684208,486.6313968260635 109.47894736842102,474.19709523909535 102.29999999999995,461.76279365212724 109.47894736842102,449.3284920651591 123.83684210526314,449.3284920651591 131.01578947368415,436.894190478191 116.65789473684208,436.894190478191 109.47894736842102,424.45988889122276 123.83684210526314,424.45988889122276 138.19473684210521,424.45988889122276 145.37368421052628,436.894190478191 159.7315789473684,436.894190478191 166.9105263157894,424.45988889122276 152.55263157894734,424.45988889122276 145.37368421052628,412.0255873042546 159.7315789473684,412.0255873042546 174.08947368421047,412.0255873042546 181.26842105263154,424.45988889122276 174.08947368421047,436.894190478191 181.26842105263154,449.3284920651591 188.4473684210526,461.76279365212724 195.62631578947367,449.3284920651591 188.4473684210526,436.894190478191 202.80526315789467,436.894190478191 209.98421052631574,449.3284920651591 224.34210526315786,449.3284920651591 231.52105263157893,436.894190478191 217.1631578947368,436.894190478191 209.98421052631574,424.45988889122276 224.34210526315786,424.45988889122276 238.69999999999993,424.45988889122276 245.878947368421,436.894190478191 260.2368421052631,436.894190478191 267.4157894736842,424.45988889122276 274.59473684210525,412.0255873042546 260.2368421052631,412.0255873042546 253.05789473684206,424.45988889122276 245.878947368421,412.0255873042546 253.05789473684206,399.5912857172864 245.878947368421,387.1569841303182 231.52105263157893,387.1569841303182 217.1631578947368,387.1569841303182 224.34210526315786,399.5912857172864 238.69999999999993,399.5912857172864 231.52105263157893,412.0255873042546 217.1631578947368,412.0255873042546 209.98421052631574,399.5912857172864 195.62631578947367,399.5912857172864 202.80526315789467,412.0255873042546 195.62631578947367,424.45988889122276 188.4473684210526,412.0255873042546 181.26842105263154,399.5912857172864 188.4473684210526,387.1569841303182 202.80526315789467,387.1569841303182 209.98421052631574,374.72268254335006 195.62631578947367,374.72268254335006 188.4473684210526,362.28838095638184 202.80526315789467,362.28838095638184 217.1631578947368,362.28838095638184 224.34210526315786,374.72268254335006 238.69999999999993,374.72268254335006 245.878947368421,362.28838095638184 231.52105263157893,362.28838095638184 224.34210526315786,349.8540793694136 238.69999999999993,349.8540793694136 253.05789473684206,349.8540793694136 260.2368421052631,362.28838095638184 253.05789473684206,374.72268254335006 260.2368421052631,387.1569841303182 267.4157894736842,399.5912857172864 274.59473684210525,387.1569841303182 267.4157894736842,374.72268254335006 281.77368421052626,374.72268254335006 288.9526315789473,387.1569841303182 281.77368421052626,399.5912857172864 288.9526315789473,412.0255873042546 296.1315789473684,399.5912857172864 310.4894736842105,399.5912857172864 303.31052631578945,412.0255873042546 296.1315789473684,424.45988889122276 281.77368421052626,424.45988889122276 274.59473684210525,436.894190478191 281.77368421052626,449.3284920651591 288.9526315789473,461.76279365212724 296.1315789473684,449.3284920651591 288.9526315789473,436.894190478191 303.31052631578945,436.894190478191 310.4894736842105,449.3284920651591 303.31052631578945,461.76279365212724 310.4894736842105,474.19709523909535 317.6684210526315,486.6313968260635 324.8473684210526,474.19709523909535 317.6684210526315,461.76279365212724 332.02631578947364,461.76279365212724 339.2052631578947,474.19709523909535 353.56315789473683,474.19709523909535 360.74210526315784,461.76279365212724 367.9210526315789,449.3284920651591 353.56315789473683,449.3284920651591 346.38421052631577,461.76279365212724 339.2052631578947,449.3284920651591 346.38421052631577,436.894190478191 339.2052631578947,424.45988889122276 324.8473684210526,424.45988889122276 332.02631578947364,436.894190478191 324.8473684210526,449.3284920651591 317.6684210526315,436.894190478191 310.4894736842105,424.45988889122276 317.6684210526315,412.0255873042546 332.02631578947364,412.0255873042546 339.2052631578947,399.5912857172864 324.8473684210526,399.5912857172864 317.6684210526315,387.1569841303182 332.02631578947364,387.1569841303182 346.38421052631577,387.1569841303182 353.56315789473683,399.5912857172864 346.38421052631577,412.0255873042546 353.56315789473683,424.45988889122276 360.74210526315784,436.894190478191 367.9210526315789,424.45988889122276 360.74210526315784,412.0255873042546 375.09999999999997,412.0255873042546 382.27894736842103,424.45988889122276 396.6368421052631,424.45988889122276 403.81578947368416,412.0255873042546 389.45789473684204,412.0255873042546 382.27894736842103,399.5912857172864 396.6368421052631,399.5912857172864 410.9947368421052,399.5912857172864 418.1736842105263,412.0255873042546 432.5315789473684,412.0255873042546 439.7105263157894,399.5912857172864 446.8894736842105,387.1569841303182 432.5315789473684,387.1569841303182 425.35263157894735,399.5912857172864 418.1736842105263,387.1569841303182 425.35263157894735,374.72268254335006 418.1736842105263,362.28838095638184 403.81578947368416,362.28838095638184 389.45789473684204,362.28838095638184 396.6368421052631,374.72268254335006 410.9947368421052,374.72268254335006 403.81578947368416,387.1569841303182 389.45789473684204,387.1569841303182 382.27894736842103,374.72268254335006 367.9210526315789,374.72268254335006 375.09999999999997,387.1569841303182 367.9210526315789,399.5912857172864 360.74210526315784,387.1569841303182 353.56315789473683,374.72268254335006 360.74210526315784,362.28838095638184 375.09999999999997,362.28838095638184 382.27894736842103,349.8540793694136 367.9210526315789,349.8540793694136 360.74210526315784,337.4197777824455 375.09999999999997,337.4197777824455 389.45789473684204,337.4197777824455 396.6368421052631,349.8540793694136 410.9947368421052,349.8540793694136 418.1736842105263,337.4197777824455 403.81578947368416,337.4197777824455 396.6368421052631,324.9854761954773 410.9947368421052,324.9854761954773 425.35263157894735,324.9854761954773 432.5315789473684,337.4197777824455 425.35263157894735,349.8540793694136 432.5315789473684,362.28838095638184 439.7105263157894,374.72268254335006 446.8894736842105,362.28838095638184 439.7105263157894,349.8540793694136 454.06842105263155,349.8540793694136 461.24736842105256,362.28838095638184 475.6052631578947,362.28838095638184 482.78421052631575,349.8540793694136 468.4263157894736,349.8540793694136 461.24736842105256,337.4197777824455 475.6052631578947,337.4197777824455 489.9631578947368,337.4197777824455 497.1421052631579,349.8540793694136 511.5,349.8540793694136 518.6789473684211,337.4197777824455 525.8578947368421,324.9854761954773 511.5,324.9854761954773 504.32105263157894,337.4197777824455 497.1421052631579,324.9854761954773 504.32105263157894,312.5511746085091 518.6789473684211,312.5511746085091 525.8578947368421,300.1168730215409 533.0368421052631,287.68257143457276 518.6789473684211,287.68257143457276 511.5,300.1168730215409 504.32105263157894,287.68257143457276 511.5,275.24826984760455 504.32105263157894,262.81396826063633 489.9631578947368,262.81396826063633 475.6052631578947,262.81396826063633 482.78421052631575,275.24826984760455 497.1421052631579,275.24826984760455 489.9631578947368,287.68257143457276 475.6052631578947,287.68257143457276 468.4263157894736,300.1168730215409 475.6052631578947,312.5511746085091 482.78421052631575,300.1168730215409 497.1421052631579,300.1168730215409 489.9631578947368,312.5511746085091 482.78421052631575,324.9854761954773 468.4263157894736,324.9854761954773 461.24736842105256,312.5511746085091 446.8894736842105,312.5511746085091 454.06842105263155,324.9854761954773 446.8894736842105,337.4197777824455 439.7105263157894,324.9854761954773 432.5315789473684,312.5511746085091 439.7105263157894,300.1168730215409 454.06842105263155,300.1168730215409 461.24736842105256,287.68257143457276 468.4263157894736,275.24826984760455 454.06842105263155,275.24826984760455 446.8894736842105,287.68257143457276 439.7105263157894,275.24826984760455 446.8894736842105,262.81396826063633 439.7105263157894,250.37966667366817 425.35263157894735,250.37966667366817 432.5315789473684,262.81396826063633 425.35263157894735,275.24826984760455 418.1736842105263,262.81396826063633 410.9947368421052,250.37966667366817 418.1736842105263,237.9453650867 410.9947368421052,225.51106349973182 396.6368421052631,225.51106349973182 382.27894736842103,225.51106349973182 389.45789473684204,237.9453650867 403.81578947368416,237.9453650867 396.6368421052631,250.37966667366817 382.27894736842103,250.37966667366817 375.09999999999997,237.9453650867 360.74210526315784,237.9453650867 346.38421052631577,237.9453650867 353.56315789473683,250.37966667366817 367.9210526315789,250.37966667366817 360.74210526315784,262.81396826063633 346.38421052631577,262.81396826063633 339.2052631578947,275.24826984760455 346.38421052631577,287.68257143457276 353.56315789473683,300.1168730215409 360.74210526315784,287.68257143457276 353.56315789473683,275.24826984760455 367.9210526315789,275.24826984760455 375.09999999999997,287.68257143457276 389.45789473684204,287.68257143457276 396.6368421052631,275.24826984760455 382.27894736842103,275.24826984760455 375.09999999999997,262.81396826063633 389.45789473684204,262.81396826063633 403.81578947368416,262.81396826063633 410.9947368421052,275.24826984760455 403.81578947368416,287.68257143457276 410.9947368421052,300.1168730215409 418.1736842105263,287.68257143457276 432.5315789473684,287.68257143457276 425.35263157894735,300.1168730215409 418.1736842105263,312.5511746085091 403.81578947368416,312.5511746085091 396.6368421052631,300.1168730215409 382.27894736842103,300.1168730215409 367.9210526315789,300.1168730215409 375.09999999999997,312.5511746085091 389.45789473684204,312.5511746085091 382.27894736842103,324.9854761954773 367.9210526315789,324.9854761954773 360.74210526315784,312.5511746085091 346.38421052631577,312.5511746085091 353.56315789473683,324.9854761954773 346.38421052631577,337.4197777824455 339.2052631578947,324.9854761954773 332.02631578947364,312.5511746085091 339.2052631578947,300.1168730215409 332.02631578947364,287.68257143457276 317.6684210526315,287.68257143457276 303.31052631578945,287.68257143457276 310.4894736842105,300.1168730215409 324.8473684210526,300.1168730215409 317.6684210526315,312.5511746085091 303.31052631578945,312.5511746085091 296.1315789473684,324.9854761954773 303.31052631578945,337.4197777824455 310.4894736842105,349.8540793694136 317.6684210526315,337.4197777824455 310.4894736842105,324.9854761954773 324.8473684210526,324.9854761954773 332.02631578947364,337.4197777824455 324.8473684210526,349.8540793694136 332.02631578947364,362.28838095638184 339.2052631578947,349.8540793694136 353.56315789473683,349.8540793694136 346.38421052631577,362.28838095638184 339.2052631578947,374.72268254335006 324.8473684210526,374.72268254335006 317.6684210526315,362.28838095638184 303.31052631578945,362.28838095638184 310.4894736842105,374.72268254335006 303.31052631578945,387.1569841303182 296.1315789473684,374.72268254335006 288.9526315789473,362.28838095638184 296.1315789473684,349.8540793694136 288.9526315789473,337.4197777824455 274.59473684210525,337.4197777824455 281.77368421052626,349.8540793694136 274.59473684210525,362.28838095638184 267.4157894736842,349.8540793694136 260.2368421052631,337.4197777824455 267.4157894736842,324.9854761954773 281.77368421052626,324.9854761954773 288.9526315789473,312.5511746085091 296.1315789473684,300.1168730215409 281.77368421052626,300.1168730215409 274.59473684210525,312.5511746085091 267.4157894736842,300.1168730215409 274.59473684210525,287.68257143457276 288.9526315789473,287.68257143457276 296.1315789473684,275.24826984760455 281.77368421052626,275.24826984760455 274.59473684210525,262.81396826063633 288.9526315789473,262.81396826063633 303.31052631578945,262.81396826063633 310.4894736842105,275.24826984760455 324.8473684210526,275.24826984760455 332.02631578947364,262.81396826063633 339.2052631578947,250.37966667366817 324.8473684210526,250.37966667366817 317.6684210526315,262.81396826063633 310.4894736842105,250.37966667366817 317.6684210526315,237.9453650867 310.4894736842105,225.51106349973182 296.1315789473684,225.51106349973182 281.77368421052626,225.51106349973182 288.9526315789473,237.9453650867 303.31052631578945,237.9453650867 296.1315789473684,250.37966667366817 281.77368421052626,250.37966667366817 274.59473684210525,237.9453650867 260.2368421052631,237.9453650867 267.4157894736842,250.37966667366817 260.2368421052631,262.81396826063633 253.05789473684206,250.37966667366817 245.878947368421,237.9453650867 253.05789473684206,225.51106349973182 267.4157894736842,225.51106349973182 274.59473684210525,213.07676191276363 260.2368421052631,213.07676191276363 253.05789473684206,200.64246032579544 267.4157894736842,200.64246032579544 281.77368421052626,200.64246032579544 288.9526315789473,213.07676191276363 303.31052631578945,213.07676191276363 310.4894736842105,200.64246032579544 296.1315789473684,200.64246032579544 288.9526315789473,188.20815873882725 303.31052631578945,188.20815873882725 317.6684210526315,188.20815873882725 324.8473684210526,200.64246032579544 317.6684210526315,213.07676191276363 324.8473684210526,225.51106349973182 332.02631578947364,237.9453650867 339.2052631578947,225.51106349973182 332.02631578947364,213.07676191276363 346.38421052631577,213.07676191276363 353.56315789473683,225.51106349973182 367.9210526315789,225.51106349973182 375.09999999999997,213.07676191276363 360.74210526315784,213.07676191276363 353.56315789473683,200.64246032579544 367.9210526315789,200.64246032579544 382.27894736842103,200.64246032579544 389.45789473684204,213.07676191276363 403.81578947368416,213.07676191276363 410.9947368421052,200.64246032579544 418.1736842105263,188.20815873882725 403.81578947368416,188.20815873882725 396.6368421052631,200.64246032579544 389.45789473684204,188.20815873882725 396.6368421052631,175.7738571518591 389.45789473684204,163.33955556489087 375.09999999999997,163.33955556489087 360.74210526315784,163.33955556489087 367.9210526315789,175.7738571518591 382.27894736842103,175.7738571518591 375.09999999999997,188.20815873882725 360.74210526315784,188.20815873882725 353.56315789473683,175.7738571518591 339.2052631578947,175.7738571518591 346.38421052631577,188.20815873882725 339.2052631578947,200.64246032579544 332.02631578947364,188.20815873882725 324.8473684210526,175.7738571518591 332.02631578947364,163.33955556489087 346.38421052631577,163.33955556489087 353.56315789473683,150.9052539779227 339.2052631578947,150.9052539779227 332.02631578947364,138.47095239095452 346.38421052631577,138.47095239095452 360.74210526315784,138.47095239095452 367.9210526315789,150.9052539779227 382.27894736842103,150.9052539779227 389.45789473684204,138.47095239095452 375.09999999999997,138.47095239095452 367.9210526315789,126.03665080398633 382.27894736842103,126.03665080398633 396.6368421052631,126.03665080398633 403.81578947368416,138.47095239095452 396.6368421052631,150.9052539779227 403.81578947368416,163.33955556489087 410.9947368421052,175.7738571518591 418.1736842105263,163.33955556489087 410.9947368421052,150.9052539779227 425.35263157894735,150.9052539779227 432.5315789473684,163.33955556489087 425.35263157894735,175.7738571518591 432.5315789473684,188.20815873882725 439.7105263157894,175.7738571518591 454.06842105263155,175.7738571518591 446.8894736842105,188.20815873882725 439.7105263157894,200.64246032579544 425.35263157894735,200.64246032579544 418.1736842105263,213.07676191276363 425.35263157894735,225.51106349973182 432.5315789473684,237.9453650867 439.7105263157894,225.51106349973182 432.5315789473684,213.07676191276363 446.8894736842105,213.07676191276363 454.06842105263155,225.51106349973182 446.8894736842105,237.9453650867 454.06842105263155,250.37966667366817 461.24736842105256,262.81396826063633 468.4263157894736,250.37966667366817 461.24736842105256,237.9453650867 475.6052631578947,237.9453650867 482.78421052631575,250.37966667366817 497.1421052631579,250.37966667366817 504.32105263157894,237.9453650867 511.5,225.51106349973182 497.1421052631579,225.51106349973182 489.9631578947368,237.9453650867 482.78421052631575,225.51106349973182 489.9631578947368,213.07676191276363 482.78421052631575,200.64246032579544 468.4263157894736,200.64246032579544 475.6052631578947,213.07676191276363 468.4263157894736,225.51106349973182 461.24736842105256,213.07676191276363 454.06842105263155,200.64246032579544 461.24736842105256,188.20815873882725 475.6052631578947,188.20815873882725 482.78421052631575,175.7738571518591 468.4263157894736,175.7738571518591 461.24736842105256,163.33955556489087 475.6052631578947,163.33955556489087 489.9631578947368,163.33955556489087 497.1421052631579,175.7738571518591 489.9631578947368,188.20815873882725 497.1421052631579,200.64246032579544 504.32105263157894,213.07676191276363 511.5,200.64246032579544 504.32105263157894,188.20815873882725 518.6789473684211,188.20815873882725 525.8578947368421,200.64246032579544 518.6789473684211,213.07676191276363 525.8578947368421,225.51106349973182 533.0368421052631,213.07676191276363 547.3947368421052,213.07676191276363 540.2157894736841,225.51106349973182 533.0368421052631,237.9453650867 518.6789473684211,237.9453650867 511.5,250.37966667366817 518.6789473684211,262.81396826063633 525.8578947368421,275.24826984760455 533.0368421052631,262.81396826063633 525.8578947368421,250.37966667366817 540.2157894736841,250.37966667366817 547.3947368421052,262.81396826063633 561.7526315789473,262.81396826063633 568.9315789473684,250.37966667366817 576.1105263157895,237.9453650867 561.7526315789473,237.9453650867 554.5736842105263,250.37966667366817 547.3947368421052,237.9453650867 554.5736842105263,225.51106349973182 568.9315789473684,225.51106349973182 576.1105263157895,213.07676191276363 561.7526315789473,213.07676191276363 554.5736842105263,200.64246032579544 568.9315789473684,200.64246032579544 583.2894736842105,200.64246032579544 590.4684210526316,213.07676191276363 583.2894736842105,225.51106349973182 590.4684210526316,237.9453650867 597.6473684210526,225.51106349973182 612.0052631578947,225.51106349973182 604.8263157894737,237.9453650867 597.6473684210526,250.37966667366817 583.2894736842105,250.37966667366817 576.1105263157895,262.81396826063633 583.2894736842105,275.24826984760455 590.4684210526316,262.81396826063633 604.8263157894737,262.81396826063633 597.6473684210526,275.24826984760455 590.4684210526316,287.68257143457276 576.1105263157895,287.68257143457276 568.9315789473684,275.24826984760455 554.5736842105263,275.24826984760455 540.2157894736841,275.24826984760455 547.3947368421052,287.68257143457276 561.7526315789473,287.68257143457276 554.5736842105263,300.1168730215409 540.2157894736841,300.1168730215409 533.0368421052631,312.5511746085091 540.2157894736841,324.9854761954773 547.3947368421052,312.5511746085091 561.7526315789473,312.5511746085091 554.5736842105263,324.9854761954773 547.3947368421052,337.4197777824455 533.0368421052631,337.4197777824455 525.8578947368421,349.8540793694136 533.0368421052631,362.28838095638184 540.2157894736841,374.72268254335006 547.3947368421052,362.28838095638184 540.2157894736841,349.8540793694136 554.5736842105263,349.8540793694136 561.7526315789473,362.28838095638184 554.5736842105263,374.72268254335006 561.7526315789473,387.1569841303182 568.9315789473684,399.5912857172864 576.1105263157895,387.1569841303182 568.9315789473684,374.72268254335006 583.2894736842105,374.72268254335006 590.4684210526316,387.1569841303182 604.8263157894737,387.1569841303182 612.0052631578947,374.72268254335006 619.1842105263157,362.28838095638184 604.8263157894737,362.28838095638184 597.6473684210525,374.72268254335006 590.4684210526316,362.28838095638184 597.6473684210526,349.8540793694136 590.4684210526316,337.4197777824455 576.1105263157895,337.4197777824455 583.2894736842105,349.8540793694136 576.1105263157895,362.28838095638184 568.9315789473684,349.8540793694136 561.7526315789473,337.4197777824455 568.9315789473684,324.9854761954773 583.2894736842105,324.9854761954773 590.4684210526316,312.5511746085091 576.1105263157895,312.5511746085091 568.9315789473684,300.1168730215409 583.2894736842105,300.1168730215409 597.6473684210526,300.1168730215409 604.8263157894737,312.5511746085091 597.6473684210526,324.9854761954773 604.8263157894737,337.4197777824455 612.0052631578947,349.8540793694136 619.1842105263157,337.4197777824455 612.0052631578947,324.9854761954773 626.3631578947368,324.9854761954773 633.5421052631579,337.4197777824455 626.3631578947368,349.8540793694136 633.5421052631579,362.28838095638184 640.7210526315789,349.8540793694136 655.078947368421,349.8540793694136 647.9,362.28838095638184 640.7210526315789,374.72268254335006 626.3631578947368,374.72268254335006 619.1842105263157,387.1569841303182 626.3631578947368,399.5912857172864 633.5421052631579,412.0255873042546 640.7210526315789,399.5912857172864 633.5421052631579,387.1569841303182 647.9,387.1569841303182 655.078947368421,399.5912857172864 647.9,412.0255873042546 655.078947368421,424.45988889122276 662.2578947368421,436.894190478191 669.4368421052632,424.45988889122276 662.2578947368421,412.0255873042546 676.6157894736842,412.0255873042546 683.7947368421053,424.45988889122276 698.1526315789474,424.45988889122276 705.3315789473684,412.0255873042546 712.5105263157894,399.5912857172864 698.1526315789474,399.5912857172864 690.9736842105264,412.0255873042546 683.7947368421053,399.5912857172864 690.9736842105264,387.1569841303182 683.7947368421053,374.72268254335006 669.4368421052632,374.72268254335006 676.6157894736842,387.1569841303182 669.4368421052632,399.5912857172864 662.2578947368421,387.1569841303182 655.078947368421,374.72268254335006 662.2578947368421,362.28838095638184 676.6157894736842,362.28838095638184 683.7947368421053,349.8540793694136 669.4368421052632,349.8540793694136 662.2578947368421,337.4197777824455 676.6157894736842,337.4197777824455 690.9736842105264,337.4197777824455 698.1526315789474,349.8540793694136 690.9736842105264,362.28838095638184 698.1526315789474,374.72268254335006 705.3315789473684,387.1569841303182 712.5105263157894,374.72268254335006 705.3315789473684,362.28838095638184 719.6894736842105,362.28838095638184 726.8684210526316,374.72268254335006 741.2263157894737,374.72268254335006 748.4052631578948,362.28838095638184 734.0473684210526,362.28838095638184 726.8684210526316,349.8540793694136 741.2263157894737,349.8540793694136 755.5842105263158,349.8540793694136 762.7631578947369,362.28838095638184 777.121052631579,362.28838095638184 784.3,349.8540793694136 791.4789473684211,337.4197777824455 777.121052631579,337.4197777824455 769.9421052631579,349.8540793694136 762.7631578947369,337.4197777824455 769.9421052631579,324.9854761954773 784.3,324.9854761954773 791.4789473684211,312.5511746085091 798.6578947368421,300.1168730215409 784.3,300.1168730215409 777.121052631579,312.5511746085091 769.9421052631579,300.1168730215409 777.121052631579,287.68257143457276 769.9421052631579,275.24826984760455 755.5842105263158,275.24826984760455 741.2263157894737,275.24826984760455 748.4052631578948,287.68257143457276 762.7631578947369,287.68257143457276 755.5842105263158,300.1168730215409 741.2263157894737,300.1168730215409 734.0473684210526,312.5511746085091 741.2263157894737,324.9854761954773 748.4052631578948,312.5511746085091 762.7631578947369,312.5511746085091 755.5842105263158,324.9854761954773 748.4052631578948,337.4197777824455 734.0473684210526,337.4197777824455 726.8684210526316,324.9854761954773 712.5105263157895,324.9854761954773 719.6894736842105,337.4197777824455 712.5105263157895,349.8540793694136 705.3315789473685,337.4197777824455 698.1526315789474,324.9854761954773 705.3315789473685,312.5511746085091 719.6894736842105,312.5511746085091 726.8684210526316,300.1168730215409 734.0473684210526,287.68257143457276 719.6894736842105,287.68257143457276 712.5105263157895,300.1168730215409 705.3315789473685,287.68257143457276 712.5105263157895,275.24826984760455 705.3315789473685,262.81396826063633 690.9736842105264,262.81396826063633 698.1526315789474,275.24826984760455 690.9736842105264,287.68257143457276 683.7947368421053,275.24826984760455 676.6157894736842,262.81396826063633 683.7947368421053,250.37966667366817 676.6157894736842,237.9453650867 662.2578947368421,237.9453650867 647.9,237.9453650867 655.078947368421,250.37966667366817 669.4368421052632,250.37966667366817 662.2578947368421,262.81396826063633 647.9,262.81396826063633 640.7210526315789,275.24826984760455 647.9,287.68257143457276 655.078947368421,300.1168730215409 662.2578947368421,287.68257143457276 655.078947368421,275.24826984760455 669.4368421052632,275.24826984760455 676.6157894736842,287.68257143457276 669.4368421052632,300.1168730215409 676.6157894736842,312.5511746085091 683.7947368421053,300.1168730215409 698.1526315789474,300.1168730215409 690.9736842105264,312.5511746085091 683.7947368421053,324.9854761954773 669.4368421052632,324.9854761954773 662.2578947368421,312.5511746085091 647.9,312.5511746085091 655.078947368421,324.9854761954773 647.9,337.4197777824455 640.7210526315789,324.9854761954773 633.5421052631579,312.5511746085091 640.7210526315789,300.1168730215409 633.5421052631579,287.68257143457276 619.1842105263158,287.68257143457276 626.3631578947368,300.1168730215409 619.1842105263158,312.5511746085091 612.0052631578948,300.1168730215409 604.8263157894737,287.68257143457276 612.0052631578948,275.24826984760455 626.3631578947368,275.24826984760455 633.5421052631579,262.81396826063633 640.7210526315789,250.37966667366817 626.3631578947368,250.37966667366817 619.1842105263158,262.81396826063633 612.0052631578948,250.37966667366817 619.1842105263158,237.9453650867 633.5421052631579,237.9453650867 640.7210526315789,225.51106349973182 626.3631578947368,225.51106349973182 619.1842105263158,213.07676191276363 633.5421052631579,213.07676191276363 647.9,213.07676191276363 655.078947368421,225.51106349973182 669.4368421052632,225.51106349973182 676.6157894736842,213.07676191276363 683.7947368421053,200.64246032579544 669.4368421052632,200.64246032579544 662.2578947368421,213.07676191276363 655.078947368421,200.64246032579544 662.2578947368421,188.20815873882725 655.078947368421,175.7738571518591 640.7210526315789,175.7738571518591 626.3631578947369,175.7738571518591 633.5421052631579,188.20815873882725 647.9,188.20815873882725 640.7210526315789,200.64246032579544 626.3631578947368,200.64246032579544 619.1842105263158,188.20815873882725 604.8263157894737,188.20815873882725 612.0052631578948,200.64246032579544 604.8263157894737,213.07676191276363 597.6473684210526,200.64246032579544 590.4684210526316,188.20815873882725 597.6473684210526,175.7738571518591 612.0052631578948,175.7738571518591 619.1842105263158,163.33955556489087 604.8263157894737,163.33955556489087 597.6473684210526,150.9052539779227 612.0052631578948,150.9052539779227 626.3631578947369,150.9052539779227 633.5421052631579,163.33955556489087 647.9,163.33955556489087 655.078947368421,150.9052539779227 640.7210526315789,150.9052539779227 633.5421052631579,138.47095239095452 647.9,138.47095239095452 662.2578947368421,138.47095239095452 669.4368421052632,150.9052539779227 662.2578947368421,163.33955556489087 669.4368421052632,175.7738571518591 676.6157894736842,188.20815873882725 683.7947368421053,175.7738571518591 676.6157894736842,163.33955556489087 690.9736842105264,163.33955556489087 698.1526315789474,175.7738571518591 690.9736842105264,188.20815873882725 698.1526315789474,200.64246032579544 705.3315789473685,188.20815873882725 719.6894736842105,188.20815873882725 712.5105263157895,200.64246032579544 705.3315789473685,213.07676191276363 690.9736842105264,213.07676191276363 683.7947368421053,225.51106349973182 690.9736842105264,237.9453650867 698.1526315789474,250.37966667366817 705.3315789473685,237.9453650867 698.1526315789474,225.51106349973182 712.5105263157895,225.51106349973182 719.6894736842105,237.9453650867 712.5105263157895,250.37966667366817 719.6894736842105,262.81396826063633 726.8684210526316,275.24826984760455 734.0473684210526,262.81396826063633 726.8684210526316,250.37966667366817 741.2263157894737,250.37966667366817 748.4052631578948,262.81396826063633 762.7631578947369,262.81396826063633 769.9421052631579,250.37966667366817 777.121052631579,237.9453650867 762.7631578947369,237.9453650867 755.5842105263158,250.37966667366817 748.4052631578948,237.9453650867 755.5842105263158,225.51106349973182 748.4052631578948,213.07676191276363 734.0473684210526,213.07676191276363 741.2263157894737,225.51106349973182 734.0473684210526,237.9453650867 726.8684210526316,225.51106349973182 719.6894736842105,213.07676191276363 726.8684210526316,200.64246032579544 741.2263157894737,200.64246032579544 748.4052631578948,188.20815873882725 734.0473684210526,188.20815873882725 726.8684210526316,175.7738571518591 741.2263157894737,175.7738571518591 755.5842105263158,175.7738571518591 762.7631578947369,188.20815873882725 755.5842105263158,200.64246032579544 762.7631578947369,213.07676191276363 769.9421052631579,225.51106349973182 777.121052631579,213.07676191276363 769.9421052631579,200.64246032579544 784.3,200.64246032579544 791.4789473684211,213.07676191276363 805.8368421052631,213.07676191276363" />
</svg>