<?xml version="1.0" standalone="no"?>
<svg width="1024" height="1024"
xmlns="http://www.w3.org/2000/svg" version="1.1">
<rect x="1" y="1" width="1024" height="1024"
fill="none" stroke="black" stroke-width="1" />
<polyline fill="none" stroke="#000000ff" stroke-width="2" points="145.30981826378792,511.5 145.30981826378792,511.5 168.9349912790274,552.4200000000001 216.1853373095064,552.4200000000001 239.81051032474588,593.34 287.06085635522487,593.34 310.6860293704643,634.26 357.93637540094335,634.26 381.5615484161828,675.18 428.8118944466618,675.18 452.4370674619013,716.1 499.68741349238024,716.1 523.3125865076197,757.02 570.5629325380987,757.02 594.1881055533382,797.94 641.4384515838171,797.94 665.0636245990568,838.8599999999999 712.3139706295358,838.8599999999999 735.9391436447752,879.78 783.1894896752542,879.78 806.8146626904936,920.7 854.0650087209726,920.7" />
<polyline fill="none" stroke="#000000ff" stroke-width="2" points="854.0650087209726,920.7 854.0650087209726,920.7 877.690181736212,879.7800000000001" />
<polyline fill="none" stroke="#000000ff" stroke-width="2" points="783.1894896752542,879.78 783.1894896752542,879.78 806.8146626904936,838.8599999999999 854.0650087209726,838.8599999999999 877.690181736212,879.78" />
<polyline fill="none" stroke="#000000ff" stroke-width="2" points="783.1894896752542,879.78 783.1894896752542,879.78" />
<polyline fill="none" stroke="#000000ff" stroke-width="2" points="783.1894896752542,879.78 783.1894896752542,879.78 806.8146626904936,838.8599999999999" />
<polyline fill="none" stroke="#000000ff" stroke-width="2" points="712.3139706295358,838.8599999999999 712.3139706295358,838.8599999999999 735.9391436447752,797.94 783.1894896752542,797.94 806.8146626904936,838.8599999999999" />
<polyline fill="none" stroke="#000000ff" stroke-width="2" points="712.3139706295358,838.8599999999999 712.3139706295358,838.8599999999999" />
<polyline fill="none" stroke="#000000ff" stroke-width="2" points="712.3139706295358,838.8599999999999 712.3139706295358,838.8599999999999 735.9391436447752,797.94" />
<polyline fill="none" stroke="#000000ff" stroke-width="2" points="641.4384515838171,797.94 641.4384515838171,797.94 665.0636245990568,757.02 712.3139706295358,757.02 735.9391436447752,797.94" />
<polyline fill="none" stroke="#000000ff" stroke-width="2" points="641.4384515838171,797.94 641.4384515838171,797.94" />
<polyline fill="none" stroke="#000000ff" stroke-width="2" points="641.4384515838171,797.94 641.4384515838171,797.94 665.0636245990568,757.02" />
<polyline fill="none" stroke="#000000ff" stroke-width="2" points="570.5629325380987,757.02 570.5629325380987,757.02 594.1881055533382,716.1 641.4384515838171,716.1 665.0636245990568,757.02" />
<polyline fill="none" stroke="#000000ff" stroke-width="2" points="570.5629325380987,757.02 570.5629325380987,757.02" />
<polyline fill="none" stroke="#000000ff" stroke-width="2" points="570.5629325380987,757.02 570.5629325380987,757.02 594.1881055533382,716.1" />
<polyline fill="none" stroke="#000000ff" stroke-width="2" points="499.68741349238024,716.1 499.68741349238024,716.1 523.3125865076197,675.18 570.5629325380987,675.18 594.1881055533382,716.1" />
<polyline fill="none" stroke="#000000ff" stroke-width="2" points="499.68741349238024,716.1 499.68741349238024,716.1" />
<polyline fill="none" stroke="#000000ff" stroke-width="2" points="499.68741349238024,716.1 499.68741349238024,716.1 523.3125865076197,675.18" />
<polyline fill="none" stroke="#000000ff" stroke-width="2" points="428.8118944466618,675.18 428.8118944466618,675.18 452.4370674619013,634.26 499.68741349238024,634.26 523.3125865076197,675.18" />
<polyline fill="none" stroke="#000000ff" stroke-width="2" points="428.8118944466618,675.18 428.8118944466618,675.18" />
<polyline fill="none" stroke="#000000ff" stroke-width="2" points="428.8118944466618,675.18 428.8118944466618,675.18 452.4370674619013,634.26" />
<polyline fill="none" stroke="#000000ff" stroke-width="2" points="357.93637540094335,634.26 357.93637540094335,634.26 381.5615484161828,593.34 428.8118944466618,593.34 452.4370674619013,634.26" />
<polyline fill="none" stroke="#000000ff" stroke-width="2" points="357.93637540094335,634.26 357.93637540094335,634.26" />
<polyline fill="none" stroke="#000000ff" stroke-width="2" points="357.93637540094335,634.26 357.93637540094335,634.26 381.5615484161828,593.34" />
<polyline fill="none" stroke="#000000ff" stroke-width="2" points="287.06085635522487,593.34 287.06085635522487,593.34 310.6860293704643,552.4200000000001 357.93637540094335,552.4200000000001 381.5615484161828,593.34" />
<polyline fill="none" stroke="#000000ff" stroke-width="2" points="287.06085635522487,593.34 287.06085635522487,593.34" />
<polyline fill="none" stroke="#000000ff" stroke-width="2" points="287.06085635522487,593.34 287.06085635522487,593.34 310.6860293704643,552.4200000000001" />
<polyline fill="none" stroke="#000000ff" stroke-width="2" points="216.1853373095064,552.4200000000001 216.1853373095064,552.4200000000001 239.81051032474588,511.5 287.06085635522487,511.5 310.6860293704643,552.4200000000001" />
<polyline fill="none" stroke="#000000ff" stroke-width="2" points="216.1853373095064,552.4200000000001 216.1853373095064,552.4200000000001" />
<polyline fill="none" stroke="#000000ff" stroke-width="2" points="216.1853373095064,552.4200000000001 216.1853373095064,552.4200000000001 239.81051032474588,511.5" />
<polyline fill="none" stroke="#000000ff" stroke-width="2" points="145.30981826378792,511.5 145.30981826378792,511.5 168.9349912790274,470.58 216.1853373095064,470.58 239.81051032474588,511.5 287.06085635522487,511.5 310.6860293704643,552.4200000000001 357.93637540094335,552.4200000000001 381.5615484161828,593.34 428.8118944466618,593.34 452.4370674619013,634.26 499.68741349238024,634.26 523.3125865076197,675.18 570.5629325380987,675.18 594.1881055533382,716.1 641.4384515838171,716.1 665.0636245990568,757.02 712.3139706295358,757.02 735.9391436447752,797.94 783.1894896752542,797.94 806.8146626904936,838.8599999999999 854.0650087209726,838.8599999999999" />
<polyline fill="none" stroke="#000000ff" stroke-width="2" points="854.0650087209726,838.8599999999999 854.0650087209726,838.8599999999999 877.690181736212,797.94" />
<polyline fill="none" stroke="#000000ff" stroke-width="2" points="783.1894896752542,797.94 783.1894896752542,797.94 806.8146626904936,757.02 854.0650087209726,757.02 877.690181736212,797.94" />
<polyline fill="none" stroke="#000000ff" stroke-width="2" points="783.1894896752542,797.94 783.1894896752542,797.94" />
<polyline fill="none" stroke="#000000ff" stroke-width="2" points="783.1894896752542,797.94 783.1894896752542,797.94 806.8146626904936,757.02" />
<polyline fill="none" stroke="#000000ff" stroke-width="2" points="712.3139706295358,757.02 712.3139706295358,757.02 735.9391436447752,716.1 783.1894896752542,716.1 806.8146626904936,757.02" />
<polyline fill="none" stroke="#000000ff" stroke-width="2" points="712.3139706295358,757.02 712.3139706295358,757.02" />
<polyline fill="none" stroke="#000000ff" stroke-width="2" points="712.3139706295358,757.02 712.3139706295358,757.02 735.9391436447752,716.1" />
<polyline fill="none" stroke="#000000ff" stroke-width="2" points="641.4384515838171,716.1 641.4384515838171,716.1 665.0636245990568,675.18 712.3139706295358,675.18 735.9391436447752,716.1" />
<polyline fill="none" stroke="#000000ff" stroke-width="2" points="641.4384515838171,716.1 641.4384515838171,716.1" />
<polyline fill="none" stroke="#000000ff" stroke-width="2" points="641.4384515838171,716.1 641.4384515838171,716.1 665.0636245990568,675.18" />
<polyline fill="none" stroke="#000000ff" stroke-width="2" points="570.5629325380987,675.18 570.5629325380987,675.18 594.1881055533382,634.26 641.4384515838171,634.26 665.0636245990568,675.18" />
<polyline fill="none" stroke="#000000ff" stroke-width="2" points="570.5629325380987,675.18 570.5629325380987,675.18" />
<polyline fill="none" stroke="#000000ff" stroke-width="2" points="570.5629325380987,675.18 570.5629325380987,675.18 594.1881055533382,634.26" />
<polyline fill="none" stroke="#000000ff" stroke-width="2" points="499.68741349238024,634.26 499.68741349238024,634.26 523.3125865076197,593.34 570.5629325380987,593.34 594.1881055533382,634.26" />
<polyline fill="none" stroke="#000000ff" stroke-width="2" points="499.68741349238024,634.26 499.68741349238024,634.26" />
<polyline fill="none" stroke="#000000ff" stroke-width="2" points="499.68741349238024,634.26 499.68741349238024,634.26 523.3125865076197,593.34" />
<polyline fill="none" stroke="#000000ff" stroke-width="2" points="428.8118944466618,593.34 428.8118944466618,593.34 452.4370674619013,552.4200000000001 499.68741349238024,552.4200000000001 523.3125865076197,593.34" />
<polyline fill="none" stroke="#000000ff" stroke-width="2" points="428.8118944466618,593.34 428.8118944466618,593.34" />
<polyline fill="none" stroke="#000000ff" stroke-width="2" points="428.8118944466618,593.34 428.8118944466618,593.34 452.4370674619013,552.4200000000001" />
<polyline fill="none" stroke="#000000ff" stroke-width="2" points="357.93637540094335,552.4200000000001 357.93637540094335,552.4200000000001 381.5615484161828,511.5 428.8118944466618,511.5 452.4370674619013,552.4200000000001" />
<polyline fill="none" stroke="#000000ff" stroke-width="2" points="357.93637540094335,552.4200000000001 357.93637540094335,552.4200000000001" />
<polyline fill="none" stroke="#000000ff" stroke-width="2" points="357.93637540094335,552.4200000000001 357.93637540094335,552.4200000000001 381.5615484161828,511.5" />
<polyline fill="none" stroke="#000000ff" stroke-width="2" points="287.06085635522487,511.5 287.06085635522487,511.5 310.6860293704643,470.58 357.93637540094335,470.58 381.5615484161828,511.5" />
<polyline fill="none" stroke="#000000ff" stroke-width="2" points="287.06085635522487,511.5 287.06085635522487,511.5" />
<polyline fill="none" stroke="#000000ff" stroke-width="2" points="287.06085635522487,511.5 287.06085635522487,511.5 310.6860293704643,470.58" />
<polyline fill="none" stroke="#000000ff" stroke-width="2" points="216.1853373095064,470.58 216.1853373095064,470.58 239.81051032474588,429.66 287.06085635522487,429.66 310.6860293704643,470.58 357.93637540094335,470.58 381.5615484161828,511.5 428.8118944466618,511.5 452.4370674619013,552.4200000000001 499.68741349238024,552.4200000000001 523.3125865076197,593.34 570.5629325380987,593.34 594.1881055533382,634.26 641.4384515838171,634.26 665.0636245990568,675.18 712.3139706295358,675.18 735.9391436447752,716.1 783.1894896752542,716.1 806.8146626904936,757.02 854.0650087209726,757.02" />
<polyline fill="none" stroke="#000000ff" stroke-width="2" points="854.0650087209726,757.02 854.0650087209726,757.02 877.690181736212,716.1" />
<polyline fill="none" stroke="#000000ff" stroke-width="2" points="783.1894896752542,716.1 783.1894896752542,716.1 806.8146626904936,675.18 854.0650087209726,675.18 877.690181736212,716.1" />
<polyline fill="none" stroke="#000000ff" stroke-width="2" points="783.1894896752542,716.1 783.1894896752542,716.1" />
<polyline fill="none" stroke="#000000ff" stroke-width="2" points="783.1894896752542,716.1 783.1894896752542,716.1 806.8146626904936,675.18" />
<polyline fill="none" stroke="#000000ff" stroke-width="2" points="712.3139706295358,675.18 712.3139706295358,675.18 735.9391436447752,634.26 783.1894896752542,634.26 806.8146626904936,675.18" />
<polyline fill="none" stroke="#000000ff" stroke-width="2" points="712.3139706295358,675.18 712.3139706295358,675.18" />
<polyline fill="none" stroke="#000000ff" stroke-width="2" points="712.3139706295358,675.18 712.3139706295358,675.18 735.9391436447752,634.26" />
<polyline fill="none" stroke="#000000ff" stroke-width="2" points="641.4384515838171,634.26 641.4384515838171,634.26 665.0636245990568,593.34 712.3139706295358,593.34 735.9391436447752,634.26" />
<polyline fill="none" stroke="#000000ff" stroke-width="2" points="641.4384515838171,634.26 641.4384515838171,634.26" />
<polyline fill="none" stroke="#000000ff" stroke-width="2" points="641.4384515838171,634.26 641.4384515838171,634.26 665.0636245990568,593.34" />
<polyline fill="none" stroke="#000000ff" stroke-width="2" points="570.5629325380987,593.34 570.5629325380987,593.34 594.1881055533382,552.4200000000001 641.4384515838171,552.4200000000001 665.0636245990568,593.34" />
<polyline fill="none" stroke="#000000ff" stroke-width="2" points="570.5629325380987,593.34 570.5629325380987,593.34" />
<polyline fill="none" stroke="#000000ff" stroke-width="2" points="570.5629325380987,593.34 570.5629325380987,593.34 594.1881055533382,552.4200000000001" />
<polyline fill="none" stroke="#000000ff" stroke-width="2" points="499.68741349238024,552.4200000000001 499.68741349238024,552.4200000000001 523.3125865076197,511.5 570.5629325380987,511.5 594.1881055533382,552.4200000000001" />
<polyline fill="none" stroke="#000000ff" stroke-width="2" points="499.68741349238024,552.4200000000001 499.68741349238024,552.4200000000001" />
<polyline fill="none" stroke="#000000ff" stroke-width="2" points="499.68741349238024,552.4200000000001 499.68741349238024,552.4200000000001 523.3125865076197,511.5" />
<polyline fill="none" stroke="#000000ff" stroke-width="2" points="428.8118944466618,511.5 428.8118944466618,511.5 452.4370674619013,470.58 499.68741349238024,470.58 523.3125865076197,511.5" />
<polyline fill="none" stroke="#000000ff" stroke-width="2" points="428.8118944466618,511.5 428.8118944466618,511.5" />
<polyline fill="none" stroke="#000000ff" stroke-width="2" points="428.8118944466618,511.5 428.8118944466618,511.5 452.4370674619013,470.58" />
<polyline fill="none" stroke="#000000ff" stroke-width="2" points="357.93637540094335,470.58 357.93637540094335,470.58 381.5615484161828,429.66 428.8118944466618,429.66 452.4370674619013,470.58" />
<polyline fill="none" stroke="#000000ff" stroke-width="2" points="357.93637540094335,470.58 357.93637540094335,470.58" />
<polyline fill="none" stroke="#000000ff" stroke-width="2" points="357.93637540094335,470.58 357.93637540094335,470.58 381.5615484161828,429.66" />
<polyline fill="none" stroke="#000000ff" stroke-width="2" points="287.06085635522487,429.66 287.06085635522487,429.66 310.6860293704643,388.74 357.93637540094335,388.74 381.5615484161828,429.65999999999997 428.8118944466618,429.65999999999997 452.4370674619013,470.58 499.68741349238024,470.58 523.3125865076197,511.5 570.5629325380987,511.5 594.1881055533382,552.42 641.4384515838171,552.42 665.0636245990568,593.34 712.3139706295358,593.34 735.9391436447752,634.26 783.1894896752542,634.26 806.8146626904936,675.18 854.0650087209726,675.18" />
<polyline fill="none" stroke="#000000ff" stroke-width="2" points="854.0650087209726,675.18 854.0650087209726,675.18 877.690181736212,634.26" />
<polyline fill="none" stroke="#000000ff" stroke-width="2" points="783.1894896752542,634.26 783.1894896752542,634.26 806.8146626904936,593.34 854.0650087209726,593.34 877.690181736212,634.26" />
<polyline fill="none" stroke="#000000ff" stroke-width="2" points="783.1894896752542,634.26 783.1894896752542,634.26" />
<polyline fill="none" stroke="#000000ff" stroke-width="2" points="783.1894896752542,634.26 783.1894896752542,634.26 806.8146626904936,593.34" />
<polyline fill="none" stroke="#000000ff" stroke-width="2" points="712.3139706295358,593.34 712.3139706295358,593.34 735.9391436447752,552.42 783.1894896752542,552.42 806.8146626904936,593.34" />
<polyline fill="none" stroke="#000000ff" stroke-width="2" points="712.3139706295358,593.34 712.3139706295358,593.34" />
<polyline fill="none" stroke="#000000ff" stroke-width="2" points="712.3139706295358,593.34 712.3139706295358,593.34 735.9391436447752,552.42" />
<polyline fill="none" stroke="#000000ff" stroke-width="2" points="641.4384515838171,552.42 641.4384515838171,552.42 665.0636245990568,511.5 712.3139706295358,511.5 735.9391436447752,552.42" />
<polyline fill="none" stroke="#000000ff" stroke-width="2" points="641.4384515838171,552.42 641.4384515838171,552.42" />
<polyline fill="none" stroke="#000000ff" stroke-width="2" points="641.4384515838171,552.42 641.4384515838171,552.42 665.0636245990568,511.5" />
<polyline fill="none" stroke="#000000ff" stroke-width="2" points="570.5629325380987,511.5 570.5629325380987,511.5 594.1881055533382,470.58 641.4384515838171,470.58 665.0636245990568,511.5" />
<polyline fill="none" stroke="#000000ff" stroke-width="2" points="570.5629325380987,511.5 570.5629325380987,511.5" />
<polyline fill="none" stroke="#000000ff" stroke-width="2" points="570.5629325380987,511.5 570.5629325380987,511.5 594.1881055533382,470.58" />
<polyline fill="none" stroke="#000000ff" stroke-width="2" points="499.68741349238024,470.58 499.68741349238024,470.58 523.3125865076197,429.65999999999997 570.5629325380987,429.65999999999997 594.1881055533382,470.58" />
<polyline fill="none" stroke="#000000ff" stroke-width="2" points="499.68741349238024,470.58 499.68741349238024,470.58" />
<polyline fill="none" stroke="#000000ff" stroke-width="2" points="499.68741349238024,470.58 499.68741349238024,470.58 523.3125865076197,429.65999999999997" />
<polyline fill="none" stroke="#000000ff" stroke-width="2" points="428.8118944466618,429.65999999999997 428.8118944466618,429.65999999999997 452.4370674619013,388.74 499.68741349238024,388.74 523.3125865076197,429.65999999999997" />
<polyline fill="none" stroke="#000000ff" stroke-width="2" points="428.8118944466618,429.65999999999997 428.8118944466618,429.65999999999997" />
<polyline fill="none" stroke="#000000ff" stroke-width="2" points="428.8118944466618,429.65999999999997 428.8118944466618,429.65999999999997 452.4370674619013,388.74" />
<polyline fill="none" stroke="#000000ff" stroke-width="2" points="357.93637540094335,388.74 357.93637540094335,388.74 381.5615484161828,347.82 428.8118944466618,347.82 452.4370674619013,388.74 499.68741349238024,388.74 523.3125865076197,429.65999999999997 570.5629325380987,429.65999999999997 594.1881055533382,470.58 641.4384515838171,470.58 665.0636245990568,511.5 712.3139706295358,511.5 735.9391436447752,552.42 783.1894896752542,552.42 806.8146626904936,593.34 854.0650087209726,593.34" />
<polyline fill="none" stroke="#000000ff" stroke-width="2" points="854.0650087209726,593.34 854.0650087209726,593.34 877.690181736212,552.42" />
<polyline fill="none" stroke="#000000ff" stroke-width="2" points="783.1894896752542,552.42 783.1894896752542,552.42 806.8146626904936,511.5 854.0650087209726,511.5 877.690181736212,552.42" />
<polyline fill="none" stroke="#000000ff" stroke-width="2" points="783.1894896752542,552.42 783.1894896752542,552.42" />
<polyline fill="none" stroke="#000000ff" stroke-width="2" points="783.1894896752542,552.42 783.1894896752542,552.42 806.8146626904936,511.5" />
<polyline fill="none" stroke="#000000ff" stroke-width="2" points="712.3139706295358,511.5 712.3139706295358,511.5 735.9391436447752,470.58 783.1894896752542,470.58 806.8146626904936,511.5" />
<polyline fill="none" stroke="#000000ff" stroke-width="2" points="712.3139706295358,511.5 712.3139706295358,511.5" />
<polyline fill="none" stroke="#000000ff" stroke-width="2" points="712.3139706295358,511.5 712.3139706295358,511.5 735.9391436447752,470.58" />
<polyline fill="none" stroke="#000000ff" stroke-width="2" points="641.4384515838171,470.58 641.4384515838171,470.58 665.0636245990568,429.65999999999997 712.3139706295358,429.65999999999997 735.9391436447752,470.58" />
<polyline fill="none" stroke="#000000ff" stroke-width="2" points="641.4384515838171,470.58 641.4384515838171,470.58" />
<polyline fill="none" stroke="#000000ff" stroke-width="2" points="641.4384515838171,470.58 641.4384515838171,470.58 665.0636245990568,429.65999999999997" />
<polyline fill="none" stroke="#000000ff" stroke-width="2" points="570.5629325380987,429.65999999999997 570.5629325380987,429.65999999999997 594.1881055533382,388.74 641.4384515838171,388.74 665.0636245990568,429.65999999999997" />
<polyline fill="none" stroke="#000000ff" stroke-width="2" points="570.5629325380987,429.65999999999997 570.5629325380987,429.65999999999997" />
<polyline fill="none" stroke="#000000ff" stroke-width="2" points="570.5629325380987,429.65999999999997 570.5629325380987,429.65999999999997 594.1881055533382,388.74" />
<polyline fill="none" stroke="#000000ff" stroke-width="2" points="499.68741349238024,388.74 499.68741349238024,388.74 523.3125865076197,347.82 570.5629325380987,347.82 594.1881055533382,388.74" />
<polyline fill="none" stroke="#000000ff" stroke-width="2" points="499.68741349238024,388.74 499.68741349238024,388.74" />
<polyline fill="none" stroke="#000000ff" stroke-width="2" points="499.68741349238024,388.74 499.68741349238024,388.74 523.3125865076197,347.82" />
<polyline fill="none" stroke="#000000ff" stroke-width="2" points="428.8118944466618,347.82 428.8118944466618,347.82 452.4370674619013,306.9 499.68741349238024,306.9 523.3125865076197,347.82 570.5629325380987,347.82 594.1881055533382,388.74 641.4384515838171,388.74 665.0636245990568,429.65999999999997 712.3139706295358,429.65999999999997 735.9391436447752,470.58 783.1894896752542,470.58 806.8146626904936,511.5 854.0650087209726,511.5" />
<polyline fill="none" stroke="#000000ff" stroke-width="2" points="854.0650087209726,511.5 854.0650087209726,511.5 877.690181736212,470.58" />
<polyline fill="none" stroke="#000000ff" stroke-width="2" points="783.1894896752542,470.58 783.1894896752542,470.58 806.8146626904936,429.65999999999997 854.0650087209726,429.65999999999997 877.690181736212,470.58" />
<polyline fill="none" stroke="#000000ff" stroke-width="2" points="783.1894896752542,470.58 783.1894896752542,470.58" />
<polyline fill="none" stroke="#000000ff" stroke-width="2" points="783.1894896752542,470.58 783.1894896752542,470.58 806.8146626904936,429.65999999999997" />
<polyline fill="none" stroke="#000000ff" stroke-width="2" points="712.3139706295358,429.65999999999997 712.3139706295358,429.65999999999997 735.9391436447752,388.74 783.1894896752542,388.74 806.8146626904936,429.65999999999997" />
<polyline fill="none" stroke="#000000ff" stroke-width="2" points="712.3139706295358,429.65999999999997 712.3139706295358,429.65999999999997" />
<polyline fill="none" stroke="#000000ff" stroke-width="2" points="712.3139706295358,429.65999999999997 712.3139706295358,429.65999999999997 735.9391436447752,388.74" />
<polyline fill="none" stroke="#000000ff" stroke-width="2" points="641.4384515838171,388.74 641.4384515838171,388.74 665.0636245990568,347.82 712.3139706295358,347.82 735.9391436447752,388.74" />
<polyline fill="none" stroke="#000000ff" stroke-width="2" points="641.4384515838171,388.74 641.4384515838171,388.74" />
<polyline fill="none" stroke="#000000ff" stroke-width="2" points="641.4384515838171,388.74 641.4384515838171,388.74 665.0636245990568,347.82" />
<polyline fill="none" stroke="#000000ff" stroke-width="2" points="570.5629325380987,347.82 570.5629325380987,347.82 594.1881055533382,306.9 641.4384515838171,306.9 665.0636245990568,347.82" />
<polyline fill="none" stroke="#000000ff" stroke-width="2" points="570.5629325380987,347.82 570.5629325380987,347.82" />
<polyline fill="none" stroke="#000000ff" stroke-width="2" points="570.5629325380987,347.82 570.5629325380987,347.82 594.1881055533382,306.9" />
<polyline fill="none" stroke="#000000ff" stroke-width="2" points="499.68741349238024,306.9 499.68741349238024,306.9 523.3125865076197,265.98 570.5629325380987,265.98 594.1881055533382,306.9 641.4384515838171,306.9 665.0636245990568,347.82 712.3139706295358,347.82 735.9391436447752,388.74 783.1894896752542,388.74 806.8146626904936,429.65999999999997 854.0650087209726,429.65999999999997" />
<polyline fill="none" stroke="#000000ff" stroke-width="2" points="854.0650087209726,429.65999999999997 854.0650087209726,429.65999999999997 877.690181736212,388.74" />
<polyline fill="none" stroke="#000000ff" stroke-width="2" points="783.1894896752542,388.74 783.1894896752542,388.74 806.8146626904936,347.82 854.0650087209726,347.82 877.690181736212,388.74" />
<polyline fill="none" stroke="#000000ff" stroke-width="2" points="783.1894896752542,388.74 783.1894896752542,388.74" />
<polyline fill="none" stroke="#000000ff" stroke-width="2" points="783.1894896752542,388.74 783.1894896752542,388.74 806.8146626904936,347.82" />
<polyline fill="none" stroke="#000000ff" stroke-width="2" points="712.3139706295358,347.82 712.3139706295358,347.82 735.9391436447752,306.9 783.1894896752542,306.9 806.8146626904936,347.82" />
<polyline fill="none" stroke="#000000ff" stroke-width="2" points="712.3139706295358,347.82 712.3139706295358,347.82" />
<polyline fill="none" stroke="#000000ff" stroke-width="2" points="712.3139706295358,347.82 712.3139706295358,347.82 735.9391436447752,306.9" />
<polyline fill="none" stroke="#000000ff" stroke-width="2" points="641.4384515838171,306.9 641.4384515838171,306.9 665.0636245990568,265.98 712.3139706295358,265.98 735.9391436447752,306.9" />
<polyline fill="none" stroke="#000000ff" stroke-width="2" points="641.4384515838171,306.9 641.4384515838171,306.9" />
<polyline fill="none" stroke="#000000ff" stroke-width="2" points="641.4384515838171,306.9 641.4384515838171,306.9 665.0636245990568,265.98" />
<polyline fill="none" stroke="#000000ff" stroke-width="2" points="570.5629325380987,265.98 570.5629325380987,265.98 594.1881055533382,225.06 641.4384515838171,225.06 665.0636245990568,265.98 712.3139706295358,265.98 735.9391436447752,306.9 783.1894896752542,306.9 806.8146626904936,347.82 854.0650087209726,347.82" />
<polyline fill="none" stroke="#000000ff" stroke-width="2" points="854.0650087209726,347.82 854.0650087209726,347.82 877.690181736212,306.9" />
<polyline fill="none" stroke="#000000ff" stroke-width="2" points="783.1894896752542,306.9 783.1894896752542,306.9 806.8146626904936,265.98 854.0650087209726,265.98 877.690181736212,306.9" />
<polyline fill="none" stroke="#000000ff" stroke-width="2" points="783.1894896752542,306.9 783.1894896752542,306.9" />
<polyline fill="none" stroke="#000000ff" stroke-width="2" points="783.1894896752542,306.9 783.1894896752542,306.9 806.8146626904936,265.98" />
<polyline fill="none" stroke="#000000ff" stroke-width="2" points="712.3139706295358,265.98 712.3139706295358,265.98 735.9391436447752,225.06 783.1894896752542,225.06 806.8146626904936,265.98" />
<polyline fill="none" stroke="#000000ff" stroke-width="2" points="712.3139706295358,265.98 712.3139706295358,265.98" />
<polyline fill="none" stroke="#000000ff" stroke-width="2" points="712.3139706295358,265.98 712.3139706295358,265.98 735.9391436447752,225.06" />
<polyline fill="none" stroke="#000000ff" stroke-width="2" points="641.4384515838171,225.06 641.4384515838171,225.06 665.0636245990568,184.14 712.3139706295358,184.14 735.9391436447752,225.06 783.1894896752542,225.06 806.8146626904936,265.98 854.0650087209726,265.98" />
<polyline fill="none" stroke="#000000ff" stroke-width="2" points="854.0650087209726,265.98 854.0650087209726,265.98 877.690181736212,225.06" />
<polyline fill="none" stroke="#000000ff" stroke-width="2" points="783.1894896752542,225.06 783.1894896752542,225.06 806.8146626904936,184.14 854.0650087209726,184.14 877.690181736212,225.06" />
<polyline fill="none" stroke="#000000ff" stroke-width="2" points="783.1894896752542,225.06 783.1894896752542,225.06" />
<polyline fill="none" stroke="#000000ff" stroke-width="2" points="783.1894896752542,225.06 783.1894896752542,225.06 806.8146626904936,184.14" />
<polyline fill="none" stroke="#000000ff" stroke-width="2" points="712.3139706295358,184.14 712.3139706295358,184.14 735.9391436447752,143.22000000000003 783.1894896752542,143.22000000000003 806.8146626904936,184.14 854.0650087209726,184.14" />
<polyline fill="none" stroke="#000000ff" stroke-width="2" points="854.0650087209726,184.14 854.0650087209726,184.14 877.690181736212,143.22000000000003" />
<polyline fill="none" stroke="#000000ff" stroke-width="2" points="783.1894896752542,143.22000000000003 783.1894896752542,143.22000000000003 806.8146626904936,102.29999999999995 854.0650087209726,102.29999999999995" />
<polyline fill="none" stroke="#000000ff" stroke-width="2" points="854.0650087209726,102.29999999999995 854.0650087209726,102.29999999999995 877.690181736212,143.21999999999997" />
<polyline fill="none" stroke="#000000ff" stroke-width="2" points="783.1894896752542,143.22000000000003 783.1894896752542,143.22000000000003" />
<polyline fill="none" stroke="#000000ff" stroke-width="2" points="783.1894896752542,143.22000000000003 783.1894896752542,143.22000000000003 806.8146626904936,184.14" />
<polyline fill="none" stroke="#000000ff" stroke-width="2" points="712.3139706295358,184.14 712.3139706295358,184.14" />
<polyline fill="none" stroke="#000000ff" stroke-width="2" points="712.3139706295358,184.14 712.3139706295358,184.14 735.9391436447752,225.06" />
<polyline fill="none" stroke="#000000ff" stroke-width="2" points="641.4384515838171,225.06 641.4384515838171,225.06" />
<polyline fill="none" stroke="#000000ff" stroke-width="2" points="641.4384515838171,225.06 641.4384515838171,225.06 665.0636245990568,265.98" />
<polyline fill="none" stroke="#000000ff" stroke-width="2" points="570.5629325380987,265.98 570.5629325380987,265.98" />
<polyline fill="none" stroke="#000000ff" stroke-width="2" points="570.5629325380987,265.98 570.5629325380987,265.98 594.1881055533382,306.9" />
<polyline fill="none" stroke="#000000ff" stroke-width="2" points="499.68741349238024,306.9 499.68741349238024,306.9" />
<polyline fill="none" stroke="#000000ff" stroke-width="2" points="499.68741349238024,306.9 499.68741349238024,306.9 523.3125865076197,347.82" />
<polyline fill="none" stroke="#000000ff" stroke-width="2" points="428.8118944466618,347.82 428.8118944466618,347.82" />
<polyline fill="none" stroke="#000000ff" stroke-width="2" points="428.8118944466618,347.82 428.8118944466618,347.82 452.4370674619013,388.74" />
<polyline fill="none" stroke="#000000ff" stroke-width="2" points="357.93637540094335,388.74 357.93637540094335,388.74" />
<polyline fill="none" stroke="#000000ff" stroke-width="2" points="357.93637540094335,388.74 357.93637540094335,388.74 381.5615484161828,429.65999999999997" />
<polyline fill="none" stroke="#000000ff" stroke-width="2" points="287.06085635522487,429.66 287.06085635522487,429.66" />
<polyline fill="none" stroke="#000000ff" stroke-width="2" points="287.06085635522487,429.66 287.06085635522487,429.66 310.6860293704643,470.58" />
<polyline fill="none" stroke="#000000ff" stroke-width="2" points="216.1853373095064,470.58 216.1853373095064,470.58" />
<polyline fill="none" stroke="#000000ff" stroke-width="2" points="216.1853373095064,470.58 216.1853373095064,470.58 239.81051032474588,511.5" />
<polyline fill="none" stroke="#000000ff" stroke-width="2" points="145.30981826378792,511.5 145.30981826378792,511.5" />
</svg>