<?xml version="1.0" standalone="no"?>
<svg width="1024" height="1024"
xmlns="http://www.w3.org/2000/svg" version="1.1">
<rect x="1" y="1" width="1024" height="1024"
fill="none" stroke="black" stroke-width="1" />
<polyline fill="none" stroke="#000000ff" stroke-width="2" points="157.1224047714079,716.1000000000001 157.1224047714079,716.1000000000001 165.87246885112623,716.1000000000001 170.24750089098538,723.6777777777779 174.62253293084456,716.1000000000001 183.37259701056288,716.1000000000001 187.74762905042203,723.6777777777779 183.37259701056288,731.2555555555557 192.1226610902812,731.2555555555557 196.49769313014036,738.8333333333335 200.8727251699995,731.2555555555557 209.62278924971784,731.2555555555557 205.2477572098587,723.6777777777779 209.62278924971784,716.1000000000001 218.37285332943617,716.1000000000001 222.74788536929532,723.6777777777779 227.1229174091545,716.1000000000001 235.87298148887282,716.1000000000001 240.24801352873197,723.6777777777779 235.87298148887282,731.2555555555557 244.62304556859115,731.2555555555557 248.9980776084503,738.8333333333335 244.62304556859115,746.4111111111113 235.87298148887282,746.4111111111113 240.24801352873197,753.988888888889 235.87298148887282,761.5666666666668 244.62304556859115,761.5666666666668 248.9980776084503,769.1444444444445 253.37310964830948,761.5666666666668 262.1231737280278,761.5666666666668 266.49820576788693,769.1444444444445 262.1231737280278,776.7222222222224 270.87323780774614,776.7222222222224 275.2482698476053,784.3000000000002 279.62330188746444,776.7222222222224 288.37336596718274,776.7222222222224 283.9983339273236,769.1444444444445 288.37336596718274,761.5666666666668 297.1234300469011,761.5666666666668 301.49846208676024,769.1444444444445 305.87349412661945,761.5666666666668 314.62355820633775,761.5666666666668 310.24852616647854,753.988888888889 314.62355820633775,746.4111111111113 305.87349412661945,746.4111111111113 301.49846208676024,738.8333333333335 305.87349412661945,731.2555555555557 314.62355820633775,731.2555555555557 310.24852616647854,723.6777777777779 314.62355820633775,716.1000000000001 323.37362228605605,716.1000000000001 327.74865432591525,723.6777777777779 332.1236863657744,716.1000000000001 340.8737504454927,716.1000000000001 345.24878248535185,723.6777777777779 340.8737504454927,731.2555555555557 349.62381452521106,731.2555555555557 353.9988465650702,738.8333333333335 358.37387860492936,731.2555555555557 367.12394268464766,731.2555555555557 362.74891064478857,723.6777777777779 367.12394268464766,716.1000000000001 375.874006764366,716.1000000000001 380.24903880422517,723.6777777777779 384.6240708440844,716.1000000000001 393.37413492380267,716.1000000000001 397.7491669636618,723.6777777777779 393.37413492380267,731.2555555555557 402.12419900352097,731.2555555555557 406.4992310433802,738.8333333333335 402.12419900352097,746.4111111111113 393.37413492380267,746.4111111111113 397.7491669636618,753.988888888889 393.37413492380267,761.5666666666668 402.12419900352097,761.5666666666668 406.4992310433802,769.1444444444445 410.87426308323927,761.5666666666668 419.6243271629576,761.5666666666668 423.9993592028168,769.1444444444445 419.6243271629576,776.7222222222224 428.374391242676,776.7222222222224 432.74942328253513,784.3000000000002 428.374391242676,791.8777777777779 419.6243271629576,791.8777777777779 423.9993592028168,799.4555555555557 419.6243271629576,807.0333333333334 410.87426308323927,807.0333333333334 406.4992310433802,799.4555555555557 402.12419900352097,807.0333333333334 393.37413492380267,807.0333333333334 397.7491669636618,814.6111111111111 393.37413492380267,822.1888888888891 402.12419900352097,822.1888888888891 406.4992310433802,829.7666666666667 402.12419900352097,837.3444444444447 393.37413492380267,837.3444444444447 397.7491669636618,844.9222222222224 393.37413492380267,852.5 402.12419900352097,852.5 406.4992310433802,860.077777777778 410.87426308323927,852.5 419.6243271629576,852.5 423.9993592028168,860.077777777778 419.6243271629576,867.6555555555556 428.374391242676,867.6555555555556 432.74942328253513,875.2333333333333 437.1244553223943,867.6555555555556 445.8745194021126,867.6555555555556 441.49948736225343,860.077777777778 445.8745194021126,852.5 454.62458348183094,852.5 458.9996155216901,860.077777777778 463.37464756154924,852.5 472.1247116412676,852.5 476.49974368112674,860.077777777778 472.1247116412676,867.6555555555556 480.8747757209859,867.6555555555556 485.24980776084504,875.2333333333333 480.8747757209859,882.8111111111111 472.1247116412676,882.8111111111111 476.49974368112674,890.3888888888889 472.1247116412676,897.9666666666667 480.8747757209859,897.9666666666667 485.24980776084504,905.5444444444445 489.62483980070425,897.9666666666667 498.37490388042255,897.9666666666667 502.7499359202817,905.5444444444445 498.37490388042255,913.1222222222223 507.1249679601409,913.1222222222223 511.50000000000006,920.7 515.8750320398592,913.1222222222223 524.6250961195775,913.1222222222223 520.2500640797184,905.5444444444445 524.6250961195775,897.9666666666667 533.3751601992958,897.9666666666667 537.750192239155,905.5444444444445 542.1252242790142,897.9666666666667 550.8752883587325,897.9666666666667 546.5002563188733,890.3888888888889 550.8752883587325,882.8111111111111 542.1252242790142,882.8111111111111 537.750192239155,875.2333333333333 542.1252242790142,867.6555555555556 550.8752883587325,867.6555555555556 546.5002563188733,860.077777777778 550.8752883587325,852.5 559.6253524384508,852.5 564.00038447831,860.077777777778 568.3754165181692,852.5 577.1254805978874,852.5 581.5005126377466,860.077777777778 577.1254805978874,867.6555555555556 585.8755446776058,867.6555555555556 590.250576717465,875.2333333333333 594.6256087573241,867.6555555555556 603.3756728370424,867.6555555555556 599.0006407971832,860.077777777778 603.3756728370424,852.5 612.1257369167608,852.5 616.5007689566199,860.077777777778 620.875800996479,852.5 629.6258650761974,852.5 625.2508330363382,844.9222222222224 629.6258650761974,837.3444444444447 620.875800996479,837.3444444444447 616.5007689566199,829.7666666666667 620.875800996479,822.1888888888891 629.6258650761974,822.1888888888891 625.2508330363382,814.6111111111111 629.6258650761974,807.0333333333334 620.875800996479,807.0333333333334 616.5007689566199,799.4555555555557 612.1257369167608,807.0333333333334 603.3756728370424,807.0333333333334 599.0006407971832,799.4555555555557 603.3756728370424,791.8777777777779 594.6256087573241,791.8777777777779 590.250576717465,784.3000000000002 594.6256087573241,776.7222222222224 603.3756728370424,776.7222222222224 599.0006407971832,769.1444444444445 603.3756728370424,761.5666666666668 612.1257369167608,761.5666666666668 616.5007689566199,769.1444444444445 620.875800996479,761.5666666666668 629.6258650761974,761.5666666666668 625.2508330363382,753.988888888889 629.6258650761974,746.4111111111113 620.875800996479,746.4111111111113 616.5007689566199,738.8333333333335 620.875800996479,731.2555555555557 629.6258650761974,731.2555555555557 625.2508330363382,723.6777777777779 629.6258650761974,716.1000000000001 638.3759291559157,716.1000000000001 642.7509611957748,723.6777777777779 647.125993235634,716.1000000000001 655.8760573153525,716.1000000000001 660.2510893552115,723.6777777777779 655.8760573153525,731.2555555555557 664.6261213950706,731.2555555555557 669.0011534349298,738.8333333333335 673.376185474789,731.2555555555557 682.1262495545074,731.2555555555557 677.7512175146483,723.6777777777779 682.1262495545074,716.1000000000001 690.8763136342257,716.1000000000001 695.2513456740849,723.6777777777779 699.6263777139441,716.1000000000001 708.3764417936624,716.1000000000001 712.7514738335215,723.6777777777779 708.3764417936624,731.2555555555557 717.1265058733807,731.2555555555557 721.5015379132399,738.8333333333335 717.1265058733807,746.4111111111113 708.3764417936624,746.4111111111113 712.7514738335215,753.988888888889 708.3764417936624,761.5666666666668 717.1265058733807,761.5666666666668 721.5015379132399,769.1444444444445 725.876569953099,761.5666666666668 734.6266340328173,761.5666666666668 739.0016660726765,769.1444444444445 734.6266340328173,776.7222222222224 743.3766981125357,776.7222222222224 747.7517301523948,784.3000000000002 752.126762192254,776.7222222222224 760.8768262719723,776.7222222222224 756.5017942321131,769.1444444444445 760.8768262719723,761.5666666666668 769.6268903516906,761.5666666666668 774.0019223915498,769.1444444444445 778.376954431409,761.5666666666668 787.1270185111273,761.5666666666668 782.7519864712681,753.988888888889 787.1270185111273,746.4111111111113 778.376954431409,746.4111111111113 774.0019223915498,738.8333333333335 778.376954431409,731.2555555555557 787.1270185111273,731.2555555555557 782.7519864712681,723.6777777777779 787.1270185111273,716.1000000000001 795.8770825908456,716.1000000000001 800.2521146307048,723.6777777777779 804.6271466705639,716.1000000000001 813.3772107502822,716.1000000000001 817.7522427901414,723.6777777777779 813.3772107502822,731.2555555555557 822.1272748300006,731.2555555555557 826.5023068698597,738.8333333333335 830.8773389097189,731.2555555555557 839.6274029894372,731.2555555555557 835.252370949578,723.6777777777779 839.6274029894372,716.1000000000001 848.3774670691555,716.1000000000001 852.7524991090147,723.6777777777779 857.1275311488739,716.1000000000001 865.8775952285922,716.1000000000001 861.502563188733,708.5222222222224 865.8775952285922,700.9444444444446 857.1275311488739,700.9444444444446 852.7524991090147,693.3666666666668 857.1275311488739,685.788888888889 865.8775952285922,685.788888888889 861.502563188733,678.2111111111112 865.8775952285922,670.6333333333334 857.1275311488739,670.6333333333334 852.7524991090147,663.0555555555558 848.3774670691555,670.6333333333334 839.6274029894372,670.6333333333334 835.252370949578,663.0555555555558 839.6274029894372,655.477777777778 830.8773389097189,655.477777777778 826.5023068698597,647.9000000000001 830.8773389097189,640.3222222222224 839.6274029894372,640.3222222222224 835.252370949578,632.7444444444445 839.6274029894372,625.1666666666669 848.3774670691555,625.1666666666669 852.7524991090147,632.7444444444445 857.1275311488739,625.1666666666669 865.8775952285922,625.1666666666669 861.502563188733,617.5888888888891 865.8775952285922,610.0111111111112 857.1275311488739,610.0111111111112 852.7524991090147,602.4333333333335 857.1275311488739,594.8555555555558 865.8775952285922,594.8555555555558 861.502563188733,587.2777777777779 865.8775952285922,579.7000000000002 857.1275311488739,579.7000000000002 852.7524991090147,572.1222222222224 848.3774670691555,579.7000000000002 839.6274029894372,579.7000000000002 835.252370949578,572.1222222222224 839.6274029894372,564.5444444444447 830.8773389097189,564.5444444444447 826.5023068698597,556.9666666666669 822.1272748300006,564.5444444444447 813.3772107502822,564.5444444444447 817.7522427901414,572.1222222222224 813.3772107502822,579.7000000000002 804.6271466705639,579.7000000000002 800.2521146307048,572.1222222222224 795.8770825908456,579.7000000000002 787.1270185111273,579.7000000000002 782.7519864712681,572.1222222222224 787.1270185111273,564.5444444444447 778.376954431409,564.5444444444447 774.0019223915498,556.9666666666669 778.376954431409,549.3888888888891 787.1270185111273,549.3888888888891 782.7519864712681,541.8111111111114 787.1270185111273,534.2333333333336 778.376954431409,534.2333333333336 774.0019223915498,526.6555555555558 769.6268903516906,534.2333333333336 760.8768262719723,534.2333333333336 756.5017942321131,526.6555555555558 760.8768262719723,519.077777777778 752.126762192254,519.077777777778 747.7517301523948,511.5000000000002 752.126762192254,503.9222222222225 760.8768262719723,503.9222222222225 756.5017942321131,496.3444444444448 760.8768262719723,488.766666666667 769.6268903516906,488.766666666667 774.0019223915498,496.3444444444448 778.376954431409,488.766666666667 787.1270185111273,488.766666666667 782.7519864712681,481.1888888888892 787.1270185111273,473.6111111111114 778.376954431409,473.6111111111114 774.0019223915498,466.03333333333376 778.376954431409,458.4555555555559 787.1270185111273,458.4555555555559 782.7519864712681,450.87777777777814 787.1270185111273,443.3000000000004 795.8770825908456,443.3000000000004 800.2521146307048,450.87777777777814 804.6271466705639,443.3000000000004 813.3772107502822,443.3000000000004 817.7522427901414,450.87777777777814 813.3772107502822,458.4555555555559 822.1272748300006,458.4555555555559 826.5023068698597,466.03333333333376 830.8773389097189,458.4555555555559 839.6274029894372,458.4555555555559 835.252370949578,450.87777777777814 839.6274029894372,443.3000000000004 848.3774670691555,443.3000000000004 852.7524991090147,450.87777777777814 857.1275311488739,443.3000000000004 865.8775952285922,443.3000000000004 861.502563188733,435.7222222222226 865.8775952285922,428.1444444444448 857.1275311488739,428.1444444444448 852.7524991090147,420.566666666667 857.1275311488739,412.9888888888892 865.8775952285922,412.9888888888892 861.502563188733,405.4111111111114 865.8775952285922,397.8333333333336 857.1275311488739,397.8333333333336 852.7524991090147,390.2555555555558 848.3774670691555,397.8333333333336 839.6274029894372,397.8333333333336 835.252370949578,390.2555555555558 839.6274029894372,382.67777777777803 830.8773389097189,382.67777777777803 826.5023068698597,375.10000000000025 830.8773389097189,367.52222222222247 839.6274029894372,367.52222222222247 835.252370949578,359.9444444444446 839.6274029894372,352.36666666666684 848.3774670691555,352.36666666666684 852.7524991090147,359.9444444444446 857.1275311488739,352.36666666666684 865.8775952285922,352.36666666666684 861.502563188733,344.78888888888906 865.8775952285922,337.2111111111113 857.1275311488739,337.2111111111113 852.7524991090147,329.63333333333344 857.1275311488739,322.05555555555566 865.8775952285922,322.05555555555566 861.502563188733,314.4777777777779 865.8775952285922,306.9000000000001 857.1275311488739,306.9000000000001 852.7524991090147,299.3222222222223 848.3774670691555,306.9000000000001 839.6274029894372,306.9000000000001 835.252370949578,299.3222222222223 839.6274029894372,291.74444444444447 830.8773389097189,291.74444444444447 826.5023068698597,284.1666666666667 822.1272748300006,291.74444444444447 813.3772107502822,291.74444444444447 817.7522427901414,299.3222222222223 813.3772107502822,306.9000000000001 804.6271466705639,306.9000000000001 800.2521146307048,299.3222222222223 795.8770825908456,306.9000000000001 787.1270185111273,306.9000000000001 782.7519864712681,299.3222222222223 787.1270185111273,291.74444444444447 778.376954431409,291.74444444444447 774.0019223915498,284.1666666666667 778.376954431409,276.5888888888889 787.1270185111273,276.5888888888889 782.7519864712681,269.0111111111111 787.1270185111273,261.4333333333333 778.376954431409,261.4333333333333 774.0019223915498,253.8555555555555 769.6268903516906,261.4333333333333 760.8768262719723,261.4333333333333 756.5017942321131,253.8555555555555 760.8768262719723,246.27777777777771 752.126762192254,246.27777777777771 747.7517301523948,238.69999999999993 743.3766981125357,246.27777777777771 734.6266340328173,246.27777777777771 739.0016660726765,253.8555555555555 734.6266340328173,261.4333333333333 725.876569953099,261.4333333333333 721.5015379132399,253.8555555555555 717.1265058733807,261.4333333333333 708.3764417936624,261.4333333333333 712.7514738335215,269.0111111111111 708.3764417936624,276.5888888888889 717.1265058733807,276.5888888888889 721.5015379132399,284.1666666666667 717.1265058733807,291.74444444444447 708.3764417936624,291.74444444444447 712.7514738335215,299.3222222222223 708.3764417936624,306.9000000000001 699.6263777139441,306.9000000000001 695.2513456740849,299.3222222222223 690.8763136342257,306.9000000000001 682.1262495545074,306.9000000000001 677.7512175146483,299.3222222222223 682.1262495545074,291.74444444444447 673.376185474789,291.74444444444447 669.0011534349298,284.1666666666667 664.6261213950706,291.74444444444447 655.8760573153525,291.74444444444447 660.2510893552115,299.3222222222223 655.8760573153525,306.9000000000001 647.125993235634,306.9000000000001 642.7509611957748,299.3222222222223 638.3759291559157,306.9000000000001 629.6258650761974,306.9000000000001 625.2508330363382,299.3222222222223 629.6258650761974,291.74444444444447 620.875800996479,291.74444444444447 616.5007689566199,284.1666666666667 620.875800996479,276.5888888888889 629.6258650761974,276.5888888888889 625.2508330363382,269.0111111111111 629.6258650761974,261.4333333333333 620.875800996479,261.4333333333333 616.5007689566199,253.8555555555555 612.1257369167608,261.4333333333333 603.3756728370424,261.4333333333333 599.0006407971832,253.8555555555555 603.3756728370424,246.27777777777771 594.6256087573241,246.27777777777771 590.250576717465,238.69999999999993 594.6256087573241,231.12222222222212 603.3756728370424,231.12222222222212 599.0006407971832,223.5444444444443 603.3756728370424,215.96666666666653 612.1257369167608,215.96666666666653 616.5007689566199,223.5444444444443 620.875800996479,215.96666666666653 629.6258650761974,215.96666666666653 625.2508330363382,208.38888888888874 629.6258650761974,200.81111111111096 620.875800996479,200.81111111111096 616.5007689566199,193.23333333333315 620.875800996479,185.65555555555534 629.6258650761974,185.65555555555534 625.2508330363382,178.07777777777756 629.6258650761974,170.49999999999974 620.875800996479,170.49999999999974 616.5007689566199,162.92222222222196 612.1257369167608,170.49999999999974 603.3756728370424,170.49999999999974 599.0006407971832,162.92222222222196 603.3756728370424,155.34444444444418 594.6256087573241,155.34444444444418 590.250576717465,147.76666666666642 585.8755446776058,155.34444444444418 577.1254805978874,155.34444444444418 581.5005126377466,162.92222222222196 577.1254805978874,170.49999999999974 568.3754165181692,170.49999999999974 564.00038447831,162.92222222222196 559.6253524384508,170.49999999999974 550.8752883587325,170.49999999999974 546.5002563188733,162.92222222222196 550.8752883587325,155.34444444444418 542.1252242790142,155.34444444444418 537.750192239155,147.76666666666642 542.1252242790142,140.1888888888887 550.8752883587325,140.1888888888887 546.5002563188733,132.61111111111097 550.8752883587325,125.03333333333325 542.1252242790142,125.03333333333325 537.750192239155,117.45555555555549 533.3751601992958,125.03333333333325 524.6250961195775,125.03333333333325 520.2500640797184,117.45555555555549 524.6250961195775,109.87777777777777 515.8750320398592,109.87777777777777 511.50000000000006,102.30000000000004 507.1249679601409,109.87777777777777 498.37490388042255,109.87777777777777 502.7499359202817,117.45555555555549 498.37490388042255,125.03333333333325 489.62483980070425,125.03333333333325 485.24980776084504,117.45555555555549 480.8747757209859,125.03333333333325 472.1247116412676,125.03333333333325 476.49974368112674,132.61111111111097 472.1247116412676,140.1888888888887 480.8747757209859,140.1888888888887 485.24980776084504,147.76666666666642 480.8747757209859,155.34444444444418 472.1247116412676,155.34444444444418 476.49974368112674,162.92222222222196 472.1247116412676,170.49999999999974 463.37464756154924,170.49999999999974 458.9996155216901,162.92222222222196 454.62458348183094,170.49999999999974 445.8745194021126,170.49999999999974 441.49948736225343,162.92222222222196 445.8745194021126,155.34444444444418 437.1244553223943,155.34444444444418 432.74942328253513,147.76666666666642 428.374391242676,155.34444444444418 419.6243271629576,155.34444444444418 423.9993592028168,162.92222222222196 419.6243271629576,170.49999999999974 410.87426308323927,170.49999999999974 406.4992310433802,162.92222222222196 402.12419900352097,170.49999999999974 393.37413492380267,170.49999999999974 397.7491669636618,178.07777777777756 393.37413492380267,185.65555555555534 402.12419900352097,185.65555555555534 406.4992310433802,193.23333333333315 402.12419900352097,200.81111111111096 393.37413492380267,200.81111111111096 397.7491669636618,208.38888888888874 393.37413492380267,215.96666666666653 402.12419900352097,215.96666666666653 406.4992310433802,223.5444444444443 410.87426308323927,215.96666666666653 419.6243271629576,215.96666666666653 423.9993592028168,223.5444444444443 419.6243271629576,231.12222222222212 428.374391242676,231.12222222222212 432.74942328253513,238.69999999999993 428.374391242676,246.27777777777771 419.6243271629576,246.27777777777771 423.9993592028168,253.8555555555555 419.6243271629576,261.4333333333333 410.87426308323927,261.4333333333333 406.4992310433802,253.8555555555555 402.12419900352097,261.4333333333333 393.37413492380267,261.4333333333333 397.7491669636618,269.0111111111111 393.37413492380267,276.5888888888889 402.12419900352097,276.5888888888889 406.4992310433802,284.1666666666667 402.12419900352097,291.74444444444447 393.37413492380267,291.74444444444447 397.7491669636618,299.3222222222223 393.37413492380267,306.9000000000001 384.6240708440844,306.9000000000001 380.24903880422517,299.3222222222223 375.874006764366,306.9000000000001 367.12394268464766,306.9000000000001 362.74891064478857,299.3222222222223 367.12394268464766,291.74444444444447 358.37387860492936,291.74444444444447 353.9988465650702,284.1666666666667 349.62381452521106,291.74444444444447 340.8737504454927,291.74444444444447 345.24878248535185,299.3222222222223 340.8737504454927,306.9000000000001 332.1236863657744,306.9000000000001 327.74865432591525,299.3222222222223 323.37362228605605,306.9000000000001 314.62355820633775,306.9000000000001 310.24852616647854,299.3222222222223 314.62355820633775,291.74444444444447 305.87349412661945,291.74444444444447 301.49846208676024,284.1666666666667 305.87349412661945,276.5888888888889 314.62355820633775,276.5888888888889 310.24852616647854,269.0111111111111 314.62355820633775,261.4333333333333 305.87349412661945,261.4333333333333 301.49846208676024,253.8555555555555 297.1234300469011,261.4333333333333 288.37336596718274,261.4333333333333 283.9983339273236,253.8555555555555 288.37336596718274,246.27777777777771 279.62330188746444,246.27777777777771 275.2482698476053,238.69999999999993 270.87323780774614,246.27777777777771 262.1231737280278,246.27777777777771 266.49820576788693,253.8555555555555 262.1231737280278,261.4333333333333 253.37310964830948,261.4333333333333 248.9980776084503,253.8555555555555 244.62304556859115,261.4333333333333 235.87298148887282,261.4333333333333 240.24801352873197,269.0111111111111 235.87298148887282,276.5888888888889 244.62304556859115,276.5888888888889 248.9980776084503,284.1666666666667 244.62304556859115,291.74444444444447 235.87298148887282,291.74444444444447 240.24801352873197,299.3222222222223 235.87298148887282,306.9000000000001 227.1229174091545,306.9000000000001 222.74788536929532,299.3222222222223 218.37285332943617,306.9000000000001 209.62278924971784,306.9000000000001 205.2477572098587,299.3222222222223 209.62278924971784,291.74444444444447 200.8727251699995,291.74444444444447 196.49769313014036,284.1666666666667 192.12266109028118,291.74444444444447 183.37259701056286,291.74444444444447 187.74762905042203,299.3222222222223 183.37259701056286,306.9000000000001 174.62253293084456,306.9000000000001 170.24750089098538,299.3222222222223 165.87246885112623,306.9000000000001 157.1224047714079,306.9000000000001 161.49743681126705,314.4777777777779 157.1224047714079,322.05555555555566 165.8724688511262,322.05555555555566 170.24750089098538,329.63333333333344 165.8724688511262,337.2111111111113 157.12240477140787,337.2111111111113 161.49743681126705,344.78888888888906 157.12240477140787,352.36666666666684 165.8724688511262,352.36666666666684 170.24750089098538,359.9444444444446 174.62253293084453,352.36666666666684 183.37259701056286,352.36666666666684 187.747629050422,359.9444444444446 183.37259701056286,367.52222222222247 192.12266109028116,367.52222222222247 196.49769313014033,375.10000000000025 192.12266109028116,382.67777777777803 183.37259701056283,382.67777777777803 187.747629050422,390.2555555555558 183.37259701056283,397.8333333333336 174.6225329308445,397.8333333333336 170.24750089098535,390.2555555555558 165.87246885112617,397.8333333333336 157.12240477140787,397.8333333333336 161.49743681126702,405.4111111111114 157.12240477140784,412.9888888888892 165.87246885112617,412.9888888888892 170.24750089098535,420.566666666667 165.87246885112617,428.1444444444448 157.12240477140784,428.1444444444448 161.49743681126702,435.7222222222226 157.12240477140784,443.3000000000004 165.87246885112617,443.3000000000004 170.24750089098532,450.87777777777814 174.6225329308445,443.3000000000004 183.37259701056283,443.3000000000004 187.74762905042198,450.87777777777814 183.37259701056283,458.45555555555586 192.12266109028116,458.45555555555586 196.4976931301403,466.03333333333364 200.87272516999946,458.45555555555586 209.62278924971778,458.45555555555586 205.24775720985863,450.87777777777814 209.62278924971778,443.3000000000004 218.3728533294361,443.3000000000004 222.74788536929526,450.87777777777814 227.12291740915444,443.3000000000004 235.87298148887277,443.3000000000004 240.24801352873192,450.87777777777814 235.87298148887277,458.45555555555586 244.62304556859107,458.45555555555586 248.99807760845025,466.03333333333364 244.62304556859107,473.6111111111114 235.87298148887277,473.6111111111114 240.24801352873192,481.1888888888892 235.87298148887277,488.7666666666669 244.62304556859107,488.7666666666669 248.99807760845025,496.3444444444447 253.37310964830942,488.7666666666669 262.1231737280277,488.7666666666669 266.4982057678869,496.3444444444447 262.1231737280277,503.9222222222225 270.873237807746,503.9222222222225 275.24826984760523,511.5000000000002 270.873237807746,519.077777777778 262.1231737280277,519.077777777778 266.4982057678869,526.6555555555558 262.1231737280277,534.2333333333336 253.37310964830942,534.2333333333336 248.99807760845025,526.6555555555558 244.62304556859107,534.2333333333336 235.87298148887277,534.2333333333336 240.24801352873192,541.8111111111114 235.87298148887277,549.388888888889 244.62304556859107,549.388888888889 248.99807760845025,556.9666666666668 244.62304556859107,564.5444444444447 235.87298148887277,564.5444444444447 240.24801352873192,572.1222222222224 235.87298148887277,579.7 227.12291740915444,579.7 222.74788536929526,572.1222222222224 218.3728533294361,579.7 209.62278924971778,579.7 205.2477572098586,572.1222222222224 209.62278924971778,564.5444444444447 200.87272516999946,564.5444444444447 196.4976931301403,556.9666666666668 192.12266109028113,564.5444444444447 183.3725970105628,564.5444444444447 187.74762905042198,572.1222222222224 183.3725970105628,579.7 174.62253293084447,579.7 170.24750089098532,572.1222222222224 165.87246885112614,579.7 157.12240477140782,579.7 161.497436811267,587.2777777777779 157.12240477140782,594.8555555555556 165.87246885112614,594.8555555555556 170.24750089098532,602.4333333333335 165.87246885112614,610.0111111111112 157.12240477140782,610.0111111111112 161.497436811267,617.588888888889 157.12240477140782,625.1666666666669 165.87246885112614,625.1666666666669 170.2475008909853,632.7444444444445 174.62253293084447,625.1666666666669 183.3725970105628,625.1666666666669 187.74762905042195,632.7444444444445 183.3725970105628,640.3222222222223 192.1226610902811,640.3222222222223 196.49769313014028,647.9000000000001 192.1226610902811,655.4777777777779 183.37259701056277,655.4777777777779 187.74762905042195,663.0555555555557 183.37259701056277,670.6333333333334 174.62253293084444,670.6333333333334 170.2475008909853,663.0555555555557 165.87246885112611,670.6333333333334 157.1224047714078,670.6333333333334 161.49743681126697,678.2111111111112 157.1224047714078,685.788888888889 165.87246885112611,685.788888888889 170.2475008909853,693.3666666666667 165.87246885112611,700.9444444444446 157.1224047714078,700.9444444444446 161.49743681126697,708.5222222222224 157.1224047714078,716.1" />
</svg>