<?xml version="1.0" standalone="no"?>
<svg width="1024" height="1024"
xmlns="http://www.w3.org/2000/svg" version="1.1">
<rect x="1" y="1" width="1024" height="1024"
fill="none" stroke="black" stroke-width="1" />
<polyline fill="none" stroke="#000000ff" stroke-width="2" points="258.37314626529064,511.49999999999943 258.37314626529064,511.49999999999943" />
<polyline fill="none" stroke="#000000ff" stroke-width="2" points="275.2482698476046,511.49999999999943 275.2482698476046,511.49999999999943 283.68583163876156,526.1142857142852 300.5609552210755,526.1142857142852 308.99851701223247,540.728571428571 317.4360788033895,555.3428571428567 308.99851701223247,569.9571428571423 325.87364059454643,569.9571428571423 334.31120238570344,584.5714285714281 342.7487641768604,599.1857142857139 334.31120238570344,613.7999999999996 351.1863259680174,613.7999999999996 359.62388775917435,628.4142857142854 368.0614495503313,643.0285714285711 359.62388775917435,657.6428571428569 376.4990113414883,657.6428571428569 384.9365731326453,672.2571428571425 393.37413492380233,686.8714285714282 384.9365731326453,701.485714285714 401.8116967149593,701.485714285714 410.2492585061163,716.0999999999998 418.6868202972733,730.7142857142854 410.24925850611635,745.3285714285712 427.12438208843025,745.3285714285711 435.56194387958726,759.9428571428568 443.99950567074427,774.5571428571427 435.5619438795874,789.1714285714284 452.4370674619013,789.1714285714284 460.8746292530583,803.7857142857141 469.3121910442153,818.3999999999999 460.8746292530584,833.0142857142855 477.74975283537236,833.0142857142855 486.18731462652937,847.6285714285714 494.6248764176864,862.2428571428571 486.1873146265294,876.8571428571428 503.0624382088434,876.8571428571428 511.50000000000045,891.4714285714284 519.9375617911575,906.0857142857142 511.50000000000057,920.7" />
<polyline fill="none" stroke="#000000ff" stroke-width="2" points="511.50000000000057,920.7 511.50000000000057,920.7 503.06243820884356,906.0857142857144 511.50000000000057,891.4714285714285 519.9375617911576,876.8571428571428 536.8126853734715,876.8571428571428 528.3751235823145,891.4714285714284 511.50000000000045,891.4714285714284 494.62487641768655,891.4714285714284 486.18731462652954,876.8571428571428" />
<polyline fill="none" stroke="#000000ff" stroke-width="2" points="486.1873146265294,876.8571428571428 486.1873146265294,876.8571428571428 477.7497528353725,862.2428571428571 486.1873146265294,847.6285714285714 494.62487641768644,833.0142857142857 511.50000000000034,833.0142857142855 503.06243820884345,847.6285714285714 486.18731462652954,847.6285714285714 469.3121910442155,847.6285714285714 460.8746292530586,833.0142857142857" />
<polyline fill="none" stroke="#000000ff" stroke-width="2" points="460.8746292530584,833.0142857142855 460.8746292530584,833.0142857142855 452.4370674619014,818.3999999999999 460.8746292530584,803.7857142857142 469.3121910442154,789.1714285714285 486.1873146265293,789.1714285714285 477.7497528353724,803.7857142857142 460.87462925305846,803.7857142857142 443.9995056707445,803.7857142857142 435.56194387958755,789.1714285714286" />
<polyline fill="none" stroke="#000000ff" stroke-width="2" points="435.5619438795874,789.1714285714284 435.5619438795874,789.1714285714284 427.12438208843037,774.5571428571427 435.5619438795874,759.9428571428568 443.9995056707443,745.3285714285711 460.8746292530583,745.3285714285711 452.4370674619014,759.9428571428568 435.56194387958743,759.9428571428568 418.68682029727347,759.9428571428567 410.24925850611646,745.3285714285711" />
<polyline fill="none" stroke="#000000ff" stroke-width="2" points="410.24925850611635,745.3285714285712 410.24925850611635,745.3285714285712 401.81169671495934,730.7142857142854 410.24925850611635,716.0999999999997 418.68682029727336,701.4857142857138 435.56194387958726,701.4857142857138 427.12438208843037,716.0999999999997 410.2492585061164,716.0999999999997 393.37413492380244,716.0999999999997 384.9365731326455,701.4857142857138" />
<polyline fill="none" stroke="#000000ff" stroke-width="2" points="384.9365731326453,701.485714285714 384.9365731326453,701.485714285714 376.4990113414883,686.8714285714284 384.9365731326453,672.2571428571425 393.3741349238023,657.6428571428568 410.24925850611623,657.6428571428568 401.8116967149592,672.2571428571425 384.9365731326453,672.2571428571425 368.06144955033136,672.2571428571425 359.6238877591744,657.6428571428569" />
<polyline fill="none" stroke="#000000ff" stroke-width="2" points="359.62388775917435,657.6428571428569 359.62388775917435,657.6428571428569 351.18632596801734,643.0285714285711 359.6238877591743,628.4142857142854 368.0614495503313,613.7999999999996 384.9365731326452,613.7999999999996 376.49901134148826,628.4142857142854 359.6238877591743,628.4142857142854 342.7487641768604,628.4142857142854 334.3112023857034,613.7999999999996" />
<polyline fill="none" stroke="#000000ff" stroke-width="2" points="334.31120238570344,613.7999999999996 334.31120238570344,613.7999999999996 325.8736405945465,599.1857142857139 334.31120238570344,584.5714285714282 342.7487641768604,569.9571428571423 359.6238877591743,569.9571428571423 351.18632596801734,584.5714285714281 334.3112023857034,584.5714285714281 317.4360788033894,584.5714285714282 308.9985170122324,569.9571428571425" />
<polyline fill="none" stroke="#000000ff" stroke-width="2" points="308.99851701223247,569.9571428571423 308.99851701223247,569.9571428571423 300.5609552210755,555.3428571428567 308.99851701223247,540.728571428571 317.4360788033895,526.1142857142852 334.31120238570344,526.1142857142852 325.8736405945465,540.728571428571 308.9985170122325,540.728571428571 292.12339342991856,540.728571428571 283.6858316387616,526.1142857142852 292.12339342991856,511.49999999999943" />
<polyline fill="none" stroke="#000000ff" stroke-width="2" points="308.99851701223247,511.49999999999943 308.99851701223247,511.49999999999943" />
<polyline fill="none" stroke="#000000ff" stroke-width="2" points="325.87364059454643,511.49999999999943 325.87364059454643,511.49999999999943 334.31120238570344,526.1142857142852 351.1863259680174,526.1142857142852 359.62388775917435,540.728571428571 368.0614495503313,555.3428571428567 359.6238877591743,569.9571428571423 376.4990113414883,569.9571428571423 384.93657313264526,584.5714285714281 393.3741349238023,599.1857142857139 384.9365731326453,613.7999999999995 401.8116967149592,613.7999999999995 410.24925850611623,628.4142857142853 418.68682029727324,643.028571428571 410.2492585061163,657.6428571428568 427.12438208843025,657.6428571428567 435.56194387958726,672.2571428571424 443.99950567074427,686.8714285714282 435.5619438795873,701.4857142857138 452.4370674619013,701.4857142857138 460.8746292530583,716.0999999999997 469.3121910442153,730.7142857142853 460.8746292530584,745.3285714285711 477.7497528353723,745.3285714285711 486.1873146265293,759.9428571428567 494.6248764176863,774.5571428571425 486.1873146265294,789.1714285714284 503.06243820884333,789.1714285714284 511.5000000000004,803.785714285714 519.9375617911575,818.3999999999996 511.50000000000057,833.0142857142855 528.3751235823145,833.0142857142855 536.8126853734715,847.6285714285711 545.2502471646285,862.2428571428568 536.8126853734715,876.8571428571425" />
<polyline fill="none" stroke="#000000ff" stroke-width="2" points="536.8126853734715,876.8571428571425 536.8126853734715,876.8571428571425 528.3751235823145,862.2428571428568 536.8126853734715,847.6285714285711 545.2502471646285,833.0142857142853 562.1253707469424,833.0142857142853 553.6878089557855,847.6285714285709 536.8126853734716,847.6285714285709 519.9375617911576,847.6285714285709 511.50000000000045,833.0142857142853" />
<polyline fill="none" stroke="#000000ff" stroke-width="2" points="511.50000000000057,833.0142857142855 511.50000000000057,833.0142857142855 503.06243820884356,818.3999999999997 511.50000000000057,803.785714285714 519.9375617911576,789.1714285714284 536.8126853734714,789.1714285714284 528.3751235823144,803.785714285714 511.50000000000045,803.785714285714 494.6248764176865,803.785714285714 486.18731462652954,789.1714285714284" />
<polyline fill="none" stroke="#000000ff" stroke-width="2" points="486.1873146265294,789.1714285714284 486.1873146265294,789.1714285714284 477.7497528353724,774.5571428571425 486.1873146265294,759.9428571428567 494.62487641768644,745.3285714285711 511.50000000000034,745.3285714285711 503.06243820884345,759.9428571428567 486.1873146265295,759.9428571428567 469.3121910442155,759.9428571428567 460.8746292530585,745.328571428571" />
<polyline fill="none" stroke="#000000ff" stroke-width="2" points="460.8746292530584,745.3285714285711 460.8746292530584,745.3285714285711 452.4370674619014,730.7142857142854 460.8746292530584,716.0999999999997 469.31219104421535,701.4857142857138 486.1873146265293,701.4857142857138 477.7497528353724,716.0999999999997 460.8746292530584,716.0999999999996 443.9995056707445,716.0999999999996 435.5619438795875,701.4857142857138" />
<polyline fill="none" stroke="#000000ff" stroke-width="2" points="435.5619438795873,701.4857142857138 435.5619438795873,701.4857142857138 427.12438208843037,686.8714285714282 435.5619438795873,672.2571428571424 443.99950567074427,657.6428571428567 460.8746292530583,657.6428571428567 452.43706746190134,672.2571428571424 435.5619438795874,672.2571428571424 418.68682029727347,672.2571428571423 410.24925850611646,657.6428571428567" />
<polyline fill="none" stroke="#000000ff" stroke-width="2" points="410.2492585061163,657.6428571428568 410.2492585061163,657.6428571428568 401.81169671495934,643.028571428571 410.24925850611635,628.4142857142853 418.6868202972733,613.7999999999995 435.56194387958726,613.7999999999995 427.12438208843037,628.4142857142853 410.24925850611635,628.4142857142851 393.37413492380244,628.4142857142851 384.93657313264544,613.7999999999994" />
<polyline fill="none" stroke="#000000ff" stroke-width="2" points="384.9365731326453,613.7999999999995 384.9365731326453,613.7999999999995 376.4990113414883,599.1857142857139 384.93657313264526,584.5714285714281 393.3741349238022,569.9571428571423 410.24925850611623,569.9571428571423 401.8116967149592,584.5714285714281 384.93657313264526,584.5714285714281 368.0614495503313,584.5714285714281 359.62388775917435,569.9571428571423" />
<polyline fill="none" stroke="#000000ff" stroke-width="2" points="359.6238877591743,569.9571428571423 359.6238877591743,569.9571428571423 351.18632596801734,555.3428571428567 359.6238877591743,540.728571428571 368.0614495503313,526.1142857142852 384.9365731326452,526.1142857142852 376.49901134148826,540.728571428571 359.6238877591743,540.728571428571 342.7487641768604,540.728571428571 334.3112023857034,526.1142857142852 342.74876417686033,511.4999999999995" />
<polyline fill="none" stroke="#000000ff" stroke-width="2" points="359.6238877591743,511.4999999999995 359.6238877591743,511.4999999999995" />
<polyline fill="none" stroke="#000000ff" stroke-width="2" points="376.49901134148826,511.49999999999943 376.49901134148826,511.49999999999943 384.9365731326452,526.1142857142852 401.8116967149592,526.1142857142852 410.24925850611623,540.7285714285708 418.6868202972732,555.3428571428566 410.24925850611623,569.9571428571423 427.12438208843014,569.9571428571423 435.56194387958715,584.571428571428 443.99950567074416,599.1857142857137 435.56194387958726,613.7999999999995 452.4370674619012,613.7999999999995 460.87462925305823,628.4142857142851 469.31219104421524,643.028571428571 460.8746292530583,657.6428571428567 477.7497528353723,657.6428571428567 486.18731462652926,672.2571428571424 494.62487641768627,686.871428571428 486.18731462652937,701.4857142857138 503.06243820884333,701.4857142857138 511.50000000000034,716.0999999999996 519.9375617911573,730.7142857142853 511.50000000000045,745.3285714285711 528.3751235823145,745.3285714285711 536.8126853734715,759.9428571428567 545.2502471646285,774.5571428571425 536.8126853734715,789.1714285714281 553.6878089557854,789.1714285714281 562.1253707469425,803.7857142857139 570.5629325380995,818.3999999999996 562.1253707469425,833.0142857142853" />
<polyline fill="none" stroke="#000000ff" stroke-width="2" points="562.1253707469425,833.0142857142853 562.1253707469425,833.0142857142853 553.6878089557855,818.3999999999996 562.1253707469425,803.785714285714 570.5629325380994,789.1714285714281 587.4380561204134,789.1714285714281 579.0004943292564,803.785714285714 562.1253707469425,803.785714285714 545.2502471646285,803.7857142857142 536.8126853734716,789.1714285714285" />
<polyline fill="none" stroke="#000000ff" stroke-width="2" points="536.8126853734715,789.1714285714281 536.8126853734715,789.1714285714281 528.3751235823145,774.5571428571425 536.8126853734715,759.9428571428567 545.2502471646285,745.328571428571 562.1253707469424,745.3285714285709 553.6878089557855,759.9428571428567 536.8126853734716,759.9428571428566 519.9375617911576,759.9428571428566 511.50000000000045,745.328571428571" />
<polyline fill="none" stroke="#000000ff" stroke-width="2" points="511.50000000000045,745.3285714285711 511.50000000000045,745.3285714285711 503.0624382088435,730.7142857142853 511.50000000000045,716.0999999999996 519.9375617911575,701.4857142857138 536.8126853734714,701.4857142857138 528.3751235823144,716.0999999999996 511.50000000000045,716.0999999999996 494.6248764176865,716.0999999999996 486.18731462652954,701.4857142857138" />
<polyline fill="none" stroke="#000000ff" stroke-width="2" points="486.18731462652937,701.4857142857138 486.18731462652937,701.4857142857138 477.7497528353724,686.8714285714282 486.18731462652937,672.2571428571424 494.6248764176863,657.6428571428567 511.5000000000003,657.6428571428567 503.06243820884333,672.2571428571424 486.1873146265294,672.2571428571423 469.31219104421547,672.2571428571423 460.8746292530585,657.6428571428567" />
<polyline fill="none" stroke="#000000ff" stroke-width="2" points="460.8746292530583,657.6428571428567 460.8746292530583,657.6428571428567 452.43706746190134,643.028571428571 460.8746292530583,628.4142857142851 469.3121910442153,613.7999999999994 486.1873146265292,613.7999999999994 477.7497528353723,628.4142857142851 460.8746292530584,628.4142857142851 443.9995056707444,628.4142857142851 435.5619438795875,613.7999999999994" />
<polyline fill="none" stroke="#000000ff" stroke-width="2" points="435.56194387958726,613.7999999999995 435.56194387958726,613.7999999999995 427.1243820884303,599.1857142857137 435.56194387958726,584.571428571428 443.99950567074427,569.9571428571423 460.8746292530582,569.9571428571422 452.4370674619013,584.571428571428 435.5619438795873,584.571428571428 418.68682029727336,584.571428571428 410.2492585061164,569.9571428571422" />
<polyline fill="none" stroke="#000000ff" stroke-width="2" points="410.24925850611623,569.9571428571423 410.24925850611623,569.9571428571423 401.8116967149593,555.3428571428566 410.24925850611623,540.7285714285708 418.68682029727324,526.1142857142851 435.56194387958715,526.1142857142851 427.12438208843025,540.7285714285708 410.24925850611635,540.7285714285708 393.37413492380233,540.7285714285708 384.93657313264544,526.1142857142851 393.37413492380233,511.4999999999993" />
<polyline fill="none" stroke="#000000ff" stroke-width="2" points="410.24925850611635,511.49999999999926 410.24925850611635,511.49999999999926" />
<polyline fill="none" stroke="#000000ff" stroke-width="2" points="427.12438208843025,511.49999999999926 427.12438208843025,511.49999999999926 435.56194387958726,526.114285714285 452.4370674619012,526.114285714285 460.87462925305823,540.7285714285706 469.31219104421524,555.3428571428564 460.8746292530583,569.9571428571421 477.7497528353723,569.9571428571421 486.18731462652926,584.5714285714279 494.62487641768627,599.1857142857136 486.18731462652937,613.7999999999994 503.06243820884333,613.7999999999993 511.50000000000034,628.414285714285 519.9375617911573,643.0285714285708 511.50000000000045,657.6428571428565 528.3751235823145,657.6428571428565 536.8126853734715,672.2571428571422 545.2502471646285,686.8714285714279 536.8126853734715,701.4857142857136 553.6878089557854,701.4857142857136 562.1253707469425,716.0999999999992 570.5629325380995,730.7142857142851 562.1253707469425,745.3285714285709 579.0004943292565,745.3285714285709 587.4380561204136,759.9428571428566 595.8756179115705,774.5571428571425 587.4380561204136,789.1714285714281" />
<polyline fill="none" stroke="#000000ff" stroke-width="2" points="587.4380561204136,789.1714285714281 587.4380561204136,789.1714285714281 579.0004943292566,774.5571428571425 587.4380561204136,759.9428571428566 595.8756179115708,745.328571428571 612.7507414938847,745.3285714285709 604.3131797027278,759.9428571428567 587.4380561204139,759.9428571428567 570.5629325380999,759.9428571428567 562.1253707469427,745.3285714285711" />
<polyline fill="none" stroke="#000000ff" stroke-width="2" points="562.1253707469425,745.3285714285709 562.1253707469425,745.3285714285709 553.6878089557855,730.7142857142852 562.1253707469425,716.0999999999995 570.5629325380994,701.4857142857136 587.4380561204134,701.4857142857138 579.0004943292564,716.0999999999995 562.1253707469425,716.0999999999996 545.2502471646285,716.0999999999997 536.8126853734716,701.4857142857138" />
<polyline fill="none" stroke="#000000ff" stroke-width="2" points="536.8126853734715,701.4857142857136 536.8126853734715,701.4857142857136 528.3751235823145,686.8714285714279 536.8126853734715,672.2571428571422 545.2502471646285,657.6428571428564 562.1253707469424,657.6428571428564 553.6878089557855,672.2571428571422 536.8126853734716,672.2571428571421 519.9375617911576,672.2571428571421 511.50000000000045,657.6428571428564" />
<polyline fill="none" stroke="#000000ff" stroke-width="2" points="511.50000000000045,657.6428571428565 511.50000000000045,657.6428571428565 503.0624382088435,643.0285714285708 511.50000000000045,628.414285714285 519.9375617911575,613.7999999999993 536.8126853734714,613.7999999999993 528.3751235823144,628.4142857142849 511.50000000000045,628.4142857142849 494.6248764176865,628.4142857142849 486.18731462652954,613.7999999999992" />
<polyline fill="none" stroke="#000000ff" stroke-width="2" points="486.18731462652937,613.7999999999994 486.18731462652937,613.7999999999994 477.7497528353724,599.1857142857136 486.18731462652937,584.5714285714279 494.6248764176863,569.9571428571421 511.5000000000003,569.9571428571421 503.06243820884333,584.5714285714279 486.1873146265294,584.5714285714278 469.31219104421547,584.5714285714278 460.8746292530585,569.957142857142" />
<polyline fill="none" stroke="#000000ff" stroke-width="2" points="460.8746292530583,569.9571428571421 460.8746292530583,569.9571428571421 452.43706746190134,555.3428571428564 460.8746292530583,540.7285714285707 469.3121910442153,526.114285714285 486.1873146265292,526.114285714285 477.7497528353723,540.7285714285707 460.8746292530584,540.7285714285706 443.9995056707444,540.7285714285706 435.5619438795875,526.1142857142848 443.9995056707444,511.49999999999915" />
<polyline fill="none" stroke="#000000ff" stroke-width="2" points="460.8746292530584,511.4999999999991 460.8746292530584,511.4999999999991" />
<polyline fill="none" stroke="#000000ff" stroke-width="2" points="477.7497528353723,511.4999999999991 477.7497528353723,511.4999999999991 486.18731462652937,526.1142857142847 503.06243820884333,526.1142857142847 511.50000000000034,540.7285714285705 519.9375617911573,555.3428571428561 511.50000000000045,569.957142857142 528.3751235823145,569.9571428571419 536.8126853734715,584.5714285714276 545.2502471646285,599.1857142857134 536.8126853734715,613.799999999999 553.6878089557854,613.799999999999 562.1253707469425,628.4142857142847 570.5629325380995,643.0285714285703 562.1253707469425,657.6428571428562 579.0004943292565,657.6428571428563 587.4380561204136,672.2571428571421 595.8756179115705,686.8714285714277 587.4380561204136,701.4857142857134 604.3131797027277,701.4857142857134 612.7507414938846,716.0999999999992 621.1883032850415,730.714285714285 612.7507414938846,745.3285714285706" />
<polyline fill="none" stroke="#000000ff" stroke-width="2" points="612.7507414938846,745.3285714285706 612.7507414938846,745.3285714285706 604.3131797027274,730.714285714285 612.7507414938843,716.0999999999992 621.1883032850413,701.4857142857135 638.0634268673552,701.4857142857136 629.6258650761984,716.0999999999992 612.7507414938843,716.0999999999995 595.8756179115704,716.0999999999996 587.4380561204134,701.4857142857138" />
<polyline fill="none" stroke="#000000ff" stroke-width="2" points="587.4380561204136,701.4857142857134 587.4380561204136,701.4857142857134 579.0004943292566,686.8714285714277 587.4380561204136,672.2571428571421 595.8756179115708,657.6428571428564 612.7507414938847,657.6428571428563 604.3131797027278,672.2571428571421 587.4380561204139,672.2571428571421 570.5629325380999,672.2571428571421 562.1253707469427,657.6428571428564" />
<polyline fill="none" stroke="#000000ff" stroke-width="2" points="562.1253707469425,657.6428571428562 562.1253707469425,657.6428571428562 553.6878089557855,643.0285714285706 562.1253707469425,628.4142857142848 570.5629325380994,613.799999999999 587.4380561204134,613.7999999999992 579.0004943292564,628.4142857142848 562.1253707469425,628.4142857142849 545.2502471646285,628.4142857142851 536.8126853734716,613.7999999999993" />
<polyline fill="none" stroke="#000000ff" stroke-width="2" points="536.8126853734715,613.799999999999 536.8126853734715,613.799999999999 528.3751235823145,599.1857142857134 536.8126853734715,584.5714285714275 545.2502471646285,569.9571428571419 562.1253707469424,569.9571428571418 553.6878089557855,584.5714285714275 536.8126853734716,584.5714285714275 519.9375617911576,584.5714285714275 511.50000000000045,569.9571428571419" />
<polyline fill="none" stroke="#000000ff" stroke-width="2" points="511.50000000000045,569.957142857142 511.50000000000045,569.957142857142 503.0624382088435,555.3428571428561 511.50000000000045,540.7285714285705 519.9375617911575,526.1142857142846 536.8126853734714,526.1142857142846 528.3751235823144,540.7285714285704 511.50000000000045,540.7285714285704 494.6248764176865,540.7285714285704 486.18731462652954,526.1142857142846 494.62487641768644,511.4999999999988" />
<polyline fill="none" stroke="#000000ff" stroke-width="2" points="511.5000000000004,511.49999999999875 511.5000000000004,511.49999999999875" />
<polyline fill="none" stroke="#000000ff" stroke-width="2" points="528.3751235823142,511.49999999999875 528.3751235823142,511.49999999999875 536.8126853734714,526.1142857142845 553.6878089557854,526.1142857142844 562.1253707469423,540.7285714285701 570.5629325380994,555.3428571428558 562.1253707469425,569.9571428571415 579.0004943292564,569.9571428571417 587.4380561204134,584.5714285714274 595.8756179115705,599.1857142857131 587.4380561204135,613.7999999999988 604.3131797027274,613.7999999999988 612.7507414938843,628.4142857142846 621.1883032850412,643.0285714285703 612.7507414938843,657.6428571428562 629.6258650761984,657.6428571428562 638.0634268673554,672.2571428571418 646.5009886585124,686.8714285714275 638.0634268673555,701.4857142857132" />
<polyline fill="none" stroke="#000000ff" stroke-width="2" points="638.0634268673555,701.4857142857132 638.0634268673555,701.4857142857132 629.6258650761985,686.8714285714275 638.0634268673555,672.2571428571418 646.5009886585126,657.6428571428562 663.3761122408264,657.6428571428562 654.9385504496695,672.2571428571418 638.0634268673556,672.2571428571418 621.1883032850417,672.2571428571418 612.7507414938846,657.6428571428562" />
<polyline fill="none" stroke="#000000ff" stroke-width="2" points="612.7507414938843,657.6428571428562 612.7507414938843,657.6428571428562 604.3131797027272,643.0285714285703 612.7507414938843,628.4142857142847 621.1883032850412,613.7999999999989 638.0634268673552,613.7999999999989 629.6258650761981,628.4142857142847 612.7507414938843,628.4142857142848 595.8756179115703,628.4142857142849 587.4380561204133,613.7999999999992" />
<polyline fill="none" stroke="#000000ff" stroke-width="2" points="587.4380561204135,613.7999999999988 587.4380561204135,613.7999999999988 579.0004943292565,599.1857142857131 587.4380561204136,584.5714285714274 595.8756179115705,569.9571428571417 612.7507414938846,569.9571428571417 604.3131797027277,584.5714285714274 587.4380561204136,584.5714285714274 570.5629325380997,584.5714285714274 562.1253707469426,569.9571428571417" />
<polyline fill="none" stroke="#000000ff" stroke-width="2" points="562.1253707469425,569.9571428571415 562.1253707469425,569.9571428571415 553.6878089557854,555.3428571428559 562.1253707469423,540.7285714285703 570.5629325380994,526.1142857142844 587.4380561204132,526.1142857142845 579.0004943292563,540.7285714285703 562.1253707469423,540.7285714285704 545.2502471646284,540.7285714285705 536.8126853734714,526.1142857142847 545.2502471646285,511.49999999999903" />
<polyline fill="none" stroke="#000000ff" stroke-width="2" points="562.1253707469424,511.4999999999989 562.1253707469424,511.4999999999989" />
<polyline fill="none" stroke="#000000ff" stroke-width="2" points="579.0004943292563,511.4999999999989 579.0004943292563,511.4999999999989 587.4380561204132,526.1142857142846 604.3131797027272,526.1142857142846 612.7507414938841,540.7285714285704 621.188303285041,555.3428571428561 612.7507414938841,569.957142857142 629.6258650761981,569.957142857142 638.0634268673551,584.5714285714278 646.5009886585121,599.1857142857134 638.0634268673552,613.7999999999992 654.9385504496692,613.7999999999992 663.376112240826,628.4142857142848 671.8136740319829,643.0285714285706 663.376112240826,657.6428571428564" />
<polyline fill="none" stroke="#000000ff" stroke-width="2" points="663.376112240826,657.6428571428564 663.376112240826,657.6428571428564 654.938550449669,643.0285714285708 663.3761122408259,628.4142857142849 671.8136740319828,613.7999999999993 688.6887976142967,613.7999999999993 680.2512358231397,628.414285714285 663.3761122408258,628.4142857142851 646.5009886585119,628.4142857142853 638.0634268673549,613.7999999999995" />
<polyline fill="none" stroke="#000000ff" stroke-width="2" points="638.0634268673552,613.7999999999992 638.0634268673552,613.7999999999992 629.6258650761981,599.1857142857134 638.0634268673552,584.5714285714278 646.5009886585123,569.957142857142 663.3761122408262,569.957142857142 654.9385504496693,584.5714285714278 638.0634268673554,584.5714285714278 621.1883032850415,584.5714285714278 612.7507414938843,569.9571428571421" />
<polyline fill="none" stroke="#000000ff" stroke-width="2" points="612.7507414938841,569.957142857142 612.7507414938841,569.957142857142 604.313179702727,555.3428571428562 612.750741493884,540.7285714285705 621.188303285041,526.1142857142847 638.063426867355,526.1142857142848 629.6258650761979,540.7285714285706 612.750741493884,540.7285714285707 595.8756179115701,540.7285714285708 587.4380561204131,526.1142857142851 595.8756179115701,511.4999999999994" />
<polyline fill="none" stroke="#000000ff" stroke-width="2" points="612.7507414938841,511.4999999999993 612.7507414938841,511.4999999999993" />
<polyline fill="none" stroke="#000000ff" stroke-width="2" points="629.625865076198,511.49999999999926 629.625865076198,511.49999999999926 638.063426867355,526.1142857142851 654.9385504496688,526.114285714285 663.3761122408258,540.7285714285707 671.8136740319827,555.3428571428565 663.3761122408258,569.9571428571422 680.2512358231397,569.9571428571423 688.6887976142968,584.571428571428 697.1263594054539,599.1857142857137 688.6887976142968,613.7999999999994" />
<polyline fill="none" stroke="#000000ff" stroke-width="2" points="688.6887976142968,613.7999999999994 688.6887976142968,613.7999999999994 680.25123582314,599.1857142857137 688.6887976142968,584.571428571428 697.126359405454,569.9571428571423 714.0014829877679,569.9571428571422 705.5639211966111,584.571428571428 688.6887976142971,584.571428571428 671.8136740319832,584.5714285714281 663.376112240826,569.9571428571423" />
<polyline fill="none" stroke="#000000ff" stroke-width="2" points="663.3761122408258,569.9571428571422 663.3761122408258,569.9571428571422 654.9385504496687,555.3428571428566 663.3761122408257,540.7285714285708 671.8136740319826,526.1142857142851 688.6887976142965,526.1142857142852 680.2512358231395,540.7285714285708 663.3761122408256,540.728571428571 646.5009886585117,540.7285714285711 638.0634268673546,526.1142857142854 646.5009886585117,511.49999999999966" />
<polyline fill="none" stroke="#000000ff" stroke-width="2" points="663.3761122408257,511.4999999999996 663.3761122408257,511.4999999999996" />
<polyline fill="none" stroke="#000000ff" stroke-width="2" points="680.2512358231395,511.49999999999955 680.2512358231395,511.49999999999955 688.6887976142966,526.1142857142853 705.5639211966105,526.1142857142852 714.0014829877675,540.728571428571 722.4390447789244,555.3428571428568 714.0014829877675,569.9571428571426" />
<polyline fill="none" stroke="#000000ff" stroke-width="2" points="714.0014829877675,569.9571428571426 714.0014829877675,569.9571428571426 705.5639211966105,555.3428571428569 714.0014829877674,540.7285714285711 722.4390447789243,526.1142857142853 739.3141683612382,526.1142857142854 730.8766065700813,540.7285714285711 714.0014829877673,540.7285714285713 697.1263594054534,540.7285714285714 688.6887976142964,526.1142857142856 697.1263594054535,511.49999999999994" />
<polyline fill="none" stroke="#000000ff" stroke-width="2" points="714.0014829877674,511.4999999999999 714.0014829877674,511.4999999999999" />
<polyline fill="none" stroke="#000000ff" stroke-width="2" points="730.8766065700813,511.4999999999998 730.8766065700813,511.4999999999998 739.3141683612383,526.1142857142855 747.7517301523953,511.49999999999983" />
<polyline fill="none" stroke="#000000ff" stroke-width="2" points="764.6268537347094,511.4999999999998 764.6268537347094,511.4999999999998" />
<polyline fill="none" stroke="#000000ff" stroke-width="2" points="747.7517301523953,511.4999999999998 747.7517301523953,511.4999999999998 739.3141683612384,496.885714285714 722.4390447789245,496.885714285714 714.0014829877675,482.2714285714282 705.5639211966106,467.65714285714245 714.0014829877675,453.04285714285675 697.1263594054536,453.04285714285686 688.6887976142966,438.4285714285711 680.2512358231395,423.8142857142854 688.6887976142966,409.1999999999997 671.8136740319826,409.19999999999993 663.3761122408256,394.58571428571423 654.9385504496685,379.9714285714286 663.3761122408254,365.35714285714283 646.5009886585115,365.357142857143 638.0634268673543,350.74285714285725 629.6258650761974,336.12857142857155 638.0634268673543,321.51428571428585 621.1883032850404,321.51428571428585 612.7507414938835,306.9000000000001 604.3131797027266,292.2857142857143 612.7507414938837,277.67142857142863 595.8756179115697,277.6714285714285 587.438056120413,263.0571428571427 579.0004943292562,248.44285714285684 587.438056120413,233.82857142857102 570.562932538099,233.8285714285713 562.1253707469418,219.21428571428567 553.6878089557847,204.59999999999997 562.1253707469416,189.9857142857142 545.2502471646277,189.98571428571438 536.8126853734707,175.37142857142868 528.3751235823136,160.75714285714292 536.8126853734706,146.14285714285722 519.9375617911567,146.14285714285728 511.49999999999966,131.52857142857147 503.06243820884276,116.91428571428571 511.49999999999983,102.30000000000007" />
<polyline fill="none" stroke="#000000ff" stroke-width="2" points="511.49999999999983,102.30000000000007 511.49999999999983,102.30000000000007 519.9375617911569,116.91428571428571 511.5,131.52857142857147 503.06243820884305,146.14285714285728 486.1873146265291,146.14285714285722 494.62487641768587,131.52857142857135 511.49999999999983,131.52857142857124 528.3751235823138,131.52857142857113 536.8126853734707,146.14285714285688" />
<polyline fill="none" stroke="#000000ff" stroke-width="2" points="536.8126853734706,146.14285714285722 536.8126853734706,146.14285714285722 545.2502471646278,160.7571428571428 536.8126853734709,175.37142857142868 528.375123582314,189.9857142857145 511.5000000000001,189.98571428571455 519.9375617911572,175.3714285714289 536.8126853734711,175.37142857142868 553.6878089557852,175.3714285714284 562.1253707469423,189.9857142857141" />
<polyline fill="none" stroke="#000000ff" stroke-width="2" points="562.1253707469416,189.9857142857142 562.1253707469416,189.9857142857142 570.5629325380985,204.59999999999997 562.1253707469418,219.2142857142859 553.6878089557849,233.82857142857176 536.8126853734711,233.828571428572 545.250247164628,219.21428571428623 562.125370746942,219.21428571428635 579.000494329256,219.21428571428646 587.4380561204132,233.8285714285721" />
<polyline fill="none" stroke="#000000ff" stroke-width="2" points="587.438056120413,233.82857142857102 587.438056120413,233.82857142857102 595.87561791157,248.44285714285678 587.438056120413,263.0571428571425 579.0004943292558,277.6714285714281 562.1253707469419,277.6714285714284 570.5629325380988,263.0571428571426 587.4380561204127,263.05714285714265 604.3131797027268,263.0571428571427 612.7507414938837,277.67142857142846" />
<polyline fill="none" stroke="#000000ff" stroke-width="2" points="612.7507414938837,277.67142857142863 612.7507414938837,277.67142857142863 621.1883032850408,292.28571428571433 612.7507414938839,306.9000000000001 604.3131797027269,321.51428571428585 587.438056120413,321.51428571428573 595.8756179115696,306.89999999999986 612.7507414938837,306.8999999999998 629.6258650761977,306.89999999999975 638.0634268673546,321.51428571428545" />
<polyline fill="none" stroke="#000000ff" stroke-width="2" points="638.0634268673543,321.51428571428585 638.0634268673543,321.51428571428585 646.5009886585116,336.1285714285715 638.0634268673547,350.74285714285725 629.6258650761979,365.3571428571431 612.7507414938839,365.3571428571431 621.188303285041,350.7428571428575 638.063426867355,350.74285714285725 654.9385504496688,350.742857142857 663.3761122408259,365.3571428571427" />
<polyline fill="none" stroke="#000000ff" stroke-width="2" points="663.3761122408254,365.35714285714283 663.3761122408254,365.35714285714283 671.8136740319823,379.97142857142865 663.3761122408255,394.5857142857145 654.9385504496688,409.2000000000004 638.0634268673548,409.2000000000005 646.5009886585119,394.58571428571486 663.3761122408258,394.58571428571497 680.2512358231397,394.5857142857151 688.6887976142968,409.2000000000007" />
<polyline fill="none" stroke="#000000ff" stroke-width="2" points="688.6887976142966,409.1999999999997 688.6887976142966,409.1999999999997 697.1263594054535,423.81428571428546 688.6887976142967,438.4285714285712 680.25123582314,453.04285714285703 663.3761122408259,453.04285714285726 671.8136740319828,438.42857142857144 688.6887976142968,438.42857142857156 705.5639211966107,438.4285714285716 714.0014829877675,453.0428571428574" />
<polyline fill="none" stroke="#000000ff" stroke-width="2" points="714.0014829877675,453.04285714285675 714.0014829877675,453.04285714285675 722.4390447789247,467.6571428571424 714.0014829877676,482.27142857142815 705.5639211966106,496.8857142857139 688.6887976142967,496.885714285714 697.1263594054537,482.27142857142826 714.0014829877678,482.2714285714282 730.8766065700817,482.27142857142815 739.3141683612387,496.8857142857139 730.8766065700818,511.49999999999966" />
<polyline fill="none" stroke="#000000ff" stroke-width="2" points="714.0014829877678,511.49999999999994 714.0014829877678,511.49999999999994" />
<polyline fill="none" stroke="#000000ff" stroke-width="2" points="697.126359405454,511.5000000000002 697.126359405454,511.5000000000002 688.6887976142968,496.8857142857145 671.8136740319828,496.88571428571487 663.3761122408257,482.27142857142917 654.9385504496686,467.6571428571435 663.3761122408256,453.0428571428577 646.5009886585117,453.0428571428579 638.0634268673546,438.4285714285722 629.6258650761976,423.8142857142864 638.0634268673546,409.2000000000007 621.1883032850407,409.2000000000007 612.7507414938837,394.58571428571497 604.3131797027268,379.9714285714292 612.7507414938839,365.3571428571435 595.87561791157,365.35714285714346 587.4380561204132,350.7428571428576 579.0004943292563,336.1285714285717 587.4380561204132,321.5142857142859 570.5629325380992,321.5142857142862 562.125370746942,306.90000000000055 553.6878089557849,292.28571428571485 562.1253707469418,277.67142857142903 545.2502471646278,277.67142857142926 536.8126853734708,263.0571428571435 528.3751235823138,248.4428571428578 536.8126853734707,233.8285714285721 519.9375617911569,233.82857142857216 511.4999999999999,219.21428571428635 503.06243820884293,204.6000000000006 511.5,189.98571428571495 494.6248764176861,189.98571428571483 486.1873146265292,175.37142857142902 477.7497528353724,160.75714285714315 486.1873146265292,146.14285714285734" />
<polyline fill="none" stroke="#000000ff" stroke-width="2" points="486.1873146265292,146.14285714285734 486.1873146265292,146.14285714285734 494.6248764176862,160.75714285714304 486.18731462652914,175.3714285714288 477.7497528353721,189.9857142857145 460.8746292530582,189.98571428571432 469.31219104421507,175.37142857142857 486.187314626529,175.37142857142857 503.062438208843,175.37142857142857 511.49999999999983,189.98571428571432" />
<polyline fill="none" stroke="#000000ff" stroke-width="2" points="511.5,189.98571428571495 511.5,189.98571428571495 519.9375617911571,204.6000000000006 511.50000000000017,219.21428571428635 503.0624382088432,233.82857142857216 486.18731462652926,233.8285714285721 494.6248764176861,219.21428571428623 511.5,219.21428571428612 528.375123582314,219.214285714286 536.8126853734709,233.8285714285717" />
<polyline fill="none" stroke="#000000ff" stroke-width="2" points="536.8126853734707,233.8285714285721 536.8126853734707,233.8285714285721 545.250247164628,248.4428571428577 536.8126853734711,263.0571428571435 528.3751235823142,277.6714285714293 511.50000000000034,277.6714285714294 519.9375617911573,263.05714285714373 536.8126853734714,263.0571428571435 553.6878089557854,263.0571428571432 562.1253707469424,277.6714285714289" />
<polyline fill="none" stroke="#000000ff" stroke-width="2" points="562.1253707469418,277.67142857142903 562.1253707469418,277.67142857142903 570.5629325380987,292.2857142857149 562.1253707469419,306.9000000000008 553.6878089557852,321.51428571428664 536.8126853734713,321.5142857142868 545.2502471646283,306.9000000000011 562.1253707469422,306.9000000000012 579.0004943292561,306.90000000000134 587.4380561204133,321.514285714287" />
<polyline fill="none" stroke="#000000ff" stroke-width="2" points="587.4380561204132,321.5142857142859 587.4380561204132,321.5142857142859 595.8756179115701,336.12857142857166 587.4380561204131,350.74285714285736 579.0004943292561,365.357142857143 562.125370746942,365.35714285714334 570.562932538099,350.74285714285753 587.438056120413,350.7428571428576 604.313179702727,350.7428571428576 612.7507414938838,365.3571428571434" />
<polyline fill="none" stroke="#000000ff" stroke-width="2" points="612.7507414938839,365.3571428571435 612.7507414938839,365.3571428571435 621.188303285041,379.9714285714292 612.750741493884,394.58571428571497 604.313179702727,409.20000000000067 587.4380561204131,409.2000000000006 595.8756179115699,394.5857142857148 612.7507414938839,394.5857142857147 629.6258650761978,394.5857142857145 638.0634268673548,409.2000000000003" />
<polyline fill="none" stroke="#000000ff" stroke-width="2" points="638.0634268673546,409.2000000000007 638.0634268673546,409.2000000000007 646.5009886585117,423.81428571428637 638.0634268673549,438.4285714285722 629.625865076198,453.042857142858 612.7507414938841,453.042857142858 621.1883032850412,438.4285714285723 638.0634268673551,438.4285714285721 654.938550449669,438.42857142857196 663.3761122408262,453.0428571428576" />
<polyline fill="none" stroke="#000000ff" stroke-width="2" points="663.3761122408256,453.0428571428577 663.3761122408256,453.0428571428577 671.8136740319824,467.6571428571435 663.3761122408257,482.2714285714294 654.938550449669,496.88571428571527 638.063426867355,496.88571428571544 646.500988658512,482.27142857142974 663.3761122408259,482.27142857142985 680.25123582314,482.27142857143 688.6887976142971,496.8857142857156 680.2512358231402,511.5000000000014" />
<polyline fill="none" stroke="#000000ff" stroke-width="2" points="663.3761122408263,511.5000000000015 663.3761122408263,511.5000000000015" />
<polyline fill="none" stroke="#000000ff" stroke-width="2" points="646.5009886585124,511.5000000000015 646.5009886585124,511.5000000000015 638.0634268673555,496.8857142857157 621.1883032850415,496.8857142857157 612.7507414938846,482.27142857142996 604.3131797027277,467.6571428571442 612.7507414938848,453.04285714285857 595.8756179115708,453.04285714285845 587.438056120414,438.4285714285726 579.0004943292572,423.81428571428677 587.438056120414,409.200000000001 570.5629325381001,409.20000000000124 562.125370746943,394.58571428571554 553.6878089557857,379.97142857142995 562.1253707469426,365.35714285714414 545.2502471646287,365.35714285714437 536.8126853734716,350.7428571428586 528.3751235823147,336.12857142857285 536.8126853734716,321.51428571428715 519.9375617911576,321.5142857142872 511.5000000000007,306.90000000000146 503.0624382088438,292.2857142857157 511.50000000000085,277.67142857143006 494.6248764176869,277.67142857143 486.1873146265301,263.0571428571442 477.7497528353732,248.44285714285837 486.18731462653005,233.8285714285725 469.3121910442161,233.82857142857233 460.87462925305897,219.2142857142867 452.4370674619018,204.600000000001 460.8746292530587,189.98571428571523" />
<polyline fill="none" stroke="#000000ff" stroke-width="2" points="460.8746292530587,189.98571428571523 460.8746292530587,189.98571428571523 469.3121910442155,204.600000000001 460.87462925305886,219.21428571428692 452.4370674619021,233.8285714285728 435.56194387958817,233.828571428573 443.9995056707451,219.21428571428726 460.8746292530591,219.21428571428737 477.749752835373,219.21428571428748 486.1873146265302,233.82857142857313" />
<polyline fill="none" stroke="#000000ff" stroke-width="2" points="486.18731462653005,233.8285714285725 486.18731462653005,233.8285714285725 494.624876417687,248.4428571428582 486.18731462653,263.05714285714396 477.749752835373,277.6714285714296 460.87462925305897,277.67142857142943 469.31219104421587,263.0571428571436 486.1873146265299,263.0571428571436 503.0624382088438,263.0571428571436 511.5000000000007,277.67142857142943" />
<polyline fill="none" stroke="#000000ff" stroke-width="2" points="511.50000000000085,277.67142857143006 511.50000000000085,277.67142857143006 519.937561791158,292.2857142857157 511.500000000001,306.90000000000146 503.06243820884407,321.5142857142872 486.1873146265301,321.51428571428715 494.6248764176869,306.90000000000134 511.50000000000085,306.9000000000012 528.3751235823148,306.9000000000011 536.8126853734718,321.5142857142868" />
<polyline fill="none" stroke="#000000ff" stroke-width="2" points="536.8126853734716,321.51428571428715 536.8126853734716,321.51428571428715 545.2502471646288,336.1285714285728 536.8126853734719,350.7428571428586 528.3751235823152,365.3571428571444 511.50000000000114,365.3571428571445 519.9375617911583,350.74285714285884 536.8126853734723,350.7428571428586 553.6878089557861,350.7428571428584 562.1253707469432,365.357142857144" />
<polyline fill="none" stroke="#000000ff" stroke-width="2" points="562.1253707469426,365.35714285714414 562.1253707469426,365.35714285714414 570.5629325380995,379.97142857142995 562.1253707469427,394.5857142857158 553.6878089557861,409.2000000000017 536.812685373472,409.20000000000186 545.2502471646291,394.58571428571616 562.125370746943,394.5857142857163 579.000494329257,394.5857142857164 587.4380561204141,409.200000000002" />
<polyline fill="none" stroke="#000000ff" stroke-width="2" points="587.438056120414,409.200000000001 587.438056120414,409.200000000001 595.875617911571,423.8142857142867 587.4380561204139,438.42857142857235 579.000494329257,453.0428571428581 562.125370746943,453.04285714285834 570.5629325380999,438.4285714285726 587.4380561204139,438.4285714285726 604.3131797027278,438.4285714285726 612.7507414938846,453.0428571428584" />
<polyline fill="none" stroke="#000000ff" stroke-width="2" points="612.7507414938848,453.04285714285857 612.7507414938848,453.04285714285857 621.1883032850419,467.6571428571442 612.7507414938848,482.27142857142996 604.3131797027279,496.8857142857157 587.4380561204139,496.8857142857156 595.8756179115708,482.2714285714298 612.7507414938847,482.27142857142974 629.6258650761986,482.2714285714296 638.0634268673556,496.8857142857154 629.6258650761986,511.500000000001" />
<polyline fill="none" stroke="#000000ff" stroke-width="2" points="612.7507414938846,511.50000000000136 612.7507414938846,511.50000000000136" />
<polyline fill="none" stroke="#000000ff" stroke-width="2" points="595.8756179115707,511.5000000000016 595.8756179115707,511.5000000000016 587.4380561204135,496.885714285716 570.5629325380996,496.88571428571623 562.1253707469424,482.27142857143065 553.6878089557853,467.65714285714495 562.1253707469422,453.0428571428592 545.2502471646283,453.04285714285936 536.8126853734711,438.4285714285736 528.3751235823141,423.8142857142879 536.8126853734711,409.2000000000022 519.9375617911571,409.20000000000226 511.5000000000002,394.58571428571645 503.0624382088433,379.9714285714307 511.50000000000034,365.35714285714505 494.62487641768644,365.35714285714494 486.1873146265296,350.7428571428592 477.74975283537276,336.1285714285733 486.18731462652954,321.5142857142875 469.31219104421564,321.5142857142873 460.87462925305846,306.9000000000017 452.4370674619013,292.28571428571604 460.8746292530582,277.6714285714303 443.99950567074427,277.67142857143045 435.5619438795872,263.05714285714475 427.12438208843014,248.44285714285905 435.56194387958715,233.82857142857335" />
<polyline fill="none" stroke="#000000ff" stroke-width="2" points="435.56194387958715,233.82857142857335 435.56194387958715,233.82857142857335 443.9995056707444,248.44285714285894 435.56194387958755,263.05714285714475 427.1243820884307,277.67142857143057 410.2492585061168,277.6714285714306 418.68682029727387,263.057142857145 435.56194387958783,263.05714285714475 452.43706746190173,263.0571428571445 460.87462925305886,277.67142857143017" />
<polyline fill="none" stroke="#000000ff" stroke-width="2" points="460.8746292530582,277.6714285714303 460.8746292530582,277.6714285714303 469.31219104421507,292.28571428571604 460.87462925305834,306.9000000000019 452.4370674619016,321.5142857142878 435.56194387958766,321.514285714288 443.9995056707446,306.90000000000225 460.8746292530586,306.90000000000236 477.74975283537253,306.9000000000025 486.18731462652977,321.5142857142881" />
<polyline fill="none" stroke="#000000ff" stroke-width="2" points="486.18731462652954,321.5142857142875 486.18731462652954,321.5142857142875 494.62487641768655,336.1285714285732 486.18731462652954,350.74285714285895 477.7497528353725,365.3571428571446 460.8746292530585,365.3571428571444 469.3121910442154,350.7428571428586 486.18731462652937,350.7428571428586 503.06243820884333,350.7428571428586 511.5000000000002,365.3571428571444" />
<polyline fill="none" stroke="#000000ff" stroke-width="2" points="511.50000000000034,365.35714285714505 511.50000000000034,365.35714285714505 519.9375617911575,379.9714285714307 511.50000000000057,394.58571428571645 503.06243820884356,409.2000000000022 486.18731462652966,409.2000000000022 494.62487641768644,394.5857142857163 511.50000000000034,394.58571428571616 528.3751235823142,394.58571428571605 536.8126853734714,409.20000000000186" />
<polyline fill="none" stroke="#000000ff" stroke-width="2" points="536.8126853734711,409.2000000000022 536.8126853734711,409.2000000000022 545.2502471646283,423.8142857142878 536.8126853734715,438.4285714285736 528.3751235823147,453.0428571428594 511.5000000000007,453.0428571428595 519.9375617911578,438.42857142857383 536.8126853734717,438.4285714285736 553.6878089557856,438.4285714285734 562.1253707469427,453.0428571428591" />
<polyline fill="none" stroke="#000000ff" stroke-width="2" points="562.1253707469422,453.0428571428592 562.1253707469422,453.0428571428592 570.562932538099,467.65714285714495 562.1253707469423,482.2714285714309 553.6878089557856,496.8857142857167 536.8126853734716,496.88571428571686 545.2502471646286,482.27142857143116 562.1253707469425,482.2714285714313 579.0004943292565,482.27142857143144 587.4380561204136,496.8857142857171 579.0004943292568,511.50000000000284" />
<polyline fill="none" stroke="#000000ff" stroke-width="2" points="562.125370746943,511.5000000000029 562.125370746943,511.5000000000029" />
<polyline fill="none" stroke="#000000ff" stroke-width="2" points="545.250247164629,511.50000000000296 545.250247164629,511.50000000000296 536.812685373472,496.8857142857172 519.937561791158,496.88571428571726 511.50000000000114,482.27142857143144 503.0624382088442,467.65714285714574 511.50000000000125,453.04285714286004 494.62487641768735,453.04285714285993 486.1873146265305,438.4285714285742 477.74975283537367,423.8142857142883 486.18731462653045,409.2000000000025 469.31219104421655,409.2000000000023 460.87462925305937,394.5857142857167 452.4370674619022,379.971428571431 460.8746292530591,365.3571428571452 443.9995056707452,365.3571428571454 435.5619438795881,350.74285714285975 427.12438208843105,336.128571428574 435.56194387958806,321.51428571428835 418.6868202972741,321.51428571428835 410.24925850611714,306.9000000000026 401.81169671496025,292.28571428571684 410.2492585061173,277.6714285714312" />
<polyline fill="none" stroke="#000000ff" stroke-width="2" points="410.2492585061173,277.6714285714312 410.2492585061173,277.6714285714312 418.6868202972744,292.28571428571684 410.2492585061175,306.9000000000026 401.8116967149605,321.51428571428835 384.9365731326466,321.51428571428835 393.37413492380335,306.9000000000025 410.24925850611726,306.9000000000023 427.1243820884312,306.9000000000022 435.5619438795882,321.5142857142879" />
<polyline fill="none" stroke="#000000ff" stroke-width="2" points="435.56194387958806,321.51428571428835 435.56194387958806,321.51428571428835 443.9995056707453,336.1285714285739 435.5619438795884,350.74285714285975 427.1243820884316,365.3571428571455 410.24925850611766,365.3571428571456 418.6868202972747,350.7428571428599 435.56194387958874,350.7428571428597 452.43706746190264,350.74285714285946 460.87462925305977,365.3571428571451" />
<polyline fill="none" stroke="#000000ff" stroke-width="2" points="460.8746292530591,365.3571428571452 460.8746292530591,365.3571428571452 469.312191044216,379.97142857143103 460.87462925305925,394.5857142857169 452.43706746190253,409.2000000000028 435.56194387958857,409.200000000003 443.9995056707455,394.58571428571724 460.8746292530595,394.58571428571736 477.74975283537344,394.5857142857175 486.1873146265307,409.2000000000031" />
<polyline fill="none" stroke="#000000ff" stroke-width="2" points="486.18731462653045,409.2000000000025 486.18731462653045,409.2000000000025 494.62487641768746,423.8142857142882 486.18731462653045,438.42857142857395 477.7497528353734,453.04285714285965 460.8746292530594,453.0428571428595 469.3121910442163,438.4285714285736 486.1873146265302,438.4285714285736 503.06243820884424,438.4285714285736 511.50000000000114,453.0428571428595" />
<polyline fill="none" stroke="#000000ff" stroke-width="2" points="511.50000000000125,453.04285714286004 511.50000000000125,453.04285714286004 519.9375617911584,467.65714285714574 511.5000000000014,482.27142857143144 503.06243820884447,496.88571428571726 486.18731462653056,496.8857142857172 494.62487641768735,482.27142857143133 511.50000000000125,482.2714285714312 528.3751235823152,482.2714285714311 536.8126853734723,496.8857142857168 528.3751235823152,511.50000000000256" />
<polyline fill="none" stroke="#000000ff" stroke-width="2" points="511.50000000000125,511.5000000000024 511.50000000000125,511.5000000000024" />
<polyline fill="none" stroke="#000000ff" stroke-width="2" points="494.62487641768723,511.50000000000216 494.62487641768723,511.50000000000216 486.1873146265301,496.8857142857165 469.31219104421615,496.88571428571635 460.87462925305897,482.2714285714307 452.43706746190185,467.65714285714506 460.87462925305874,453.0428571428593 443.9995056707448,453.0428571428594 435.5619438795877,438.4285714285737 427.1243820884307,423.8142857142881 435.5619438795877,409.2000000000023 418.6868202972737,409.2000000000024 410.2492585061168,394.5857142857167 401.81169671495985,379.97142857143086 410.2492585061169,365.35714285714516 393.374134923803,365.35714285714516 384.9365731326462,350.7428571428593 376.49901134148934,336.12857142857354 384.9365731326461,321.51428571428767" />
<polyline fill="none" stroke="#000000ff" stroke-width="2" points="384.9365731326461,321.51428571428767 384.9365731326461,321.51428571428767 393.3741349238031,336.1285714285734 384.93657313264606,350.7428571428591 376.499011341489,365.3571428571448 359.6238877591751,365.35714285714465 368.06144955033193,350.74285714285884 384.9365731326459,350.74285714285884 401.8116967149598,350.7428571428588 410.24925850611675,365.3571428571446" />
<polyline fill="none" stroke="#000000ff" stroke-width="2" points="410.2492585061169,365.35714285714516 410.2492585061169,365.35714285714516 418.68682029727404,379.97142857143086 410.2492585061171,394.5857142857167 401.81169671496014,409.20000000000243 384.93657313264623,409.2000000000024 393.37413492380296,394.58571428571656 410.2492585061169,394.58571428571634 427.1243820884309,394.5857142857162 435.56194387958783,409.200000000002" />
<polyline fill="none" stroke="#000000ff" stroke-width="2" points="435.5619438795877,409.2000000000023 435.5619438795877,409.2000000000023 443.9995056707449,423.81428571428796 435.56194387958806,438.4285714285737 427.1243820884313,453.0428571428596 410.2492585061173,453.04285714285965 418.6868202972744,438.428571428574 435.56194387958834,438.4285714285737 452.4370674619023,438.4285714285735 460.8746292530594,453.0428571428592" />
<polyline fill="none" stroke="#000000ff" stroke-width="2" points="460.87462925305874,453.0428571428593 460.87462925305874,453.0428571428593 469.31219104421564,467.65714285714506 460.87462925305886,482.27142857143093 452.4370674619022,496.8857142857168 435.56194387958817,496.88571428571703 443.9995056707452,482.2714285714313 460.8746292530591,482.2714285714314 477.7497528353731,482.2714285714315 486.1873146265303,496.88571428571714 477.74975283537344,511.5000000000029" />
<polyline fill="none" stroke="#000000ff" stroke-width="2" points="460.87462925305954,511.500000000003 460.87462925305954,511.500000000003" />
<polyline fill="none" stroke="#000000ff" stroke-width="2" points="443.9995056707456,511.50000000000307 443.9995056707456,511.50000000000307 435.5619438795886,496.8857142857173 418.68682029727466,496.88571428571737 410.2492585061177,482.27142857143156 401.8116967149608,467.65714285714586 410.2492585061179,453.0428571428602 393.3741349238039,453.04285714286016 384.9365731326471,438.4285714285743 376.49901134149025,423.81428571428853 384.936573132647,409.20000000000266 368.06144955033307,409.2000000000025 359.6238877591759,394.58571428571685 351.18632596801876,379.97142857143126 359.62388775917566,365.3571428571454" />
<polyline fill="none" stroke="#000000ff" stroke-width="2" points="359.62388775917566,365.3571428571454 359.62388775917566,365.3571428571454 368.06144955033255,379.97142857143126 359.62388775917583,394.5857142857171 351.1863259680191,409.200000000003 334.31120238570514,409.2000000000031 342.7487641768621,394.5857142857174 359.62388775917606,394.58571428571753 376.49901134149,394.5857142857176 384.93657313264725,409.2000000000033" />
<polyline fill="none" stroke="#000000ff" stroke-width="2" points="384.936573132647,409.20000000000266 384.936573132647,409.20000000000266 393.37413492380404,423.8142857142883 384.93657313264697,438.42857142857406 376.49901134148996,453.04285714285976 359.623887759176,453.0428571428596 368.0614495503329,438.42857142857383 384.9365731326468,438.42857142857383 401.8116967149608,438.4285714285737 410.2492585061177,453.04285714285953" />
<polyline fill="none" stroke="#000000ff" stroke-width="2" points="410.2492585061179,453.0428571428602 410.2492585061179,453.0428571428602 418.68682029727495,467.65714285714586 410.24925850611805,482.27142857143156 401.81169671496104,496.88571428571737 384.93657313264714,496.8857142857173 393.3741349238039,482.27142857143144 410.2492585061178,482.27142857143133 427.1243820884318,482.2714285714312 435.5619438795888,496.8857142857169 427.12438208843173,511.5000000000027" />
<polyline fill="none" stroke="#000000ff" stroke-width="2" points="410.2492585061178,511.5000000000025 410.2492585061178,511.5000000000025" />
<polyline fill="none" stroke="#000000ff" stroke-width="2" points="393.37413492380387,511.50000000000233 393.37413492380387,511.50000000000233 384.9365731326467,496.88571428571663 368.0614495503328,496.8857142857165 359.6238877591756,482.2714285714309 351.1863259680184,467.6571428571452 359.6238877591753,453.0428571428594 342.74876417686136,453.04285714285965 334.3112023857043,438.42857142857395 325.8736405945472,423.8142857142882 334.31120238570423,409.2000000000025" />
<polyline fill="none" stroke="#000000ff" stroke-width="2" points="334.31120238570423,409.2000000000025 334.31120238570423,409.2000000000025 342.7487641768614,423.8142857142881 334.31120238570463,438.42857142857395 325.8736405945478,453.04285714285976 308.99851701223383,453.0428571428598 317.43607880339096,438.4285714285742 334.31120238570486,438.4285714285739 351.1863259680188,438.4285714285736 359.62388775917594,453.0428571428593" />
<polyline fill="none" stroke="#000000ff" stroke-width="2" points="359.6238877591753,453.0428571428594 359.6238877591753,453.0428571428594 368.0614495503322,467.6571428571452 359.6238877591755,482.2714285714311 351.18632596801876,496.88571428571703 334.31120238570486,496.8857142857172 342.7487641768618,482.27142857143144 359.6238877591758,482.2714285714315 376.4990113414897,482.2714285714316 384.9365731326469,496.88571428571726 376.49901134149013,511.50000000000307" />
<polyline fill="none" stroke="#000000ff" stroke-width="2" points="359.62388775917617,511.5000000000031 359.62388775917617,511.5000000000031" />
<polyline fill="none" stroke="#000000ff" stroke-width="2" points="342.7487641768622,511.50000000000324 342.7487641768622,511.50000000000324 334.31120238570526,496.8857142857175 317.4360788033913,496.8857142857176 308.99851701223434,482.27142857143184 300.5609552210774,467.657142857146 308.99851701223446,453.0428571428604" />
<polyline fill="none" stroke="#000000ff" stroke-width="2" points="308.99851701223446,453.0428571428604 308.99851701223446,453.0428571428604 317.4360788033916,467.657142857146 308.99851701223463,482.27142857143184 300.56095522107773,496.8857142857176 283.6858316387638,496.88571428571754 292.12339342992055,482.27142857143167 308.9985170122345,482.2714285714315 325.8736405945484,482.2714285714314 334.3112023857055,496.88571428571714 325.8736405945484,511.50000000000284" />
<polyline fill="none" stroke="#000000ff" stroke-width="2" points="308.9985170122345,511.5000000000027 308.9985170122345,511.5000000000027" />
<polyline fill="none" stroke="#000000ff" stroke-width="2" points="292.12339342992055,511.50000000000256 292.12339342992055,511.50000000000256 283.6858316387634,496.88571428571686 275.24826984760637,511.5000000000026" />
<polyline fill="none" stroke="#000000ff" stroke-width="2" points="258.3731462652924,511.5000000000025 258.3731462652924,511.5000000000025" />
</svg>