<?xml version="1.0" standalone="no"?>
<svg width="1024" height="1024"
xmlns="http://www.w3.org/2000/svg" version="1.1">
<rect x="1" y="1" width="1024" height="1024"
fill="none" stroke="black" stroke-width="1" />
<polyline fill="none" stroke="#000000ff" stroke-width="2" points="102.30000000000001,102.30000000000007 102.30000000000001,102.30000000000007 135.036,102.30000000000007 167.772,102.30000000000007 167.772,135.03600000000006 135.036,135.03600000000006 135.036,167.77200000000016 167.772,167.77200000000016 167.772,200.50800000000015 135.036,200.50800000000015 102.30000000000001,200.50800000000015 102.30000000000001,233.24400000000014 135.036,233.24400000000014 167.772,233.24400000000014 200.508,233.24400000000014 200.508,265.98000000000013 233.244,265.98000000000013 233.244,233.24400000000014 233.244,200.50800000000015 200.508,200.50800000000015 200.508,167.77200000000016 200.508,135.03600000000006 233.244,135.03600000000006 233.244,167.77200000000016 265.98,167.77200000000016 265.98,135.03600000000006 265.98,102.30000000000007 298.716,102.30000000000007 331.452,102.30000000000007 331.452,135.03600000000006 298.716,135.03600000000006 298.716,167.77200000000016 331.452,167.77200000000016 331.452,200.50800000000015 298.716,200.50800000000015 265.98,200.50800000000015 265.98,233.24400000000014 298.716,233.24400000000014 331.452,233.24400000000014 364.188,233.24400000000014 364.188,265.98000000000013 396.924,265.98000000000013 396.924,233.24400000000014 396.924,200.50800000000015 364.188,200.50800000000015 364.188,167.77200000000016 364.188,135.03600000000006 396.924,135.03600000000006 396.924,167.77200000000016 429.65999999999997,167.77200000000016 429.65999999999997,135.03600000000006 429.65999999999997,102.30000000000007 462.39599999999996,102.30000000000007 495.132,102.30000000000007 495.132,135.03600000000006 462.39599999999996,135.03600000000006 462.39599999999996,167.77200000000016 495.132,167.77200000000016 527.8679999999999,167.77200000000016 527.8679999999999,135.03600000000006 560.604,135.03600000000006 593.3399999999999,135.03600000000006 593.3399999999999,167.77200000000016 560.604,167.77200000000016 560.604,200.50800000000015 560.604,233.24400000000014 560.604,265.98000000000013 527.8679999999999,265.98000000000013 527.8679999999999,233.24400000000014 527.8679999999999,200.50800000000015 495.132,200.50800000000015 495.132,233.24400000000014 462.39599999999996,233.24400000000014 462.39599999999996,200.50800000000015 429.65999999999997,200.50800000000015 429.65999999999997,233.24400000000014 429.65999999999997,265.98000000000013 429.65999999999997,298.7160000000001 429.65999999999997,331.4520000000001 396.924,331.4520000000001 396.924,298.7160000000001 364.188,298.7160000000001 364.188,331.4520000000001 364.188,364.1880000000001 396.924,364.1880000000001 396.924,396.9240000000001 396.924,429.6600000000001 364.188,429.6600000000001 364.188,396.9240000000001 331.452,396.9240000000001 298.716,396.9240000000001 265.98,396.9240000000001 265.98,364.1880000000001 298.716,364.1880000000001 331.452,364.1880000000001 331.452,331.4520000000001 298.716,331.4520000000001 298.716,298.7160000000001 331.452,298.7160000000001 331.452,265.98000000000013 298.716,265.98000000000013 265.98,265.98000000000013 265.98,298.7160000000001 265.98,331.4520000000001 233.244,331.4520000000001 233.244,298.7160000000001 200.508,298.7160000000001 200.508,331.4520000000001 167.772,331.4520000000001 167.772,298.7160000000001 167.772,265.98000000000013 135.036,265.98000000000013 135.036,298.7160000000001 135.036,331.4520000000001 135.036,364.1880000000001 102.30000000000001,364.1880000000001 102.30000000000001,396.9240000000001 135.036,396.9240000000001 167.772,396.9240000000001 167.772,364.1880000000001 200.508,364.1880000000001 233.244,364.1880000000001 233.244,396.9240000000001 200.508,396.9240000000001 200.508,429.6600000000001 233.244,429.6600000000001 265.98,429.6600000000001 298.716,429.6600000000001 331.452,429.6600000000001 331.452,462.3960000000001 298.716,462.3960000000001 298.716,495.13200000000006 331.452,495.13200000000006 331.452,527.868 298.716,527.868 265.98,527.868 265.98,560.604 298.716,560.604 331.452,560.604 364.188,560.604 364.188,593.3400000000001 396.924,593.3400000000001 396.924,560.604 396.924,527.868 364.188,527.868 364.188,495.13200000000006 364.188,462.3960000000001 396.924,462.3960000000001 396.924,495.13200000000006 429.65999999999997,495.13200000000006 429.65999999999997,462.3960000000001 429.65999999999997,429.6600000000001 429.65999999999997,396.9240000000001 429.65999999999997,364.1880000000001 462.39599999999996,364.1880000000001 462.39599999999996,396.9240000000001 495.132,396.9240000000001 495.132,364.1880000000001 495.132,331.4520000000001 462.39599999999996,331.4520000000001 462.39599999999996,298.7160000000001 462.39599999999996,265.98000000000013 495.132,265.98000000000013 495.132,298.7160000000001 527.8679999999999,298.7160000000001 560.604,298.7160000000001 593.3399999999999,298.7160000000001 593.3399999999999,331.4520000000001 560.604,331.4520000000001 527.8679999999999,331.4520000000001 527.8679999999999,364.1880000000001 560.604,364.1880000000001 560.604,396.9240000000001 527.8679999999999,396.9240000000001 527.8679999999999,429.6600000000001 560.604,429.6600000000001 593.3399999999999,429.6600000000001 593.3399999999999,396.9240000000001 593.3399999999999,364.1880000000001 626.076,364.1880000000001 626.076,396.9240000000001 658.8119999999999,396.9240000000001 658.8119999999999,364.1880000000001 691.548,364.1880000000001 691.548,396.9240000000001 691.548,429.6600000000001 724.2839999999999,429.6600000000001 724.2839999999999,396.9240000000001 724.2839999999999,364.1880000000001 724.2839999999999,331.4520000000001 757.02,331.4520000000001 757.02,298.7160000000001 724.2839999999999,298.7160000000001 691.548,298.7160000000001 691.548,331.4520000000001 658.8119999999999,331.4520000000001 626.076,331.4520000000001 626.076,298.7160000000001 658.8119999999999,298.7160000000001 658.8119999999999,265.98000000000013 626.076,265.98000000000013 593.3399999999999,265.98000000000013 593.3399999999999,233.24400000000014 593.3399999999999,200.50800000000015 626.076,200.50800000000015 626.076,233.24400000000014 658.8119999999999,233.24400000000014 658.8119999999999,200.50800000000015 658.8119999999999,167.77200000000016 626.076,167.77200000000016 626.076,135.03600000000006 626.076,102.30000000000007 658.8119999999999,102.30000000000007 658.8119999999999,135.03600000000006 691.548,135.03600000000006 724.2839999999999,135.03600000000006 757.02,135.03600000000006 757.02,167.77200000000016 724.2839999999999,167.77200000000016 691.548,167.77200000000016 691.548,200.50800000000015 724.2839999999999,200.50800000000015 724.2839999999999,233.24400000000014 691.548,233.24400000000014 691.548,265.98000000000013 724.2839999999999,265.98000000000013 757.02,265.98000000000013 757.02,233.24400000000014 757.02,200.50800000000015 789.7559999999999,200.50800000000015 789.7559999999999,233.24400000000014 822.492,233.24400000000014 822.492,200.50800000000015 822.492,167.77200000000016 789.7559999999999,167.77200000000016 789.7559999999999,135.03600000000006 789.7559999999999,102.30000000000007 822.492,102.30000000000007 822.492,135.03600000000006 855.2279999999998,135.03600000000006 887.9639999999999,135.03600000000006 920.7,135.03600000000006 920.7,167.77200000000016 887.9639999999999,167.77200000000016 855.2279999999998,167.77200000000016 855.2279999999998,200.50800000000015 887.9639999999999,200.50800000000015 887.9639999999999,233.24400000000014 855.2279999999998,233.24400000000014 855.2279999999998,265.98000000000013 887.9639999999999,265.98000000000013 920.7,265.98000000000013 920.7,298.7160000000001 920.7,331.4520000000001 887.9639999999999,331.4520000000001 887.9639999999999,298.7160000000001 855.2279999999998,298.7160000000001 855.2279999999998,331.4520000000001 822.492,331.4520000000001 822.492,298.7160000000001 822.492,265.98000000000013 789.7559999999999,265.98000000000013 789.7559999999999,298.7160000000001 789.7559999999999,331.4520000000001 789.7559999999999,364.1880000000001 757.02,364.1880000000001 757.02,396.9240000000001 789.7559999999999,396.9240000000001 822.492,396.9240000000001 822.492,364.1880000000001 855.2279999999998,364.1880000000001 887.9639999999999,364.1880000000001 887.9639999999999,396.9240000000001 855.2279999999998,396.9240000000001 855.2279999999998,429.6600000000001 887.9639999999999,429.6600000000001 920.7,429.6600000000001 920.7,462.3960000000001 920.7,495.13200000000006 887.9639999999999,495.13200000000006 887.9639999999999,462.3960000000001 855.2279999999998,462.3960000000001 855.2279999999998,495.13200000000006 855.2279999999998,527.868 887.9639999999999,527.868 887.9639999999999,560.604 887.9639999999999,593.3400000000001 855.2279999999998,593.3400000000001 855.2279999999998,560.604 822.492,560.604 789.7559999999999,560.604 757.02,560.604 757.02,527.868 789.7559999999999,527.868 822.492,527.868 822.492,495.13200000000006 789.7559999999999,495.13200000000006 789.7559999999999,462.3960000000001 822.492,462.3960000000001 822.492,429.6600000000001 789.7559999999999,429.6600000000001 757.02,429.6600000000001 757.02,462.3960000000001 757.02,495.13200000000006 724.2839999999999,495.13200000000006 724.2839999999999,462.3960000000001 691.548,462.3960000000001 691.548,495.13200000000006 658.8119999999999,495.13200000000006 658.8119999999999,462.3960000000001 658.8119999999999,429.6600000000001 626.076,429.6600000000001 626.076,462.3960000000001 626.076,495.13200000000006 626.076,527.868 593.3399999999999,527.868 593.3399999999999,560.604 626.076,560.604 658.8119999999999,560.604 658.8119999999999,527.868 691.548,527.868 724.2839999999999,527.868 724.2839999999999,560.604 691.548,560.604 691.548,593.3400000000001 724.2839999999999,593.3400000000001 757.02,593.3400000000001 789.7559999999999,593.3400000000001 822.492,593.3400000000001 822.492,626.076 789.7559999999999,626.076 789.7559999999999,658.8120000000001 822.492,658.8120000000001 855.2279999999998,658.8120000000001 855.2279999999998,626.076 887.9639999999999,626.076 920.7,626.076 920.7,658.8120000000001 887.9639999999999,658.8120000000001 887.9639999999999,691.548 887.9639999999999,724.2840000000001 887.9639999999999,757.0200000000001 855.2279999999998,757.0200000000001 855.2279999999998,724.2840000000001 855.2279999999998,691.548 822.492,691.548 822.492,724.2840000000001 789.7559999999999,724.2840000000001 789.7559999999999,691.548 757.02,691.548 757.02,724.2840000000001 757.02,757.0200000000001 789.7559999999999,757.0200000000001 822.492,757.0200000000001 822.492,789.7560000000001 789.7559999999999,789.7560000000001 789.7559999999999,822.4920000000001 822.492,822.4920000000001 855.2279999999998,822.4920000000001 855.2279999999998,789.7560000000001 887.9639999999999,789.7560000000001 920.7,789.7560000000001 920.7,822.4920000000001 887.9639999999999,822.4920000000001 887.9639999999999,855.2280000000001 887.9639999999999,887.964 887.9639999999999,920.7 855.2279999999998,920.7 855.2279999999998,887.964 855.2279999999998,855.2280000000001 822.492,855.2280000000001 822.492,887.964 789.7559999999999,887.964 789.7559999999999,855.2280000000001 757.02,855.2280000000001 757.02,887.964 757.02,920.7 724.2839999999999,920.7 691.548,920.7 691.548,887.964 724.2839999999999,887.964 724.2839999999999,855.2280000000001 691.548,855.2280000000001 691.548,822.4920000000001 724.2839999999999,822.4920000000001 757.02,822.4920000000001 757.02,789.7560000000001 724.2839999999999,789.7560000000001 691.548,789.7560000000001 658.8119999999999,789.7560000000001 658.8119999999999,757.0200000000001 626.076,757.0200000000001 626.076,789.7560000000001 626.076,822.4920000000001 658.8119999999999,822.4920000000001 658.8119999999999,855.2280000000001 658.8119999999999,887.964 626.076,887.964 626.076,855.2280000000001 593.3399999999999,855.2280000000001 593.3399999999999,887.964 593.3399999999999,920.7 560.604,920.7 527.8679999999999,920.7 527.8679999999999,887.964 560.604,887.964 560.604,855.2280000000001 527.8679999999999,855.2280000000001 495.132,855.2280000000001 495.132,887.964 462.39599999999996,887.964 429.65999999999997,887.964 429.65999999999997,855.2280000000001 462.39599999999996,855.2280000000001 462.39599999999996,822.4920000000001 462.39599999999996,789.7560000000001 462.39599999999996,757.0200000000001 495.132,757.0200000000001 495.132,789.7560000000001 495.132,822.4920000000001 527.8679999999999,822.4920000000001 527.8679999999999,789.7560000000001 560.604,789.7560000000001 560.604,822.4920000000001 593.3399999999999,822.4920000000001 593.3399999999999,789.7560000000001 593.3399999999999,757.0200000000001 593.3399999999999,724.2840000000001 593.3399999999999,691.548 626.076,691.548 626.076,724.2840000000001 658.8119999999999,724.2840000000001 658.8119999999999,691.548 691.548,691.548 691.548,724.2840000000001 691.548,757.0200000000001 724.2839999999999,757.0200000000001 724.2839999999999,724.2840000000001 724.2839999999999,691.548 724.2839999999999,658.8120000000001 757.02,658.8120000000001 757.02,626.076 724.2839999999999,626.076 691.548,626.076 691.548,658.8120000000001 658.8119999999999,658.8120000000001 626.076,658.8120000000001 626.076,626.076 658.8119999999999,626.076 658.8119999999999,593.3400000000001 626.076,593.3400000000001 593.3399999999999,593.3400000000001 560.604,593.3400000000001 527.8679999999999,593.3400000000001 527.8679999999999,560.604 560.604,560.604 560.604,527.868 527.8679999999999,527.868 527.8679999999999,495.13200000000006 560.604,495.13200000000006 593.3399999999999,495.13200000000006 593.3399999999999,462.3960000000001 560.604,462.3960000000001 527.8679999999999,462.3960000000001 495.132,462.3960000000001 495.132,429.6600000000001 462.39599999999996,429.6600000000001 462.39599999999996,462.3960000000001 462.39599999999996,495.13200000000006 495.132,495.13200000000006 495.132,527.868 495.132,560.604 462.39599999999996,560.604 462.39599999999996,527.868 429.65999999999997,527.868 429.65999999999997,560.604 429.65999999999997,593.3400000000001 462.39599999999996,593.3400000000001 495.132,593.3400000000001 495.132,626.076 462.39599999999996,626.076 462.39599999999996,658.8120000000001 495.132,658.8120000000001 527.8679999999999,658.8120000000001 527.8679999999999,626.076 560.604,626.076 593.3399999999999,626.076 593.3399999999999,658.8120000000001 560.604,658.8120000000001 560.604,691.548 560.604,724.2840000000001 560.604,757.0200000000001 527.8679999999999,757.0200000000001 527.8679999999999,724.2840000000001 527.8679999999999,691.548 495.132,691.548 495.132,724.2840000000001 462.39599999999996,724.2840000000001 462.39599999999996,691.548 429.65999999999997,691.548 429.65999999999997,724.2840000000001 429.65999999999997,757.0200000000001 429.65999999999997,789.7560000000001 429.65999999999997,822.4920000000001 396.924,822.4920000000001 396.924,789.7560000000001 364.188,789.7560000000001 364.188,822.4920000000001 364.188,855.2280000000001 396.924,855.2280000000001 396.924,887.964 396.924,920.7 364.188,920.7 364.188,887.964 331.452,887.964 298.716,887.964 265.98,887.964 265.98,855.2280000000001 298.716,855.2280000000001 331.452,855.2280000000001 331.452,822.4920000000001 298.716,822.4920000000001 298.716,789.7560000000001 331.452,789.7560000000001 331.452,757.0200000000001 298.716,757.0200000000001 265.98,757.0200000000001 265.98,724.2840000000001 265.98,691.548 298.716,691.548 298.716,724.2840000000001 331.452,724.2840000000001 331.452,691.548 364.188,691.548 364.188,724.2840000000001 364.188,757.0200000000001 396.924,757.0200000000001 396.924,724.2840000000001 396.924,691.548 396.924,658.8120000000001 429.65999999999997,658.8120000000001 429.65999999999997,626.076 396.924,626.076 364.188,626.076 364.188,658.8120000000001 331.452,658.8120000000001 298.716,658.8120000000001 298.716,626.076 331.452,626.076 331.452,593.3400000000001 298.716,593.3400000000001 265.98,593.3400000000001 233.244,593.3400000000001 200.508,593.3400000000001 200.508,560.604 233.244,560.604 233.244,527.868 200.508,527.868 200.508,495.13200000000006 233.244,495.13200000000006 265.98,495.13200000000006 265.98,462.3960000000001 233.244,462.3960000000001 200.508,462.3960000000001 167.772,462.3960000000001 167.772,429.6600000000001 135.036,429.6600000000001 135.036,462.3960000000001 135.036,495.13200000000006 167.772,495.13200000000006 167.772,527.868 167.772,560.604 135.036,560.604 135.036,527.868 102.3,527.868 102.30000000000001,560.604 102.30000000000001,593.3400000000001 135.036,593.3400000000001 167.772,593.3400000000001 167.772,626.076 135.036,626.076 135.036,658.8120000000001 167.772,658.8120000000001 200.508,658.8120000000001 200.508,626.076 233.244,626.076 265.98,626.076 265.98,658.8120000000001 233.244,658.8120000000001 233.244,691.548 233.244,724.2840000000001 233.244,757.0200000000001 200.508,757.0200000000001 200.508,724.2840000000001 200.508,691.548 167.772,691.548 167.772,724.2840000000001 135.036,724.2840000000001 135.036,691.548 102.3,691.548 102.30000000000001,724.2840000000001 102.30000000000001,757.0200000000001 135.036,757.0200000000001 167.772,757.0200000000001 167.772,789.7560000000001 135.036,789.7560000000001 135.036,822.4920000000001 167.772,822.4920000000001 200.508,822.4920000000001 200.508,789.7560000000001 233.244,789.7560000000001 265.98,789.7560000000001 265.98,822.4920000000001 233.244,822.4920000000001 233.244,855.2280000000001 233.244,887.964 233.244,920.7 200.508,920.7 200.508,887.964 200.508,855.2280000000001 167.772,855.2280000000001 167.772,887.964 135.036,887.964 135.036,855.2280000000001 102.3,855.2280000000001 102.30000000000001,887.964 102.30000000000001,920.7" />
</svg>