<?xml version="1.0" standalone="no"?>
<svg width="1024" height="1024"
xmlns="http://www.w3.org/2000/svg" version="1.1">
<rect x="1" y="1" width="1024" height="1024"
fill="none" stroke="black" stroke-width="1" />
<polyline fill="none" stroke="#000000ff" stroke-width="2" points="102.30000000000001,155.7326887116883 102.30000000000001,155.7326887116883 108.71882352941178,155.7326887116883 111.92823529411766,161.2915529505682 108.71882352941178,166.85041718944808 111.92823529411766,172.40928142832797 118.34705882352942,172.40928142832797 121.55647058823531,166.85041718944808 118.34705882352944,161.2915529505682 121.55647058823531,155.7326887116883 127.97529411764708,155.7326887116883 131.18470588235294,161.2915529505682 137.60352941176473,161.2915529505682 140.81294117647062,155.7326887116883 147.23176470588237,155.7326887116883 150.44117647058826,161.2915529505682 147.23176470588237,166.85041718944808 140.81294117647062,166.85041718944808 137.60352941176473,172.40928142832797 140.81294117647062,177.96814566720775 137.60352941176473,183.52700990608776 131.18470588235294,183.52700990608776 127.97529411764707,177.96814566720775 121.5564705882353,177.96814566720775 118.34705882352942,183.52700990608776 121.5564705882353,189.08587414496753 127.97529411764707,189.08587414496753 131.18470588235294,194.64473838384743 127.97529411764707,200.20360262272732 131.18470588235294,205.7624668616072 137.60352941176473,205.7624668616072 140.8129411764706,200.20360262272732 147.23176470588237,200.20360262272732 150.44117647058823,205.7624668616072 147.23176470588237,211.3213311004871 140.8129411764706,211.3213311004871 137.60352941176473,216.880195339367 140.8129411764706,222.43905957824688 147.23176470588237,222.43905957824688 150.44117647058823,227.99792381712678 147.23176470588237,233.55678805600667 150.44117647058823,239.11565229488644 156.86,239.11565229488644 160.0694117647059,233.55678805600667 156.86,227.99792381712678 160.0694117647059,222.43905957824688 166.48823529411766,222.43905957824688 169.69764705882355,216.880195339367 166.48823529411766,211.3213311004871 160.0694117647059,211.3213311004871 156.86,205.7624668616072 160.0694117647059,200.20360262272732 166.48823529411766,200.20360262272732 169.69764705882355,205.7624668616072 176.1164705882353,205.7624668616072 179.3258823529412,200.20360262272732 176.1164705882353,194.64473838384743 179.3258823529412,189.08587414496753 185.74470588235295,189.08587414496753 188.95411764705884,183.52700990608776 185.74470588235295,177.96814566720775 179.3258823529412,177.96814566720775 176.1164705882353,183.52700990608776 169.69764705882355,183.52700990608776 166.48823529411766,177.96814566720775 169.69764705882355,172.40928142832797 166.48823529411766,166.85041718944808 160.0694117647059,166.85041718944808 156.86,161.2915529505682 160.0694117647059,155.7326887116883 166.48823529411766,155.7326887116883 169.69764705882355,161.2915529505682 176.1164705882353,161.2915529505682 179.3258823529412,155.7326887116883 185.74470588235295,155.7326887116883 188.95411764705884,161.2915529505682 185.74470588235295,166.85041718944808 188.95411764705884,172.40928142832797 195.3729411764706,172.40928142832797 198.58235294117648,166.85041718944808 195.3729411764706,161.2915529505682 198.58235294117648,155.7326887116883 205.00117647058823,155.7326887116883 208.21058823529413,161.2915529505682 214.62941176470588,161.2915529505682 217.8388235294118,155.7326887116883 224.25764705882352,155.7326887116883 227.46705882352944,161.2915529505682 224.25764705882352,166.85041718944808 217.8388235294118,166.85041718944808 214.62941176470588,172.40928142832797 217.8388235294118,177.96814566720775 224.25764705882352,177.96814566720775 227.46705882352944,183.52700990608776 224.25764705882352,189.08587414496753 227.46705882352944,194.64473838384743 233.8858823529412,194.64473838384743 237.0952941176471,189.08587414496753 233.8858823529412,183.52700990608776 237.0952941176471,177.96814566720775 243.51411764705884,177.96814566720775 246.72352941176473,172.40928142832797 243.51411764705884,166.85041718944808 237.0952941176471,166.85041718944808 233.8858823529412,161.2915529505682 237.0952941176471,155.7326887116883 243.51411764705884,155.7326887116883 246.72352941176473,161.2915529505682 253.14235294117648,161.2915529505682 256.3517647058824,155.7326887116883 262.7705882352941,155.7326887116883 265.98,161.2915529505682 262.7705882352941,166.85041718944808 265.98,172.40928142832797 272.39882352941174,172.40928142832797 275.60823529411766,166.85041718944808 272.39882352941174,161.2915529505682 275.60823529411766,155.7326887116883 282.0270588235294,155.7326887116883 285.2364705882353,161.2915529505682 291.65529411764703,161.2915529505682 294.86470588235295,155.7326887116883 301.28352941176473,155.7326887116883 304.4929411764706,161.2915529505682 301.28352941176473,166.85041718944808 294.86470588235295,166.85041718944808 291.65529411764703,172.40928142832797 294.86470588235295,177.96814566720775 291.65529411764703,183.52700990608776 285.2364705882353,183.52700990608776 282.0270588235294,177.96814566720775 275.60823529411766,177.96814566720775 272.39882352941174,183.52700990608776 275.60823529411766,189.08587414496753 282.0270588235294,189.08587414496753 285.2364705882353,194.64473838384743 282.0270588235294,200.20360262272732 275.60823529411766,200.20360262272732 272.39882352941174,205.7624668616072 275.60823529411766,211.3213311004871 272.39882352941174,216.880195339367 265.98,216.880195339367 262.7705882352941,211.3213311004871 265.98,205.7624668616072 262.7705882352941,200.20360262272732 256.3517647058824,200.20360262272732 253.14235294117648,205.7624668616072 246.72352941176473,205.7624668616072 243.51411764705884,200.20360262272732 237.0952941176471,200.20360262272732 233.8858823529412,205.7624668616072 237.0952941176471,211.3213311004871 243.51411764705884,211.3213311004871 246.72352941176473,216.880195339367 243.51411764705884,222.43905957824688 246.72352941176473,227.99792381712678 253.14235294117648,227.99792381712678 256.3517647058824,222.43905957824688 262.7705882352941,222.43905957824688 265.98,227.99792381712678 262.7705882352941,233.55678805600667 256.3517647058824,233.55678805600667 253.14235294117648,239.11565229488644 256.3517647058824,244.67451653376645 253.14235294117648,250.23338077264623 246.72352941176473,250.23338077264623 243.51411764705884,244.67451653376645 237.0952941176471,244.67451653376645 233.8858823529412,250.23338077264623 237.0952941176471,255.79224501152623 243.51411764705884,255.79224501152623 246.72352941176473,261.351109250406 243.51411764705884,266.9099734892859 237.0952941176471,266.9099734892859 233.8858823529412,272.4688377281658 237.0952941176471,278.0277019670457 233.8858823529412,283.5865662059256 227.46705882352944,283.5865662059256 224.25764705882352,278.0277019670457 227.46705882352944,272.4688377281658 224.25764705882352,266.9099734892859 217.8388235294118,266.9099734892859 214.62941176470588,261.351109250406 217.8388235294118,255.79224501152623 224.25764705882352,255.79224501152623 227.46705882352944,250.23338077264623 224.25764705882352,244.67451653376645 217.8388235294118,244.67451653376645 214.62941176470588,250.23338077264623 208.21058823529413,250.23338077264623 205.00117647058823,244.67451653376645 198.58235294117648,244.67451653376645 195.3729411764706,250.23338077264623 198.58235294117648,255.79224501152623 195.3729411764706,261.351109250406 188.95411764705884,261.351109250406 185.74470588235295,255.79224501152623 188.95411764705884,250.23338077264623 185.74470588235295,244.67451653376645 179.3258823529412,244.67451653376645 176.1164705882353,250.23338077264623 169.69764705882355,250.23338077264623 166.48823529411766,244.67451653376645 160.0694117647059,244.67451653376645 156.86,250.23338077264623 160.0694117647059,255.79224501152623 166.48823529411766,255.79224501152623 169.69764705882355,261.351109250406 166.48823529411766,266.9099734892859 169.69764705882355,272.4688377281658 176.1164705882353,272.4688377281658 179.3258823529412,266.9099734892859 185.74470588235295,266.9099734892859 188.95411764705884,272.4688377281658 185.74470588235295,278.0277019670457 179.3258823529412,278.0277019670457 176.1164705882353,283.5865662059256 179.3258823529412,289.14543044480536 185.74470588235295,289.14543044480536 188.95411764705884,294.70429468368536 185.74470588235295,300.26315892256514 188.95411764705884,305.82202316144503 195.3729411764706,305.82202316144503 198.58235294117648,300.26315892256514 195.3729411764706,294.70429468368536 198.58235294117648,289.14543044480536 205.00117647058823,289.14543044480536 208.21058823529413,294.70429468368536 214.62941176470588,294.70429468368536 217.8388235294118,289.14543044480536 224.25764705882352,289.14543044480536 227.46705882352944,294.70429468368536 224.25764705882352,300.26315892256514 217.8388235294118,300.26315892256514 214.62941176470588,305.82202316144503 217.8388235294118,311.3808874003249 214.62941176470588,316.9397516392047 208.21058823529413,316.9397516392047 205.00117647058823,311.3808874003249 198.58235294117648,311.3808874003249 195.3729411764706,316.9397516392047 198.58235294117648,322.4986158780847 205.00117647058823,322.4986158780847 208.21058823529413,328.0574801169645 205.00117647058823,333.6163443558444 208.21058823529413,339.17520859472427 214.62941176470588,339.17520859472427 217.8388235294118,333.6163443558444 224.25764705882352,333.6163443558444 227.46705882352944,339.17520859472427 224.25764705882352,344.73407283360416 217.8388235294118,344.73407283360416 214.62941176470588,350.29293707248405 217.8388235294118,355.8518013113639 224.25764705882352,355.8518013113639 227.46705882352944,361.4106655502437 224.25764705882352,366.96952978912367 227.46705882352944,372.5283940280036 233.8858823529412,372.5283940280036 237.0952941176471,366.96952978912367 233.8858823529412,361.4106655502437 237.0952941176471,355.8518013113639 243.51411764705884,355.8518013113639 246.72352941176473,350.29293707248405 243.51411764705884,344.73407283360416 237.0952941176471,344.73407283360416 233.8858823529412,339.17520859472427 237.0952941176471,333.6163443558444 243.51411764705884,333.6163443558444 246.72352941176473,339.17520859472427 253.14235294117648,339.17520859472427 256.3517647058824,333.6163443558444 262.7705882352941,333.6163443558444 265.98,339.17520859472427 262.7705882352941,344.73407283360416 265.98,350.29293707248405 272.39882352941174,350.29293707248405 275.60823529411766,344.73407283360416 272.39882352941174,339.17520859472427 275.60823529411766,333.6163443558444 282.0270588235294,333.6163443558444 285.2364705882353,339.17520859472427 291.65529411764703,339.17520859472427 294.86470588235295,333.6163443558444 301.28352941176473,333.6163443558444 304.4929411764706,339.17520859472427 301.28352941176473,344.73407283360416 294.86470588235295,344.73407283360416 291.65529411764703,350.29293707248405 294.86470588235295,355.8518013113639 291.65529411764703,361.4106655502437 285.2364705882353,361.4106655502437 282.0270588235294,355.8518013113639 275.60823529411766,355.8518013113639 272.39882352941174,361.4106655502437 275.60823529411766,366.96952978912367 282.0270588235294,366.96952978912367 285.2364705882353,372.5283940280036 282.0270588235294,378.08725826688345 275.60823529411766,378.08725826688345 272.39882352941174,383.6461225057633 275.60823529411766,389.20498674464324 272.39882352941174,394.7638509835232 265.98,394.7638509835232 262.7705882352941,389.20498674464324 265.98,383.6461225057633 262.7705882352941,378.08725826688345 256.3517647058824,378.08725826688345 253.14235294117648,383.6461225057633 246.72352941176473,383.6461225057633 243.51411764705884,378.08725826688345 237.0952941176471,378.08725826688345 233.8858823529412,383.6461225057633 237.0952941176471,389.20498674464324 243.51411764705884,389.20498674464324 246.72352941176473,394.7638509835232 243.51411764705884,400.322715222403 246.72352941176473,405.88157946128285 253.14235294117648,405.88157946128285 256.3517647058824,400.322715222403 262.7705882352941,400.322715222403 265.98,405.88157946128285 262.7705882352941,411.4404437001628 256.3517647058824,411.4404437001628 253.14235294117648,416.99930793904275 256.3517647058824,422.5581721779226 262.7705882352941,422.5581721779226 265.98,428.1170364168024 262.7705882352941,433.67590065568237 265.98,439.2347648945623 272.39882352941174,439.2347648945623 275.60823529411766,433.67590065568237 272.39882352941174,428.1170364168024 275.60823529411766,422.5581721779226 282.0270588235294,422.5581721779226 285.2364705882353,428.1170364168024 291.65529411764703,428.1170364168024 294.86470588235295,422.5581721779226 301.28352941176473,422.5581721779226 304.4929411764706,428.1170364168024 301.28352941176473,433.67590065568237 294.86470588235295,433.67590065568237 291.65529411764703,439.2347648945623 294.86470588235295,444.79362913344215 291.65529411764703,450.35249337232204 285.2364705882353,450.35249337232204 282.0270588235294,444.79362913344215 275.60823529411766,444.79362913344215 272.39882352941174,450.35249337232204 275.60823529411766,455.911357611202 282.0270588235294,455.911357611202 285.2364705882353,461.4702218500819 282.0270588235294,467.0290860889618 285.2364705882353,472.58795032784167 291.65529411764703,472.58795032784167 294.86470588235295,467.0290860889618 301.28352941176473,467.0290860889618 304.4929411764706,472.58795032784167 301.28352941176473,478.14681456672156 294.86470588235295,478.14681456672156 291.65529411764703,483.70567880560145 294.86470588235295,489.26454304448134 301.28352941176473,489.26454304448134 304.4929411764706,494.82340728336123 301.28352941176473,500.3822715222411 304.4929411764706,505.941135761121 310.9117647058824,505.941135761121 314.12117647058824,500.3822715222411 310.9117647058824,494.82340728336123 314.12117647058824,489.26454304448134 320.54,489.26454304448134 323.7494117647059,483.70567880560145 320.54,478.14681456672156 314.12117647058824,478.14681456672156 310.9117647058824,472.58795032784167 314.12117647058824,467.0290860889618 320.54,467.0290860889618 323.7494117647059,472.58795032784167 330.16823529411766,472.58795032784167 333.3776470588235,467.0290860889618 330.16823529411766,461.4702218500819 333.3776470588235,455.911357611202 339.7964705882353,455.911357611202 343.00588235294117,450.35249337232204 339.7964705882353,444.79362913344215 333.3776470588235,444.79362913344215 330.16823529411766,450.35249337232204 323.7494117647059,450.35249337232204 320.54,444.79362913344215 323.7494117647059,439.2347648945623 320.54,433.67590065568237 314.12117647058824,433.67590065568237 310.9117647058824,428.1170364168024 314.12117647058824,422.5581721779226 320.54,422.5581721779226 323.7494117647059,428.1170364168024 330.16823529411766,428.1170364168024 333.3776470588235,422.5581721779226 339.7964705882353,422.5581721779226 343.00588235294117,428.1170364168024 339.7964705882353,433.67590065568237 343.00588235294117,439.2347648945623 349.42470588235295,439.2347648945623 352.6341176470588,433.67590065568237 349.42470588235295,428.1170364168024 352.6341176470588,422.5581721779226 359.0529411764706,422.5581721779226 362.26235294117646,416.99930793904275 359.0529411764706,411.4404437001628 352.6341176470588,411.4404437001628 349.42470588235295,405.88157946128285 352.6341176470588,400.322715222403 359.0529411764706,400.322715222403 362.26235294117646,405.88157946128285 368.68117647058824,405.88157946128285 371.89058823529416,400.322715222403 368.68117647058824,394.7638509835232 371.89058823529416,389.20498674464324 378.3094117647059,389.20498674464324 381.5188235294118,383.6461225057633 378.3094117647059,378.08725826688345 371.89058823529416,378.08725826688345 368.68117647058824,383.6461225057633 362.26235294117646,383.6461225057633 359.0529411764706,378.08725826688345 352.6341176470588,378.08725826688345 349.42470588235295,383.6461225057633 352.6341176470588,389.20498674464324 349.42470588235295,394.7638509835232 343.00588235294117,394.7638509835232 339.7964705882353,389.20498674464324 343.00588235294117,383.6461225057633 339.7964705882353,378.08725826688345 333.3776470588235,378.08725826688345 330.16823529411766,372.5283940280036 333.3776470588235,366.96952978912367 339.7964705882353,366.96952978912367 343.00588235294117,361.4106655502437 339.7964705882353,355.8518013113639 333.3776470588235,355.8518013113639 330.16823529411766,361.4106655502437 323.7494117647059,361.4106655502437 320.54,355.8518013113639 323.7494117647059,350.29293707248405 320.54,344.73407283360416 314.12117647058824,344.73407283360416 310.9117647058824,339.17520859472427 314.12117647058824,333.6163443558444 320.54,333.6163443558444 323.7494117647059,339.17520859472427 330.16823529411766,339.17520859472427 333.3776470588235,333.6163443558444 339.7964705882353,333.6163443558444 343.00588235294117,339.17520859472427 339.7964705882353,344.73407283360416 343.00588235294117,350.29293707248405 349.42470588235295,350.29293707248405 352.6341176470588,344.73407283360416 349.42470588235295,339.17520859472427 352.6341176470588,333.6163443558444 359.0529411764706,333.6163443558444 362.26235294117646,339.17520859472427 368.68117647058824,339.17520859472427 371.89058823529416,333.6163443558444 378.3094117647059,333.6163443558444 381.5188235294118,339.17520859472427 378.3094117647059,344.73407283360416 371.89058823529416,344.73407283360416 368.68117647058824,350.29293707248405 371.89058823529416,355.8518013113639 378.3094117647059,355.8518013113639 381.5188235294118,361.4106655502437 378.3094117647059,366.96952978912367 381.5188235294118,372.5283940280036 387.93764705882353,372.5283940280036 391.14705882352945,366.96952978912367 387.93764705882353,361.4106655502437 391.14705882352945,355.8518013113639 397.5658823529412,355.8518013113639 400.7752941176471,350.29293707248405 397.5658823529412,344.73407283360416 391.14705882352945,344.73407283360416 387.93764705882353,339.17520859472427 391.14705882352945,333.6163443558444 397.5658823529412,333.6163443558444 400.7752941176471,339.17520859472427 407.1941176470588,339.17520859472427 410.40352941176474,333.6163443558444 407.1941176470588,328.0574801169645 410.40352941176474,322.4986158780847 416.82235294117646,322.4986158780847 420.0317647058824,316.9397516392047 416.82235294117646,311.3808874003249 410.40352941176474,311.3808874003249 407.1941176470588,316.9397516392047 400.7752941176471,316.9397516392047 397.5658823529412,311.3808874003249 400.7752941176471,305.82202316144503 397.5658823529412,300.26315892256514 391.14705882352945,300.26315892256514 387.93764705882353,294.70429468368536 391.14705882352945,289.14543044480536 397.5658823529412,289.14543044480536 400.7752941176471,294.70429468368536 407.1941176470588,294.70429468368536 410.40352941176474,289.14543044480536 416.82235294117646,289.14543044480536 420.0317647058824,294.70429468368536 416.82235294117646,300.26315892256514 420.0317647058824,305.82202316144503 426.45058823529416,305.82202316144503 429.66,300.26315892256514 426.45058823529416,294.70429468368536 429.66,289.14543044480536 436.0788235294118,289.14543044480536 439.28823529411767,283.5865662059256 436.0788235294118,278.0277019670457 429.66,278.0277019670457 426.45058823529416,272.4688377281658 429.66,266.9099734892859 436.0788235294118,266.9099734892859 439.28823529411767,272.4688377281658 445.70705882352945,272.4688377281658 448.9164705882353,266.9099734892859 445.70705882352945,261.351109250406 448.9164705882353,255.79224501152623 455.3352941176471,255.79224501152623 458.54470588235296,250.23338077264623 455.3352941176471,244.67451653376645 448.9164705882353,244.67451653376645 445.70705882352945,250.23338077264623 439.28823529411767,250.23338077264623 436.0788235294118,244.67451653376645 429.66,244.67451653376645 426.45058823529416,250.23338077264623 429.66,255.79224501152623 426.45058823529416,261.351109250406 420.0317647058824,261.351109250406 416.82235294117646,255.79224501152623 420.0317647058824,250.23338077264623 416.82235294117646,244.67451653376645 410.40352941176474,244.67451653376645 407.1941176470588,250.23338077264623 400.7752941176471,250.23338077264623 397.5658823529412,244.67451653376645 391.14705882352945,244.67451653376645 387.93764705882353,250.23338077264623 391.14705882352945,255.79224501152623 397.5658823529412,255.79224501152623 400.7752941176471,261.351109250406 397.5658823529412,266.9099734892859 391.14705882352945,266.9099734892859 387.93764705882353,272.4688377281658 391.14705882352945,278.0277019670457 387.93764705882353,283.5865662059256 381.5188235294118,283.5865662059256 378.3094117647059,278.0277019670457 381.5188235294118,272.4688377281658 378.3094117647059,266.9099734892859 371.89058823529416,266.9099734892859 368.68117647058824,261.351109250406 371.89058823529416,255.79224501152623 378.3094117647059,255.79224501152623 381.5188235294118,250.23338077264623 378.3094117647059,244.67451653376645 371.89058823529416,244.67451653376645 368.68117647058824,250.23338077264623 362.26235294117646,250.23338077264623 359.0529411764706,244.67451653376645 362.26235294117646,239.11565229488644 359.0529411764706,233.55678805600667 352.6341176470588,233.55678805600667 349.42470588235295,227.99792381712678 352.6341176470588,222.43905957824688 359.0529411764706,222.43905957824688 362.26235294117646,227.99792381712678 368.68117647058824,227.99792381712678 371.89058823529416,222.43905957824688 368.68117647058824,216.880195339367 371.89058823529416,211.3213311004871 378.3094117647059,211.3213311004871 381.5188235294118,205.7624668616072 378.3094117647059,200.20360262272732 371.89058823529416,200.20360262272732 368.68117647058824,205.7624668616072 362.26235294117646,205.7624668616072 359.0529411764706,200.20360262272732 352.6341176470588,200.20360262272732 349.42470588235295,205.7624668616072 352.6341176470588,211.3213311004871 349.42470588235295,216.880195339367 343.00588235294117,216.880195339367 339.7964705882353,211.3213311004871 343.00588235294117,205.7624668616072 339.7964705882353,200.20360262272732 333.3776470588235,200.20360262272732 330.16823529411766,194.64473838384754 333.3776470588235,189.08587414496753 339.7964705882353,189.08587414496753 343.00588235294117,183.52700990608776 339.7964705882353,177.96814566720786 333.3776470588235,177.96814566720786 330.16823529411766,183.52700990608776 323.7494117647059,183.52700990608776 320.54,177.96814566720786 323.7494117647059,172.40928142832797 320.54,166.85041718944808 314.12117647058824,166.85041718944808 310.9117647058824,161.2915529505682 314.12117647058824,155.7326887116883 320.54,155.7326887116883 323.7494117647059,161.2915529505682 330.16823529411766,161.2915529505682 333.3776470588235,155.7326887116883 339.7964705882353,155.7326887116883 343.00588235294117,161.2915529505682 339.7964705882353,166.85041718944808 343.00588235294117,172.40928142832797 349.42470588235295,172.40928142832797 352.6341176470588,166.85041718944808 349.42470588235295,161.2915529505682 352.6341176470588,155.7326887116883 359.0529411764706,155.7326887116883 362.26235294117646,161.2915529505682 368.68117647058824,161.2915529505682 371.89058823529416,155.7326887116883 378.3094117647059,155.7326887116883 381.5188235294118,161.2915529505682 378.3094117647059,166.85041718944808 371.89058823529416,166.85041718944808 368.68117647058824,172.40928142832797 371.89058823529416,177.96814566720786 378.3094117647059,177.96814566720786 381.5188235294118,183.52700990608776 378.3094117647059,189.08587414496753 381.5188235294118,194.64473838384754 387.93764705882353,194.64473838384754 391.14705882352945,189.08587414496753 387.93764705882353,183.52700990608776 391.14705882352945,177.96814566720786 397.5658823529412,177.96814566720786 400.7752941176471,172.40928142832797 397.5658823529412,166.85041718944808 391.14705882352945,166.85041718944808 387.93764705882353,161.2915529505682 391.14705882352945,155.7326887116883 397.5658823529412,155.7326887116883 400.7752941176471,161.2915529505682 407.1941176470588,161.2915529505682 410.40352941176474,155.7326887116883 416.82235294117646,155.7326887116883 420.0317647058824,161.2915529505682 416.82235294117646,166.85041718944808 420.0317647058824,172.40928142832797 426.45058823529416,172.40928142832797 429.66,166.85041718944808 426.45058823529416,161.2915529505682 429.66,155.7326887116883 436.0788235294118,155.7326887116883 439.28823529411767,161.2915529505682 445.70705882352945,161.2915529505682 448.9164705882353,155.7326887116883 455.3352941176471,155.7326887116883 458.54470588235296,161.2915529505682 455.3352941176471,166.85041718944808 448.9164705882353,166.85041718944808 445.70705882352945,172.40928142832797 448.9164705882353,177.96814566720786 445.70705882352945,183.52700990608776 439.28823529411767,183.52700990608776 436.0788235294118,177.96814566720786 429.66,177.96814566720786 426.45058823529416,183.52700990608776 429.66,189.08587414496753 436.0788235294118,189.08587414496753 439.28823529411767,194.64473838384754 436.0788235294118,200.20360262272732 439.28823529411767,205.7624668616072 445.70705882352945,205.7624668616072 448.9164705882353,200.20360262272732 455.3352941176471,200.20360262272732 458.54470588235296,205.7624668616072 455.3352941176471,211.3213311004871 448.9164705882353,211.3213311004871 445.70705882352945,216.880195339367 448.9164705882353,222.43905957824688 455.3352941176471,222.43905957824688 458.54470588235296,227.99792381712678 455.3352941176471,233.55678805600667 458.54470588235296,239.11565229488644 464.96352941176474,239.11565229488644 468.1729411764706,233.55678805600667 464.96352941176474,227.99792381712678 468.1729411764706,222.43905957824688 474.5917647058824,222.43905957824688 477.80117647058825,216.880195339367 474.5917647058824,211.3213311004871 468.1729411764706,211.3213311004871 464.96352941176474,205.7624668616072 468.1729411764706,200.20360262272732 474.5917647058824,200.20360262272732 477.80117647058825,205.7624668616072 484.22,205.7624668616072 487.4294117647059,200.20360262272732 484.22,194.64473838384754 487.4294117647059,189.08587414496753 493.84823529411767,189.08587414496753 497.05764705882353,183.52700990608776 493.84823529411767,177.96814566720786 487.4294117647059,177.96814566720786 484.22,183.52700990608776 477.80117647058825,183.52700990608776 474.5917647058824,177.96814566720786 477.80117647058825,172.40928142832797 474.5917647058824,166.85041718944808 468.1729411764706,166.85041718944808 464.96352941176474,161.2915529505682 468.1729411764706,155.7326887116883 474.5917647058824,155.7326887116883 477.80117647058825,161.2915529505682 484.22,161.2915529505682 487.4294117647059,155.7326887116883 493.84823529411767,155.7326887116883 497.05764705882353,161.2915529505682 493.84823529411767,166.85041718944808 497.05764705882353,172.40928142832797 503.4764705882353,172.40928142832797 506.6858823529412,166.85041718944808 503.4764705882353,161.2915529505682 506.6858823529412,155.7326887116883 513.104705882353,155.7326887116883 516.3141176470588,161.2915529505682 522.7329411764706,161.2915529505682 525.9423529411765,155.7326887116883 532.3611764705882,155.7326887116883 535.570588235294,161.2915529505682 532.3611764705882,166.85041718944808 525.9423529411765,166.85041718944808 522.7329411764706,172.40928142832797 525.9423529411765,177.96814566720786 532.3611764705882,177.96814566720786 535.570588235294,183.52700990608776 532.3611764705882,189.08587414496753 535.570588235294,194.64473838384754 541.9894117647059,194.64473838384754 545.1988235294118,189.08587414496753 541.9894117647059,183.52700990608776 545.1988235294118,177.96814566720775 551.6176470588235,177.96814566720775 554.8270588235295,172.40928142832797 551.6176470588235,166.85041718944808 545.1988235294118,166.85041718944808 541.9894117647059,161.2915529505682 545.1988235294118,155.7326887116883 551.6176470588235,155.7326887116883 554.8270588235295,161.2915529505682 561.2458823529412,161.2915529505682 564.4552941176471,155.7326887116883 570.8741176470588,155.7326887116883 574.0835294117647,161.2915529505682 570.8741176470588,166.85041718944808 574.0835294117647,172.40928142832797 580.5023529411765,172.40928142832797 583.7117647058824,166.85041718944808 580.5023529411765,161.2915529505682 583.7117647058824,155.7326887116883 590.1305882352941,155.7326887116883 593.34,161.2915529505682 599.7588235294118,161.2915529505682 602.9682352941177,155.7326887116883 609.3870588235295,155.7326887116883 612.5964705882353,161.2915529505682 609.3870588235295,166.85041718944808 602.9682352941177,166.85041718944808 599.7588235294118,172.40928142832797 602.9682352941177,177.96814566720775 599.7588235294118,183.52700990608776 593.34,183.52700990608776 590.1305882352941,177.96814566720775 583.7117647058824,177.96814566720775 580.5023529411765,183.52700990608776 583.7117647058824,189.08587414496753 590.1305882352941,189.08587414496753 593.34,194.64473838384743 590.1305882352941,200.20360262272732 583.7117647058824,200.20360262272732 580.5023529411765,205.7624668616072 583.7117647058824,211.3213311004871 580.5023529411765,216.880195339367 574.0835294117647,216.880195339367 570.8741176470588,211.3213311004871 574.0835294117647,205.7624668616072 570.8741176470588,200.20360262272732 564.4552941176471,200.20360262272732 561.2458823529412,205.7624668616072 554.8270588235295,205.7624668616072 551.6176470588235,200.20360262272732 545.1988235294118,200.20360262272732 541.9894117647059,205.7624668616072 545.1988235294118,211.3213311004871 551.6176470588235,211.3213311004871 554.8270588235295,216.880195339367 551.6176470588235,222.43905957824688 554.8270588235295,227.99792381712678 561.2458823529412,227.99792381712678 564.4552941176471,222.43905957824688 570.8741176470588,222.43905957824688 574.0835294117647,227.99792381712678 570.8741176470588,233.55678805600667 564.4552941176471,233.55678805600667 561.2458823529412,239.11565229488644 564.4552941176471,244.67451653376645 570.8741176470588,244.67451653376645 574.0835294117647,250.23338077264623 570.8741176470588,255.79224501152623 574.0835294117647,261.351109250406 580.5023529411765,261.351109250406 583.7117647058824,255.79224501152623 580.5023529411765,250.23338077264623 583.7117647058824,244.67451653376645 590.1305882352941,244.67451653376645 593.34,250.23338077264623 599.7588235294118,250.23338077264623 602.9682352941177,244.67451653376645 609.3870588235295,244.67451653376645 612.5964705882353,250.23338077264623 609.3870588235295,255.79224501152623 602.9682352941177,255.79224501152623 599.7588235294118,261.351109250406 602.9682352941177,266.9099734892859 599.7588235294118,272.4688377281658 593.34,272.4688377281658 590.1305882352941,266.9099734892859 583.7117647058824,266.9099734892859 580.5023529411765,272.4688377281658 583.7117647058824,278.0277019670457 590.1305882352941,278.0277019670457 593.34,283.5865662059256 590.1305882352941,289.14543044480536 593.34,294.70429468368536 599.7588235294118,294.70429468368536 602.9682352941177,289.14543044480536 609.3870588235295,289.14543044480536 612.5964705882353,294.70429468368536 609.3870588235295,300.26315892256514 602.9682352941177,300.26315892256514 599.7588235294118,305.82202316144503 602.9682352941177,311.3808874003249 609.3870588235295,311.3808874003249 612.5964705882353,316.9397516392047 609.3870588235295,322.4986158780847 612.5964705882353,328.0574801169645 619.015294117647,328.0574801169645 622.224705882353,322.4986158780847 619.015294117647,316.9397516392047 622.224705882353,311.3808874003249 628.6435294117648,311.3808874003249 631.8529411764707,305.82202316144503 628.6435294117648,300.26315892256514 622.224705882353,300.26315892256514 619.015294117647,294.70429468368536 622.224705882353,289.14543044480536 628.6435294117648,289.14543044480536 631.8529411764707,294.70429468368536 638.2717647058823,294.70429468368536 641.4811764705883,289.14543044480536 638.2717647058823,283.5865662059256 641.4811764705883,278.0277019670457 647.9000000000001,278.0277019670457 651.109411764706,272.4688377281658 647.9000000000001,266.9099734892859 641.4811764705883,266.9099734892859 638.2717647058823,272.4688377281658 631.8529411764707,272.4688377281658 628.6435294117648,266.9099734892859 631.8529411764707,261.351109250406 628.6435294117648,255.79224501152623 622.224705882353,255.79224501152623 619.015294117647,250.23338077264623 622.224705882353,244.67451653376645 628.6435294117648,244.67451653376645 631.8529411764707,250.23338077264623 638.2717647058823,250.23338077264623 641.4811764705883,244.67451653376645 647.9000000000001,244.67451653376645 651.109411764706,250.23338077264623 647.9000000000001,255.79224501152623 651.109411764706,261.351109250406 657.5282352941176,261.351109250406 660.7376470588235,255.79224501152623 657.5282352941176,250.23338077264623 660.7376470588235,244.67451653376645 667.1564705882354,244.67451653376645 670.3658823529413,239.11565229488644 667.1564705882354,233.55678805600667 660.7376470588235,233.55678805600667 657.5282352941176,227.99792381712678 660.7376470588235,222.43905957824688 667.1564705882354,222.43905957824688 670.3658823529413,227.99792381712678 676.7847058823529,227.99792381712678 679.9941176470588,222.43905957824688 676.7847058823529,216.880195339367 679.9941176470588,211.3213311004871 686.4129411764707,211.3213311004871 689.6223529411766,205.7624668616072 686.4129411764707,200.20360262272732 679.9941176470588,200.20360262272732 676.7847058823529,205.7624668616072 670.3658823529413,205.7624668616072 667.1564705882354,200.20360262272732 660.7376470588235,200.20360262272732 657.5282352941176,205.7624668616072 660.7376470588235,211.3213311004871 657.5282352941176,216.880195339367 651.109411764706,216.880195339367 647.9000000000001,211.3213311004871 651.109411764706,205.7624668616072 647.9000000000001,200.20360262272732 641.4811764705883,200.20360262272732 638.2717647058823,194.64473838384754 641.4811764705883,189.08587414496753 647.9000000000001,189.08587414496753 651.109411764706,183.52700990608776 647.9000000000001,177.96814566720786 641.4811764705883,177.96814566720786 638.2717647058823,183.52700990608776 631.8529411764707,183.52700990608776 628.6435294117648,177.96814566720786 631.8529411764707,172.40928142832797 628.6435294117648,166.85041718944808 622.224705882353,166.85041718944808 619.015294117647,161.2915529505682 622.224705882353,155.7326887116883 628.6435294117648,155.7326887116883 631.8529411764707,161.2915529505682 638.2717647058823,161.2915529505682 641.4811764705883,155.7326887116883 647.9000000000001,155.7326887116883 651.109411764706,161.2915529505682 647.9000000000001,166.85041718944808 651.109411764706,172.40928142832797 657.5282352941176,172.40928142832797 660.7376470588235,166.85041718944808 657.5282352941176,161.2915529505682 660.7376470588235,155.7326887116883 667.1564705882354,155.7326887116883 670.3658823529413,161.2915529505682 676.7847058823529,161.2915529505682 679.9941176470588,155.7326887116883 686.4129411764707,155.7326887116883 689.6223529411766,161.2915529505682 686.4129411764707,166.85041718944808 679.9941176470588,166.85041718944808 676.7847058823529,172.40928142832797 679.9941176470588,177.96814566720786 686.4129411764707,177.96814566720786 689.6223529411766,183.52700990608776 686.4129411764707,189.08587414496753 689.6223529411766,194.64473838384754 696.0411764705882,194.64473838384754 699.2505882352941,189.08587414496753 696.0411764705882,183.52700990608776 699.2505882352941,177.96814566720786 705.669411764706,177.96814566720786 708.8788235294119,172.40928142832797 705.669411764706,166.85041718944808 699.2505882352941,166.85041718944808 696.0411764705882,161.2915529505682 699.2505882352941,155.7326887116883 705.669411764706,155.7326887116883 708.8788235294119,161.2915529505682 715.2976470588235,161.2915529505682 718.5070588235294,155.7326887116883 724.9258823529412,155.7326887116883 728.1352941176472,161.2915529505682 724.9258823529412,166.85041718944808 728.1352941176472,172.40928142832797 734.5541176470588,172.40928142832797 737.7635294117647,166.85041718944808 734.5541176470588,161.2915529505682 737.7635294117647,155.7326887116883 744.1823529411765,155.7326887116883 747.3917647058825,161.2915529505682 753.8105882352941,161.2915529505682 757.02,155.7326887116883 763.4388235294118,155.7326887116883 766.6482352941177,161.2915529505682 763.4388235294118,166.85041718944808 757.02,166.85041718944808 753.8105882352941,172.40928142832797 757.02,177.96814566720786 753.8105882352941,183.52700990608776 747.3917647058825,183.52700990608776 744.1823529411765,177.96814566720786 737.7635294117647,177.96814566720786 734.5541176470588,183.52700990608776 737.7635294117647,189.08587414496753 744.1823529411765,189.08587414496753 747.3917647058825,194.64473838384754 744.1823529411765,200.20360262272732 747.3917647058825,205.7624668616072 753.8105882352941,205.7624668616072 757.02,200.20360262272732 763.4388235294118,200.20360262272732 766.6482352941177,205.7624668616072 763.4388235294118,211.3213311004871 757.02,211.3213311004871 753.8105882352941,216.880195339367 757.02,222.43905957824688 763.4388235294118,222.43905957824688 766.6482352941177,227.99792381712678 763.4388235294118,233.55678805600667 766.6482352941177,239.11565229488644 773.0670588235294,239.11565229488644 776.2764705882353,233.55678805600667 773.0670588235294,227.99792381712678 776.2764705882353,222.43905957824688 782.6952941176471,222.43905957824688 785.904705882353,216.880195339367 782.6952941176471,211.3213311004871 776.2764705882353,211.3213311004871 773.0670588235294,205.7624668616072 776.2764705882353,200.20360262272732 782.6952941176471,200.20360262272732 785.904705882353,205.7624668616072 792.3235294117646,205.7624668616072 795.5329411764706,200.20360262272732 792.3235294117646,194.64473838384754 795.5329411764706,189.08587414496753 801.9517647058824,189.08587414496753 805.1611764705883,183.52700990608776 801.9517647058824,177.96814566720786 795.5329411764706,177.96814566720786 792.3235294117646,183.52700990608776 785.904705882353,183.52700990608776 782.6952941176471,177.96814566720786 785.904705882353,172.40928142832797 782.6952941176471,166.85041718944808 776.2764705882353,166.85041718944808 773.0670588235294,161.2915529505682 776.2764705882353,155.7326887116883 782.6952941176471,155.7326887116883 785.904705882353,161.2915529505682 792.3235294117646,161.2915529505682 795.5329411764706,155.7326887116883 801.9517647058824,155.7326887116883 805.1611764705883,161.2915529505682 801.9517647058824,166.85041718944808 805.1611764705883,172.40928142832797 811.5799999999999,172.40928142832797 814.7894117647058,166.85041718944808 811.5799999999999,161.2915529505682 814.7894117647058,155.7326887116883 821.2082352941177,155.7326887116883 824.4176470588236,161.2915529505682 830.8364705882352,161.2915529505682 834.0458823529411,155.7326887116883 840.464705882353,155.7326887116883 843.6741176470589,161.2915529505682 840.464705882353,166.85041718944808 834.0458823529411,166.85041718944808 830.8364705882352,172.40928142832797 834.0458823529411,177.96814566720786 840.464705882353,177.96814566720786 843.6741176470589,183.52700990608776 840.464705882353,189.08587414496753 843.6741176470589,194.64473838384754 850.0929411764705,194.64473838384754 853.3023529411764,189.08587414496753 850.0929411764705,183.52700990608776 853.3023529411764,177.96814566720775 859.7211764705883,177.96814566720775 862.9305882352942,172.40928142832797 859.7211764705883,166.85041718944808 853.3023529411764,166.85041718944808 850.0929411764705,161.2915529505682 853.3023529411764,155.7326887116883 859.7211764705883,155.7326887116883 862.9305882352942,161.2915529505682 869.349411764706,161.2915529505682 872.5588235294117,155.7326887116883 878.9776470588235,155.7326887116883 882.1870588235295,161.2915529505682 878.9776470588235,166.85041718944808 882.1870588235295,172.40928142832797 888.6058823529413,172.40928142832797 891.815294117647,166.85041718944808 888.6058823529413,161.2915529505682 891.815294117647,155.7326887116883 898.2341176470588,155.7326887116883 901.4435294117648,161.2915529505682 907.8623529411766,161.2915529505682 911.0717647058823,155.7326887116883 917.4905882352941,155.7326887116883 920.7,161.2915529505682 917.4905882352941,166.85041718944808 911.0717647058823,166.85041718944808 907.8623529411766,172.40928142832797 911.0717647058823,177.96814566720775 907.8623529411766,183.52700990608776 901.4435294117648,183.52700990608776 898.2341176470588,177.96814566720775 891.815294117647,177.96814566720775 888.6058823529413,183.52700990608776 891.815294117647,189.08587414496753 898.2341176470588,189.08587414496753 901.4435294117648,194.64473838384743 898.2341176470588,200.20360262272732 891.815294117647,200.20360262272732 888.6058823529413,205.7624668616072 891.815294117647,211.3213311004871 888.6058823529413,216.880195339367 882.1870588235295,216.880195339367 878.9776470588235,211.3213311004871 882.1870588235295,205.7624668616072 878.9776470588235,200.20360262272732 872.5588235294117,200.20360262272732 869.349411764706,205.7624668616072 862.9305882352942,205.7624668616072 859.7211764705883,200.20360262272732 853.3023529411764,200.20360262272732 850.0929411764705,205.7624668616072 853.3023529411764,211.3213311004871 859.7211764705883,211.3213311004871 862.9305882352942,216.880195339367 859.7211764705883,222.43905957824688 862.9305882352942,227.99792381712678 869.349411764706,227.99792381712678 872.5588235294117,222.43905957824688 878.9776470588235,222.43905957824688 882.1870588235295,227.99792381712678 878.9776470588235,233.55678805600667 872.5588235294117,233.55678805600667 869.349411764706,239.11565229488644 872.5588235294117,244.67451653376645 869.349411764706,250.23338077264623 862.9305882352942,250.23338077264623 859.7211764705883,244.67451653376645 853.3023529411764,244.67451653376645 850.0929411764705,250.23338077264623 853.3023529411764,255.79224501152623 859.7211764705883,255.79224501152623 862.9305882352942,261.351109250406 859.7211764705883,266.9099734892859 853.3023529411764,266.9099734892859 850.0929411764705,272.4688377281658 853.3023529411764,278.0277019670457 850.0929411764705,283.5865662059256 843.6741176470589,283.5865662059256 840.464705882353,278.0277019670457 843.6741176470589,272.4688377281658 840.464705882353,266.9099734892859 834.0458823529411,266.9099734892859 830.8364705882352,261.351109250406 834.0458823529411,255.79224501152623 840.464705882353,255.79224501152623 843.6741176470589,250.23338077264623 840.464705882353,244.67451653376645 834.0458823529411,244.67451653376645 830.8364705882352,250.23338077264623 824.4176470588236,250.23338077264623 821.2082352941177,244.67451653376645 814.7894117647058,244.67451653376645 811.5799999999999,250.23338077264623 814.7894117647058,255.79224501152623 811.5799999999999,261.351109250406 805.1611764705883,261.351109250406 801.9517647058824,255.79224501152623 805.1611764705883,250.23338077264623 801.9517647058824,244.67451653376645 795.5329411764706,244.67451653376645 792.3235294117646,250.23338077264623 785.904705882353,250.23338077264623 782.6952941176471,244.67451653376645 776.2764705882353,244.67451653376645 773.0670588235294,250.23338077264623 776.2764705882353,255.79224501152623 782.6952941176471,255.79224501152623 785.904705882353,261.351109250406 782.6952941176471,266.9099734892859 785.904705882353,272.4688377281658 792.3235294117646,272.4688377281658 795.5329411764706,266.9099734892859 801.9517647058824,266.9099734892859 805.1611764705883,272.4688377281658 801.9517647058824,278.0277019670457 795.5329411764706,278.0277019670457 792.3235294117646,283.5865662059256 795.5329411764706,289.14543044480536 801.9517647058824,289.14543044480536 805.1611764705883,294.70429468368536 801.9517647058824,300.26315892256514 805.1611764705883,305.82202316144503 811.5799999999999,305.82202316144503 814.7894117647058,300.26315892256514 811.5799999999999,294.70429468368536 814.7894117647058,289.14543044480536 821.2082352941177,289.14543044480536 824.4176470588236,294.70429468368536 830.8364705882352,294.70429468368536 834.0458823529411,289.14543044480536 840.464705882353,289.14543044480536 843.6741176470589,294.70429468368536 840.464705882353,300.26315892256514 834.0458823529411,300.26315892256514 830.8364705882352,305.82202316144503 834.0458823529411,311.3808874003249 830.8364705882352,316.9397516392047 824.4176470588236,316.9397516392047 821.2082352941177,311.3808874003249 814.7894117647058,311.3808874003249 811.5799999999999,316.9397516392047 814.7894117647058,322.4986158780847 821.2082352941177,322.4986158780847 824.4176470588236,328.0574801169645 821.2082352941177,333.6163443558444 814.7894117647058,333.6163443558444 811.5799999999999,339.17520859472427 814.7894117647058,344.73407283360416 811.5799999999999,350.29293707248405 805.1611764705883,350.29293707248405 801.9517647058824,344.73407283360416 805.1611764705883,339.17520859472427 801.9517647058824,333.6163443558444 795.5329411764706,333.6163443558444 792.3235294117646,339.17520859472427 785.904705882353,339.17520859472427 782.6952941176471,333.6163443558444 776.2764705882353,333.6163443558444 773.0670588235294,339.17520859472427 776.2764705882353,344.73407283360416 782.6952941176471,344.73407283360416 785.904705882353,350.29293707248405 782.6952941176471,355.8518013113639 785.904705882353,361.4106655502437 792.3235294117646,361.4106655502437 795.5329411764706,355.8518013113639 801.9517647058824,355.8518013113639 805.1611764705883,361.4106655502437 801.9517647058824,366.96952978912367 795.5329411764706,366.96952978912367 792.3235294117646,372.5283940280036 795.5329411764706,378.08725826688345 792.3235294117646,383.6461225057633 785.904705882353,383.6461225057633 782.6952941176471,378.08725826688345 776.2764705882353,378.08725826688345 773.0670588235294,383.6461225057633 776.2764705882353,389.20498674464324 782.6952941176471,389.20498674464324 785.904705882353,394.7638509835232 782.6952941176471,400.322715222403 776.2764705882353,400.322715222403 773.0670588235294,405.88157946128285 776.2764705882353,411.4404437001628 773.0670588235294,416.99930793904275 766.6482352941177,416.99930793904275 763.4388235294118,411.4404437001628 766.6482352941177,405.88157946128285 763.4388235294118,400.322715222403 757.02,400.322715222403 753.8105882352941,394.7638509835232 757.02,389.20498674464324 763.4388235294118,389.20498674464324 766.6482352941177,383.6461225057633 763.4388235294118,378.08725826688345 757.02,378.08725826688345 753.8105882352941,383.6461225057633 747.3917647058825,383.6461225057633 744.1823529411765,378.08725826688345 747.3917647058825,372.5283940280036 744.1823529411765,366.96952978912367 737.7635294117647,366.96952978912367 734.5541176470588,361.4106655502437 737.7635294117647,355.8518013113639 744.1823529411765,355.8518013113639 747.3917647058825,361.4106655502437 753.8105882352941,361.4106655502437 757.02,355.8518013113639 753.8105882352941,350.29293707248405 757.02,344.73407283360416 763.4388235294118,344.73407283360416 766.6482352941177,339.17520859472427 763.4388235294118,333.6163443558444 757.02,333.6163443558444 753.8105882352941,339.17520859472427 747.3917647058825,339.17520859472427 744.1823529411765,333.6163443558444 737.7635294117647,333.6163443558444 734.5541176470588,339.17520859472427 737.7635294117647,344.73407283360416 734.5541176470588,350.29293707248405 728.1352941176472,350.29293707248405 724.9258823529412,344.73407283360416 728.1352941176472,339.17520859472427 724.9258823529412,333.6163443558444 718.5070588235294,333.6163443558444 715.2976470588235,339.17520859472427 708.8788235294119,339.17520859472427 705.669411764706,333.6163443558444 699.2505882352941,333.6163443558444 696.0411764705882,339.17520859472427 699.2505882352941,344.73407283360416 705.669411764706,344.73407283360416 708.8788235294119,350.29293707248405 705.669411764706,355.8518013113639 699.2505882352941,355.8518013113639 696.0411764705882,361.4106655502437 699.2505882352941,366.96952978912367 696.0411764705882,372.5283940280036 689.6223529411766,372.5283940280036 686.4129411764707,366.96952978912367 689.6223529411766,361.4106655502437 686.4129411764707,355.8518013113639 679.9941176470588,355.8518013113639 676.7847058823529,350.29293707248405 679.9941176470588,344.73407283360416 686.4129411764707,344.73407283360416 689.6223529411766,339.17520859472427 686.4129411764707,333.6163443558444 679.9941176470588,333.6163443558444 676.7847058823529,339.17520859472427 670.3658823529413,339.17520859472427 667.1564705882354,333.6163443558444 660.7376470588235,333.6163443558444 657.5282352941176,339.17520859472427 660.7376470588235,344.73407283360416 657.5282352941176,350.29293707248405 651.109411764706,350.29293707248405 647.9000000000001,344.73407283360416 651.109411764706,339.17520859472427 647.9000000000001,333.6163443558444 641.4811764705883,333.6163443558444 638.2717647058823,339.17520859472427 631.8529411764707,339.17520859472427 628.6435294117648,333.6163443558444 622.224705882353,333.6163443558444 619.015294117647,339.17520859472427 622.224705882353,344.73407283360416 628.6435294117648,344.73407283360416 631.8529411764707,350.29293707248405 628.6435294117648,355.8518013113639 631.8529411764707,361.4106655502437 638.2717647058823,361.4106655502437 641.4811764705883,355.8518013113639 647.9000000000001,355.8518013113639 651.109411764706,361.4106655502437 647.9000000000001,366.96952978912367 641.4811764705883,366.96952978912367 638.2717647058823,372.5283940280036 641.4811764705883,378.08725826688345 647.9000000000001,378.08725826688345 651.109411764706,383.6461225057633 647.9000000000001,389.20498674464324 651.109411764706,394.7638509835232 657.5282352941176,394.7638509835232 660.7376470588235,389.20498674464324 657.5282352941176,383.6461225057633 660.7376470588235,378.08725826688345 667.1564705882354,378.08725826688345 670.3658823529413,383.6461225057633 676.7847058823529,383.6461225057633 679.9941176470588,378.08725826688345 686.4129411764707,378.08725826688345 689.6223529411766,383.6461225057633 686.4129411764707,389.20498674464324 679.9941176470588,389.20498674464324 676.7847058823529,394.7638509835232 679.9941176470588,400.322715222403 676.7847058823529,405.88157946128285 670.3658823529413,405.88157946128285 667.1564705882354,400.322715222403 660.7376470588235,400.322715222403 657.5282352941176,405.88157946128285 660.7376470588235,411.4404437001628 667.1564705882354,411.4404437001628 670.3658823529413,416.99930793904275 667.1564705882354,422.5581721779226 670.3658823529413,428.1170364168024 676.7847058823529,428.1170364168024 679.9941176470588,422.5581721779226 686.4129411764707,422.5581721779226 689.6223529411766,428.1170364168024 686.4129411764707,433.67590065568237 679.9941176470588,433.67590065568237 676.7847058823529,439.2347648945623 679.9941176470588,444.79362913344215 686.4129411764707,444.79362913344215 689.6223529411766,450.35249337232204 686.4129411764707,455.911357611202 689.6223529411766,461.4702218500819 696.0411764705882,461.4702218500819 699.2505882352941,455.911357611202 696.0411764705882,450.35249337232204 699.2505882352941,444.79362913344215 705.669411764706,444.79362913344215 708.8788235294119,439.2347648945623 705.669411764706,433.67590065568237 699.2505882352941,433.67590065568237 696.0411764705882,428.1170364168024 699.2505882352941,422.5581721779226 705.669411764706,422.5581721779226 708.8788235294119,428.1170364168024 715.2976470588235,428.1170364168024 718.5070588235294,422.5581721779226 724.9258823529412,422.5581721779226 728.1352941176472,428.1170364168024 724.9258823529412,433.67590065568237 728.1352941176472,439.2347648945623 734.5541176470588,439.2347648945623 737.7635294117647,433.67590065568237 734.5541176470588,428.1170364168024 737.7635294117647,422.5581721779226 744.1823529411765,422.5581721779226 747.3917647058825,428.1170364168024 753.8105882352941,428.1170364168024 757.02,422.5581721779226 763.4388235294118,422.5581721779226 766.6482352941177,428.1170364168024 763.4388235294118,433.67590065568237 757.02,433.67590065568237 753.8105882352941,439.2347648945623 757.02,444.79362913344215 753.8105882352941,450.35249337232204 747.3917647058825,450.35249337232204 744.1823529411765,444.79362913344215 737.7635294117647,444.79362913344215 734.5541176470588,450.35249337232204 737.7635294117647,455.911357611202 744.1823529411765,455.911357611202 747.3917647058825,461.4702218500819 744.1823529411765,467.0290860889618 737.7635294117647,467.0290860889618 734.5541176470588,472.58795032784167 737.7635294117647,478.14681456672156 734.5541176470588,483.70567880560145 728.1352941176472,483.70567880560145 724.9258823529412,478.14681456672156 728.1352941176472,472.58795032784167 724.9258823529412,467.0290860889618 718.5070588235294,467.0290860889618 715.2976470588235,472.58795032784167 708.8788235294119,472.58795032784167 705.669411764706,467.0290860889618 699.2505882352941,467.0290860889618 696.0411764705882,472.58795032784167 699.2505882352941,478.14681456672156 705.669411764706,478.14681456672156 708.8788235294119,483.70567880560145 705.669411764706,489.26454304448134 708.8788235294119,494.82340728336123 715.2976470588235,494.82340728336123 718.5070588235294,489.26454304448134 724.9258823529412,489.26454304448134 728.1352941176472,494.82340728336123 724.9258823529412,500.3822715222411 718.5070588235294,500.3822715222411 715.2976470588235,505.941135761121 718.5070588235294,511.5000000000009 715.2976470588235,517.0588642388808 708.8788235294119,517.0588642388808 705.669411764706,511.5000000000009 699.2505882352941,511.5000000000009 696.0411764705882,517.0588642388808 699.2505882352941,522.6177284777607 705.669411764706,522.6177284777607 708.8788235294119,528.1765927166406 705.669411764706,533.7354569555205 699.2505882352941,533.7354569555205 696.0411764705882,539.2943211944004 699.2505882352941,544.8531854332803 696.0411764705882,550.4120496721602 689.6223529411766,550.4120496721602 686.4129411764707,544.8531854332803 689.6223529411766,539.2943211944004 686.4129411764707,533.7354569555205 679.9941176470588,533.7354569555205 676.7847058823529,528.1765927166406 679.9941176470588,522.6177284777607 686.4129411764707,522.6177284777607 689.6223529411766,517.0588642388808 686.4129411764707,511.5000000000009 679.9941176470588,511.5000000000009 676.7847058823529,517.0588642388808 670.3658823529413,517.0588642388808 667.1564705882354,511.5000000000009 660.7376470588235,511.5000000000009 657.5282352941176,517.0588642388808 660.7376470588235,522.6177284777607 657.5282352941176,528.1765927166406 651.109411764706,528.1765927166406 647.9000000000001,522.6177284777607 651.109411764706,517.0588642388808 647.9000000000001,511.5000000000009 641.4811764705883,511.5000000000009 638.2717647058823,517.0588642388808 631.8529411764707,517.0588642388808 628.6435294117648,511.5000000000009 622.224705882353,511.5000000000009 619.015294117647,517.0588642388808 622.224705882353,522.6177284777607 628.6435294117648,522.6177284777607 631.8529411764707,528.1765927166406 628.6435294117648,533.7354569555205 631.8529411764707,539.2943211944004 638.2717647058823,539.2943211944004 641.4811764705883,533.7354569555205 647.9000000000001,533.7354569555205 651.109411764706,539.2943211944004 647.9000000000001,544.8531854332803 641.4811764705883,544.8531854332803 638.2717647058823,550.4120496721602 641.4811764705883,555.97091391104 647.9000000000001,555.97091391104 651.109411764706,561.52977814992 647.9000000000001,567.0886423887998 651.109411764706,572.6475066276797 657.5282352941176,572.6475066276797 660.7376470588235,567.0886423887998 657.5282352941176,561.52977814992 660.7376470588235,555.97091391104 667.1564705882354,555.97091391104 670.3658823529413,561.52977814992 676.7847058823529,561.52977814992 679.9941176470588,555.97091391104 686.4129411764707,555.97091391104 689.6223529411766,561.52977814992 686.4129411764707,567.0886423887998 679.9941176470588,567.0886423887998 676.7847058823529,572.6475066276797 679.9941176470588,578.2063708665596 676.7847058823529,583.7652351054394 670.3658823529413,583.7652351054394 667.1564705882354,578.2063708665596 660.7376470588235,578.2063708665596 657.5282352941176,583.7652351054394 660.7376470588235,589.3240993443193 667.1564705882354,589.3240993443193 670.3658823529413,594.8829635831992 667.1564705882354,600.441827822079 660.7376470588235,600.441827822079 657.5282352941176,606.0006920609587 660.7376470588235,611.5595562998386 657.5282352941176,617.1184205387185 651.109411764706,617.1184205387185 647.9000000000001,611.5595562998386 651.109411764706,606.0006920609587 647.9000000000001,600.441827822079 641.4811764705883,600.441827822079 638.2717647058823,606.0006920609587 631.8529411764707,606.0006920609587 628.6435294117648,600.441827822079 622.224705882353,600.441827822079 619.015294117647,606.0006920609587 622.224705882353,611.5595562998386 628.6435294117648,611.5595562998386 631.8529411764707,617.1184205387185 628.6435294117648,622.6772847775983 631.8529411764707,628.2361490164782 638.2717647058823,628.2361490164782 641.4811764705883,622.6772847775983 647.9000000000001,622.6772847775983 651.109411764706,628.2361490164782 647.9000000000001,633.7950132553581 641.4811764705883,633.7950132553581 638.2717647058823,639.3538774942378 641.4811764705883,644.9127417331177 638.2717647058823,650.4716059719976 631.8529411764707,650.4716059719976 628.6435294117648,644.9127417331177 622.224705882353,644.9127417331177 619.015294117647,650.4716059719976 622.224705882353,656.0304702108774 628.6435294117648,656.0304702108774 631.8529411764707,661.5893344497573 628.6435294117648,667.1481986886372 622.224705882353,667.1481986886372 619.015294117647,672.707062927517 622.224705882353,678.2659271663969 619.015294117647,683.8247914052768 612.5964705882353,683.8247914052768 609.3870588235295,678.2659271663969 612.5964705882353,672.707062927517 609.3870588235295,667.1481986886372 602.9682352941177,667.1481986886372 599.7588235294118,661.5893344497573 602.9682352941177,656.0304702108774 609.3870588235295,656.0304702108774 612.5964705882353,650.4716059719976 609.3870588235295,644.9127417331177 602.9682352941177,644.9127417331177 599.7588235294118,650.4716059719976 593.34,650.4716059719976 590.1305882352941,644.9127417331177 593.34,639.3538774942378 590.1305882352941,633.7950132553581 583.7117647058824,633.7950132553581 580.5023529411765,628.2361490164782 583.7117647058824,622.6772847775983 590.1305882352941,622.6772847775983 593.34,628.2361490164782 599.7588235294118,628.2361490164782 602.9682352941177,622.6772847775983 599.7588235294118,617.1184205387185 602.9682352941177,611.5595562998386 609.3870588235295,611.5595562998386 612.5964705882353,606.0006920609587 609.3870588235295,600.441827822079 602.9682352941177,600.441827822079 599.7588235294118,606.0006920609587 593.34,606.0006920609587 590.1305882352941,600.441827822079 583.7117647058824,600.441827822079 580.5023529411765,606.0006920609587 583.7117647058824,611.5595562998386 580.5023529411765,617.1184205387185 574.0835294117647,617.1184205387185 570.8741176470588,611.5595562998386 574.0835294117647,606.0006920609587 570.8741176470588,600.441827822079 564.4552941176471,600.441827822079 561.2458823529412,594.8829635831992 564.4552941176471,589.3240993443193 570.8741176470588,589.3240993443193 574.0835294117647,583.7652351054394 570.8741176470588,578.2063708665596 564.4552941176471,578.2063708665596 561.2458823529412,583.7652351054394 554.8270588235295,583.7652351054394 551.6176470588235,578.2063708665596 554.8270588235295,572.6475066276797 551.6176470588235,567.0886423887998 545.1988235294118,567.0886423887998 541.9894117647059,561.52977814992 545.1988235294118,555.97091391104 551.6176470588235,555.97091391104 554.8270588235295,561.52977814992 561.2458823529412,561.52977814992 564.4552941176471,555.97091391104 570.8741176470588,555.97091391104 574.0835294117647,561.52977814992 570.8741176470588,567.0886423887998 574.0835294117647,572.6475066276797 580.5023529411765,572.6475066276797 583.7117647058824,567.0886423887998 580.5023529411765,561.52977814992 583.7117647058824,555.97091391104 590.1305882352941,555.97091391104 593.34,550.4120496721602 590.1305882352941,544.8531854332803 583.7117647058824,544.8531854332803 580.5023529411765,539.2943211944004 583.7117647058824,533.7354569555205 590.1305882352941,533.7354569555205 593.34,539.2943211944004 599.7588235294118,539.2943211944004 602.9682352941177,533.7354569555205 599.7588235294118,528.1765927166406 602.9682352941177,522.6177284777607 609.3870588235295,522.6177284777607 612.5964705882353,517.0588642388808 609.3870588235295,511.5000000000009 602.9682352941177,511.5000000000009 599.7588235294118,517.0588642388808 593.34,517.0588642388808 590.1305882352941,511.5000000000009 583.7117647058824,511.5000000000009 580.5023529411765,517.0588642388808 583.7117647058824,522.6177284777607 580.5023529411765,528.1765927166406 574.0835294117647,528.1765927166406 570.8741176470588,522.6177284777607 574.0835294117647,517.0588642388808 570.8741176470588,511.5000000000009 564.4552941176471,511.5000000000009 561.2458823529412,517.0588642388808 554.8270588235295,517.0588642388808 551.6176470588235,511.5000000000009 545.1988235294118,511.5000000000009 541.9894117647059,517.0588642388808 545.1988235294118,522.6177284777607 551.6176470588235,522.6177284777607 554.8270588235295,528.1765927166406 551.6176470588235,533.7354569555205 545.1988235294118,533.7354569555205 541.9894117647059,539.2943211944004 545.1988235294118,544.8531854332803 541.9894117647059,550.4120496721602 535.570588235294,550.4120496721602 532.3611764705882,544.8531854332803 535.570588235294,539.2943211944004 532.3611764705882,533.7354569555205 525.9423529411765,533.7354569555205 522.7329411764706,528.1765927166406 525.9423529411765,522.6177284777607 532.3611764705882,522.6177284777607 535.570588235294,517.0588642388808 532.3611764705882,511.5000000000009 525.9423529411765,511.5000000000009 522.7329411764706,517.0588642388808 516.3141176470588,517.0588642388808 513.104705882353,511.5000000000009 506.6858823529412,511.5000000000009 503.4764705882353,517.0588642388808 506.6858823529412,522.6177284777607 503.4764705882353,528.1765927166406 497.05764705882353,528.1765927166406 493.84823529411767,522.6177284777607 497.05764705882353,517.0588642388808 493.84823529411767,511.5000000000009 487.4294117647059,511.5000000000009 484.22,517.0588642388808 477.80117647058825,517.0588642388808 474.5917647058824,511.5000000000009 468.1729411764706,511.5000000000009 464.96352941176474,517.0588642388808 468.1729411764706,522.6177284777607 474.5917647058824,522.6177284777607 477.80117647058825,528.1765927166406 474.5917647058824,533.7354569555205 477.80117647058825,539.2943211944004 484.22,539.2943211944004 487.4294117647059,533.7354569555205 493.84823529411767,533.7354569555205 497.05764705882353,539.2943211944004 493.84823529411767,544.8531854332803 487.4294117647059,544.8531854332803 484.22,550.4120496721602 487.4294117647059,555.97091391104 484.22,561.52977814992 477.80117647058825,561.52977814992 474.5917647058824,555.97091391104 468.1729411764706,555.97091391104 464.96352941176474,561.52977814992 468.1729411764706,567.0886423887998 474.5917647058824,567.0886423887998 477.80117647058825,572.6475066276797 474.5917647058824,578.2063708665596 468.1729411764706,578.2063708665596 464.96352941176474,583.7652351054394 468.1729411764706,589.3240993443193 464.96352941176474,594.8829635831992 458.54470588235296,594.8829635831992 455.3352941176471,589.3240993443193 458.54470588235296,583.7652351054394 455.3352941176471,578.2063708665596 448.9164705882353,578.2063708665596 445.70705882352945,572.6475066276797 448.9164705882353,567.0886423887998 455.3352941176471,567.0886423887998 458.54470588235296,561.52977814992 455.3352941176471,555.97091391104 448.9164705882353,555.97091391104 445.70705882352945,561.52977814992 439.28823529411767,561.52977814992 436.0788235294118,555.97091391104 439.28823529411767,550.4120496721602 436.0788235294118,544.8531854332803 429.66,544.8531854332803 426.45058823529416,539.2943211944004 429.66,533.7354569555205 436.0788235294118,533.7354569555205 439.28823529411767,539.2943211944004 445.70705882352945,539.2943211944004 448.9164705882353,533.7354569555205 445.70705882352945,528.1765927166406 448.9164705882353,522.6177284777607 455.3352941176471,522.6177284777607 458.54470588235296,517.0588642388808 455.3352941176471,511.5000000000009 448.9164705882353,511.5000000000009 445.70705882352945,517.0588642388808 439.28823529411767,517.0588642388808 436.0788235294118,511.5000000000009 429.66,511.5000000000009 426.45058823529416,517.0588642388808 429.66,522.6177284777607 426.45058823529416,528.1765927166406 420.0317647058824,528.1765927166406 416.82235294117646,522.6177284777607 420.0317647058824,517.0588642388808 416.82235294117646,511.5000000000009 410.40352941176474,511.5000000000009 407.1941176470588,517.0588642388808 400.7752941176471,517.0588642388808 397.5658823529412,511.5000000000009 391.14705882352945,511.5000000000009 387.93764705882353,517.0588642388808 391.14705882352945,522.6177284777607 397.5658823529412,522.6177284777607 400.7752941176471,528.1765927166406 397.5658823529412,533.7354569555205 391.14705882352945,533.7354569555205 387.93764705882353,539.2943211944004 391.14705882352945,544.8531854332803 387.93764705882353,550.4120496721602 381.5188235294118,550.4120496721602 378.3094117647059,544.8531854332803 381.5188235294118,539.2943211944004 378.3094117647059,533.7354569555205 371.89058823529416,533.7354569555205 368.68117647058824,528.1765927166406 371.89058823529416,522.6177284777607 378.3094117647059,522.6177284777607 381.5188235294118,517.0588642388808 378.3094117647059,511.5000000000009 371.89058823529416,511.5000000000009 368.68117647058824,517.0588642388808 362.26235294117646,517.0588642388808 359.0529411764706,511.5000000000009 352.6341176470588,511.5000000000009 349.42470588235295,517.0588642388808 352.6341176470588,522.6177284777607 349.42470588235295,528.1765927166406 343.00588235294117,528.1765927166406 339.7964705882353,522.6177284777607 343.00588235294117,517.0588642388808 339.7964705882353,511.5000000000009 333.3776470588235,511.5000000000009 330.16823529411766,517.0588642388808 323.7494117647059,517.0588642388808 320.54,511.5000000000009 314.12117647058824,511.5000000000009 310.9117647058824,517.0588642388808 314.12117647058824,522.6177284777607 320.54,522.6177284777607 323.7494117647059,528.1765927166406 320.54,533.7354569555205 323.7494117647059,539.2943211944004 330.16823529411766,539.2943211944004 333.3776470588235,533.7354569555205 339.7964705882353,533.7354569555205 343.00588235294117,539.2943211944004 339.7964705882353,544.8531854332803 333.3776470588235,544.8531854332803 330.16823529411766,550.4120496721602 333.3776470588235,555.97091391104 339.7964705882353,555.97091391104 343.00588235294117,561.52977814992 339.7964705882353,567.0886423887998 343.00588235294117,572.6475066276797 349.42470588235295,572.6475066276797 352.6341176470588,567.0886423887998 349.42470588235295,561.52977814992 352.6341176470588,555.97091391104 359.0529411764706,555.97091391104 362.26235294117646,561.52977814992 368.68117647058824,561.52977814992 371.89058823529416,555.97091391104 378.3094117647059,555.97091391104 381.5188235294118,561.52977814992 378.3094117647059,567.0886423887998 371.89058823529416,567.0886423887998 368.68117647058824,572.6475066276797 371.89058823529416,578.2063708665596 368.68117647058824,583.7652351054394 362.26235294117646,583.7652351054394 359.0529411764706,578.2063708665596 352.6341176470588,578.2063708665596 349.42470588235295,583.7652351054394 352.6341176470588,589.3240993443193 359.0529411764706,589.3240993443193 362.26235294117646,594.8829635831992 359.0529411764706,600.441827822079 362.26235294117646,606.0006920609587 368.68117647058824,606.0006920609587 371.89058823529416,600.441827822079 378.3094117647059,600.441827822079 381.5188235294118,606.0006920609587 378.3094117647059,611.5595562998386 371.89058823529416,611.5595562998386 368.68117647058824,617.1184205387185 371.89058823529416,622.6772847775983 378.3094117647059,622.6772847775983 381.5188235294118,628.2361490164782 378.3094117647059,633.7950132553581 381.5188235294118,639.3538774942378 387.93764705882353,639.3538774942378 391.14705882352945,633.7950132553581 387.93764705882353,628.2361490164782 391.14705882352945,622.6772847775983 397.5658823529412,622.6772847775983 400.7752941176471,617.1184205387185 397.5658823529412,611.5595562998386 391.14705882352945,611.5595562998386 387.93764705882353,606.0006920609587 391.14705882352945,600.441827822079 397.5658823529412,600.441827822079 400.7752941176471,606.0006920609587 407.1941176470588,606.0006920609587 410.40352941176474,600.441827822079 416.82235294117646,600.441827822079 420.0317647058824,606.0006920609587 416.82235294117646,611.5595562998386 420.0317647058824,617.1184205387185 426.45058823529416,617.1184205387185 429.66,611.5595562998386 426.45058823529416,606.0006920609587 429.66,600.441827822079 436.0788235294118,600.441827822079 439.28823529411767,606.0006920609587 445.70705882352945,606.0006920609587 448.9164705882353,600.441827822079 455.3352941176471,600.441827822079 458.54470588235296,606.0006920609587 455.3352941176471,611.5595562998386 448.9164705882353,611.5595562998386 445.70705882352945,617.1184205387185 448.9164705882353,622.6772847775983 445.70705882352945,628.2361490164782 439.28823529411767,628.2361490164782 436.0788235294118,622.6772847775983 429.66,622.6772847775983 426.45058823529416,628.2361490164782 429.66,633.7950132553581 436.0788235294118,633.7950132553581 439.28823529411767,639.3538774942378 436.0788235294118,644.9127417331177 429.66,644.9127417331177 426.45058823529416,650.4716059719976 429.66,656.0304702108774 426.45058823529416,661.5893344497573 420.0317647058824,661.5893344497573 416.82235294117646,656.0304702108774 420.0317647058824,650.4716059719976 416.82235294117646,644.9127417331177 410.40352941176474,644.9127417331177 407.1941176470588,650.4716059719976 400.7752941176471,650.4716059719976 397.5658823529412,644.9127417331177 391.14705882352945,644.9127417331177 387.93764705882353,650.4716059719976 391.14705882352945,656.0304702108774 397.5658823529412,656.0304702108774 400.7752941176471,661.5893344497573 397.5658823529412,667.1481986886372 400.7752941176471,672.707062927517 407.1941176470588,672.707062927517 410.40352941176474,667.1481986886372 416.82235294117646,667.1481986886372 420.0317647058824,672.707062927517 416.82235294117646,678.2659271663969 410.40352941176474,678.2659271663969 407.1941176470588,683.8247914052768 410.40352941176474,689.3836556441565 416.82235294117646,689.3836556441565 420.0317647058824,694.9425198830364 416.82235294117646,700.5013841219162 420.0317647058824,706.0602483607961 426.45058823529416,706.0602483607961 429.66,700.5013841219162 426.45058823529416,694.9425198830364 429.66,689.3836556441565 436.0788235294118,689.3836556441565 439.28823529411767,694.9425198830364 445.70705882352945,694.9425198830364 448.9164705882353,689.3836556441565 455.3352941176471,689.3836556441565 458.54470588235296,694.9425198830364 455.3352941176471,700.5013841219162 448.9164705882353,700.5013841219162 445.70705882352945,706.0602483607961 448.9164705882353,711.6191125996759 445.70705882352945,717.1779768385558 439.28823529411767,717.1779768385558 436.0788235294118,711.6191125996759 429.66,711.6191125996759 426.45058823529416,717.1779768385558 429.66,722.7368410774357 436.0788235294118,722.7368410774357 439.28823529411767,728.2957053163154 436.0788235294118,733.8545695551953 439.28823529411767,739.4134337940752 445.70705882352945,739.4134337940752 448.9164705882353,733.8545695551953 455.3352941176471,733.8545695551953 458.54470588235296,739.4134337940752 455.3352941176471,744.972298032955 448.9164705882353,744.972298032955 445.70705882352945,750.5311622718349 448.9164705882353,756.0900265107148 455.3352941176471,756.0900265107148 458.54470588235296,761.6488907495946 455.3352941176471,767.2077549884744 458.54470588235296,772.7666192273542 464.96352941176474,772.7666192273542 468.1729411764706,767.2077549884744 464.96352941176474,761.6488907495946 468.1729411764706,756.0900265107148 474.5917647058824,756.0900265107148 477.80117647058825,750.5311622718349 474.5917647058824,744.972298032955 468.1729411764706,744.972298032955 464.96352941176474,739.4134337940752 468.1729411764706,733.8545695551953 474.5917647058824,733.8545695551953 477.80117647058825,739.4134337940752 484.22,739.4134337940752 487.4294117647059,733.8545695551953 484.22,728.2957053163154 487.4294117647059,722.7368410774357 493.84823529411767,722.7368410774357 497.05764705882353,717.1779768385558 493.84823529411767,711.6191125996759 487.4294117647059,711.6191125996759 484.22,717.1779768385558 477.80117647058825,717.1779768385558 474.5917647058824,711.6191125996759 477.80117647058825,706.0602483607961 474.5917647058824,700.5013841219162 468.1729411764706,700.5013841219162 464.96352941176474,694.9425198830364 468.1729411764706,689.3836556441565 474.5917647058824,689.3836556441565 477.80117647058825,694.9425198830364 484.22,694.9425198830364 487.4294117647059,689.3836556441565 493.84823529411767,689.3836556441565 497.05764705882353,694.9425198830364 493.84823529411767,700.5013841219162 497.05764705882353,706.0602483607961 503.4764705882353,706.0602483607961 506.6858823529412,700.5013841219162 503.4764705882353,694.9425198830364 506.6858823529412,689.3836556441565 513.104705882353,689.3836556441565 516.3141176470588,694.9425198830364 522.7329411764706,694.9425198830364 525.9423529411765,689.3836556441565 532.3611764705882,689.3836556441565 535.570588235294,694.9425198830364 532.3611764705882,700.5013841219162 525.9423529411765,700.5013841219162 522.7329411764706,706.0602483607961 525.9423529411765,711.6191125996759 532.3611764705882,711.6191125996759 535.570588235294,717.1779768385558 532.3611764705882,722.7368410774357 535.570588235294,728.2957053163154 541.9894117647059,728.2957053163154 545.1988235294118,722.7368410774357 541.9894117647059,717.1779768385558 545.1988235294118,711.6191125996759 551.6176470588235,711.6191125996759 554.8270588235295,706.0602483607961 551.6176470588235,700.5013841219162 545.1988235294118,700.5013841219162 541.9894117647059,694.9425198830364 545.1988235294118,689.3836556441565 551.6176470588235,689.3836556441565 554.8270588235295,694.9425198830364 561.2458823529412,694.9425198830364 564.4552941176471,689.3836556441565 570.8741176470588,689.3836556441565 574.0835294117647,694.9425198830364 570.8741176470588,700.5013841219162 574.0835294117647,706.0602483607961 580.5023529411765,706.0602483607961 583.7117647058824,700.5013841219162 580.5023529411765,694.9425198830364 583.7117647058824,689.3836556441565 590.1305882352941,689.3836556441565 593.34,694.9425198830364 599.7588235294118,694.9425198830364 602.9682352941177,689.3836556441565 609.3870588235295,689.3836556441565 612.5964705882353,694.9425198830364 609.3870588235295,700.5013841219162 602.9682352941177,700.5013841219162 599.7588235294118,706.0602483607961 602.9682352941177,711.6191125996759 599.7588235294118,717.1779768385558 593.34,717.1779768385558 590.1305882352941,711.6191125996759 583.7117647058824,711.6191125996759 580.5023529411765,717.1779768385558 583.7117647058824,722.7368410774357 590.1305882352941,722.7368410774357 593.34,728.2957053163154 590.1305882352941,733.8545695551953 583.7117647058824,733.8545695551953 580.5023529411765,739.4134337940752 583.7117647058824,744.972298032955 580.5023529411765,750.5311622718349 574.0835294117647,750.5311622718349 570.8741176470588,744.972298032955 574.0835294117647,739.4134337940752 570.8741176470588,733.8545695551953 564.4552941176471,733.8545695551953 561.2458823529412,739.4134337940752 554.8270588235295,739.4134337940752 551.6176470588235,733.8545695551953 545.1988235294118,733.8545695551953 541.9894117647059,739.4134337940752 545.1988235294118,744.972298032955 551.6176470588235,744.972298032955 554.8270588235295,750.5311622718349 551.6176470588235,756.0900265107148 554.8270588235295,761.6488907495946 561.2458823529412,761.6488907495946 564.4552941176471,756.0900265107148 570.8741176470588,756.0900265107148 574.0835294117647,761.6488907495946 570.8741176470588,767.2077549884744 564.4552941176471,767.2077549884744 561.2458823529412,772.7666192273542 564.4552941176471,778.3254834662341 561.2458823529412,783.884347705114 554.8270588235295,783.884347705114 551.6176470588235,778.3254834662341 545.1988235294118,778.3254834662341 541.9894117647059,783.884347705114 545.1988235294118,789.4432119439938 551.6176470588235,789.4432119439938 554.8270588235295,795.0020761828737 551.6176470588235,800.5609404217535 545.1988235294118,800.5609404217535 541.9894117647059,806.1198046606333 545.1988235294118,811.6786688995132 541.9894117647059,817.237533138393 535.570588235294,817.237533138393 532.3611764705882,811.6786688995132 535.570588235294,806.1198046606333 532.3611764705882,800.5609404217535 525.9423529411765,800.5609404217535 522.7329411764706,795.0020761828737 525.9423529411765,789.4432119439938 532.3611764705882,789.4432119439938 535.570588235294,783.884347705114 532.3611764705882,778.3254834662341 525.9423529411765,778.3254834662341 522.7329411764706,783.884347705114 516.3141176470588,783.884347705114 513.104705882353,778.3254834662341 506.6858823529412,778.3254834662341 503.4764705882353,783.884347705114 506.6858823529412,789.4432119439938 503.4764705882353,795.0020761828737 497.05764705882353,795.0020761828737 493.84823529411767,789.4432119439938 497.05764705882353,783.884347705114 493.84823529411767,778.3254834662341 487.4294117647059,778.3254834662341 484.22,783.884347705114 477.80117647058825,783.884347705114 474.5917647058824,778.3254834662341 468.1729411764706,778.3254834662341 464.96352941176474,783.884347705114 468.1729411764706,789.4432119439938 474.5917647058824,789.4432119439938 477.80117647058825,795.0020761828737 474.5917647058824,800.5609404217535 477.80117647058825,806.1198046606333 484.22,806.1198046606333 487.4294117647059,800.5609404217535 493.84823529411767,800.5609404217535 497.05764705882353,806.1198046606333 493.84823529411767,811.6786688995132 487.4294117647059,811.6786688995132 484.22,817.237533138393 487.4294117647059,822.7963973772729 493.84823529411767,822.7963973772729 497.05764705882353,828.3552616161528 493.84823529411767,833.9141258550326 497.05764705882353,839.4729900939125 503.4764705882353,839.4729900939125 506.6858823529412,833.9141258550326 503.4764705882353,828.3552616161528 506.6858823529412,822.7963973772729 513.104705882353,822.7963973772729 516.3141176470588,828.3552616161528 522.7329411764706,828.3552616161528 525.9423529411765,822.7963973772729 532.3611764705882,822.7963973772729 535.570588235294,828.3552616161528 532.3611764705882,833.9141258550326 525.9423529411765,833.9141258550326 522.7329411764706,839.4729900939125 525.9423529411765,845.0318543327924 522.7329411764706,850.5907185716721 516.3141176470588,850.5907185716721 513.104705882353,845.0318543327924 506.6858823529412,845.0318543327924 503.4764705882353,850.5907185716721 506.6858823529412,856.149582810552 513.104705882353,856.149582810552 516.3141176470588,861.7084470494318 513.104705882353,867.2673112883117" />
</svg>