<?xml version="1.0" standalone="no"?>
<svg width="1024" height="1024"
xmlns="http://www.w3.org/2000/svg" version="1.1">
<rect x="1" y="1" width="1024" height="1024"
fill="none" stroke="black" stroke-width="1" />
<polyline fill="none" stroke="#000000ff" stroke-width="2" points="511.5,920.7 511.5,920.7 511.5,917.4247476059099 511.5,914.1494952118201 511.5,910.8742428177302 511.5,907.5989904236401 511.5,904.3237380295502 511.5,901.0484856354601 511.5,897.7732332413702 511.5,894.4979808472804 511.5,891.2227284531903 511.5,887.9474760591004 511.5,884.6722236650103 511.5,881.3969712709204 511.5,878.1217188768305 511.5,874.8464664827404 511.5,871.5712140886505 511.5,868.2959616945604 511.5,865.0207093004706 511.5,861.7454569063807 511.5,858.4702045122906 511.5,855.1949521182007 511.5,851.9196997241106 511.5,848.6444473300207 511.5,845.3691949359309 511.5,842.0939425418408 511.5,838.8186901477509 511.5,835.5434377536608 511.5,832.2681853595709 511.5,828.992932965481 511.5,825.7176805713909 511.5,822.442428177301 511.5,819.167175783211 511.5,815.8919233891211 511.5,812.616670995031 511.5,809.3414186009411 511.5,806.0661662068512 511.5,802.7909138127611 511.5,799.5156614186712 511.5,796.2404090245811 511.5,792.9651566304913 511.5,789.6899042364014 511.5,786.4146518423113 511.5,783.1393994482214 511.5,779.8641470541313 511.5,776.5888946600414 511.5,773.3136422659516 511.5,770.0383898718615 511.5,766.7631374777716 511.5,763.4878850836815 511.5,760.2126326895916 511.5,756.9373802955017 511.5,753.6621279014116 511.5,750.3868755073217 511.5,747.1116231132316 511.5,743.8363707191418 511.5,740.5611183250519 511.5,737.2858659309618 511.5,734.0106135368719 511.5,730.7353611427818 511.5,727.4601087486919 511.5,724.1848563546021 511.5,720.909603960512 511.5,717.6343515664221 511.5,714.359099172332 511.5,711.0838467782421 511.5,707.8085943841522 511.5,704.5333419900621 511.5,701.2580895959723 511.5,697.9828372018821 511.5,694.7075848077923 511.5,691.4323324137024 511.5,688.1570800196123 511.5,684.8818276255224 511.5,681.6065752314323 511.5,678.3313228373424 511.5,675.0560704432526 511.5,671.7808180491625 511.5,668.5055656550726 511.5,665.2303132609825 511.5,661.9550608668926 511.5,658.6798084728025 511.5,655.4045560787126 511.5,652.1293036846228 511.5,648.8540512905327 511.5,645.5787988964428 511.5,642.3035465023527 511.5,639.0282941082628 511.5,635.7530417141729 511.5,632.4777893200828 511.5,629.202536925993 511.5,625.9272845319028 511.5,622.652032137813 511.5,619.3767797437231 511.5,616.101527349633 511.5,612.8262749555431 511.5,609.5510225614531 511.5,606.2757701673631 511.5,603.0005177732731 511.5,599.7252653791832 511.5,596.4500129850933 511.5,593.1747605910033 511.5,589.8995081969133 511.5,586.6242558028233 511.5,583.3490034087333 511.5,580.0737510146434 511.5,576.7984986205535 511.5,573.5232462264635 511.5,570.2479938323735 511.5,566.9727414382835 511.5,563.6974890441936 511.5,560.4222366501035 511.5,557.1469842560136 511.5,553.8717318619236 511.5,550.5964794678337 511.5,547.3212270737438 511.5,544.0459746796537 511.5,540.7707222855638 511.5,537.4954698914738 511.5,534.2202174973838 511.5,530.944965103294 511.5,527.6697127092038 511.5,524.394460315114 511.5,521.119207921024 511.5,517.843955526934 511.5,514.5687031328441 511.5,511.2934507387541 511.5,508.01819834466414 511.5,504.74294595057415 511.5,501.46769355648416 512.6202022932545,498.38996305054644 513.7404045865088,495.3122325446088 514.8606068797632,492.23450203867105 515.9808091730176,489.15677153273333 517.101011466272,486.0790410267956 518.2212137595263,483.0013105208579 519.3414160527808,479.9235800149202 520.4616183460352,476.8458495089825 521.5818206392895,473.7681190030448 522.702022932544,470.69038849710705 523.8222252257983,467.6126579911693 524.9424275190527,464.53492748523166 526.0626298123071,461.45719697929394 527.1828321055615,458.3794664733562 528.3030343988158,455.3017359674185 529.4232366920703,452.2240054614808 530.5434389853247,449.14627495554305 531.663641278579,446.0685444496054 532.7838435718335,442.99081394366766 533.9040458650878,439.91308343772994 535.0242481583422,436.8353529317922 536.1444504515966,433.7576224258545 537.264652744851,430.6798919199168 538.3848550381053,427.6021614139791 539.5050573313598,424.5244309080414 540.6252596246142,421.44670040210366 541.7454619178685,418.36896989616594 542.865664211123,415.2912393902282 543.9858665043773,412.21350888429055 545.1060687976317,409.1357783783528 546.2262710908861,406.0580478724151 547.3464733841405,402.9803173664774 548.466675677395,399.90258686053966 549.5868779706493,396.824856354602 550.7070802639037,393.74712584866427 551.8272825571581,390.66939534272655 552.9474848504125,387.5916648367888 554.0676871436668,384.5139343308511 555.1878894369213,381.4362038249134 556.3080917301756,378.3584733189757 557.42829402343,375.280742813038 558.5484963166845,372.20301230710027 559.6686986099388,369.12528180116254 560.7889009031933,366.0475512952248 561.9091031964476,362.96982078928716 563.029305489702,359.89209028334943 564.1495077829564,356.8143597774117 565.2697100762108,353.736629271474 566.3899123694652,350.65889876553626 567.5101146627196,347.5811682595986 568.630316955974,344.5034377536608 569.7505192492283,341.42570724772315 570.8707215424828,338.34797674178543 571.9909238357371,335.2702462358477 573.1111261289915,332.19251572991004 574.231328422246,329.11478522397226 575.3515307155003,326.0370547180346 576.4717330087547,322.9593242120969 577.5919353020091,319.88159370615915 578.7121375952635,316.8038632002215 579.8323398885179,313.7261326942837 580.9525421817723,310.64840218834604 582.0727444750266,307.5706716824083 583.1929467682811,304.4929411764706 585.2982384257982,301.9839522801659 587.4035300833154,299.4749633838611 589.5088217408327,296.9659744875564 591.6141133983499,294.4569855912517 593.7194050558671,291.94799669494694 595.8246967133844,289.43900779864225 597.9299883709015,286.9300189023375 600.0352800284187,284.42103000603277 602.1405716859359,281.9120411097281 604.2458633434532,279.4030522134233 606.3511550009704,276.8940633171186 608.4564466584875,274.38507442081385 610.5617383160047,271.8760855245091 612.667029973522,269.3670966282044 614.7723216310392,266.8581077318997 616.8776132885564,264.34911883559494 618.9829049460735,261.84012993929025 621.0881966035907,259.3311410429855 623.193488261108,256.82215214668076 625.2987799186251,254.31316325037605 627.4040715761423,251.8041743540713 629.5093632336595,249.2951854577666 631.6146548911768,246.78619656146185 633.7199465486939,244.27720766515714 635.8252382062111,241.7682187688524 637.9305298637283,239.25922987254768 640.0358215212455,236.75024097624294 642.1411131787627,234.24125207993822 644.2464048362799,231.73226318363348 646.3516964937971,229.22327428732876 648.4569881513142,226.71428539102402 650.5622798088315,224.2052964947193 653.3987315859192,222.56767029767434 656.2351833630069,220.93004410062935 659.0716351400947,219.29241790358435 661.9080869171823,217.65479170653936 664.7445386942701,216.0171655094944 667.5809904713578,214.37953931244942 670.4174422484455,212.74191311540443 673.2538940255332,211.10428691835943 676.090345802621,209.46666072131444 678.9267975797087,207.82903452426947 681.7632493567965,206.19140832722448 684.5997011338841,204.5537821301795 687.4361529109718,202.91615593313452 690.2726046880596,201.27852973608952 693.1090564651473,199.64090353904456 695.9455082422351,198.00327734199956 699.1710021930066,197.43453573236658 702.3964961437782,196.8657941227336 705.6219900945498,196.2970525131006 708.8474840453214,195.72831090346762 712.072977996093,195.15956929383464 715.2984719468645,194.59082768420166 718.5239658976361,194.02208607456868 721.7494598484077,193.4533444649357 724.9749537991793,194.02208607456868 728.2004477499509,194.59082768420166 731.4259417007224,195.15956929383464 734.651435651494,195.72831090346762 737.4878874285818,197.3659371005126 740.3243392056695,199.0035632975576 742.4296308631867,201.51255219386232" />
<polyline fill="none" stroke="#000000ff" stroke-width="2" points="742.4296308631867,201.51255219386232 742.4296308631867,201.51255219386232" />
<polyline fill="none" stroke="#000000ff" stroke-width="2" points="740.3243392056695,199.0035632975576 740.3243392056695,199.0035632975576 743.5498331564411,199.57230490719058" />
<polyline fill="none" stroke="#000000ff" stroke-width="2" points="743.5498331564411,199.57230490719058 743.5498331564411,199.57230490719058" />
<polyline fill="none" stroke="#000000ff" stroke-width="2" points="734.651435651494,195.72831090346762 734.651435651494,195.72831090346762 737.8769296022656,195.15956929383464 741.1024235530373,194.59082768420166 744.3279175038089,195.15956929383464" />
<polyline fill="none" stroke="#000000ff" stroke-width="2" points="744.3279175038089,195.15956929383464 744.3279175038089,195.15956929383464" />
<polyline fill="none" stroke="#000000ff" stroke-width="2" points="741.1024235530373,194.59082768420166 741.1024235530373,194.59082768420166 743.9388753301249,192.95320148715666" />
<polyline fill="none" stroke="#000000ff" stroke-width="2" points="743.9388753301249,192.95320148715666 743.9388753301249,192.95320148715666" />
<polyline fill="none" stroke="#000000ff" stroke-width="2" points="721.7494598484077,193.4533444649357 721.7494598484077,193.4533444649357 724.5859116254954,191.8157182678907 727.4223634025831,190.1780920708457 730.2588151796708,188.54046587380074 733.0952669567585,186.90283967675578 736.32076090753,186.33409806712277 739.5462548583017,185.7653564574898 742.7717488090733,186.33409806712277" />
<polyline fill="none" stroke="#000000ff" stroke-width="2" points="742.7717488090733,186.33409806712277 742.7717488090733,186.33409806712277" />
<polyline fill="none" stroke="#000000ff" stroke-width="2" points="739.5462548583017,185.7653564574898 739.5462548583017,185.7653564574898 742.3827066353894,184.12773026044482" />
<polyline fill="none" stroke="#000000ff" stroke-width="2" points="742.3827066353894,184.12773026044482 742.3827066353894,184.12773026044482" />
<polyline fill="none" stroke="#000000ff" stroke-width="2" points="733.0952669567585,186.90283967675578 733.0952669567585,186.90283967675578 735.2005586142757,184.39385078045103 737.3058502717929,181.8848618841463 740.1423020488805,180.24723568710132" />
<polyline fill="none" stroke="#000000ff" stroke-width="2" points="740.1423020488805,180.24723568710132 740.1423020488805,180.24723568710132" />
<polyline fill="none" stroke="#000000ff" stroke-width="2" points="737.3058502717929,181.8848618841463 737.3058502717929,181.8848618841463 738.4260525650473,178.8071313782086" />
<polyline fill="none" stroke="#000000ff" stroke-width="2" points="738.4260525650473,178.8071313782086 738.4260525650473,178.8071313782086" />
<polyline fill="none" stroke="#000000ff" stroke-width="2" points="695.9455082422351,198.00327734199956 695.9455082422351,198.00327734199956 698.0507998997522,195.49428844569485 700.1560915572694,192.9852995493901 702.2613832147866,190.47631065308536 704.3666748723037,187.96732175678068 706.471966529821,185.45833286047593 708.5772581873382,182.9493439641712 710.6825498448554,180.44035506786648 712.7878415023725,177.93136617156176 715.6242932794603,176.29373997451677 718.460745056548,174.65611377747177 721.2971968336358,173.01848758042678 724.1336486107234,171.3808613833818 727.359142561495,170.81211977374883 730.5846365122666,170.24337816411582 733.8101304630381,170.81211977374883" />
<polyline fill="none" stroke="#000000ff" stroke-width="2" points="733.8101304630381,170.81211977374883 733.8101304630381,170.81211977374883" />
<polyline fill="none" stroke="#000000ff" stroke-width="2" points="730.5846365122666,170.24337816411582 730.5846365122666,170.24337816411582 733.4210882893543,168.60575196707086" />
<polyline fill="none" stroke="#000000ff" stroke-width="2" points="733.4210882893543,168.60575196707086 733.4210882893543,168.60575196707086" />
<polyline fill="none" stroke="#000000ff" stroke-width="2" points="724.1336486107234,171.3808613833818 724.1336486107234,171.3808613833818 726.2389402682406,168.8718724870771 728.3442319257579,166.36288359077236 731.1806837028455,164.72525739372736" />
<polyline fill="none" stroke="#000000ff" stroke-width="2" points="731.1806837028455,164.72525739372736 731.1806837028455,164.72525739372736" />
<polyline fill="none" stroke="#000000ff" stroke-width="2" points="728.3442319257579,166.36288359077236 728.3442319257579,166.36288359077236 729.4644342190122,163.28515308483463" />
<polyline fill="none" stroke="#000000ff" stroke-width="2" points="729.4644342190122,163.28515308483463 729.4644342190122,163.28515308483463" />
<polyline fill="none" stroke="#000000ff" stroke-width="2" points="712.7878415023725,177.93136617156176 712.7878415023725,177.93136617156176 713.908043795627,174.85363566562404 715.0282460888814,171.77590515968632 716.1484483821357,168.6981746537486 717.2686506753902,165.6204441478109 719.3739423329073,163.1114552515062 721.4792339904245,160.60246635520144 724.3156857675123,158.96484015815645" />
<polyline fill="none" stroke="#000000ff" stroke-width="2" points="724.3156857675123,158.96484015815645 724.3156857675123,158.96484015815645" />
<polyline fill="none" stroke="#000000ff" stroke-width="2" points="721.4792339904245,160.60246635520144 721.4792339904245,160.60246635520144 722.5994362836789,157.52473584926372" />
<polyline fill="none" stroke="#000000ff" stroke-width="2" points="722.5994362836789,157.52473584926372 722.5994362836789,157.52473584926372" />
<polyline fill="none" stroke="#000000ff" stroke-width="2" points="717.2686506753902,165.6204441478109 717.2686506753902,165.6204441478109 717.2686506753902,162.34519175372094 717.2686506753902,159.06993935963095 718.3888529686445,155.99220885369326" />
<polyline fill="none" stroke="#000000ff" stroke-width="2" points="718.3888529686445,155.99220885369326 718.3888529686445,155.99220885369326" />
<polyline fill="none" stroke="#000000ff" stroke-width="2" points="717.2686506753902,159.06993935963095 717.2686506753902,159.06993935963095 716.1484483821357,155.99220885369326" />
<polyline fill="none" stroke="#000000ff" stroke-width="2" points="716.1484483821357,155.99220885369326 716.1484483821357,155.99220885369326" />
<polyline fill="none" stroke="#000000ff" stroke-width="2" points="650.5622798088315,224.2052964947193 650.5622798088315,224.2052964947193 651.6824821020859,221.1275659887816 652.8026843953403,218.0498354828439 653.9228866885946,214.97210497690617 655.043088981849,211.89437447096844 656.1632912751035,208.81664396503075 657.2834935683578,205.73891345909303 658.4036958616123,202.66118295315533 659.5238981548666,199.5834524472176 660.644100448121,196.5057219412799 661.7643027413754,193.42799143534216 662.8845050346298,190.35026092940447 664.0047073278841,187.27253042346678 665.1249096211386,184.19479991752905 666.245111914393,181.11706941159133 667.3653142076473,178.0393389056536 668.4855165009018,174.9616083997159 670.5908081584189,172.4526195034112 672.6960998159361,169.94363060710646 674.8013914734534,167.4346417108017 676.9066831309706,164.925652814497 679.0119747884877,162.41666391819228 681.1172664460049,159.90767502188754 683.2225581035221,157.3986861255828 685.3278497610393,154.88969722927808 688.164301538127,153.25207103223312 691.0007533152148,151.61444483518812 693.8372050923025,149.97681863814313 696.6736568693902,148.33919244109816 699.8991508201618,147.77045083146515 703.1246447709334,147.20170922183217 706.350138721705,147.77045083146515" />
<polyline fill="none" stroke="#000000ff" stroke-width="2" points="706.350138721705,147.77045083146515 706.350138721705,147.77045083146515" />
<polyline fill="none" stroke="#000000ff" stroke-width="2" points="703.1246447709334,147.20170922183217 703.1246447709334,147.20170922183217 705.961096548021,145.5640830247872" />
<polyline fill="none" stroke="#000000ff" stroke-width="2" points="705.961096548021,145.5640830247872 705.961096548021,145.5640830247872" />
<polyline fill="none" stroke="#000000ff" stroke-width="2" points="696.6736568693902,148.33919244109816 696.6736568693902,148.33919244109816 698.7789485269074,145.83020354479342 700.8842401844246,143.3212146484887 703.7206919615123,141.6835884514437" />
<polyline fill="none" stroke="#000000ff" stroke-width="2" points="703.7206919615123,141.6835884514437 703.7206919615123,141.6835884514437" />
<polyline fill="none" stroke="#000000ff" stroke-width="2" points="700.8842401844246,143.3212146484887 700.8842401844246,143.3212146484887 702.004442477679,140.24348414255098" />
<polyline fill="none" stroke="#000000ff" stroke-width="2" points="702.004442477679,140.24348414255098 702.004442477679,140.24348414255098" />
<polyline fill="none" stroke="#000000ff" stroke-width="2" points="685.3278497610393,154.88969722927808 685.3278497610393,154.88969722927808 686.4480520542937,151.8119667233404 687.5682543475481,148.73423621740267 688.6884566408025,145.65650571146494 689.8086589340569,142.57877520552722 691.9139505915741,140.0697863092225 694.0192422490912,137.5607974129178 696.855694026179,135.9231712158728" />
<polyline fill="none" stroke="#000000ff" stroke-width="2" points="696.855694026179,135.9231712158728 696.855694026179,135.9231712158728" />
<polyline fill="none" stroke="#000000ff" stroke-width="2" points="694.0192422490912,137.5607974129178 694.0192422490912,137.5607974129178 695.1394445423457,134.48306690698007" />
<polyline fill="none" stroke="#000000ff" stroke-width="2" points="695.1394445423457,134.48306690698007 695.1394445423457,134.48306690698007" />
<polyline fill="none" stroke="#000000ff" stroke-width="2" points="689.8086589340569,142.57877520552722 689.8086589340569,142.57877520552722 689.8086589340569,139.3035228114373 689.8086589340569,136.0282704173473 690.9288612273112,132.95053991140958" />
<polyline fill="none" stroke="#000000ff" stroke-width="2" points="690.9288612273112,132.95053991140958 690.9288612273112,132.95053991140958" />
<polyline fill="none" stroke="#000000ff" stroke-width="2" points="689.8086589340569,136.0282704173473 689.8086589340569,136.0282704173473 688.6884566408025,132.95053991140958" />
<polyline fill="none" stroke="#000000ff" stroke-width="2" points="688.6884566408025,132.95053991140958 688.6884566408025,132.95053991140958" />
<polyline fill="none" stroke="#000000ff" stroke-width="2" points="668.4855165009018,174.9616083997159 668.4855165009018,174.9616083997159 668.4855165009018,171.68635600562595 668.4855165009018,168.41110361153596 668.4855165009018,165.135851217446 668.4855165009018,161.86059882335604 668.4855165009018,158.58534642926608 668.4855165009018,155.31009403517612 668.4855165009018,152.03484164108613 668.4855165009018,148.75958924699617 669.6057187941561,145.68185874105848 670.7259210874106,142.60412823512075 671.846123380665,139.52639772918303 672.9663256739193,136.4486672232453 675.0716173314365,133.9396783269406 677.1769089889538,131.43068943063588 680.0133607660414,129.79306323359089" />
<polyline fill="none" stroke="#000000ff" stroke-width="2" points="680.0133607660414,129.79306323359089 680.0133607660414,129.79306323359089" />
<polyline fill="none" stroke="#000000ff" stroke-width="2" points="677.1769089889538,131.43068943063588 677.1769089889538,131.43068943063588 678.2971112822081,128.35295892469816" />
<polyline fill="none" stroke="#000000ff" stroke-width="2" points="678.2971112822081,128.35295892469816 678.2971112822081,128.35295892469816" />
<polyline fill="none" stroke="#000000ff" stroke-width="2" points="672.9663256739193,136.4486672232453 672.9663256739193,136.4486672232453 672.9663256739193,133.17341482915535 672.9663256739193,129.8981624350654 674.0865279671737,126.82043192912768" />
<polyline fill="none" stroke="#000000ff" stroke-width="2" points="674.0865279671737,126.82043192912768 674.0865279671737,126.82043192912768" />
<polyline fill="none" stroke="#000000ff" stroke-width="2" points="672.9663256739193,129.8981624350654 672.9663256739193,129.8981624350654 671.846123380665,126.82043192912768" />
<polyline fill="none" stroke="#000000ff" stroke-width="2" points="671.846123380665,126.82043192912768 671.846123380665,126.82043192912768" />
<polyline fill="none" stroke="#000000ff" stroke-width="2" points="668.4855165009018,148.75958924699617 668.4855165009018,148.75958924699617 667.3653142076473,145.68185874105848 666.245111914393,142.60412823512075 665.1249096211386,139.52639772918303 664.0047073278841,136.4486672232453 664.0047073278841,133.17341482915535 664.0047073278841,129.8981624350654 665.1249096211386,126.82043192912768" />
<polyline fill="none" stroke="#000000ff" stroke-width="2" points="665.1249096211386,126.82043192912768 665.1249096211386,126.82043192912768" />
<polyline fill="none" stroke="#000000ff" stroke-width="2" points="664.0047073278841,129.8981624350654 664.0047073278841,129.8981624350654 662.8845050346298,126.82043192912768" />
<polyline fill="none" stroke="#000000ff" stroke-width="2" points="662.8845050346298,126.82043192912768 662.8845050346298,126.82043192912768" />
<polyline fill="none" stroke="#000000ff" stroke-width="2" points="664.0047073278841,136.4486672232453 664.0047073278841,136.4486672232453 661.899415670367,133.9396783269406 659.7941240128498,131.43068943063588 658.6739217195955,128.35295892469816" />
<polyline fill="none" stroke="#000000ff" stroke-width="2" points="658.6739217195955,128.35295892469816 658.6739217195955,128.35295892469816" />
<polyline fill="none" stroke="#000000ff" stroke-width="2" points="659.7941240128498,131.43068943063588 659.7941240128498,131.43068943063588 656.9576722357621,129.79306323359089" />
<polyline fill="none" stroke="#000000ff" stroke-width="2" points="656.9576722357621,129.79306323359089 656.9576722357621,129.79306323359089" />
<polyline fill="none" stroke="#000000ff" stroke-width="2" points="583.1929467682811,304.4929411764706 583.1929467682811,304.4929411764706 583.1929467682811,301.2176887823806 583.1929467682811,297.9424363882907 583.1929467682811,294.6671839942007 583.1929467682811,291.39193160011075 583.1929467682811,288.11667920602076 583.1929467682811,284.8414268119308 583.1929467682811,281.5661744178408 583.1929467682811,278.29092202375085 583.1929467682811,275.0156696296609 583.1929467682811,271.74041723557093 583.1929467682811,268.46516484148094 583.1929467682811,265.18991244739095 583.1929467682811,261.914660053301 583.1929467682811,258.6394076592111 583.1929467682811,255.3641552651211 583.1929467682811,252.0889028710311 583.1929467682811,248.81365047694115 583.1929467682811,245.5383980828512 583.1929467682811,242.26314568876123 583.1929467682811,238.98789329467124 583.1929467682811,235.71264090058128 583.1929467682811,232.43738850649132 583.1929467682811,229.16213611240136 583.1929467682811,225.88688371831137 583.1929467682811,222.61163132422143 583.1929467682811,219.33637893013145 583.1929467682811,216.06112653604148 583.1929467682811,212.78587414195152 583.1929467682811,209.51062174786153 583.1929467682811,206.23536935377157 583.1929467682811,202.9601169596816 583.1929467682811,199.68486456559162 584.3131490615355,196.60713405965393 585.4333513547898,193.52940355371624 586.5535536480443,190.4516730477785 587.6737559412986,187.3739425418408 588.793958234553,184.29621203590307 589.9141605278074,181.21848152996537 591.0343628210618,178.14075102402765 592.1545651143163,175.06302051808996 593.2747674075706,171.98529001215223 594.394969700825,168.9075595062145 595.5151719940794,165.82982900027682 596.6353742873338,162.7520984943391 597.7555765805881,159.6743679884014 598.8757788738426,156.59663748246368 599.9959811670969,153.51890697652595 601.1161834603513,150.44117647058823 603.2214751178685,147.93218757428352 605.3267667753857,145.4231986779788 607.432058432903,142.91420978167406 609.5373500904202,140.40522088536932 611.6426417479374,137.8962319890646 613.7479334054545,135.3872430927599 615.8532250629718,132.87825419645515 617.958516720489,130.36926530015043 620.7949684975767,128.73163910310544 623.6314202746644,127.09401290606046 626.4678720517521,125.45638670901548 629.3043238288399,123.81876051197048 632.5298177796114,123.2500189023375 635.755311730383,122.68127729270452 638.9808056811546,123.2500189023375" />
<polyline fill="none" stroke="#000000ff" stroke-width="2" points="638.9808056811546,123.2500189023375 638.9808056811546,123.2500189023375" />
<polyline fill="none" stroke="#000000ff" stroke-width="2" points="635.755311730383,122.68127729270452 635.755311730383,122.68127729270452 638.5917635074708,121.04365109565954" />
<polyline fill="none" stroke="#000000ff" stroke-width="2" points="638.5917635074708,121.04365109565954 638.5917635074708,121.04365109565954" />
<polyline fill="none" stroke="#000000ff" stroke-width="2" points="629.3043238288399,123.81876051197048 629.3043238288399,123.81876051197048 631.4096154863571,121.30977161566577 633.5149071438742,118.80078271936104 636.351358920962,117.16315652231604" />
<polyline fill="none" stroke="#000000ff" stroke-width="2" points="636.351358920962,117.16315652231604 636.351358920962,117.16315652231604" />
<polyline fill="none" stroke="#000000ff" stroke-width="2" points="633.5149071438742,118.80078271936104 633.5149071438742,118.80078271936104 634.6351094371287,115.72305221342332" />
<polyline fill="none" stroke="#000000ff" stroke-width="2" points="634.6351094371287,115.72305221342332 634.6351094371287,115.72305221342332" />
<polyline fill="none" stroke="#000000ff" stroke-width="2" points="617.958516720489,130.36926530015043 617.958516720489,130.36926530015043 619.0787190137434,127.29153479421271 620.1989213069978,124.213804288275 621.3191236002522,121.13607378233729 622.4393258935065,118.05834327639957 624.5446175510237,115.54935438009485 626.649909208541,113.04036548379011 629.4863609856286,111.40273928674513" />
<polyline fill="none" stroke="#000000ff" stroke-width="2" points="629.4863609856286,111.40273928674513 629.4863609856286,111.40273928674513" />
<polyline fill="none" stroke="#000000ff" stroke-width="2" points="626.649909208541,113.04036548379011 626.649909208541,113.04036548379011 627.7701115017953,109.9626349778524" />
<polyline fill="none" stroke="#000000ff" stroke-width="2" points="627.7701115017953,109.9626349778524 627.7701115017953,109.9626349778524" />
<polyline fill="none" stroke="#000000ff" stroke-width="2" points="622.4393258935065,118.05834327639957 622.4393258935065,118.05834327639957 622.4393258935065,114.78309088230961 622.4393258935065,111.50783848821965 623.559528186761,108.43010798228192" />
<polyline fill="none" stroke="#000000ff" stroke-width="2" points="623.559528186761,108.43010798228192 623.559528186761,108.43010798228192" />
<polyline fill="none" stroke="#000000ff" stroke-width="2" points="622.4393258935065,111.50783848821965 622.4393258935065,111.50783848821965 621.3191236002522,108.43010798228192" />
<polyline fill="none" stroke="#000000ff" stroke-width="2" points="621.3191236002522,108.43010798228192 621.3191236002522,108.43010798228192" />
<polyline fill="none" stroke="#000000ff" stroke-width="2" points="601.1161834603513,150.44117647058823 601.1161834603513,150.44117647058823 601.1161834603513,147.16592407649827 601.1161834603513,143.8906716824083 601.1161834603513,140.61541928831835 601.1161834603513,137.3401668942284 601.1161834603513,134.0649145001384 601.1161834603513,130.78966210604844 601.1161834603513,127.51440971195848 601.1161834603513,124.2391573178685 602.2363857536058,121.1614268119308 603.3565880468601,118.08369630599309 604.4767903401146,115.00596580005538 605.5969926333689,111.92823529411766 607.7022842908862,109.41924639781293 609.8075759484034,106.9102575015082 612.644027725491,105.27263130446322" />
<polyline fill="none" stroke="#000000ff" stroke-width="2" points="612.644027725491,105.27263130446322 612.644027725491,105.27263130446322" />
<polyline fill="none" stroke="#000000ff" stroke-width="2" points="609.8075759484034,106.9102575015082 609.8075759484034,106.9102575015082 610.9277782416577,103.83252699557049" />
<polyline fill="none" stroke="#000000ff" stroke-width="2" points="610.9277782416577,103.83252699557049 610.9277782416577,103.83252699557049" />
<polyline fill="none" stroke="#000000ff" stroke-width="2" points="605.5969926333689,111.92823529411766 605.5969926333689,111.92823529411766 605.5969926333689,108.6529829000277 605.5969926333689,105.37773050593772 606.7171949266233,102.30000000000001" />
<polyline fill="none" stroke="#000000ff" stroke-width="2" points="606.7171949266233,102.30000000000001 606.7171949266233,102.30000000000001" />
<polyline fill="none" stroke="#000000ff" stroke-width="2" points="605.5969926333689,105.37773050593772 605.5969926333689,105.37773050593772 604.4767903401146,102.30000000000001" />
<polyline fill="none" stroke="#000000ff" stroke-width="2" points="604.4767903401146,102.30000000000001 604.4767903401146,102.30000000000001" />
<polyline fill="none" stroke="#000000ff" stroke-width="2" points="601.1161834603513,124.2391573178685 601.1161834603513,124.2391573178685 599.9959811670969,121.1614268119308 598.8757788738426,118.08369630599309 597.7555765805881,115.00596580005538 596.6353742873338,111.92823529411766 596.6353742873338,108.6529829000277 596.6353742873338,105.37773050593772 597.7555765805881,102.30000000000001" />
<polyline fill="none" stroke="#000000ff" stroke-width="2" points="597.7555765805881,102.30000000000001 597.7555765805881,102.30000000000001" />
<polyline fill="none" stroke="#000000ff" stroke-width="2" points="596.6353742873338,105.37773050593772 596.6353742873338,105.37773050593772 595.5151719940794,102.30000000000001" />
<polyline fill="none" stroke="#000000ff" stroke-width="2" points="595.5151719940794,102.30000000000001 595.5151719940794,102.30000000000001" />
<polyline fill="none" stroke="#000000ff" stroke-width="2" points="596.6353742873338,111.92823529411766 596.6353742873338,111.92823529411766 594.5300826298165,109.41924639781293 592.4247909722993,106.9102575015082 591.304588679045,103.83252699557049" />
<polyline fill="none" stroke="#000000ff" stroke-width="2" points="591.304588679045,103.83252699557049 591.304588679045,103.83252699557049" />
<polyline fill="none" stroke="#000000ff" stroke-width="2" points="592.4247909722993,106.9102575015082 592.4247909722993,106.9102575015082 589.5883391952117,105.27263130446322" />
<polyline fill="none" stroke="#000000ff" stroke-width="2" points="589.5883391952117,105.27263130446322 589.5883391952117,105.27263130446322" />
<polyline fill="none" stroke="#000000ff" stroke-width="2" points="583.1929467682811,199.68486456559162 583.1929467682811,199.68486456559162 582.0727444750266,196.60713405965393 580.9525421817723,193.52940355371624 579.8323398885179,190.4516730477785 578.7121375952635,187.3739425418408 577.5919353020091,184.29621203590307 576.4717330087547,181.21848152996537 575.3515307155003,178.14075102402765 574.231328422246,175.06302051808996 573.1111261289915,171.98529001215223 571.9909238357371,168.9075595062145 570.8707215424828,165.82982900027682 569.7505192492283,162.7520984943391 568.630316955974,159.6743679884014 567.5101146627196,156.59663748246368 566.3899123694652,153.51890697652595 565.2697100762108,150.44117647058823 565.2697100762108,147.16592407649827 565.2697100762108,143.8906716824083 565.2697100762108,140.61541928831835 565.2697100762108,137.3401668942284 565.2697100762108,134.0649145001384 565.2697100762108,130.78966210604844 565.2697100762108,127.51440971195848 565.2697100762108,124.2391573178685 566.3899123694652,121.1614268119308 567.5101146627196,118.08369630599309 568.630316955974,115.00596580005538 569.7505192492283,111.92823529411766 571.8558109067455,109.41924639781293 573.9611025642628,106.9102575015082 576.7975543413505,105.27263130446322" />
<polyline fill="none" stroke="#000000ff" stroke-width="2" points="576.7975543413505,105.27263130446322 576.7975543413505,105.27263130446322" />
<polyline fill="none" stroke="#000000ff" stroke-width="2" points="573.9611025642628,106.9102575015082 573.9611025642628,106.9102575015082 575.0813048575171,103.83252699557049" />
<polyline fill="none" stroke="#000000ff" stroke-width="2" points="575.0813048575171,103.83252699557049 575.0813048575171,103.83252699557049" />
<polyline fill="none" stroke="#000000ff" stroke-width="2" points="569.7505192492283,111.92823529411766 569.7505192492283,111.92823529411766 569.7505192492283,108.6529829000277 569.7505192492283,105.37773050593772 570.8707215424828,102.30000000000001" />
<polyline fill="none" stroke="#000000ff" stroke-width="2" points="570.8707215424828,102.30000000000001 570.8707215424828,102.30000000000001" />
<polyline fill="none" stroke="#000000ff" stroke-width="2" points="569.7505192492283,105.37773050593772 569.7505192492283,105.37773050593772 568.630316955974,102.30000000000001" />
<polyline fill="none" stroke="#000000ff" stroke-width="2" points="568.630316955974,102.30000000000001 568.630316955974,102.30000000000001" />
<polyline fill="none" stroke="#000000ff" stroke-width="2" points="565.2697100762108,124.2391573178685 565.2697100762108,124.2391573178685 564.1495077829564,121.1614268119308 563.029305489702,118.08369630599309 561.9091031964476,115.00596580005538 560.7889009031933,111.92823529411766 560.7889009031933,108.6529829000277 560.7889009031933,105.37773050593772 561.9091031964476,102.30000000000001" />
<polyline fill="none" stroke="#000000ff" stroke-width="2" points="561.9091031964476,102.30000000000001 561.9091031964476,102.30000000000001" />
<polyline fill="none" stroke="#000000ff" stroke-width="2" points="560.7889009031933,105.37773050593772 560.7889009031933,105.37773050593772 559.6686986099388,102.30000000000001" />
<polyline fill="none" stroke="#000000ff" stroke-width="2" points="559.6686986099388,102.30000000000001 559.6686986099388,102.30000000000001" />
<polyline fill="none" stroke="#000000ff" stroke-width="2" points="560.7889009031933,111.92823529411766 560.7889009031933,111.92823529411766 558.683609245676,109.41924639781293 556.5783175881588,106.9102575015082 555.4581152949045,103.83252699557049" />
<polyline fill="none" stroke="#000000ff" stroke-width="2" points="555.4581152949045,103.83252699557049 555.4581152949045,103.83252699557049" />
<polyline fill="none" stroke="#000000ff" stroke-width="2" points="556.5783175881588,106.9102575015082 556.5783175881588,106.9102575015082 553.7418658110711,105.27263130446322" />
<polyline fill="none" stroke="#000000ff" stroke-width="2" points="553.7418658110711,105.27263130446322 553.7418658110711,105.27263130446322" />
<polyline fill="none" stroke="#000000ff" stroke-width="2" points="565.2697100762108,150.44117647058823 565.2697100762108,150.44117647058823 563.1644184186936,147.93218757428352 561.0591267611763,145.4231986779788 558.9538351036592,142.91420978167406 556.848543446142,140.40522088536932 554.7432517886248,137.8962319890646 552.6379601311075,135.3872430927599 550.5326684735903,132.87825419645515 548.4273768160731,130.36926530015043 547.3071745228187,127.29153479421271 546.1869722295644,124.213804288275 545.0667699363099,121.13607378233729 543.9465676430556,118.05834327639957 543.9465676430556,114.78309088230961 543.9465676430556,111.50783848821965 545.0667699363099,108.43010798228192" />
<polyline fill="none" stroke="#000000ff" stroke-width="2" points="545.0667699363099,108.43010798228192 545.0667699363099,108.43010798228192" />
<polyline fill="none" stroke="#000000ff" stroke-width="2" points="543.9465676430556,111.50783848821965 543.9465676430556,111.50783848821965 542.8263653498012,108.43010798228192" />
<polyline fill="none" stroke="#000000ff" stroke-width="2" points="542.8263653498012,108.43010798228192 542.8263653498012,108.43010798228192" />
<polyline fill="none" stroke="#000000ff" stroke-width="2" points="543.9465676430556,118.05834327639957 543.9465676430556,118.05834327639957 541.8412759855383,115.54935438009485 539.7359843280211,113.04036548379011 538.6157820347668,109.9626349778524" />
<polyline fill="none" stroke="#000000ff" stroke-width="2" points="538.6157820347668,109.9626349778524 538.6157820347668,109.9626349778524" />
<polyline fill="none" stroke="#000000ff" stroke-width="2" points="539.7359843280211,113.04036548379011 539.7359843280211,113.04036548379011 536.8995325509335,111.40273928674513" />
<polyline fill="none" stroke="#000000ff" stroke-width="2" points="536.8995325509335,111.40273928674513 536.8995325509335,111.40273928674513" />
<polyline fill="none" stroke="#000000ff" stroke-width="2" points="548.4273768160731,130.36926530015043 548.4273768160731,130.36926530015043 545.5909250389855,128.73163910310544 542.7544732618977,127.09401290606046 539.91802148481,125.45638670901548 537.0815697077223,123.81876051197048 534.9762780502051,121.30977161566577 532.8709863926879,118.80078271936104 531.7507840994335,115.72305221342332" />
<polyline fill="none" stroke="#000000ff" stroke-width="2" points="531.7507840994335,115.72305221342332 531.7507840994335,115.72305221342332" />
<polyline fill="none" stroke="#000000ff" stroke-width="2" points="532.8709863926879,118.80078271936104 532.8709863926879,118.80078271936104 530.0345346156001,117.16315652231604" />
<polyline fill="none" stroke="#000000ff" stroke-width="2" points="530.0345346156001,117.16315652231604 530.0345346156001,117.16315652231604" />
<polyline fill="none" stroke="#000000ff" stroke-width="2" points="537.0815697077223,123.81876051197048 537.0815697077223,123.81876051197048 533.8560757569506,123.2500189023375 530.6305818061791,122.68127729270452 527.7941300290913,121.04365109565954" />
<polyline fill="none" stroke="#000000ff" stroke-width="2" points="527.7941300290913,121.04365109565954 527.7941300290913,121.04365109565954" />
<polyline fill="none" stroke="#000000ff" stroke-width="2" points="530.6305818061791,122.68127729270452 530.6305818061791,122.68127729270452 527.4050878554075,123.2500189023375" />
<polyline fill="none" stroke="#000000ff" stroke-width="2" points="527.4050878554075,123.2500189023375 527.4050878554075,123.2500189023375" />
<polyline fill="none" stroke="#000000ff" stroke-width="2" points="511.5,501.46769355648416 511.5,501.46769355648416 510.37979770674565,498.38996305054644 509.25959541349124,495.3122325446088 508.13939312023683,492.23450203867105 507.0191908269825,489.15677153273333 505.8989885337281,486.0790410267956 504.77878624047366,483.0013105208579 503.6585839472193,479.9235800149202 502.5383816539649,476.8458495089825 501.4181793607105,473.7681190030448 500.29797706745615,470.69038849710705 499.17777477420174,467.6126579911693 498.05757248094733,464.53492748523166 496.937370187693,461.45719697929394 495.81716789443857,458.3794664733562 494.69696560118416,455.3017359674185 493.5767633079298,452.2240054614808 492.4565610146754,449.14627495554305 491.336358721421,446.0685444496054 490.21615642816664,442.99081394366766 489.09595413491223,439.91308343772994 487.9757518416578,436.8353529317922 486.8555495484035,433.7576224258545 485.73534725514907,430.6798919199168 484.61514496189466,427.6021614139791 483.4949426686403,424.5244309080414 482.3747403753859,421.44670040210366 481.2545380821315,418.36896989616594 480.1343357888771,415.2912393902282 479.01413349562273,412.21350888429055 477.8939312023683,409.1357783783528 476.7737289091139,406.0580478724151 475.6535266158595,402.9803173664774 474.53332432260515,399.90258686053966 473.41312202935075,396.824856354602 472.29291973609634,393.74712584866427 471.172717442842,390.66939534272655 470.0525151495876,387.5916648367888 468.93231285633317,384.5139343308511 467.81211056307876,381.4362038249134 466.6919082698244,378.3584733189757 465.57170597657,375.280742813038 464.4515036833156,372.20301230710027 463.3313013900612,369.12528180116254 462.21109909680683,366.0475512952248 461.0908968035524,362.96982078928716 459.970694510298,359.89209028334943 458.85049221704367,356.8143597774117 457.73028992378926,353.736629271474 456.61008763053485,350.65889876553626 455.4898853372805,347.5811682595986 454.3696830440261,344.5034377536608 453.2494807507717,341.42570724772315 452.1292784575173,338.34797674178543 451.0090761642629,335.2702462358477 449.8888738710085,332.19251572991004 448.7686715777541,329.11478522397226 447.6484692844997,326.0370547180346 446.52826699124535,322.9593242120969 445.40806469799094,319.88159370615915 444.28786240473653,316.8038632002215 443.1676601114822,313.7261326942837 442.04745781822777,310.64840218834604 440.92725552497336,307.5706716824083 439.807053231719,304.4929411764706 439.807053231719,301.2176887823806 439.807053231719,297.9424363882907 439.807053231719,294.6671839942007 439.807053231719,291.39193160011075 439.807053231719,288.11667920602076 439.807053231719,284.8414268119308 439.807053231719,281.5661744178408 439.807053231719,278.29092202375085 439.807053231719,275.0156696296609 439.807053231719,271.74041723557093 439.807053231719,268.46516484148094 439.807053231719,265.18991244739095 439.807053231719,261.914660053301 439.807053231719,258.6394076592111 439.807053231719,255.3641552651211 439.807053231719,252.0889028710311 439.807053231719,248.81365047694115 439.807053231719,245.5383980828512 439.807053231719,242.26314568876123 439.807053231719,238.98789329467124 439.807053231719,235.71264090058128 439.807053231719,232.43738850649132 439.807053231719,229.16213611240136 439.807053231719,225.88688371831137 439.807053231719,222.61163132422143 439.807053231719,219.33637893013145 439.807053231719,216.06112653604148 439.807053231719,212.78587414195152 439.807053231719,209.51062174786153 439.807053231719,206.23536935377157 439.807053231719,202.9601169596816 439.807053231719,199.68486456559162 440.92725552497336,196.60713405965393 442.04745781822777,193.52940355371624 443.1676601114822,190.4516730477785 444.28786240473653,187.3739425418408 445.40806469799094,184.29621203590307 446.52826699124535,181.21848152996537 447.6484692844997,178.14075102402765 448.7686715777541,175.06302051808996 449.8888738710085,171.98529001215223 451.0090761642629,168.9075595062145 452.1292784575173,165.82982900027682 453.2494807507717,162.7520984943391 454.3696830440261,159.6743679884014 455.4898853372805,156.59663748246368 456.61008763053485,153.51890697652595 457.73028992378926,150.44117647058823 459.8355815813065,147.93218757428352 461.94087323882366,145.4231986779788 464.0461648963409,142.91420978167406 466.1514565538581,140.40522088536932 468.2567482113753,137.8962319890646 470.3620398688925,135.3872430927599 472.4673315264097,132.87825419645515 474.5726231839269,130.36926530015043 477.40907496101465,128.73163910310544 480.24552673810234,127.09401290606046 483.08197851519003,125.45638670901548 485.9184302922778,123.81876051197048 489.14392424304936,123.2500189023375 492.36941819382093,122.68127729270452 495.59491214459257,123.2500189023375" />
<polyline fill="none" stroke="#000000ff" stroke-width="2" points="495.59491214459257,123.2500189023375 495.59491214459257,123.2500189023375" />
<polyline fill="none" stroke="#000000ff" stroke-width="2" points="492.36941819382093,122.68127729270452 492.36941819382093,122.68127729270452 495.2058699709087,121.04365109565954" />
<polyline fill="none" stroke="#000000ff" stroke-width="2" points="495.2058699709087,121.04365109565954 495.2058699709087,121.04365109565954" />
<polyline fill="none" stroke="#000000ff" stroke-width="2" points="485.9184302922778,123.81876051197048 485.9184302922778,123.81876051197048 488.02372194979495,121.30977161566577 490.1290136073122,118.80078271936104 492.96546538439986,117.16315652231604" />
<polyline fill="none" stroke="#000000ff" stroke-width="2" points="492.96546538439986,117.16315652231604 492.96546538439986,117.16315652231604" />
<polyline fill="none" stroke="#000000ff" stroke-width="2" points="490.1290136073122,118.80078271936104 490.1290136073122,118.80078271936104 491.2492159005666,115.72305221342332" />
<polyline fill="none" stroke="#000000ff" stroke-width="2" points="491.2492159005666,115.72305221342332 491.2492159005666,115.72305221342332" />
<polyline fill="none" stroke="#000000ff" stroke-width="2" points="474.5726231839269,130.36926530015043 474.5726231839269,130.36926530015043 475.6928254771813,127.29153479421271 476.81302777043567,124.213804288275 477.9332300636901,121.13607378233729 479.0534323569445,118.05834327639957 481.15872401446165,115.54935438009485 483.2640156719789,113.04036548379011 486.1004674490666,111.40273928674513" />
<polyline fill="none" stroke="#000000ff" stroke-width="2" points="486.1004674490666,111.40273928674513 486.1004674490666,111.40273928674513" />
<polyline fill="none" stroke="#000000ff" stroke-width="2" points="483.2640156719789,113.04036548379011 483.2640156719789,113.04036548379011 484.3842179652333,109.9626349778524" />
<polyline fill="none" stroke="#000000ff" stroke-width="2" points="484.3842179652333,109.9626349778524 484.3842179652333,109.9626349778524" />
<polyline fill="none" stroke="#000000ff" stroke-width="2" points="479.0534323569445,118.05834327639957 479.0534323569445,118.05834327639957 479.0534323569445,114.78309088230961 479.0534323569445,111.50783848821965 480.1736346501989,108.43010798228192" />
<polyline fill="none" stroke="#000000ff" stroke-width="2" points="480.1736346501989,108.43010798228192 480.1736346501989,108.43010798228192" />
<polyline fill="none" stroke="#000000ff" stroke-width="2" points="479.0534323569445,111.50783848821965 479.0534323569445,111.50783848821965 477.9332300636901,108.43010798228192" />
<polyline fill="none" stroke="#000000ff" stroke-width="2" points="477.9332300636901,108.43010798228192 477.9332300636901,108.43010798228192" />
<polyline fill="none" stroke="#000000ff" stroke-width="2" points="457.73028992378926,150.44117647058823 457.73028992378926,150.44117647058823 457.73028992378926,147.16592407649827 457.73028992378926,143.8906716824083 457.73028992378926,140.61541928831835 457.73028992378926,137.3401668942284 457.73028992378926,134.0649145001384 457.73028992378926,130.78966210604844 457.73028992378926,127.51440971195848 457.73028992378926,124.2391573178685 458.85049221704367,121.1614268119308 459.970694510298,118.08369630599309 461.0908968035524,115.00596580005538 462.21109909680683,111.92823529411766 464.31639075432406,109.41924639781293 466.42168241184123,106.9102575015082 469.2581341889289,105.27263130446322" />
<polyline fill="none" stroke="#000000ff" stroke-width="2" points="469.2581341889289,105.27263130446322 469.2581341889289,105.27263130446322" />
<polyline fill="none" stroke="#000000ff" stroke-width="2" points="466.42168241184123,106.9102575015082 466.42168241184123,106.9102575015082 467.54188470509564,103.83252699557049" />
<polyline fill="none" stroke="#000000ff" stroke-width="2" points="467.54188470509564,103.83252699557049 467.54188470509564,103.83252699557049" />
<polyline fill="none" stroke="#000000ff" stroke-width="2" points="462.21109909680683,111.92823529411766 462.21109909680683,111.92823529411766 462.21109909680683,108.6529829000277 462.21109909680683,105.37773050593772 463.3313013900612,102.30000000000001" />
<polyline fill="none" stroke="#000000ff" stroke-width="2" points="463.3313013900612,102.30000000000001 463.3313013900612,102.30000000000001" />
<polyline fill="none" stroke="#000000ff" stroke-width="2" points="462.21109909680683,105.37773050593772 462.21109909680683,105.37773050593772 461.0908968035524,102.30000000000001" />
<polyline fill="none" stroke="#000000ff" stroke-width="2" points="461.0908968035524,102.30000000000001 461.0908968035524,102.30000000000001" />
<polyline fill="none" stroke="#000000ff" stroke-width="2" points="457.73028992378926,124.2391573178685 457.73028992378926,124.2391573178685 456.61008763053485,121.1614268119308 455.4898853372805,118.08369630599309 454.3696830440261,115.00596580005538 453.2494807507717,111.92823529411766 453.2494807507717,108.6529829000277 453.2494807507717,105.37773050593772 454.3696830440261,102.30000000000001" />
<polyline fill="none" stroke="#000000ff" stroke-width="2" points="454.3696830440261,102.30000000000001 454.3696830440261,102.30000000000001" />
<polyline fill="none" stroke="#000000ff" stroke-width="2" points="453.2494807507717,105.37773050593772 453.2494807507717,105.37773050593772 452.1292784575173,102.30000000000001" />
<polyline fill="none" stroke="#000000ff" stroke-width="2" points="452.1292784575173,102.30000000000001 452.1292784575173,102.30000000000001" />
<polyline fill="none" stroke="#000000ff" stroke-width="2" points="453.2494807507717,111.92823529411766 453.2494807507717,111.92823529411766 451.14418909325445,109.41924639781293 449.0388974357373,106.9102575015082 447.9186951424829,103.83252699557049" />
<polyline fill="none" stroke="#000000ff" stroke-width="2" points="447.9186951424829,103.83252699557049 447.9186951424829,103.83252699557049" />
<polyline fill="none" stroke="#000000ff" stroke-width="2" points="449.0388974357373,106.9102575015082 449.0388974357373,106.9102575015082 446.2024456586496,105.27263130446322" />
<polyline fill="none" stroke="#000000ff" stroke-width="2" points="446.2024456586496,105.27263130446322 446.2024456586496,105.27263130446322" />
<polyline fill="none" stroke="#000000ff" stroke-width="2" points="439.807053231719,199.68486456559162 439.807053231719,199.68486456559162 438.6868509384646,196.60713405965393 437.5666486452102,193.52940355371624 436.4464463519558,190.4516730477785 435.3262440587014,187.3739425418408 434.206041765447,184.29621203590307 433.0858394721926,181.21848152996537 431.9656371789382,178.14075102402765 430.84543488568386,175.06302051808996 429.72523259242945,171.98529001215223 428.60503029917504,168.9075595062145 427.4848280059207,165.82982900027682 426.3646257126663,162.7520984943391 425.2444234194119,159.6743679884014 424.1242211261575,156.59663748246368 423.0040188329031,153.51890697652595 421.8838165396487,150.44117647058823 421.8838165396487,147.16592407649827 421.8838165396487,143.8906716824083 421.8838165396487,140.61541928831835 421.8838165396487,137.3401668942284 421.8838165396487,134.0649145001384 421.8838165396487,130.78966210604844 421.8838165396487,127.51440971195848 421.8838165396487,124.2391573178685 423.0040188329031,121.1614268119308 424.1242211261575,118.08369630599309 425.2444234194119,115.00596580005538 426.3646257126663,111.92823529411766 428.46991737018345,109.41924639781293 430.5752090277007,106.9102575015082 433.4116608047884,105.27263130446322" />
<polyline fill="none" stroke="#000000ff" stroke-width="2" points="433.4116608047884,105.27263130446322 433.4116608047884,105.27263130446322" />
<polyline fill="none" stroke="#000000ff" stroke-width="2" points="430.5752090277007,106.9102575015082 430.5752090277007,106.9102575015082 431.6954113209551,103.83252699557049" />
<polyline fill="none" stroke="#000000ff" stroke-width="2" points="431.6954113209551,103.83252699557049 431.6954113209551,103.83252699557049" />
<polyline fill="none" stroke="#000000ff" stroke-width="2" points="426.3646257126663,111.92823529411766 426.3646257126663,111.92823529411766 426.3646257126663,108.6529829000277 426.3646257126663,105.37773050593772 427.4848280059207,102.30000000000001" />
<polyline fill="none" stroke="#000000ff" stroke-width="2" points="427.4848280059207,102.30000000000001 427.4848280059207,102.30000000000001" />
<polyline fill="none" stroke="#000000ff" stroke-width="2" points="426.3646257126663,105.37773050593772 426.3646257126663,105.37773050593772 425.2444234194119,102.30000000000001" />
<polyline fill="none" stroke="#000000ff" stroke-width="2" points="425.2444234194119,102.30000000000001 425.2444234194119,102.30000000000001" />
<polyline fill="none" stroke="#000000ff" stroke-width="2" points="421.8838165396487,124.2391573178685 421.8838165396487,124.2391573178685 420.7636142463943,121.1614268119308 419.6434119531399,118.08369630599309 418.52320965988554,115.00596580005538 417.40300736663113,111.92823529411766 417.40300736663113,108.6529829000277 417.40300736663113,105.37773050593772 418.52320965988554,102.30000000000001" />
<polyline fill="none" stroke="#000000ff" stroke-width="2" points="418.52320965988554,102.30000000000001 418.52320965988554,102.30000000000001" />
<polyline fill="none" stroke="#000000ff" stroke-width="2" points="417.40300736663113,105.37773050593772 417.40300736663113,105.37773050593772 416.2828050733767,102.30000000000001" />
<polyline fill="none" stroke="#000000ff" stroke-width="2" points="416.2828050733767,102.30000000000001 416.2828050733767,102.30000000000001" />
<polyline fill="none" stroke="#000000ff" stroke-width="2" points="417.40300736663113,111.92823529411766 417.40300736663113,111.92823529411766 415.29771570911396,109.41924639781293 413.19242405159673,106.9102575015082 412.0722217583423,103.83252699557049" />
<polyline fill="none" stroke="#000000ff" stroke-width="2" points="412.0722217583423,103.83252699557049 412.0722217583423,103.83252699557049" />
<polyline fill="none" stroke="#000000ff" stroke-width="2" points="413.19242405159673,106.9102575015082 413.19242405159673,106.9102575015082 410.355972274509,105.27263130446322" />
<polyline fill="none" stroke="#000000ff" stroke-width="2" points="410.355972274509,105.27263130446322 410.355972274509,105.27263130446322" />
<polyline fill="none" stroke="#000000ff" stroke-width="2" points="421.8838165396487,150.44117647058823 421.8838165396487,150.44117647058823 419.7785248821315,147.93218757428352 417.6732332246143,145.4231986779788 415.5679415670971,142.91420978167406 413.4626499095799,140.40522088536932 411.3573582520627,137.8962319890646 409.25206659454545,135.3872430927599 407.1467749370282,132.87825419645515 405.04148327951106,130.36926530015043 403.92128098625665,127.29153479421271 402.8010786930023,124.213804288275 401.6808763997479,121.13607378233729 400.5606741064935,118.05834327639957 400.5606741064935,114.78309088230961 400.5606741064935,111.50783848821965 401.6808763997479,108.43010798228192" />
<polyline fill="none" stroke="#000000ff" stroke-width="2" points="401.6808763997479,108.43010798228192 401.6808763997479,108.43010798228192" />
<polyline fill="none" stroke="#000000ff" stroke-width="2" points="400.5606741064935,111.50783848821965 400.5606741064935,111.50783848821965 399.4404718132391,108.43010798228192" />
<polyline fill="none" stroke="#000000ff" stroke-width="2" points="399.4404718132391,108.43010798228192 399.4404718132391,108.43010798228192" />
<polyline fill="none" stroke="#000000ff" stroke-width="2" points="400.5606741064935,118.05834327639957 400.5606741064935,118.05834327639957 398.4553824489763,115.54935438009485 396.35009079145914,113.04036548379011 395.22988849820473,109.9626349778524" />
<polyline fill="none" stroke="#000000ff" stroke-width="2" points="395.22988849820473,109.9626349778524 395.22988849820473,109.9626349778524" />
<polyline fill="none" stroke="#000000ff" stroke-width="2" points="396.35009079145914,113.04036548379011 396.35009079145914,113.04036548379011 393.5136390143714,111.40273928674513" />
<polyline fill="none" stroke="#000000ff" stroke-width="2" points="393.5136390143714,111.40273928674513 393.5136390143714,111.40273928674513" />
<polyline fill="none" stroke="#000000ff" stroke-width="2" points="405.04148327951106,130.36926530015043 405.04148327951106,130.36926530015043 402.20503150242337,128.73163910310544 399.3685797253356,127.09401290606046 396.5321279482479,125.45638670901548 393.6956761711602,123.81876051197048 391.590384513643,121.30977161566577 389.4850928561258,118.80078271936104 388.3648905628714,115.72305221342332" />
<polyline fill="none" stroke="#000000ff" stroke-width="2" points="388.3648905628714,115.72305221342332 388.3648905628714,115.72305221342332" />
<polyline fill="none" stroke="#000000ff" stroke-width="2" points="389.4850928561258,118.80078271936104 389.4850928561258,118.80078271936104 386.64864107903804,117.16315652231604" />
<polyline fill="none" stroke="#000000ff" stroke-width="2" points="386.64864107903804,117.16315652231604 386.64864107903804,117.16315652231604" />
<polyline fill="none" stroke="#000000ff" stroke-width="2" points="393.6956761711602,123.81876051197048 393.6956761711602,123.81876051197048 390.4701822203886,123.2500189023375 387.244688269617,122.68127729270452 384.4082364925293,121.04365109565954" />
<polyline fill="none" stroke="#000000ff" stroke-width="2" points="384.4082364925293,121.04365109565954 384.4082364925293,121.04365109565954" />
<polyline fill="none" stroke="#000000ff" stroke-width="2" points="387.244688269617,122.68127729270452 387.244688269617,122.68127729270452 384.0191943188454,123.2500189023375" />
<polyline fill="none" stroke="#000000ff" stroke-width="2" points="384.0191943188454,123.2500189023375 384.0191943188454,123.2500189023375" />
<polyline fill="none" stroke="#000000ff" stroke-width="2" points="439.807053231719,304.4929411764706 439.807053231719,304.4929411764706 437.7017615742018,301.9839522801659 435.59646991668455,299.4749633838611 433.4911782591673,296.9659744875564 431.38588660165016,294.4569855912517 429.28059494413293,291.94799669494694 427.17530328661576,289.43900779864225 425.07001162909853,286.9300189023375 422.9647199715813,284.42103000603277 420.85942831406413,281.9120411097281 418.7541366565469,279.4030522134233 416.64884499902973,276.8940633171186 414.5435533415125,274.38507442081385 412.4382616839953,271.8760855245091 410.33297002647805,269.3670966282044 408.2276783689609,266.8581077318997 406.1223867114437,264.34911883559494 404.0170950539265,261.84012993929025 401.9118033964093,259.3311410429855 399.8065117388921,256.82215214668076 397.7012200813749,254.31316325037605 395.5959284238577,251.8041743540713 393.4906367663405,249.2951854577666 391.38534510882334,246.78619656146185 389.2800534513061,244.27720766515714 387.17476179378895,241.7682187688524 385.0694701362717,239.25922987254768 382.96417847875455,236.75024097624294 380.8588868212373,234.24125207993822 378.75359516372015,231.73226318363348 376.648303506203,229.22327428732876 374.54301184868575,226.71428539102402 372.4377201911685,224.2052964947193 371.3175178979142,221.1275659887816 370.1973156046598,218.0498354828439 369.07711331140536,214.97210497690617 367.956911018151,211.89437447096844 366.8367087248966,208.81664396503075 365.7165064316422,205.73891345909303 364.59630413838784,202.66118295315533 363.4761018451334,199.5834524472176 362.355899551879,196.5057219412799 361.23569725862467,193.42799143534216 360.11549496537026,190.35026092940447 358.99529267211585,187.27253042346678 357.8750903788615,184.19479991752905 356.75488808560704,181.11706941159133 355.6346857923527,178.0393389056536 354.5144834990983,174.9616083997159 354.5144834990983,171.68635600562595 354.5144834990983,168.41110361153596 354.5144834990983,165.135851217446 354.5144834990983,161.86059882335604 354.5144834990983,158.58534642926608 354.5144834990983,155.31009403517612 354.5144834990983,152.03484164108613 354.5144834990983,148.75958924699617 355.6346857923527,145.68185874105848 356.75488808560704,142.60412823512075 357.8750903788615,139.52639772918303 358.99529267211585,136.4486672232453 361.1005843296331,133.9396783269406 363.20587598715025,131.43068943063588 366.04232776423794,129.79306323359089" />
<polyline fill="none" stroke="#000000ff" stroke-width="2" points="366.04232776423794,129.79306323359089 366.04232776423794,129.79306323359089" />
<polyline fill="none" stroke="#000000ff" stroke-width="2" points="363.20587598715025,131.43068943063588 363.20587598715025,131.43068943063588 364.32607828040466,128.35295892469816" />
<polyline fill="none" stroke="#000000ff" stroke-width="2" points="364.32607828040466,128.35295892469816 364.32607828040466,128.35295892469816" />
<polyline fill="none" stroke="#000000ff" stroke-width="2" points="358.99529267211585,136.4486672232453 358.99529267211585,136.4486672232453 358.99529267211585,133.17341482915535 358.99529267211585,129.8981624350654 360.11549496537026,126.82043192912768" />
<polyline fill="none" stroke="#000000ff" stroke-width="2" points="360.11549496537026,126.82043192912768 360.11549496537026,126.82043192912768" />
<polyline fill="none" stroke="#000000ff" stroke-width="2" points="358.99529267211585,129.8981624350654 358.99529267211585,129.8981624350654 357.8750903788615,126.82043192912768" />
<polyline fill="none" stroke="#000000ff" stroke-width="2" points="357.8750903788615,126.82043192912768 357.8750903788615,126.82043192912768" />
<polyline fill="none" stroke="#000000ff" stroke-width="2" points="354.5144834990983,148.75958924699617 354.5144834990983,148.75958924699617 353.39428120584387,145.68185874105848 352.2740789125895,142.60412823512075 351.1538766193351,139.52639772918303 350.0336743260807,136.4486672232453 350.0336743260807,133.17341482915535 350.0336743260807,129.8981624350654 351.1538766193351,126.82043192912768" />
<polyline fill="none" stroke="#000000ff" stroke-width="2" points="351.1538766193351,126.82043192912768 351.1538766193351,126.82043192912768" />
<polyline fill="none" stroke="#000000ff" stroke-width="2" points="350.0336743260807,129.8981624350654 350.0336743260807,129.8981624350654 348.91347203282635,126.82043192912768" />
<polyline fill="none" stroke="#000000ff" stroke-width="2" points="348.91347203282635,126.82043192912768 348.91347203282635,126.82043192912768" />
<polyline fill="none" stroke="#000000ff" stroke-width="2" points="350.0336743260807,136.4486672232453 350.0336743260807,136.4486672232453 347.92838266856353,133.9396783269406 345.82309101104636,131.43068943063588 344.70288871779195,128.35295892469816" />
<polyline fill="none" stroke="#000000ff" stroke-width="2" points="344.70288871779195,128.35295892469816 344.70288871779195,128.35295892469816" />
<polyline fill="none" stroke="#000000ff" stroke-width="2" points="345.82309101104636,131.43068943063588 345.82309101104636,131.43068943063588 342.9866392339586,129.79306323359089" />
<polyline fill="none" stroke="#000000ff" stroke-width="2" points="342.9866392339586,129.79306323359089 342.9866392339586,129.79306323359089" />
<polyline fill="none" stroke="#000000ff" stroke-width="2" points="354.5144834990983,174.9616083997159 354.5144834990983,174.9616083997159 352.4091918415811,172.4526195034112 350.3039001840639,169.94363060710646 348.1986085265467,167.4346417108017 346.09331686902954,164.925652814497 343.9880252115123,162.41666391819228 341.8827335539951,159.90767502188754 339.7774418964779,157.3986861255828 337.67215023896074,154.88969722927808 336.55194794570633,151.8119667233404 335.4317456524519,148.73423621740267 334.3115433591976,145.65650571146494 333.19134106594316,142.57877520552722 333.19134106594316,139.3035228114373 333.19134106594316,136.0282704173473 334.3115433591976,132.95053991140958" />
<polyline fill="none" stroke="#000000ff" stroke-width="2" points="334.3115433591976,132.95053991140958 334.3115433591976,132.95053991140958" />
<polyline fill="none" stroke="#000000ff" stroke-width="2" points="333.19134106594316,136.0282704173473 333.19134106594316,136.0282704173473 332.07113877268876,132.95053991140958" />
<polyline fill="none" stroke="#000000ff" stroke-width="2" points="332.07113877268876,132.95053991140958 332.07113877268876,132.95053991140958" />
<polyline fill="none" stroke="#000000ff" stroke-width="2" points="333.19134106594316,142.57877520552722 333.19134106594316,142.57877520552722 331.086049408426,140.0697863092225 328.98075775090877,137.5607974129178 327.8605554576544,134.48306690698007" />
<polyline fill="none" stroke="#000000ff" stroke-width="2" points="327.8605554576544,134.48306690698007 327.8605554576544,134.48306690698007" />
<polyline fill="none" stroke="#000000ff" stroke-width="2" points="328.98075775090877,137.5607974129178 328.98075775090877,137.5607974129178 326.144305973821,135.9231712158728" />
<polyline fill="none" stroke="#000000ff" stroke-width="2" points="326.144305973821,135.9231712158728 326.144305973821,135.9231712158728" />
<polyline fill="none" stroke="#000000ff" stroke-width="2" points="337.67215023896074,154.88969722927808 337.67215023896074,154.88969722927808 334.835698461873,153.25207103223312 331.99924668478525,151.61444483518812 329.16279490769756,149.97681863814313 326.32634313060987,148.33919244109816 324.22105147309264,145.83020354479342 322.1157598155754,143.3212146484887 320.99555752232106,140.24348414255098" />
<polyline fill="none" stroke="#000000ff" stroke-width="2" points="320.99555752232106,140.24348414255098 320.99555752232106,140.24348414255098" />
<polyline fill="none" stroke="#000000ff" stroke-width="2" points="322.1157598155754,143.3212146484887 322.1157598155754,143.3212146484887 319.2793080384877,141.6835884514437" />
<polyline fill="none" stroke="#000000ff" stroke-width="2" points="319.2793080384877,141.6835884514437 319.2793080384877,141.6835884514437" />
<polyline fill="none" stroke="#000000ff" stroke-width="2" points="326.32634313060987,148.33919244109816 326.32634313060987,148.33919244109816 323.1008491798383,147.77045083146515 319.87535522906666,147.20170922183217 317.03890345197897,145.5640830247872" />
<polyline fill="none" stroke="#000000ff" stroke-width="2" points="317.03890345197897,145.5640830247872 317.03890345197897,145.5640830247872" />
<polyline fill="none" stroke="#000000ff" stroke-width="2" points="319.87535522906666,147.20170922183217 319.87535522906666,147.20170922183217 316.6498612782951,147.77045083146515" />
<polyline fill="none" stroke="#000000ff" stroke-width="2" points="316.6498612782951,147.77045083146515 316.6498612782951,147.77045083146515" />
<polyline fill="none" stroke="#000000ff" stroke-width="2" points="372.4377201911685,224.2052964947193 372.4377201911685,224.2052964947193 369.60126841408083,222.56767029767434 366.76481663699315,220.93004410062935 363.9283648599054,219.29241790358435 361.09191308281765,217.65479170653936 358.25546130572997,216.0171655094944 355.4190095286423,214.37953931244942 352.58255775155453,212.74191311540443 349.7461059744668,211.10428691835943 346.90965419737904,209.46666072131444 344.07320242029135,207.82903452426947 341.23675064320366,206.19140832722448 338.4002988661159,204.5537821301795 335.5638470890282,202.91615593313452 332.7273953119404,201.27852973608952 329.89094353485274,199.64090353904456 327.05449175776505,198.00327734199956 324.9492001002478,195.49428844569485 322.8439084427306,192.9852995493901 320.7386167852135,190.47631065308536 318.63332512769625,187.96732175678068 316.528033470179,185.45833286047593 314.42274181266185,182.9493439641712 312.3174501551447,180.44035506786648 310.21215849762746,177.93136617156176 309.0919562043731,174.85363566562404 307.97175391111864,171.77590515968632 306.8515516178643,168.6981746537486 305.73134932460994,165.6204441478109 305.73134932460994,162.34519175372094 305.73134932460994,159.06993935963095 306.8515516178643,155.99220885369326" />
<polyline fill="none" stroke="#000000ff" stroke-width="2" points="306.8515516178643,155.99220885369326 306.8515516178643,155.99220885369326" />
<polyline fill="none" stroke="#000000ff" stroke-width="2" points="305.73134932460994,159.06993935963095 305.73134932460994,159.06993935963095 304.6111470313555,155.99220885369326" />
<polyline fill="none" stroke="#000000ff" stroke-width="2" points="304.6111470313555,155.99220885369326 304.6111470313555,155.99220885369326" />
<polyline fill="none" stroke="#000000ff" stroke-width="2" points="305.73134932460994,165.6204441478109 305.73134932460994,165.6204441478109 303.6260576670927,163.1114552515062 301.5207660095755,160.60246635520144 300.40056371632113,157.52473584926372" />
<polyline fill="none" stroke="#000000ff" stroke-width="2" points="300.40056371632113,157.52473584926372 300.40056371632113,157.52473584926372" />
<polyline fill="none" stroke="#000000ff" stroke-width="2" points="301.5207660095755,160.60246635520144 301.5207660095755,160.60246635520144 298.68431423248785,158.96484015815645" />
<polyline fill="none" stroke="#000000ff" stroke-width="2" points="298.68431423248785,158.96484015815645 298.68431423248785,158.96484015815645" />
<polyline fill="none" stroke="#000000ff" stroke-width="2" points="310.21215849762746,177.93136617156176 310.21215849762746,177.93136617156176 307.3757067205397,176.29373997451677 304.539254943452,174.65611377747177 301.70280316636433,173.01848758042678 298.8663513892766,171.3808613833818 296.7610597317595,168.8718724870771 294.65576807424225,166.36288359077236 293.53556578098784,163.28515308483463" />
<polyline fill="none" stroke="#000000ff" stroke-width="2" points="293.53556578098784,163.28515308483463 293.53556578098784,163.28515308483463" />
<polyline fill="none" stroke="#000000ff" stroke-width="2" points="294.65576807424225,166.36288359077236 294.65576807424225,166.36288359077236 291.8193162971545,164.72525739372736" />
<polyline fill="none" stroke="#000000ff" stroke-width="2" points="291.8193162971545,164.72525739372736 291.8193162971545,164.72525739372736" />
<polyline fill="none" stroke="#000000ff" stroke-width="2" points="298.8663513892766,171.3808613833818 298.8663513892766,171.3808613833818 295.640857438505,170.81211977374883 292.41536348773343,170.24337816411582 289.57891171064574,168.60575196707086" />
<polyline fill="none" stroke="#000000ff" stroke-width="2" points="289.57891171064574,168.60575196707086 289.57891171064574,168.60575196707086" />
<polyline fill="none" stroke="#000000ff" stroke-width="2" points="292.41536348773343,170.24337816411582 292.41536348773343,170.24337816411582 289.18986953696185,170.81211977374883" />
<polyline fill="none" stroke="#000000ff" stroke-width="2" points="289.18986953696185,170.81211977374883 289.18986953696185,170.81211977374883" />
<polyline fill="none" stroke="#000000ff" stroke-width="2" points="327.05449175776505,198.00327734199956 327.05449175776505,198.00327734199956 323.82899780699347,197.43453573236658 320.6035038562219,196.8657941227336 317.37800990545026,196.2970525131006 314.1525159546787,195.72831090346762 310.9270220039071,195.15956929383464 307.70152805313546,194.59082768420166 304.4760341023639,194.02208607456868 301.2505401515923,193.4533444649357 298.4140883745046,191.8157182678907 295.5776365974169,190.1780920708457 292.74118482032924,188.54046587380074 289.90473304324155,186.90283967675578 287.7994413857243,184.39385078045103 285.69414972820715,181.8848618841463 284.57394743495274,178.8071313782086" />
<polyline fill="none" stroke="#000000ff" stroke-width="2" points="284.57394743495274,178.8071313782086 284.57394743495274,178.8071313782086" />
<polyline fill="none" stroke="#000000ff" stroke-width="2" points="285.69414972820715,181.8848618841463 285.69414972820715,181.8848618841463 282.85769795111946,180.24723568710132" />
<polyline fill="none" stroke="#000000ff" stroke-width="2" points="282.85769795111946,180.24723568710132 282.85769795111946,180.24723568710132" />
<polyline fill="none" stroke="#000000ff" stroke-width="2" points="289.90473304324155,186.90283967675578 289.90473304324155,186.90283967675578 286.67923909246997,186.33409806712277 283.4537451416984,185.7653564574898 280.61729336461065,184.12773026044482" />
<polyline fill="none" stroke="#000000ff" stroke-width="2" points="280.61729336461065,184.12773026044482 280.61729336461065,184.12773026044482" />
<polyline fill="none" stroke="#000000ff" stroke-width="2" points="283.4537451416984,185.7653564574898 283.4537451416984,185.7653564574898 280.2282511909268,186.33409806712277" />
<polyline fill="none" stroke="#000000ff" stroke-width="2" points="280.2282511909268,186.33409806712277 280.2282511909268,186.33409806712277" />
<polyline fill="none" stroke="#000000ff" stroke-width="2" points="301.2505401515923,193.4533444649357 301.2505401515923,193.4533444649357 298.0250462008207,194.02208607456868 294.79955225004915,194.59082768420166 291.57405829927757,195.15956929383464 288.348564348506,195.72831090346762 285.1230703977344,195.15956929383464 281.89757644696283,194.59082768420166 279.0611246698751,192.95320148715666" />
<polyline fill="none" stroke="#000000ff" stroke-width="2" points="279.0611246698751,192.95320148715666 279.0611246698751,192.95320148715666" />
<polyline fill="none" stroke="#000000ff" stroke-width="2" points="281.89757644696283,194.59082768420166 281.89757644696283,194.59082768420166 278.67208249619125,195.15956929383464" />
<polyline fill="none" stroke="#000000ff" stroke-width="2" points="278.67208249619125,195.15956929383464 278.67208249619125,195.15956929383464" />
<polyline fill="none" stroke="#000000ff" stroke-width="2" points="288.348564348506,195.72831090346762 288.348564348506,195.72831090346762 285.51211257141824,197.3659371005126 282.6756607943306,199.0035632975576 279.45016684355903,199.57230490719058" />
<polyline fill="none" stroke="#000000ff" stroke-width="2" points="279.45016684355903,199.57230490719058 279.45016684355903,199.57230490719058" />
<polyline fill="none" stroke="#000000ff" stroke-width="2" points="282.6756607943306,199.0035632975576 282.6756607943306,199.0035632975576 280.5703691368134,201.51255219386232" />
<polyline fill="none" stroke="#000000ff" stroke-width="2" points="280.5703691368134,201.51255219386232 280.5703691368134,201.51255219386232" />
</svg>