<?xml version="1.0" standalone="no"?>
<svg width="1024" height="1024"
xmlns="http://www.w3.org/2000/svg" version="1.1">
<rect x="1" y="1" width="1024" height="1024"
fill="none" stroke="black" stroke-width="1" />
<polyline fill="none" stroke="#000000ff" stroke-width="2" points="716.0999999999999,157.1224047714062 716.0999999999999,157.1224047714062 757.0199999999999,157.1224047714062 736.56,192.5601642942654 777.4799999999999,192.5601642942654 757.02,227.99792381712473 736.56,192.56016429426552 716.0999999999999,227.99792381712473 757.0199999999999,227.99792381712473 736.56,263.4356833399838 777.4799999999999,263.4356833399838 757.02,298.87344286284315 736.56,263.43568333998394 716.0999999999999,298.87344286284315 695.6399999999999,263.43568333998394 736.56,263.43568333998394 716.0999999999999,227.99792381712473 695.6399999999999,263.43568333998394 675.1799999999998,227.99792381712473 654.7199999999999,263.43568333998405 695.6399999999999,263.43568333998405 675.18,298.87344286284315 716.0999999999999,298.87344286284315 695.6399999999999,334.3112023857025 675.1799999999998,298.87344286284315 654.7199999999999,334.3112023857025 695.6399999999999,334.3112023857025 675.18,369.7489619085617 716.0999999999999,369.7489619085617 695.6399999999999,405.18672143142095 675.18,369.7489619085617 654.7199999999999,405.18672143142095 634.2599999999999,369.7489619085617 675.1799999999998,369.7489619085617 654.7199999999999,334.3112023857025 634.2599999999999,369.74896190856174 613.7999999999998,334.3112023857025 593.3399999999999,369.74896190856174 572.8799999999999,334.3112023857025 613.7999999999998,334.3112023857025 593.3399999999998,298.8734428628434 634.2599999999999,298.8734428628434 613.7999999999998,334.3112023857025 654.7199999999999,334.3112023857025 634.2599999999999,298.8734428628434 675.1799999999998,298.8734428628434 654.7199999999998,263.43568333998417 634.2599999999999,298.8734428628434 613.7999999999998,263.43568333998417 593.3399999999998,298.8734428628434 572.8799999999999,263.43568333998417 613.7999999999998,263.43568333998417 593.3399999999998,227.99792381712496 572.8799999999999,263.43568333998417 552.4199999999998,227.99792381712496 531.9599999999998,263.43568333998417 572.8799999999998,263.43568333998417 552.4199999999998,298.8734428628434 593.3399999999998,298.8734428628434 572.8799999999998,334.3112023857027 552.4199999999998,298.8734428628434 531.9599999999998,334.3112023857027 572.8799999999998,334.3112023857027 552.4199999999998,369.7489619085619 593.3399999999998,369.7489619085619 572.8799999999998,405.1867214314212 552.4199999999998,369.74896190856197 531.9599999999998,405.1867214314212 511.4999999999998,369.74896190856197 552.4199999999998,369.74896190856197 531.9599999999998,334.3112023857027 511.4999999999998,369.74896190856197 491.0399999999998,334.3112023857028 470.5799999999998,369.74896190856197 511.4999999999998,369.74896190856197 491.0399999999998,405.18672143142123 531.9599999999998,405.18672143142123 511.4999999999998,440.6244809542805 491.0399999999998,405.1867214314213 470.5799999999998,440.6244809542805 511.4999999999998,440.6244809542805 491.0399999999998,476.0622404771397 531.9599999999998,476.0622404771397 511.4999999999998,511.499999999999 491.0399999999998,476.0622404771398 470.5799999999998,511.499999999999 450.1199999999998,476.0622404771398 491.0399999999998,476.0622404771398 470.5799999999998,440.62448095428056 450.1199999999998,476.0622404771398 429.6599999999998,440.6244809542806 409.1999999999998,476.0622404771398 388.7399999999998,440.6244809542806 429.6599999999998,440.6244809542806 409.1999999999998,405.18672143142135 450.1199999999998,405.18672143142135 429.65999999999985,440.6244809542806 470.5799999999998,440.6244809542806 450.1199999999998,405.18672143142146 491.0399999999998,405.18672143142146 470.5799999999998,369.7489619085622 450.1199999999998,405.18672143142146 429.6599999999998,369.74896190856225 409.1999999999998,405.18672143142146 388.7399999999998,369.74896190856225 429.6599999999998,369.74896190856225 409.1999999999998,334.31120238570304 388.7399999999998,369.74896190856225 368.2799999999998,334.31120238570304 347.8199999999998,369.74896190856225 327.35999999999984,334.31120238570304 368.2799999999998,334.31120238570304 347.8199999999998,298.87344286284383 388.7399999999998,298.87344286284383 368.2799999999998,334.31120238570304 409.1999999999998,334.31120238570304 388.7399999999998,298.87344286284383 429.6599999999998,298.87344286284383 409.1999999999998,263.4356833399846 450.1199999999998,263.4356833399846 429.65999999999985,298.87344286284383 470.5799999999998,298.87344286284383 450.1199999999999,334.31120238570304 429.65999999999985,298.87344286284383 409.19999999999993,334.31120238570304 450.1199999999999,334.31120238570304 429.65999999999997,369.74896190856225 470.5799999999999,369.74896190856225 450.11999999999995,334.31120238570304 491.03999999999996,334.31120238570304 470.5799999999999,298.87344286284394 511.49999999999994,298.87344286284394 491.03999999999996,334.31120238570304 531.96,334.31120238570304 511.49999999999994,298.87344286284394 552.42,298.87344286284394 531.9599999999999,263.4356833399846 511.49999999999994,298.87344286284394 491.03999999999996,263.4356833399846 470.5799999999999,298.87344286284394 450.11999999999995,263.43568333998473 491.03999999999996,263.4356833399846 470.5799999999999,227.9979238171254 450.11999999999995,263.43568333998473 429.65999999999997,227.99792381712552 409.19999999999993,263.43568333998473 388.73999999999995,227.99792381712552 429.65999999999997,227.99792381712552 409.19999999999993,192.5601642942662 450.11999999999995,192.5601642942662 429.65999999999997,227.99792381712552 470.58,227.99792381712552 450.11999999999995,192.5601642942662 491.03999999999996,192.5601642942662 470.5799999999999,157.1224047714071 450.11999999999995,192.5601642942662 429.65999999999997,157.1224047714071 409.19999999999993,192.56016429426643 388.73999999999995,157.1224047714071 429.65999999999997,157.1224047714071 409.19999999999993,121.6846452485479 388.73999999999995,157.1224047714071 368.28,121.6846452485479 347.81999999999994,157.1224047714071 388.73999999999995,157.1224047714071 368.28,192.56016429426643 409.19999999999993,192.56016429426643 388.73999999999995,227.99792381712552 368.28,192.56016429426643 347.81999999999994,227.99792381712564 388.73999999999995,227.99792381712564 368.28,263.43568333998485 409.19999999999993,263.43568333998485 388.73999999999995,298.87344286284406 368.28,263.43568333998485 347.81999999999994,298.87344286284406 327.35999999999996,263.43568333998485 368.28,263.43568333998485 347.81999999999994,227.99792381712575 327.35999999999996,263.43568333998485 306.9,227.99792381712575 286.43999999999994,263.43568333998485 327.35999999999996,263.43568333998485 306.9,298.8734428628442 347.81999999999994,298.8734428628442 327.35999999999996,334.3112023857034 306.9,298.8734428628442 286.43999999999994,334.3112023857034 327.35999999999996,334.3112023857034 306.9,369.74896190856265 347.81999999999994,369.74896190856265 327.35999999999996,405.18672143142186 306.9,369.7489619085627 286.43999999999994,405.18672143142186 265.97999999999996,369.7489619085627 306.9,369.7489619085627 286.43999999999994,334.3112023857035 265.97999999999996,369.7489619085627 245.51999999999998,334.3112023857035 225.05999999999995,369.7489619085627 204.59999999999997,334.3112023857035 245.51999999999998,334.3112023857035 225.05999999999995,298.8734428628443 265.97999999999996,298.8734428628443 245.51999999999998,334.3112023857035 286.43999999999994,334.3112023857035 265.97999999999996,298.8734428628443 306.9,298.8734428628443 286.43999999999994,263.4356833399851 265.97999999999996,298.8734428628443 245.51999999999998,263.4356833399851 225.05999999999995,298.8734428628444 204.59999999999997,263.4356833399851 245.51999999999998,263.4356833399851 225.05999999999995,227.99792381712587 204.59999999999997,263.4356833399851 184.14,227.99792381712587 163.67999999999995,263.4356833399851 204.59999999999997,263.4356833399851 184.14,298.8734428628444 225.05999999999995,298.8734428628444 204.59999999999997,334.3112023857035 184.14,298.8734428628444 163.67999999999995,334.3112023857036 204.59999999999997,334.3112023857036 184.14,369.7489619085629 225.05999999999995,369.7489619085629 204.59999999999997,405.1867214314221 184.14,369.7489619085629 163.67999999999995,405.1867214314221 143.22000000000003,369.7489619085629 184.14,369.7489619085629 163.67999999999995,334.3112023857037 143.22000000000003,369.74896190856293 122.75999999999999,334.3112023857037 102.29999999999995,369.74896190856293 143.22000000000003,369.74896190856293 122.75999999999999,405.1867214314222 163.67999999999995,405.1867214314222 143.22000000000003,440.6244809542814 122.75999999999999,405.1867214314222 102.29999999999995,440.6244809542814 143.22000000000003,440.6244809542814 122.75999999999999,476.0622404771407 163.67999999999995,476.0622404771407 143.22000000000003,440.6244809542814 184.14,440.6244809542814 163.67999999999995,405.1867214314222 204.59999999999997,405.1867214314222 184.14,440.6244809542814 225.05999999999995,440.6244809542814 204.59999999999997,405.1867214314222 245.51999999999998,405.1867214314222 225.05999999999995,369.74896190856293 265.97999999999996,369.74896190856293 245.51999999999998,405.1867214314222 286.43999999999994,405.1867214314222 265.97999999999996,440.6244809542814 245.51999999999998,405.1867214314222 225.05999999999995,440.6244809542814 265.97999999999996,440.6244809542814 245.51999999999998,476.0622404771407 286.43999999999994,476.0622404771407 265.97999999999996,440.6244809542814 306.9,440.6244809542814 286.43999999999994,405.1867214314222 327.35999999999996,405.1867214314222 306.9,440.6244809542814 347.81999999999994,440.6244809542814 327.35999999999996,405.1867214314222 368.28,405.1867214314222 347.81999999999994,369.74896190856293 388.73999999999995,369.74896190856293 368.28,405.1867214314222 409.19999999999993,405.1867214314222 388.73999999999995,440.6244809542814 368.28,405.1867214314222 347.81999999999994,440.6244809542814 388.73999999999995,440.6244809542814 368.28,476.0622404771407 409.19999999999993,476.0622404771407 388.73999999999995,511.49999999999994 368.28,476.06224047714073 347.81999999999994,511.49999999999994 327.35999999999996,476.06224047714073 368.28,476.06224047714073 347.81999999999994,440.6244809542815 327.35999999999996,476.06224047714073 306.9,440.6244809542815 286.43999999999994,476.06224047714073 327.35999999999996,476.06224047714073 306.9,511.5 347.81999999999994,511.5 327.35999999999996,546.9377595228593 306.9,511.5 286.43999999999994,546.9377595228593 327.35999999999996,546.9377595228593 306.9,582.3755190457184 347.81999999999994,582.3755190457184 327.35999999999996,546.9377595228593 368.28,546.9377595228593 347.81999999999994,511.5 388.73999999999995,511.5 368.28,546.9377595228593 409.19999999999993,546.9377595228593 388.73999999999995,511.5 429.65999999999997,511.5 409.19999999999993,476.06224047714073 450.11999999999995,476.06224047714073 429.65999999999997,511.5 470.5799999999999,511.5 450.11999999999995,546.9377595228593 429.65999999999997,511.5 409.19999999999993,546.9377595228593 450.11999999999995,546.9377595228593 429.65999999999997,582.3755190457184 470.5799999999999,582.3755190457184 450.11999999999995,546.9377595228593 491.03999999999996,546.9377595228593 470.5799999999999,511.5 511.49999999999994,511.5 491.03999999999996,546.9377595228593 531.9599999999999,546.9377595228593 511.49999999999994,511.5 552.42,511.5 531.9599999999999,476.06224047714073 572.8799999999999,476.06224047714073 552.42,511.5 593.3399999999999,511.5 572.8799999999999,546.9377595228593 552.42,511.5 531.9599999999999,546.9377595228593 572.8799999999999,546.9377595228593 552.42,582.3755190457184 593.3399999999999,582.3755190457184 572.8799999999999,617.8132785685777 552.42,582.3755190457184 531.9599999999999,617.8132785685777 511.49999999999994,582.3755190457184 552.42,582.3755190457184 531.9599999999999,546.9377595228593 511.49999999999994,582.3755190457186 491.03999999999996,546.9377595228593 470.5799999999999,582.3755190457186 511.49999999999994,582.3755190457186 491.03999999999996,617.8132785685779 531.9599999999999,617.8132785685779 511.49999999999994,653.2510380914371 491.03999999999996,617.8132785685779 470.5799999999999,653.2510380914371 511.49999999999994,653.2510380914371 491.03999999999996,688.6887976142963 531.9599999999999,688.6887976142963 511.49999999999994,724.1265571371556 491.03999999999996,688.6887976142963 470.5799999999999,724.1265571371556 450.11999999999995,688.6887976142963 491.03999999999996,688.6887976142963 470.5799999999999,653.2510380914372 450.11999999999995,688.6887976142964 429.65999999999997,653.2510380914372 409.19999999999993,688.6887976142964 388.73999999999995,653.2510380914372 429.65999999999997,653.2510380914372 409.19999999999993,617.813278568578 450.11999999999995,617.813278568578 429.65999999999997,653.2510380914372 470.58,653.2510380914372 450.11999999999995,617.813278568578 491.03999999999996,617.813278568578 470.5799999999999,582.3755190457188 450.11999999999995,617.813278568578 429.65999999999997,582.3755190457188 409.19999999999993,617.813278568578 388.73999999999995,582.3755190457188 429.65999999999997,582.3755190457188 409.19999999999993,546.9377595228596 388.73999999999995,582.3755190457189 368.28,546.9377595228596 347.81999999999994,582.3755190457189 388.73999999999995,582.3755190457189 368.28,617.8132785685781 409.19999999999993,617.8132785685781 388.73999999999995,653.2510380914373 368.28,617.8132785685781 347.81999999999994,653.2510380914373 388.73999999999995,653.2510380914373 368.28,688.6887976142966 409.19999999999993,688.6887976142966 388.73999999999995,724.1265571371558 368.28,688.6887976142966 347.81999999999994,724.1265571371558 327.35999999999996,688.6887976142966 368.28,688.6887976142966 347.81999999999994,653.2510380914374 327.35999999999996,688.6887976142966 306.9,653.2510380914374 286.43999999999994,688.6887976142966 327.35999999999996,688.6887976142966 306.9,724.1265571371559 347.81999999999994,724.1265571371559 327.35999999999996,759.5643166600152 306.9,724.1265571371559 286.43999999999994,759.5643166600152 327.35999999999996,759.5643166600152 306.9,795.0020761828745 347.81999999999994,795.0020761828745 327.35999999999996,759.5643166600152 368.28,759.5643166600152 347.81999999999994,724.1265571371559 388.73999999999995,724.1265571371559 368.28,759.5643166600152 409.19999999999993,759.5643166600152 388.73999999999995,724.1265571371559 429.65999999999997,724.1265571371559 409.19999999999993,688.6887976142966 450.11999999999995,688.6887976142966 429.65999999999997,724.1265571371559 470.5799999999999,724.1265571371559 450.11999999999995,759.5643166600152 429.65999999999997,724.1265571371559 409.19999999999993,759.5643166600152 450.11999999999995,759.5643166600152 429.65999999999997,795.0020761828745 470.5799999999999,795.0020761828745 450.11999999999995,759.5643166600152 491.03999999999996,759.5643166600152 470.5799999999999,724.1265571371559 511.49999999999994,724.1265571371559 491.03999999999996,759.5643166600152 531.9599999999999,759.5643166600152 511.49999999999994,724.1265571371559 552.42,724.1265571371559 531.9599999999999,688.6887976142966 572.8799999999999,688.6887976142966 552.42,724.1265571371559 593.3399999999999,724.1265571371559 572.8799999999999,759.5643166600152 552.42,724.1265571371559 531.9599999999999,759.5643166600152 572.8799999999999,759.5643166600152 552.42,795.0020761828745 593.3399999999999,795.0020761828745 572.8799999999999,830.4398357057336 552.42,795.0020761828745 531.9599999999999,830.4398357057336 511.49999999999994,795.0020761828745 552.42,795.0020761828745 531.9599999999999,759.5643166600153 511.49999999999994,795.0020761828746 491.03999999999996,759.5643166600153 470.5799999999999,795.0020761828746 511.49999999999994,795.0020761828746 491.03999999999996,830.4398357057338 531.9599999999999,830.4398357057338 511.49999999999994,865.8775952285929 491.03999999999996,830.4398357057338 470.5799999999999,865.8775952285929 511.49999999999994,865.8775952285929 491.03999999999996,901.3153547514521 531.9599999999999,901.3153547514521 511.49999999999994,865.8775952285929 552.42,865.8775952285929 531.9599999999999,830.4398357057338 572.8799999999999,830.4398357057338 552.42,865.8775952285929 593.3399999999999,865.8775952285929 572.8799999999999,830.4398357057338 613.8,830.4398357057338 593.3399999999999,795.0020761828746 634.2599999999999,795.0020761828746 613.8,830.4398357057338 654.7199999999999,830.4398357057338 634.26,865.8775952285929 613.8,830.4398357057338 593.3399999999999,865.8775952285929 634.2599999999999,865.8775952285929 613.8,901.3153547514521 654.7199999999999,901.3153547514521 634.26,865.8775952285929 675.18,865.8775952285929 654.7199999999999,830.4398357057338 695.6399999999999,830.4398357057338 675.18,865.8775952285929 716.0999999999999,865.8775952285929 695.64,830.4398357057338 736.56,830.4398357057338 716.0999999999999,795.0020761828746 695.64,830.4398357057338 675.18,795.0020761828746 654.7199999999999,830.4398357057338 634.26,795.0020761828746 675.18,795.0020761828746 654.7199999999999,759.5643166600153 634.26,795.0020761828745 613.8,759.5643166600152 593.3399999999999,795.0020761828745 572.88,759.5643166600152 613.8,759.5643166600152 593.3399999999999,724.1265571371559 634.26,724.1265571371559 613.8,759.5643166600152 654.7199999999999,759.5643166600152 634.26,724.1265571371559 675.18,724.1265571371559 654.72,688.6887976142966 634.26,724.1265571371559 613.8,688.6887976142966 593.3399999999999,724.1265571371559 572.88,688.6887976142966 613.8,688.6887976142966 593.3399999999999,653.2510380914374 572.8799999999999,688.6887976142966 552.42,653.2510380914373 531.9599999999999,688.6887976142966 511.49999999999994,653.2510380914373 552.42,653.2510380914373 531.9599999999999,617.8132785685781 572.8799999999999,617.8132785685781 552.42,653.2510380914373 593.3399999999999,653.2510380914373 572.8799999999999,617.8132785685781 613.8,617.8132785685781 593.3399999999999,582.3755190457189 634.2599999999999,582.3755190457189 613.8,617.8132785685781 654.7199999999999,617.8132785685781 634.26,653.2510380914373 613.8,617.8132785685781 593.3399999999999,653.2510380914373 634.2599999999999,653.2510380914373 613.8,688.6887976142966 654.7199999999999,688.6887976142966 634.26,653.2510380914373 675.18,653.2510380914373 654.7199999999999,617.8132785685781 695.6399999999999,617.8132785685781 675.18,653.2510380914373 716.0999999999999,653.2510380914373 695.64,617.8132785685781 736.56,617.8132785685781 716.0999999999999,582.3755190457189 695.64,617.8132785685781 675.18,582.3755190457189 654.7199999999999,617.8132785685781 634.26,582.3755190457189 675.18,582.3755190457189 654.7199999999999,546.9377595228596 634.26,582.3755190457188 613.8,546.9377595228596 593.3399999999999,582.3755190457188 572.88,546.9377595228596 613.8,546.9377595228596 593.3399999999999,511.5000000000003 634.26,511.5000000000003 613.8,546.9377595228596 654.7199999999999,546.9377595228596 634.26,511.5000000000003 675.18,511.5000000000003 654.72,476.062240477141 634.26,511.5000000000003 613.8,476.062240477141 593.3399999999999,511.5000000000003 572.88,476.062240477141 613.8,476.062240477141 593.3399999999999,440.6244809542818 572.8799999999999,476.062240477141 552.42,440.6244809542818 531.9599999999999,476.062240477141 511.49999999999994,440.6244809542818 552.42,440.6244809542818 531.9599999999999,405.18672143142254 572.8799999999999,405.18672143142254 552.42,440.6244809542818 593.3399999999999,440.6244809542818 572.8799999999999,405.18672143142254 613.8,405.18672143142254 593.3399999999999,369.7489619085633 634.2599999999999,369.7489619085633 613.8,405.18672143142254 654.7199999999999,405.18672143142254 634.26,440.6244809542818 613.8,405.1867214314226 593.3399999999999,440.6244809542818 634.2599999999999,440.6244809542818 613.8,476.062240477141 654.7199999999999,476.062240477141 634.26,440.6244809542818 675.18,440.6244809542818 654.7199999999999,405.18672143142254 695.6399999999999,405.18672143142254 675.18,440.6244809542818 716.0999999999999,440.6244809542818 695.64,405.18672143142254 736.56,405.18672143142254 716.0999999999999,369.7489619085633 757.02,369.7489619085633 736.56,405.18672143142254 777.4799999999999,405.18672143142254 757.02,440.6244809542818 736.56,405.1867214314226 716.0999999999999,440.6244809542818 757.02,440.6244809542818 736.56,476.062240477141 777.48,476.062240477141 757.02,511.5000000000003 736.56,476.06224047714113 716.1,511.5000000000003 695.64,476.06224047714113 736.56,476.06224047714113 716.0999999999999,440.62448095428186 695.64,476.06224047714113 675.18,440.6244809542819 654.7199999999999,476.06224047714113 695.64,476.06224047714113 675.18,511.50000000000034 716.0999999999999,511.50000000000034 695.64,546.9377595228596 675.18,511.50000000000045 654.7199999999999,546.9377595228597 695.64,546.9377595228597 675.18,582.3755190457189 716.0999999999999,582.3755190457189 695.64,546.9377595228597 736.56,546.9377595228597 716.1,511.50000000000045 757.02,511.50000000000045 736.56,546.9377595228597 777.48,546.9377595228597 757.02,511.50000000000045 797.9399999999999,511.50000000000045 777.48,476.0622404771412 818.4,476.0622404771412 797.9399999999999,511.50000000000045 838.86,511.50000000000045 818.4,546.9377595228597 797.9399999999999,511.50000000000045 777.48,546.9377595228597 818.4,546.9377595228597 797.9399999999999,582.3755190457189 838.86,582.3755190457189 818.4,546.9377595228597 859.3199999999999,546.9377595228597 838.86,511.50000000000045 879.78,511.50000000000045 859.3199999999999,546.9377595228597 900.24,546.9377595228597 879.78,511.50000000000045 920.6999999999999,511.50000000000045 900.24,476.0622404771412 879.78,511.50000000000045 859.3199999999999,476.0622404771412 838.8599999999999,511.50000000000045 818.4,476.0622404771412 859.3199999999999,476.0622404771412 838.86,440.6244809542819 818.4,476.0622404771412 797.9399999999999,440.6244809542819 777.4799999999999,476.0622404771412 757.02,440.6244809542819 797.9399999999999,440.6244809542819 777.48,405.1867214314227 818.4,405.1867214314227 797.9399999999999,440.6244809542819 838.86,440.6244809542819 818.4,405.1867214314227 859.3199999999999,405.1867214314227 838.86,369.74896190856344 818.4,405.1867214314226 797.9399999999999,369.74896190856344 777.4799999999999,405.1867214314226 757.02,369.74896190856344 797.9399999999999,369.74896190856344 777.48,334.3112023857042 757.02,369.74896190856344 736.56,334.3112023857042 716.0999999999999,369.74896190856344 695.64,334.3112023857042 736.56,334.3112023857042 716.1,298.87344286284497 757.02,298.87344286284497 736.56,334.3112023857042 777.48,334.3112023857042 757.02,298.87344286284497 797.9399999999999,298.87344286284497 777.48,263.43568333998576 818.4,263.43568333998576 797.94,298.87344286284497 838.86,298.87344286284497 818.4,334.3112023857042 797.9399999999999,298.87344286284497 777.48,334.3112023857042 818.4,334.3112023857042 797.94,369.74896190856344 838.86,369.74896190856344 818.4,334.3112023857042 859.3199999999999,334.3112023857042 838.86,298.87344286284497 879.78,298.87344286284497 859.3199999999999,334.3112023857042 900.24,334.3112023857042 879.78,298.87344286284497 920.7,298.87344286284497 900.24,263.43568333998576 879.78,298.87344286284497 859.3199999999999,263.43568333998576 838.8599999999999,298.87344286284497 818.4,263.43568333998564 859.3199999999999,263.43568333998564 838.86,227.99792381712643 818.4,263.43568333998564 797.9399999999999,227.99792381712643 777.4799999999999,263.43568333998564 757.02,227.99792381712643 797.9399999999999,227.99792381712643 777.48,192.56016429426722 818.4,192.56016429426722 797.9399999999999,227.99792381712643 838.86,227.99792381712643 818.4,192.56016429426722 859.3199999999999,192.56016429426722 838.86,157.1224047714079 818.4,192.5601642942671 797.9399999999999,157.1224047714079 777.4799999999999,192.5601642942671 757.02,157.1224047714079 797.9399999999999,157.1224047714079 777.48,121.6846452485488 757.02,157.1224047714079 736.56,121.68464524854858 716.0999999999999,157.1224047714079" />
</svg>